<?xml version="1.0"?>
<svg xmlns="http://www.w3.org/2000/svg" version="1.2" baseProfile="tiny" width="800" height="1350" viewBox="0 0 800 1350" stroke-linecap="round" stroke-linejoin="round">
<g id="Azad_Kash">
<path d="M 169.46 607.99 175.53 600.41 181.06 602.93 196.65 600.41 214.76 600.41 226.33 603.93 235.38 599.91 246.95 600.92 259.03 609.47 260.53 624.56 262.04 632.1 272.61 637.64 282.16 635.62 296.4 636.08 305.75 641.18 314.49 638.12 315.77 638.43 316.41 644.44 314.67 647.27 314.45 650.1 316.41 654.02 323.38 656.2 326.43 657.73 331.01 656.42 337.11 656.2 340.6 658.82 343.65 660.34 340.16 663.17 337.33 667.1 334.71 671.02 332.32 673.63 330.14 679.08 329.48 687.79 329.05 693.89 329.04 693.92 321.4 692.97 312.34 700.01 304.8 709.57 299.41 709.88 296.25 710.07 291.72 706.55 283.67 701.52 278.14 705.04 266.57 704.03 254.5 701.02 246.95 703.03 243.94 714.09 235.89 716.11 224.82 718.62 220.29 712.59 213.25 711.08 200.68 708.06 193.13 701.02 195.65 695.48 183.57 696.99 176.53 689.95 169.49 681.4 159.43 673.85 158.93 667.82 155.76 665.7 151.38 662.79 138.81 660.27 128.24 664.3 123.72 673.85 118.18 685.42 107.47 699.06 98.15 692.75 84.62 674.72 83.67 673.45 79.49 662.52 78.53 654.15 69.84 647.4 72.74 640.32 65.52 637.01 65.08 636.81 65.02 636.78 65.2 635.96 67.27 626.49 65.02 613.62 61.75 609.66 60.51 608.15 60.51 603.21 60.51 596.57 59.61 588.44 60.34 588.34 70.4 583.31 77.44 572.75 84.99 572.75 81.97 588.84 101.08 590.86 111.14 604.94 126.23 611.98 128.75 602.42 133.27 599.91 134.28 609.97 142.83 611.98 156.41 613.49 167.48 610.47 169.46 607.99 Z"/>
<path d="M 348.5 1077.92 347.25 1078.96 348.13 1094.25 350.19 1095.02 373.9 1103.86 385.7 1108.23 395.42 1116.08 397.06 1117.41 400.36 1118.51 407.54 1120.9 420.65 1125.71 426.33 1128.33 434.63 1143.62 437.69 1145.37 438.24 1150.31 438.56 1153.23 447.22 1163.13 447.74 1163.72 447.6 1163.93 442.5 1172.02 452.14 1173.95 453.42 1174.2 459.1 1175.95 465.65 1177.26 486.62 1188.18 487.51 1188.91 491.43 1192.12 496.23 1192.12 505.84 1196.92 509.15 1198.99 512.83 1201.29 527.25 1200.42 532.49 1225.76 536.44 1239.95 536.86 1241.49 532.49 1249.79 526.38 1257.65 525.6 1263.1 525.5 1263.77 526.88 1263.96 538.17 1265.52 554.34 1264.2 562.24 1268.56 567.01 1271.2 576.18 1275.56 579.24 1282.12 579.24 1292.6 581.43 1302.22 593.66 1315.32 597.15 1327.12 593.08 1335.63 592.35 1337.17 593.48 1337.13 588.12 1339.99 583.89 1342.24 575.2 1346.75 564.59 1349 554.94 1347.71 548.21 1344.19 548.18 1344.17 541.75 1339.03 540.14 1334.2 537.57 1324.87 533.46 1323.7 528.56 1322.3 522.6 1319.64 510.54 1314.26 501.58 1309.84 496.82 1307.49 486.42 1302.36 478.03 1298.66 464.54 1292.7 458.1 1289.55 448.98 1285.08 448.78 1284.98 448.59 1284.94 441.7 1283.38 439.86 1281.8 437.2 1279.51 427.07 1275.39 409.54 1268.26 396.03 1260.86 386.05 1256.35 381.4 1256.23 373.51 1256.03 363.53 1251.6 363.01 1251.36 359.03 1249.6 343.91 1242.52 334.26 1235.44 319.79 1216.79 318.27 1214.52 315.86 1210.9 315.25 1209.97 313.67 1207.6 312.07 1205.2 301.13 1197.16 288.91 1194.27 283.92 1195.12 279.37 1195.89 276.69 1196.35 273.79 1196.84 273.72 1196.87 261.88 1201.99 260.99 1202.43 261.04 1202.02 261.68 1200.97 269.09 1188.94 277.13 1174.86 269.59 1171.34 262.55 1159.77 267.07 1150.71 279.65 1142.66 275.62 1131.09 281.66 1127.57 295.75 1119.02 295.75 1112.89 295.75 1111.48 291.72 1101.42 294.24 1093.37 289.93 1088.59 290.21 1088.34 300.27 1081.3 308.82 1074.25 313.85 1068.72 321.4 1072.24 321.9 1078.78 328.94 1079.79 331.46 1083.31 334.48 1080.79 339 1075.26 348.5 1077.92 Z"/>
<path d="M 296.4 636.08 282.16 635.62 272.61 637.64 262.04 632.1 260.53 624.56 259.03 609.47 246.95 600.92 235.38 599.91 226.33 603.93 214.76 600.41 196.65 600.41 181.06 602.93 175.53 600.41 169.46 607.99 169.73 600.95 168.53 594.94 159.82 588.64 157.41 584.43 152.31 578.73 152.01 575.12 149 570.01 143.9 564.61 142.7 560.1 142.7 556.5 142.7 553.19 138.49 544.78 135.79 538.18 132.78 532.17 133.09 526.16 137.89 525.56 139.99 527.96 146.6 531.57 150.51 532.77 154.41 532.17 158.92 533.67 159.82 533.67 163.72 531.27 166.12 529.47 169.73 527.96 173.63 526.46 177.84 525.86 182.04 524.06 185.35 517.75 192.56 511.74 197.96 508.14 202.47 506.04 202.47 502.73 204.87 499.13 207.27 495.52 208.47 491.02 209.68 486.81 204.87 484.11 201.87 479.3 201.87 475.4 201.87 468.49 202.17 461.88 202.77 457.98 205.47 452.57 206 452.2 212.69 455.06 224.05 455.94 231.04 453.75 234.54 450.26 240.21 452.88 238.9 457.25 254.63 459.43 261.19 462.49 270.36 454.63 278.22 456.81 290.02 452 295.92 451.06 300.94 450.26 307.06 454.19 308.37 458.12 307.5 464.67 309.68 467.73 313.18 470.35 314.92 476.47 312.74 478.86 310.12 481.71 312.3 487.83 321.91 489.14 322.63 489.22 341.14 491.33 343.76 504.87 344.63 544.63 323.22 549.43 321.91 553.8 328.03 557.3 321.91 559.48 315.8 567.35 304 573.03 304.87 585.26 290.02 587.88 292.64 599.24 286.53 612.78 289.15 619.77 299.19 623.27 302.99 629.23 305.31 632.88 296.14 635.94 296.4 636.08 Z"/>
<path d="M 372.19 753.82 357.11 737.74 343.53 723.65 342.02 711.08 333.47 694.48 329.04 693.92 329.05 693.89 329.48 687.79 330.14 679.08 332.32 673.63 334.71 671.02 337.33 667.1 340.16 663.17 343.65 660.34 340.6 658.82 337.11 656.2 331.01 656.42 326.43 657.73 323.38 656.2 316.41 654.02 314.45 650.1 314.67 647.27 316.41 644.44 315.77 638.43 323.66 640.31 334.58 640.31 343.76 638.56 346.66 634.5 350.31 629.39 352.5 626.33 362.54 630.7 388.76 624.58 397.7 624.58 409.73 624.58 435.21 625.33 439.44 625.45 446.43 632.88 457.35 633.76 455.6 647.3 469.58 647.74 487.21 646.17 489.24 645.99 496.23 653.42 495.36 659.97 500.6 661.72 500.6 668.27 499.73 673.08 505.41 677.01 504.97 682.69 502.79 687.93 502.79 697.54 504.97 702.79 499.29 709.34 483.56 715.02 466.96 729 450.36 736.43 433.76 741.67 431.43 741.76 421.96 742.11 415.15 745.66 411.91 747.35 400.14 746.14 394.87 745.6 376.09 745.17 372.19 753.82 Z"/>
<path d="M 288.89 875.17 289.21 876.57 303.29 871.54 313.85 867.51 320.9 866.01 325.92 870.03 334.48 870.03 341.02 874.05 352.38 877.18 360.16 879.32 362.98 882.79 363.85 886.28 367.35 888.91 373.03 888.47 377.84 885.85 385.7 884.54 391.82 883.23 396.18 887.16 398.61 887.97 405.36 890.22 416.72 896.33 427.2 901.14 432.01 908.57 436.38 916.43 436.38 929.97 445.99 935.22 450.36 947.89 450.8 960.99 447.3 967.55 447.3 978.91 447.3 980.39 447.3 984.15 455.17 984.15 454.73 991.14 452.98 996.38 451.23 1000.75 446.43 1006 445.12 1012.55 440.31 1020.41 433.76 1031.34 424.32 1037.34 424.15 1037.45 415.84 1045.32 410.6 1045.75 398.81 1054.49 387.88 1055.37 371.28 1056.68 362.11 1064.1 355.55 1065.85 355.35 1068.89 355.12 1072.4 350.45 1076.29 348.5 1077.92 339 1075.26 334.48 1080.79 331.46 1083.31 328.94 1079.79 321.9 1078.78 321.4 1072.24 313.85 1068.72 308.82 1074.25 300.27 1081.3 290.21 1088.34 289.93 1088.59 285.18 1083.31 262.55 1066.71 235.38 1041.56 214.26 1024.45 214.26 1011.65 214.26 1011.38 205.2 1005.34 208.56 987.32 209.23 983.71 192.13 968.62 171 955.04 159.43 955.54 152.89 951.01 144.34 955.54 132.64 956.03 130.32 948.18 122.27 936.59 122.4 933.08 122.6 927.27 127.42 920.51 130.58 918.32 131.6 917.61 132.85 917.37 134.82 916.97 134.5 909.25 130.32 906.36 130.64 897.99 131.92 893.49 128.06 887.38 120.34 878.05 116.81 871.61 111.98 867.11 103.94 861.64 99.76 857.78 101 852.65 101.79 849.43 102.65 845.88 102.65 837.19 106.51 833.65 113.27 829.15 113.66 827.77 124.72 836.83 132.77 846.89 157.92 858.46 171 866.01 188.1 882.1 195.65 885.62 201.18 876.07 201.18 867.01 209.73 867.51 219.79 871.03 229.85 867.01 241.42 873.05 254 879.59 263.05 882.1 274.12 879.59 278.64 874.56 283.67 879.59 283.74 879.53 288.89 875.17 Z"/>
<path d="M 289.93 1088.59 294.24 1093.37 291.72 1101.42 295.75 1111.48 295.75 1112.89 295.75 1119.02 281.66 1127.57 275.62 1131.09 279.65 1142.66 267.07 1150.71 262.55 1159.77 269.59 1171.34 277.13 1174.86 269.09 1188.94 261.68 1200.97 261.04 1202.02 260.99 1202.43 246.44 1209.71 239.93 1210.52 238.72 1210.67 226.82 1208.1 226.67 1208.05 219.79 1205.83 215.88 1204.56 214.73 1203.29 214.65 1203.2 209.45 1197.48 203.98 1189.44 200.38 1186.06 198.84 1184.62 189.51 1180.11 187.77 1179.66 173.42 1175.93 170.33 1175.18 170.24 1175.16 161.52 1173.04 158.02 1172.53 146.08 1170.78 142.56 1168.4 135.14 1163.39 130.25 1153.33 129.35 1151.48 129.99 1141.51 133.54 1139.6 137.11 1137.68 137.22 1137.62 138.36 1137.01 138.51 1136.96 148.01 1133.79 155.73 1129.93 156.37 1123.82 155.73 1096.47 155.24 1095.89 153.91 1094.29 153.59 1093.91 150.9 1090.68 147.22 1090.26 144.05 1089.89 143.93 1089.88 142.54 1089.72 141.25 1083.28 131.28 1079.1 129.76 1071.3 128.71 1065.91 123.88 1057.87 126.13 1052.08 121.95 1045.33 120.76 1042.39 119.38 1038.98 117.77 1035.03 120.34 1026.02 119.28 1025.29 115.2 1022.49 109.41 1022.16 103.94 1012.83 102.01 1001.9 105.87 987.42 111.34 981.31 111.7 980.51 113.15 977.25 116.81 969.09 124.64 961.57 124.85 961.36 129.02 959.03 132.89 956.86 132.64 956.03 144.34 955.54 152.89 951.01 159.43 955.54 171 955.04 192.13 968.62 209.23 983.71 208.56 987.32 205.2 1005.34 214.26 1011.38 214.26 1011.65 214.26 1024.45 235.38 1041.56 262.55 1066.71 285.18 1083.31 289.93 1088.59 Z"/>
<path d="M 147.17 327.39 152.89 338.84 168.99 344.38 183.57 347.4 198.67 346.89 211.24 354.44 206.71 370.53 199.67 377.07 194.14 384.62 200.17 393.67 196.65 401.72 202.69 412.79 196.65 424.36 198.16 432.41 205.78 432.41 203.08 435.4 205.26 443.7 203.52 451.13 206 452.2 205.47 452.57 202.77 457.98 202.17 461.88 201.87 468.49 201.87 475.4 201.87 479.3 204.87 484.11 209.68 486.81 208.47 491.02 207.27 495.52 204.87 499.13 202.47 502.73 202.47 506.04 197.96 508.14 192.56 511.74 185.35 517.75 182.04 524.06 177.84 525.86 173.63 526.46 169.73 527.96 166.12 529.47 163.72 531.27 159.82 533.67 158.92 533.67 154.41 532.17 150.51 532.77 146.6 531.57 139.99 527.96 137.89 525.56 133.09 526.16 132.78 532.17 135.79 538.18 138.49 544.78 142.7 553.19 142.7 556.5 142.7 560.1 143.9 564.61 149 570.01 152.01 575.12 152.31 578.73 157.41 584.43 159.82 588.64 168.53 594.94 169.73 600.95 169.46 607.99 167.48 610.47 156.41 613.49 142.83 611.98 134.28 609.97 133.27 599.91 128.75 602.42 126.23 611.98 111.14 604.94 101.08 590.86 81.97 588.84 84.99 572.75 77.44 572.75 70.4 583.31 60.34 588.34 59.61 588.44 59.55 587.88 56.01 570.51 56.01 540.92 58.26 529.34 53.43 517.11 43.78 501.67 49.57 494.59 52.15 488.48 47.64 481.73 47 485.91 41.53 488.16 37.35 483.66 31.24 476.58 29.95 464.68 24.8 461.78 11.29 446.66 3.57 438.94 2.63 436.47 1 432.19 9.04 428 13.87 420.61 17.73 410.31 20.62 399.7 18.37 380.39 22.23 374.28 26.09 365.92 27.06 359.81 23.59 351.02 22.23 347.58 23.76 346.47 29.31 342.44 29.63 329.25 31.2 325.7 32.2 323.46 39.28 320.24 44.11 320.24 45.9 321.5 47.32 322.49 49.79 321.52 56.33 318.95 63.73 321.53 64.18 321.61 72.09 323.13 80.13 322.17 86.57 318.31 88.09 316.46 91.07 312.84 95.25 311.87 98.93 313.92 101.04 315.09 110.37 314.45 110.85 314.45 119.06 314.45 125.81 316.06 131.6 318.95 136.41 326.01 136.43 326.03 140.93 327.96 147.17 327.39 Z"/>
<path d="M 205.78 432.41 198.16 432.41 196.65 424.36 202.69 412.79 196.65 401.72 200.17 393.67 194.14 384.62 199.67 377.07 206.71 370.53 211.24 354.44 198.67 346.89 183.57 347.4 168.99 344.38 152.89 338.84 147.17 327.39 148.01 327.32 151.87 322.17 153.16 317.34 151.23 309.62 149.3 306.41 168.92 283.57 172.46 278.74 164.74 274.24 157.93 272.19 151.87 270.38 152.51 266.19 154.22 263.69 157.34 259.12 165.06 253.65 164.41 245.93 170.53 241.43 174.71 238.21 181.46 228.56 181.46 223.73 185.97 222.45 188.54 218.26 188.54 212.47 197.55 207.33 201.41 205.4 216.85 195.1 226.82 197.68 230.36 195.42 247.09 197.03 250.95 190.92 251.27 184.16 259.63 183.84 264.14 185.45 266.71 187.06 269.93 184.16 279.25 183.84 285.37 180.95 302.09 185.77 305.95 182.23 305.95 174.19 312.39 172.26 325.25 171.94 327.19 163.58 329.96 156.5 330.72 154.57 332.27 154.67 340.37 155.21 345.52 152.64 347.77 149.74 355.81 150.07 359.67 148.14 369 140.74 366.11 135.59 365.47 127.23 370.93 122.72 379.94 117.9 384.12 113.71 381.55 103.1 377.69 88.62 378.01 84.76 382.84 80.26 386.37 79.62 393.13 78.97 398.6 78.01 404.07 72.54 406.64 68.36 404.71 63.53 397.63 60.31 390.56 57.1 387.02 51.31 389.59 42.62 393.13 31.36 397.31 26.54 410.82 20.75 416.52 18.47 416.41 18.92 424.19 21.96 429.26 28.73 439.75 33.46 451.58 30.08 463.08 30.08 470.51 32.11 472.21 39.21 479.31 48.68 481.67 52.4 489.79 55.78 495.87 54.43 503.99 52.06 510.08 42.93 514.81 40.9 523.26 40.56 532.73 42.59 542.2 45.97 549.97 45.63 555.05 42.25 562.49 34.14 575.33 23.66 582.1 17.57 586.15 16.89 588.52 8.44 593.08 3.88 595.96 1 602.72 3.37 607.12 16.89 613.88 15.54 620.64 14.86 633.49 20.61 637.21 30.42 641.27 34.81 649.72 39.55 651.41 47.66 648.37 51.04 647.69 58.15 650.4 63.56 656.82 66.6 662.91 73.02 667.31 71.67 669.67 67.95 672.72 70.99 673.73 74.71 678.46 79.11 673.05 84.52 670.69 83.84 671.03 92.97 667.64 95.68 667.31 101.43 665.62 103.46 665.62 107.85 669.33 112.25 666.97 121.71 670.01 127.13 667.98 131.52 667.98 137.27 673.05 136.93 675.76 132.87 680.83 130.84 684.21 129.15 688.95 128.82 695.37 129.49 704.5 133.21 710.92 137.27 717.35 136.93 722.08 135.24 724.79 141.33 729.52 143.69 732.56 150.79 738.99 153.16 741.02 152.82 743.38 161.62 747.78 163.31 752.18 159.92 756.23 160.6 756.91 163.98 757.59 170.41 761.98 173.11 771.79 179.2 774.49 183.93 776.18 188.67 777.54 199.15 782.61 207.26 784.97 213.69 790.72 217.75 798.14 217.1 799 225.25 794.63 230.93 781.09 234.43 758.37 240.98 743.08 240.11 726.48 244.48 718.78 243.75 712.5 243.17 701.14 235.3 687.16 226.13 687.16 219.22 687.16 218.26 685 217.64 670.55 213.46 662.32 206.66 660.51 205.15 651.33 204.28 649.52 205.73 642.59 211.27 630.8 209.09 615.94 204.72 613.32 209.09 607.64 204.72 602.84 202.53 595.41 203.84 591.04 206.9 581.86 203.41 567.01 199.48 553.9 199.04 536.86 199.04 527.69 202.53 532.06 216.51 532.93 223.07 529.87 232.68 530.75 240.54 529.44 248.84 526.82 254.09 515.89 252.78 511.53 251.03 503.66 256.71 502.79 265.45 502.35 276.81 505.85 282.92 502.35 285.98 492.3 283.8 484 283.8 479.63 285.11 473.08 285.98 468.27 285.11 463.47 282.05 459.53 289.91 452.54 297.78 450.36 303.89 440.31 303.46 429.83 307.83 422.84 310.01 417.16 317.44 413.22 317.88 406.67 313.07 400.99 309.57 386.57 316.56 380.46 310.01 369.97 323.56 361.23 324.87 348.56 324.87 341.57 327.92 338.95 333.6 337.2 338.85 319.29 342.34 305.75 346.71 292.21 356.32 284.19 362.88 282.59 364.19 282.32 367.05 281.72 373.36 279.97 380.79 280.85 385.6 277.79 387.78 272.98 392.59 266.43 398.27 258.13 401.76 245.46 402.63 234.54 404.82 230.17 411.81 220.12 417.93 212.27 425.4 210.94 426.66 205.78 432.41 Z"/>
<path d="M 329.04 693.92 333.47 694.48 342.02 711.08 343.53 723.65 357.11 737.74 372.19 753.82 372.16 753.9 367.79 758.71 359.05 766.14 348.54 777.04 347.25 778.37 349.87 782.74 349.84 783 349 789.73 344.63 798.03 338.52 802.4 334.58 808.95 331.09 808.95 330.65 814.63 337.64 822.06 342.88 829.05 344.19 839.54 342.88 851.77 344.63 860.94 352.06 867.94 357.3 875.8 360.16 879.32 352.38 877.18 341.02 874.05 334.48 870.03 325.92 870.03 320.9 866.01 313.85 867.51 303.29 871.54 289.21 876.57 288.89 875.17 286.69 865.5 294.74 863.99 298.26 857.45 301.28 848.9 309.83 846.89 321.9 842.36 309.83 831.8 300.27 821.24 286.69 817.72 277.13 820.73 277.13 807.66 278.64 798.6 275.12 788.54 243.94 796.59 239.41 788.54 226.17 780.2 225.83 779.99 209.73 771.94 197.66 757.35 190.62 756.85 171.5 757.35 156.92 744.78 150.38 744.78 141.32 745.28 135.79 751.32 127.74 745.78 119.19 750.81 101.08 750.81 100.6 750.78 101.04 749.37 106.83 734.25 111.34 725.57 111.98 716.56 112.62 709.16 109.09 700.15 107.47 699.06 118.18 685.42 123.72 673.85 128.24 664.3 138.81 660.27 151.38 662.79 155.76 665.7 158.93 667.82 159.43 673.85 169.49 681.4 176.53 689.95 183.57 696.99 195.65 695.48 193.13 701.02 200.68 708.06 213.25 711.08 220.29 712.59 224.82 718.62 235.89 716.11 243.94 714.09 246.95 703.03 254.5 701.02 266.57 704.03 278.14 705.04 283.67 701.52 291.72 706.55 296.25 710.07 299.41 709.88 304.8 709.57 312.34 700.01 321.4 692.97 329.04 693.92 Z"/>
<path d="M 288.89 875.17 283.74 879.53 283.67 879.59 278.64 874.56 274.12 879.59 263.05 882.1 254 879.59 241.42 873.05 229.85 867.01 219.79 871.03 209.73 867.51 201.18 867.01 201.18 876.07 195.65 885.62 188.1 882.1 171 866.01 157.92 858.46 132.77 846.89 124.72 836.83 113.66 827.77 116.16 818.86 116.48 804.7 114.88 795.69 107.8 783.79 106.49 781.63 99.44 769.96 96.86 762.56 100.6 750.78 101.08 750.81 119.19 750.81 127.74 745.78 135.79 751.32 141.32 745.28 150.38 744.78 156.92 744.78 171.5 757.35 190.62 756.85 197.66 757.35 209.73 771.94 225.83 779.99 226.17 780.2 239.41 788.54 243.94 796.59 275.12 788.54 278.64 798.6 277.13 807.66 277.13 820.73 286.69 817.72 300.27 821.24 309.83 831.8 321.9 842.36 309.83 846.89 301.28 848.9 298.26 857.45 294.74 863.99 286.69 865.5 288.89 875.17 Z"/>
</g>
</svg>