<?xml version="1.0"?>
<svg xmlns="http://www.w3.org/2000/svg" version="1.2" baseProfile="tiny" width="800" height="610" viewBox="0 0 800 610" stroke-linecap="round" stroke-linejoin="round">
<g id="BALOCHISTAN">
<path d="M 761.86 1.21 761.74 1.59 761.11 2.13 760.74 2.56 760.24 3.61 759.62 4.96 759.25 5.63 758.94 5.93 758.85 6.09 758.79 6.39 758.5 6.63 757.91 7.06 757.56 7.2 757.31 7.33 757.31 7.44 757.34 7.58 757.82 7.92 758.4 8.34 759 8.71 759.54 9.17 761.13 9.94 762.07 10.31 762.71 10.49 763.66 10.86 764.1 11.02 764.29 11.31 764.29 11.63 764.17 12.04 763.95 12.28 763.8 12.66 763.67 13.17 763.46 13.65 763.08 14.35 762.58 14.84 762.15 15.35 761.81 15.81 761.75 16.1 761.79 17.26 761.79 17.77 761.92 18.44 762.02 18.57 762.58 18.57 762.97 18.6 763.29 18.84 763.8 19.13 764.27 19.24 764.71 19.15 765.18 19.02 765.65 18.88 765.93 18.64 766.37 18.07 766.78 17.59 767.12 17.16 767.56 16.67 767.93 16.13 768.43 15.43 768.74 15.21 769.02 15.02 769.59 14.86 770.28 14.75 770.76 14.75 771.07 14.8 771.07 15.11 771.07 15.23 771.08 15.74 771.08 16.17 770.93 16.63 770.78 17.51 770.53 18.21 770.31 19.04 770.32 19.37 770.32 19.58 770.45 19.85 770.54 20.2 770.54 20.36 770.45 20.52 770.26 20.79 769.89 21.03 769.51 21.36 769.26 21.6 769.11 21.81 769.05 22.14 769.02 22.67 769.09 23.58 769.36 25.57 769.55 26.42 769.68 26.77 769.87 27.01 770.28 27.28 770.53 27.49 770.6 27.65 770.6 27.89 770.44 28.38 770.1 28.67 769.82 28.84 769.67 29.46 769.67 30.07 769.71 30.5 769.9 30.93 769.93 31.31 770.03 31.84 770.07 32.57 770.01 33.4 769.96 35.01 769.91 36.94 769.67 38.85 769.56 40.11 769.57 42.42 769.49 44.27 769.42 46.01 769.14 46.77 769.08 47.3 769.09 47.76 769.34 48.29 769.72 48.91 770.41 49.42 770.92 49.9 771.24 50.22 771.74 50.38 772.33 50.43 773.43 50.42 775 50.52 775.44 50.63 775.69 50.92 775.92 51.48 776.11 52.29 776.71 53.28 776.87 53.97 777.38 55.37 777.86 56.46 777.9 57.08 778.12 58.02 778.41 59.44 778.64 60.4 778.97 60.9 778.98 60.91 779.08 60.91 780.01 61.06 780.32 61.02 780.51 60.92 780.7 60.66 780.78 60.09 780.8 59.72 780.99 59.41 781.8 59.18 782.17 58.98 782.37 58.67 782.39 58.04 782.36 57.36 782.15 56.57 782.17 56.1 782.24 55.89 782.42 55.84 782.66 55.85 783.51 56.09 783.76 56.09 783.93 56.41 784.09 56.84 784.14 57.15 784.43 57.47 784.67 57.64 785.03 57.7 785.22 57.6 785.29 57.34 785.42 57.14 785.67 56.99 786.16 57.16 786.4 57.17 786.77 57.18 786.96 56.92 787.03 56.66 787.16 56.46 787.78 56.37 788.27 56.39 788.57 56.34 788.82 56.19 789.34 55.63 789.6 55.12 789.99 54.66 790.37 54.2 790.82 53.85 791.32 53.55 792.13 53.15 793 52.81 793.45 52.36 794.09 51.7 794.47 51.29 794.86 50.88 795.4 50.9 795.83 50.91 796.14 50.97 796.25 51.24 796.23 51.66 796.51 53.6 796.7 54.97 797.08 56.13 797.46 57.35 797.64 58.82 797.64 60.23 797.42 61.42 797.19 62.46 796.79 64.8 796.6 66.21 796.56 67.25 796.75 68.57 796.73 70.4 796.93 71.56 797.08 72.19 797.06 72.66 796.92 73.23 796.35 73.58 795.97 73.94 795.84 74.25 795.83 74.51 795.87 74.88 796.23 75.15 796.64 75.42 796.93 75.75 796.78 76.32 796.28 76.78 796.69 77.82 798.83 80.29 798.8 80.67 798.79 81.71 798.93 83.52 799 84.89 798.97 85.7 798.72 86.87 798.4 87.86 797.97 88.74 797.23 89.84 796.91 90.33 796.77 90.87 796.58 92.11 796.5 93.04 796.46 93.73 796.51 94.77 796.54 96.71 796.53 98.38 796.39 100.02 796.28 100.4 795.93 101.89 795.58 102.94 795.44 103.6 795.52 104.05 795.7 104.48 796.11 104.66 796.69 104.89 796.87 105.07 796.97 105.52 796.89 106.13 796.67 106.76 796.44 106.89 795.89 106.94 793.74 106.92 793.27 106.94 793.03 107.17 792.9 107.44 792.77 108.23 792.59 110.14 792.34 111.4 792.08 111.83 791.84 112.14 791.58 112.32 791.11 112.45 790.35 112.54 789.07 112.53 788.54 112.58 788.33 112.71 788.12 112.91 787.91 113.25 787.75 113.95 787.64 114.85 787.64 115.34 787.53 115.64 787.32 115.86 787.06 115.97 786.75 115.97 786.07 115.99 785.2 115.85 784.81 115.76 784.6 115.76 783.91 115.68 783.59 115.7 783.33 115.82 783.09 115.99 782.88 116.29 782.78 116.67 782.67 117.48 782.61 117.98 782.45 118.36 782.22 118.67 781.9 118.96 781.64 119.21 781.51 119.59 781.45 120.25 781.5 120.9 781.7 121.67 781.93 122.32 782.06 123.23 782.16 123.9 782.15 125 781.96 126.09 781.38 128.02 780.72 129.64 779.98 131.1 779.64 131.87 778.82 133.4 778.24 134.43 777.87 135.42 777.44 136.23 776.58 137.24 775.74 138.18 774.56 139.17 774.33 139.51 774.2 139.91 773.98 140.43 773.87 141.2 773.84 142.01 773.91 143.47 773.88 144.42 773.74 145.21 773.61 145.86 773.22 146.58 772.51 147.84 772.22 148.35 772.01 148.76 771.88 149.28 771.56 149.89 771.2 150.36 770.9 150.78 770.88 150.81 770.78 151.23 770.72 152.32 770.72 152.88 770.85 153.22 771.05 153.29 771.34 153.33 771.7 153.09 772.02 152.79 772.3 152.59 772.59 152.5 772.75 152.5 772.82 152.71 772.82 153.23 772.64 154.15 772.35 154.89 771.95 155.5 771.75 155.85 771.72 156.21 771.87 156.62 772.32 156.82 772.68 156.85 773.12 156.63 773.43 156.36 773.8 155.79 774.19 155.21 774.46 154.94 774.77 154.78 775.21 154.6 775.68 154.61 775.99 154.61 776.74 154.66 777.13 154.72 777.52 154.79 778.04 154.8 778.9 154.8 779.21 154.8 779.78 154.96 780.25 155.12 780.51 155.46 780.59 155.69 780.58 155.87 780.27 156.29 779.56 157.28 778.52 158.61 778.18 158.88 777.76 159.01 777.21 159.1 776.72 159.14 776.2 159.27 775.91 159.5 775.76 159.74 775.62 160.04 775.52 160.6 775.54 161.5 775.43 161.97 775.28 162.13 775.04 162.22 774.63 162.24 774.39 162.33 774.08 162.6 773.92 162.89 773.87 163.45 773.68 164.29 773.44 165.07 773.1 165.68 772.95 166.22 772.89 166.9 772.89 167.75 772.99 168.32 773.11 169.04 773.03 169.74 772.93 170.25 772.63 170.99 772.45 171.51 772.19 171.98 771.85 172.39 771.59 172.84 771.33 173.15 770.99 173.51 770.47 173.89 769.66 174.36 769.38 174.7 769.17 174.94 769.04 175.22 767.63 177.83 767.31 178.93 766.67 181.14 765.11 185.15 763.85 186.49 762.03 188.41 760.33 189.65 758.48 193.34 758.31 193.96 757.52 195.43 756.82 196.68 756.39 197.45 755.86 197.84 755.24 198 754.71 198.39 754 198.86 753.39 199.4 752.77 200.26 752.25 200.96 751.63 201.66 750.75 202.05 749.24 202.22 748.63 202.38 748.1 202.92 746.95 203.24 746.06 203.48 745.09 203.95 744.34 204.49 743.86 204.89 743.42 205.43 742.9 205.88 742.64 206.98 742.04 208.3 741.42 208.38 740.71 208.54 740.18 208.7 739.74 209.48 739.84 210.1 740.47 210.94 740.74 211.95 740.37 213.41 740.27 214.68 740.28 215.74 740.3 217.48 740 219.19 739.78 219.77 739.31 220.42 738.77 221.01 738.31 221.46 737.89 222.16 737.58 222.87 737.39 223.59 737.36 224.24 737.33 225.5 737.3 226.46 737.31 227.28 737.47 227.76 737.67 228.03 738.06 228.2 738.49 228.16 739.12 227.92 739.54 227.57 740.09 227.16 740.51 226.74 740.94 226.5 741.29 226.5 741.72 226.56 742.12 226.8 742.79 227.27 743.93 228.32 744.89 229.44 745.17 229.88 745.5 230.3 746.16 231.69 746.28 232.27 746.06 232.78 745.55 233.33 744.78 233.95 744.31 234.44 744 234.82 743.74 235.33 743.82 235.74 743.86 236.01 744.17 236.22 744.95 236.21 745.7 236.2 746.13 236.34 746.48 236.51 746.96 237.19 747.39 237.7 747.44 238.55 747.41 239.37 747.41 239.89 747.57 240.23 747.77 240.43 748.08 240.53 748.47 240.49 748.78 240.36 748.98 240.18 749.29 239.87 749.95 239.42 750.64 238.91 751.3 238.35 751.96 237.77 752.74 237.35 753.28 237.11 753.79 237 754.26 237.07 754.49 237.14 754.65 237.51 754.7 238.26 754.55 238.85 754.01 239.6 753.25 240.97 752.86 241.62 752.6 242.31 752.57 243.3 752.46 244.43 752.54 245.11 752.78 245.72 752.94 246.06 753.14 246.3 753.3 246.58 753.26 247.02 753.11 247.57 752.69 248.22 752.23 248.98 751.8 249.59 751.42 250.25 750.92 251.17 750.3 251.97 749.96 252.48 749.81 253.2 749.72 253.88 749.57 254.36 749.42 254.67 749.07 254.95 748.33 255.26 747.68 255.61 746.78 255.82 745.93 256.1 745.19 256.41 744.72 256.69 744.42 257.07 744.07 257.51 743.76 258.03 743.34 258.65 742.84 259.27 742.45 259.58 741.95 260.09 741.61 260.51 741.21 261.25 740.88 261.68 740.34 262.19 739.96 262.71 739.69 263.39 739.5 264.05 739.31 264.7 738.88 265.58 738.3 266.1 737.56 266.21 737.02 266.21 736.71 266.28 736.44 266.49 736.21 267.08 735.91 267.66 735.56 268.24 735.06 268.66 734.56 268.97 733.98 269.32 733.24 269.7 732.66 269.98 732.05 270.39 731.43 270.95 731.16 271.36 731.09 271.77 731.09 272.15 731.03 273.21 730.99 273.68 730.61 274.3 730.62 274.71 730.62 274.99 730.74 275.33 730.9 275.57 731.25 275.7 731.72 275.76 732.38 275.86 733.04 275.99 733.55 276.3 733.86 276.5 734.18 276.91 734.73 277.78 735.01 278.43 735.21 278.98 735.22 279.63 735.03 280.38 734.81 281.34 734.09 282.54 733.21 283.81 732.37 285.09 731.68 285.98 730.95 286.98 730.72 287.34 729.45 289.72 728.88 290.51 727.93 292.06 726.93 293.51 726.1 294.95 725.38 296.12 724.57 296.74 723.45 297.06 722.48 297.38 721.29 298 720.05 298.36 718.9 298.95 717.95 299.43 717.27 299.72 717.04 300.17 716.98 300.68 717.51 301.56 717.95 302.41 718.42 303.32 718.59 304.24 718.95 304.89 719.23 305.71 719.67 307.17 720.56 308.93 718.95 308.89 716.53 308.88 714.71 308.9 713.09 308.88 712.17 308.93 711.5 308.97 710.64 309.02 709.37 309.02 708.2 309.02 708.04 309.01 707.18 309.05 706.37 309.08 705.75 309.11 704.65 309.18 703.64 309.26 702.06 309.32 700.65 309.35 699.73 309.42 698.7 309.56 697.94 309.61 697.28 309.64 696.78 309.69 695.95 309.79 695.49 309.85 694.57 309.87 693.04 309.96 691.44 310.05 690.73 310.09 690.02 310.14 688.8 310.14 686.88 310.2 685.37 310.24 683.97 310.29 683.18 310.22 683.18 310.22 682.59 310.21 682.1 310.16 681.45 310.12 680.77 310.08 680.18 310.08 678.94 310.09 677.99 310.14 677.18 310.19 676.39 310.19 675.28 310.18 674.2 310.15 672.87 310.14 671.72 310.19 670.5 310.24 669.45 310.26 668.53 310.25 666.68 310.23 665.36 310.24 664.26 310.25 662.76 310.22 661.77 310.21 660.02 310.19 658.72 310.21 656.98 310.2 655.26 310.17 654.12 310.18 652.43 310.13 650.95 310.12 650.04 310.14 649.69 310.14 649.29 310.13 648.1 310.11 647.06 310.13 646.03 310.11 645.32 310.12 645.02 310.15 644.81 310.23 644.29 310.61 643.42 311.2 642.24 312.01 641.3 312.65 640.45 313.24 640.13 313.51 639.8 313.82 639.51 314.27 639.28 314.81 638.83 315.79 638.41 316.69 637.87 317.8 637.21 319.19 636.83 320.01 636.67 320.36 636.29 321.2 635.92 321.95 635.66 322.28 635.44 322.48 635.18 322.64 634.87 322.72 634.13 322.91 632.82 323.3 631.88 323.57 630.41 323.97 629.49 324.23 628.53 324.52 627.54 324.84 626.52 325.1 625.48 325.4 624.63 325.64 623.55 325.96 623.27 326.04 623.16 326.16 622.96 326.27 622.8 326.39 622.22 326.82 621.68 327.26 621.27 327.57 621.07 327.76 620.38 328.29 619.89 328.67 619.15 329.26 618.67 329.65 617.48 330.58 616.43 331.39 615.59 332.04 614.82 332.65 613.82 333.43 612.69 334.35 611.88 334.95 610.22 336.29 609.09 337.17 608.16 337.9 607.61 338.32 607.32 338.56 607.16 338.72 606.86 338.88 606.45 339.06 605.65 339.36 604.62 339.74 604.4 339.82 603.53 340.13 603.11 340.34 602.66 340.61 602.27 340.98 601.93 341.37 601.56 341.85 601.3 342.27 600.96 342.66 600.85 342.78 600.77 342.98 600.62 343.26 600.24 343.92 599.78 344.75 599.4 345.31 599.14 345.68 598.98 345.89 598.83 346.12 598.73 346.35 598.61 346.59 598.45 346.79 598.32 346.95 596.77 346.63 596.38 346.51 595.76 346.47 595.32 346.46 594.62 346.54 594.4 346.61 594.19 346.72 593.91 346.93 593.42 347.21 592.77 347.34 592.11 347.46 591.19 347.49 590.33 347.59 589.85 347.7 589.38 347.87 588.87 348.14 588.58 348.34 588.34 348.48 588.14 348.89 588.01 349.15 587.94 349.58 587.9 350.13 587.9 350.39 587.85 350.55 587.57 350.72 587.29 350.87 587.13 351.03 586.92 351.17 586.7 351.25 586.5 351.3 586.36 351.22 586.27 351.18 586.16 351.08 585.86 351.04 585.51 351.04 584.75 351.15 584.05 351.28 583.08 351.45 582.2 351.53 581.24 351.7 580.8 351.71 579.79 351.83 578.77 351.93 577.92 352.01 577.24 352.1 576.74 352.14 575.97 352.27 574.88 352.47 573.1 352.75 571.51 353.03 570.24 353.27 569.29 353.68 568.65 354 568.24 354.32 567.92 354.73 567.7 354.77 567.29 354.65 566.79 354.41 566.33 354.33 565.11 354.49 564.06 354.65 562.97 354.77 562.11 354.85 560.84 355.02 559.38 355.22 558.38 355.38 557.29 355.51 556.79 355.51 556.47 355.31 556.34 355.03 556.2 354.74 556.11 354.46 555.88 354.22 555.47 354.06 554.63 354.08 554.5 355.74 553.83 357.86 552.77 359.8 551.78 362.03 551.29 363.67 551.49 366.02 551.03 367.6 549.84 369.6 547.52 371.84 546.38 372.57 544.15 374.13 542.83 375.25 542.37 376.13 541.9 378.24 541.3 380.64 540.71 382.29 539.98 383.29 538.66 384.11 537.81 384.7 537.15 385.23 536.82 385.87 536.36 389.7 536.17 393.04 535.51 396.75 535.25 399.51 534.98 400.86 533.93 401.98 532.95 403.15 532.36 404.27 532.03 405.8 532.03 406.62 532.1 407.97 532.7 410.44 533.56 414.08 534.21 417.59 534.61 420.64 534.74 422.76 534.94 425.16 534.35 427.22 533.63 429.69 533.11 431.04 533.11 431.57 533.11 432.04 533.31 432.86 533.71 434.39 533.71 434.41 533.47 434.69 533.14 435.25 532.98 435.9 532.66 435.75 532.66 437.84 532.68 441 532.96 443.84 533.18 445.68 533.61 449.38 533.76 450.23 533.59 450.73 533.19 451.15 532.71 451.85 532.39 452.27 532.07 452.77 532.07 454.34 532.38 456.8 532.61 458.35 532.62 459.09 531.84 459.95 532.25 461.41 532.45 462.74 533.07 464.47 533.53 466.64 534.14 468.97 534.71 470.65 535.18 471.74 536.01 474.06 536.37 475.25 536.8 475.84 537.39 476.44 538.09 476.95 538.57 477.4 538.89 477.89 539.42 478.88 540.38 480.03 541.4 481.86 542.14 483.2 543.04 484.64 543.78 485.74 544.41 487.03 545.04 488.41 545.62 489.55 546.36 490.85 547.36 492.53 548.51 495.01 549.08 496.3 549.88 497.44 550.34 498.88 550.53 499.91 550.96 501.04 551.28 501.64 551.7 502.33 552.13 502.54 552.78 502.7 553.27 502.95 554.07 503.51 554.34 503.85 554.6 504.4 554.96 505.29 555.65 506.38 556.22 507.62 556.97 508.23 557.34 508.82 557.43 509.41 557.37 509.95 556.74 511.37 556.56 512.05 556.42 513.33 556.24 514.06 555.93 515.78 555.56 518.13 555.58 519.51 555.43 521.22 555.46 522.69 555.32 524.16 555.03 524.85 555.07 525.29 555.22 526.08 555.53 527.02 556.04 528.4 556.34 529.44 556.22 530.27 556.04 531.1 555.36 532.47 554.52 533.44 553.41 534.5 552.46 535.71 551.57 536.87 550.62 538.23 549.81 539.73 549.53 540.47 549.46 541.2 548.93 542.96 548.47 544.52 548.45 545.26 548.04 546.63 547.64 547.75 546.69 549.36 546.02 550.13 545.04 550.65 543.56 551.22 543.07 551.55 543 552 542.94 552.68 542.92 553.37 542.47 554.34 541.97 555.12 540.92 555.94 539.88 556.36 539.07 556.65 538.35 557.13 537.68 558.24 537.26 559.21 536 560.32 535.17 561.1 534.94 561.58 534.92 562.86 534.95 563.94 535.08 565.91 534.79 566.78 534.34 567.61 533.4 568.68 533.13 569.11 533.06 569.65 532.84 570.19 532.82 570.88 532.85 571.5 532.75 572.52 533.03 572.65 532.95 572.7 532.56 572.96 532.03 573.42 531.6 573.94 530.99 575.08 530.77 575.66 530.7 576.01 530.73 576.32 530.69 576.71 530.38 577.08 529.96 577.39 529.68 577.71 529.51 578.23 528.97 578.9 528.37 579.42 527.74 579.83 527.3 580.18 526.41 580.71 525.46 581.27 524.9 581.55 524.4 581.91 524.09 582.28 523.89 582.75 523.59 583.24 522.95 584.21 522.42 585.07 522.11 585.54 522 586.15 521.94 586.69 521.76 587.72 521.7 588.51 521.93 589.19 522.17 590.03 522.21 590.37 522.06 590.71 521.42 591.46 520.7 592.19 519.79 593.01 519.12 593.83 518.16 594.78 517.11 595.78 516.21 596.74 514.93 597.73 514.33 598.06 513.43 598.28 512.02 598.47 510.67 598.75 509.39 599 508.42 599.45 507.82 599.75 507.14 600.26 506.44 600.79 505.52 601.21 504.68 601.55 503.7 601.87 503.22 602.14 502.26 602.85 501.35 603.7 500.5 604.53 499.62 605.28 498.84 605.81 498.01 606.47 497.39 607.02 496.8 607.62 496.19 608.56 495.7 609 495.59 608.92 495.38 608.67 495.15 608.36 494.99 608.02 494.82 607.55 494.66 607.08 494.6 606.8 494.53 606.33 494.41 605.67 494.32 605.1 494.36 604.86 494.44 604.62 494.62 604.4 494.9 604.26 495.06 604.21 495.27 604.19 495.27 604.19 495.27 604.19 495.27 604.19 495.3 604.17 495.37 604.13 495.37 604.13 495.89 603.79 496.07 603.56 496.13 603.46 496.19 603.32 496.28 603.09 496.29 603.08 496.27 603.08 496.28 603.08 496.28 603.07 496.28 603.05 496.29 603.04 496.3 602.98 496.32 602.93 496.33 602.87 496.34 602.84 496.35 602.81 496.35 602.78 496.35 602.76 496.36 602.72 496.36 602.67 496.36 602.63 496.37 602.58 496.37 602.56 496.37 602.53 496.37 602.5 496.37 602.48 496.37 602.46 496.37 602.42 496.37 602.4 496.37 602.37 496.38 602.32 496.38 602.3 496.37 602.18 496.37 602.15 496.37 602.09 496.37 602.06 496.37 602.04 496.38 602 496.37 601.95 496.37 601.92 496.37 601.87 496.36 601.83 496.36 601.8 496.35 601.77 496.35 601.77 496.35 601.75 496.35 601.74 496.35 601.72 496.35 601.7 496.34 601.68 496.34 601.66 496.33 601.63 496.33 601.6 496.33 601.59 496.33 601.59 496.33 601.58 496.33 601.55 496.33 601.54 496.32 601.52 496.32 601.5 496.32 601.49 496.32 601.47 496.32 601.47 496.32 601.46 496.32 601.46 496.31 601.45 496.31 601.45 496.31 601.44 496.31 601.42 496.31 601.42 496.31 601.41 496.3 601.39 496.3 601.37 496.3 601.36 496.3 601.33 496.3 601.32 496.31 601.31 496.31 601.31 496.31 601.29 496.32 601.28 496.32 601.28 496.33 601.26 496.33 601.26 496.33 601.24 496.33 601.23 496.33 601.22 496.34 601.22 496.61 601.16 496.65 601.08 496.55 600.93 496.52 600.76 496.39 600.76 496.38 600.76 496.39 600.72 496.4 600.69 496.4 600.67 496.4 600.63 496.39 600.61 496.39 600.59 496.38 600.56 496.38 600.54 496.37 600.53 496.37 600.51 496.36 600.5 496.36 600.48 496.36 600.46 496.36 600.45 496.37 600.43 496.37 600.43 496.37 600.43 496.37 600.42 496.36 600.42 496.36 600.42 496.37 600.41 496.37 600.41 496.38 600.41 496.38 600.4 496.37 600.4 496.37 600.4 496.37 600.4 496.37 600.39 496.38 600.39 496.38 600.39 496.39 600.39 496.39 600.38 496.39 600.38 496.4 600.38 496.4 600.36 496.39 600.34 496.4 600.31 496.39 600.3 496.39 600.29 496.39 600.29 496.39 600.28 496.39 600.26 496.39 600.24 496.38 600.23 496.38 600.22 496.38 600.21 496.38 600.2 496.38 600.19 496.38 600.18 496.38 600.17 496.38 600.16 496.37 600.14 496.37 600.13 496.37 600.11 496.37 600.1 496.38 600.1 496.38 600.1 496.38 600.09 496.37 600.07 496.37 600.05 496.37 600.04 496.36 600.03 496.36 600.03 496.36 600.02 496.36 600.01 496.36 599.98 496.35 599.96 496.35 599.94 496.34 599.93 496.34 599.92 496.34 599.91 496.33 599.89 496.33 599.86 496.32 599.83 496.31 599.82 496.31 599.8 496.31 599.79 496.31 599.77 496.31 599.76 496.3 599.74 496.3 599.73 496.3 599.73 496.29 599.71 496.29 599.7 496.29 599.69 496.29 599.68 496.29 599.67 496.28 599.66 496.28 599.64 496.28 599.63 496.28 599.62 496.28 599.62 496.28 599.62 496.28 599.61 496.27 599.6 496.27 599.59 496.27 599.57 496.27 599.56 496.26 599.52 496.26 599.51 496.26 599.5 496.26 599.49 496.26 599.49 496.26 599.49 496.26 599.48 496.27 599.48 496.27 599.46 496.27 599.45 496.27 599.44 496.27 599.43 496.26 599.43 496.26 599.39 496.26 599.37 496.26 599.35 496.27 599.33 496.27 599.31 496.28 599.29 496.3 599.27 496.31 599.25 496.32 599.24 496.32 599.23 496.32 599.21 496.33 599.2 496.33 599.18 496.33 599.16 496.33 599.15 496.33 599.15 496.34 599.14 496.35 599.13 496.35 599.13 496.36 599.12 496.36 599.12 496.37 599.11 496.37 599.11 496.38 599.11 496.38 599.1 496.39 599.09 496.41 599.09 496.42 599.09 496.43 599.09 496.44 599.08 496.45 599.08 496.46 599.07 496.47 599.06 496.48 599.06 496.48 599.06 496.49 599.06 496.5 599.06 496.51 599.05 496.52 599.05 496.54 599.04 496.55 599.04 496.56 599.03 496.58 599.02 496.59 599.01 496.61 599 496.62 598.99 496.64 598.97 496.64 598.95 496.65 598.94 496.65 598.92 496.65 598.9 496.66 598.89 496.66 598.88 496.67 598.87 496.68 598.85 496.69 598.83 496.7 598.82 496.71 598.81 496.71 598.79 496.72 598.79 496.72 598.78 496.73 598.78 496.73 598.77 496.73 598.77 496.73 598.76 496.74 598.76 496.74 598.75 496.74 598.74 496.74 598.74 496.75 598.73 496.75 598.72 496.75 598.71 496.76 598.7 496.76 598.69 496.75 598.69 496.75 598.68 496.76 598.68 496.76 598.67 496.76 598.67 496.76 598.66 496.76 598.65 496.77 598.64 496.77 598.64 496.77 598.62 496.77 598.62 496.77 598.61 496.77 598.6 496.77 598.59 496.76 598.59 496.77 598.59 496.78 598.58 496.78 598.58 496.78 598.59 496.79 598.59 496.79 598.59 496.79 598.58 496.8 598.58 496.8 598.58 496.81 598.58 496.81 598.58 496.82 598.58 496.83 598.58 496.83 598.58 496.84 598.57 496.84 598.57 496.85 598.57 496.85 598.57 496.86 598.56 496.87 598.55 496.88 598.54 496.89 598.53 496.89 598.52 496.89 598.51 496.9 598.5 496.91 598.49 496.92 598.49 496.92 598.48 496.93 598.47 496.93 598.47 496.93 598.46 496.93 598.46 496.93 598.45 496.94 598.45 496.94 598.44 496.95 598.43 496.95 598.42 496.96 598.42 496.97 598.41 496.97 598.4 496.98 598.4 496.98 598.39 496.99 598.38 496.99 598.37 496.99 598.36 496.99 598.35 496.99 598.34 497 598.33 497 598.32 497.01 598.32 497.01 598.31 497.01 598.3 497.02 598.29 497.02 598.27 497.03 598.26 497.03 598.25 497.03 598.23 497.03 598.22 497.04 598.22 497.04 598.21 497.04 598.2 497.04 598.2 497.04 598.19 497.05 598.19 497.05 598.19 497.06 598.18 497.05 598.18 497.05 598.18 497.06 598.17 497.06 598.17 497.07 598.17 497.07 598.16 497.07 598.16 497.07 598.15 497.07 598.15 497.07 598.14 497.07 598.14 497.07 598.14 497.08 598.13 497.07 598.12 497.07 598.12 497.08 598.11 497.08 598.11 497.08 598.11 497.08 598.1 497.08 598.1 497.08 598.09 497.08 598.08 497.08 598.07 497.08 598.06 497.08 598.06 497.08 598.06 497.08 598.05 497.08 598.05 497.08 598.04 497.08 598.04 497.08 598.03 497.09 598.03 497.09 598.02 497.09 598.02 497.09 598 497.09 597.98 497.1 597.98 497.1 597.97 497.1 597.95 497.11 597.93 497.11 597.92 497.11 597.91 497.11 597.91 497.11 597.9 497.11 597.89 497.12 597.88 497.12 597.87 497.12 597.86 497.12 597.85 497.12 597.84 497.12 597.83 497.12 597.83 497.12 597.82 497.13 597.81 497.13 597.8 497.13 597.78 497.14 597.76 497.14 597.74 497.14 597.72 497.14 597.71 497.14 597.7 497.14 597.7 497.14 597.69 497.14 597.69 497.14 597.68 497.14 597.68 497.14 597.67 497.14 597.67 497.14 597.66 497.14 597.65 497.14 597.65 497.13 597.64 497.13 597.64 497.12 597.62 497.13 597.62 497.1 597.44 497.1 597.44 497.07 597.17 497.07 597.17 497.05 597.06 497.01 596.74 496.93 596.32 496.86 595.89 496.64 595 496.51 594.47 496.45 594.07 496.4 593.71 496.37 593.33 496.37 593.05 496.42 592.83 496.5 592.53 496.59 592.2 496.7 591.95 496.81 591.23 496.81 590.9 496.77 590.6 496.76 590.3 496.82 590.11 496.98 589.87 497.11 589.74 497.33 589.62 497.56 589.44 497.73 589.25 497.88 589.06 497.94 588.89 498.15 588.5 498.34 588.17 498.65 587.76 498.86 587.45 498.97 587.3 499.15 586.94 499.3 586.58 499.43 586.21 499.46 585.81 499.48 585.37 499.49 585.04 499.47 584.84 499.45 584.47 499.38 584.21 499.21 583.97 498.81 583.5 498.46 583.09 497.97 582.49 497.52 581.95 496.93 581.4 496.37 580.76 495.48 579.87 494.93 579.32 494 578.51 493.29 577.82 492.36 577.19 491.51 576.62 490.85 576.03 489.94 575.31 489.11 574.69 488.33 574.15 487.54 573.7 486.71 573.33 485.96 572.86 485.26 572.45 484.94 572.26 484.14 571.75 483.5 571.28 483.24 570.99 482.91 570.47 482.76 570.09 482.87 569.94 483.26 569.66 483.63 569.52 483.95 569.47 484.4 569.43 484.88 569.29 485.49 569.15 486.1 568.96 486.49 568.78 486.67 568.6 486.75 568.45 486.79 568.16 486.78 567.97 486.8 567.75 486.8 567.53 486.84 567.36 486.84 567.26 486.75 567.12 486.64 566.9 486.63 566.71 486.63 566.61 486.81 566.36 486.93 566.16 486.93 566.04 486.84 565.8 486.72 565.56 486.28 565.19 485.36 564.44 484.92 564.04 484.06 563.29 483.67 562.81 483.46 562.24 483.35 561.49 483.35 560.78 483.33 560.34 483.27 560.1 483.12 559.77 483.05 559.36 483.04 559.04 483.22 558.67 483.31 558.23 483.3 557.96 483.28 557.86 482.09 557.47 481.83 557.34 481.67 557.31 481.43 557.36 481.21 557.46 480.92 557.49 480.73 557.62 480.44 557.71 480.29 557.69 480.12 557.55 479.31 557.5 479.09 557.4 478.87 557.24 478.37 557.26 478.08 557.18 477.86 556.9 477.6 556.59 477.31 556.51 477.09 556.55 476.63 556.65 476.17 556.59 475.78 556.35 475.4 555.95 475.22 555.55 475.13 555.13 475.04 554.92 474.85 554.74 474.52 554.48 474.43 554.24 474.32 554 474.19 553.71 474.08 553.41 473.83 553.23 473.48 553.05 473.09 552.86 472.87 552.74 472.78 552.46 472.78 552.26 472.84 551.95 473.11 551.69 473.48 551.29 473.63 551.03 473.69 550.77 473.74 550.42 473.74 550.26 473.65 550.22 473.54 550.27 473.31 550.52 473.1 550.88 472.54 551.2 471.97 551.45 471.43 551.64 470.97 551.66 470.67 551.77 470.32 551.98 469.93 552.13 469.51 552.09 469.13 552 468.76 551.94 468.62 551.88 468.57 551.77 468.62 551.71 468.73 551.63 468.85 551.4 468.85 551.31 468.75 551.25 468.5 551.27 468.34 551.4 468.18 551.59 467.92 551.74 467.81 551.74 467.69 551.72 467.62 551.51 467.6 551.32 467.46 551.23 467.22 551.28 466.97 551.26 466.83 551.19 466.78 551.07 466.83 550.98 466.88 550.88 466.85 550.79 466.78 550.73 466.64 550.69 466.57 550.63 466.55 550.5 466.59 550.4 466.64 550.27 466.71 550.19 466.8 550.1 466.94 549.98 467.15 549.85 467.31 549.68 467.47 549.53 467.54 549.32 467.63 549.05 467.63 548.94 467.54 548.88 467.14 548.84 466.75 548.78 466.56 548.8 466.45 548.91 466.2 549.35 465.99 549.69 465.74 549.94 465.55 550.25 465.32 550.49 464.93 550.63 464.42 550.64 463.89 550.74 463.28 551.06 462.68 551.19 462.08 551.25 461.69 551.21 461.45 551.07 461.25 550.96 461.11 550.78 460.96 550.59 460.85 550.46 460.64 550.34 460.29 550.34 459.87 550.36 459.46 550.57 459.16 550.66 458.97 550.64 458.72 550.56 458.53 550.56 458.32 550.62 457.72 550.88 457.47 551.07 457.01 551.34 456.54 551.55 456.22 551.6 456.04 551.6 455.85 551.49 455.71 551.49 455.56 551.6 455.23 551.98 454.89 552.13 454.64 552.14 454.44 552.1 454.08 551.98 453.77 551.72 453.55 551.46 453.3 551.35 453.08 551.35 452.9 551.39 452.51 551.53 451.91 551.8 451.32 552.08 450.87 552.33 450.35 552.58 449.96 552.82 449.43 553.28 448.8 553.87 448.03 554.63 447.6 554.94 447.28 555.14 447.24 555.41 447.26 555.86 447.38 556.21 447.36 556.48 447.24 556.85 447.02 557.36 446.61 558.07 446.4 558.45 445.95 558.86 445.68 559.17 445.63 559.44 445.47 559.83 445.09 560.29 444.79 560.65 444.36 560.82 443.87 561.03 443.57 561.31 443.34 561.43 443.33 561.55 443.43 561.67 443.97 562.03 444.33 562.2 444.78 562.29 445.53 562.3 445.94 562.18 446.26 562 446.73 561.89 446.87 561.86 446.97 561.9 447 562 446.98 562.06 446.77 562.18 446.3 562.35 445.73 562.51 445.22 562.58 444.67 562.77 444.23 562.92 443.94 563.02 443.47 563.19 443.15 563.25 442.96 563.35 442.92 563.43 442.92 563.49 443.06 563.64 443.43 563.68 444.09 563.58 444.73 563.43 445.46 563.15 446.16 562.78 446.83 562.54 447.64 562.32 448.44 562.01 448.85 561.77 449.16 561.67 449.82 561.47 450.46 561.24 451.03 560.89 451.41 560.61 451.92 560.53 452.26 560.41 452.63 560.41 452.8 560.46 452.83 560.58 452.8 560.83 452.92 560.92 453.07 560.95 453.19 560.9 453.4 560.63 453.62 560.23 453.9 559.96 454.26 559.72 454.55 559.37 454.93 559.15 455.14 559.07 455.27 559.11 455.37 559.21 455.48 559.34 455.56 559.34 455.71 559.29 456 559.05 456.42 558.72 456.58 558.45 456.69 558.27 456.75 558.08 456.82 557.91 456.97 557.75 457.09 557.61 457.17 557.49 457.39 557.45 457.69 557.44 457.85 557.4 457.91 557.34 458.17 556.94 458.34 556.72 458.5 556.56 458.66 556.52 458.91 556.5 459.01 556.56 459.03 556.66 459.03 556.86 458.93 557.02 458.71 557.15 458.48 557.34 458.39 557.49 458.39 557.58 458.42 557.63 458.52 557.65 458.68 557.59 458.93 557.43 459.05 557.31 459.21 557.26 459.39 557.28 459.59 557.36 459.77 557.4 459.9 557.39 460.01 557.24 460.12 557.02 460.22 556.91 460.41 556.86 460.7 556.85 461.11 556.84 461.51 556.8 461.75 556.7 462.18 556.55 462.57 556.42 463.01 556.27 463.32 556.11 463.52 555.84 463.85 555.46 463.99 555.35 464.07 555.32 464.21 555.35 464.37 555.44 464.6 555.43 464.81 555.35 464.94 555.35 465.03 555.37 465.06 555.44 465 555.9 465.06 556.16 465.24 556.34 465.52 556.82 465.75 557.04 466.03 557.17 466.69 557.23 467.39 557.18 468.02 557.29 468.33 557.41 468.49 557.51 468.63 557.58 468.79 557.59 468.9 557.56 469.05 557.62 469.15 557.68 469.27 557.88 469.37 558.22 469.5 558.57 469.73 558.88 469.84 559.14 469.87 559.28 469.82 559.48 469.68 559.59 469.63 559.73 469.67 559.84 469.77 559.95 470.07 560 470.35 560.17 470.46 560.4 470.6 560.57 470.8 560.66 471.17 560.68 471.42 560.76 471.87 560.97 472.11 561.08 472.3 561.09 472.36 561.03 472.55 561.01 472.68 561.04 472.82 561.14 473.02 561.2 473.16 561.17 473.31 561.1 473.38 561 473.39 560.89 473.42 560.73 473.54 560.62 473.72 560.46 473.91 560.2 474.22 559.8 474.35 559.72 474.51 559.68 474.72 559.68 475.05 559.62 475.24 559.48 475.46 559.25 475.64 559.2 475.86 559.2 475.93 559.22 475.99 559.3 475.99 559.48 476.04 559.85 476.14 560.03 476.24 560.11 476.39 560.13 476.51 560.1 476.64 560.04 476.8 560.02 477 560.07 477.12 560.2 477.47 560.36 477.88 560.48 478.02 560.51 478.32 560.44 478.47 560.35 478.57 560.33 478.63 560.38 478.63 560.45 478.43 560.76 478.21 561.2 477.89 561.6 477.49 562.04 477.03 562.39 476.44 562.67 475.84 562.94 475.28 563.06 475.11 563.11 475.04 563.21 475.37 563.54 476.05 564.12 476.77 564.52 477.3 564.7 478.1 564.69 478.42 564.91 478.78 565.16 478.78 565.42 479.55 565.67 479.57 566.1 479.63 566.36 479.77 566.46 479.91 566.48 479.97 566.46 480.01 566.37 480.09 566.28 480.21 566.28 480.37 566.41 480.43 566.88 480.37 567.26 479.99 567.47 479.53 567.46 478.62 567.22 477.47 566.96 476.53 566.54 475.79 566.37 475.3 566.12 474.8 565.92 474.12 565.81 473.53 565.45 472.75 564.99 472.15 564.83 470.94 564.27 469.9 563.83 468.31 563.33 466.98 562.96 465.47 562.57 464.13 562.41 463.06 562.27 461.63 562.17 459.94 562.2 458.56 562.26 457.29 562.39 456.68 562.45 455.29 562.6 454.33 562.71 453 562.95 452.13 563.14 451.41 563.12 450.18 563.29 448.69 563.44 447.68 563.65 446.73 563.76 445.83 563.93 445.02 564.08 444.01 564.23 443.25 564.47 442.4 564.75 441.27 565.04 440.46 565.17 439.56 565.4 438.81 565.4 438.49 565.29 438.15 565.04 437.83 564.49 437.71 564.22 437.54 563.8 437.52 563.52 437.44 563.46 437.4 563.52 437.4 563.81 437.49 564.15 437.57 564.54 437.73 564.99 437.71 565.23 437.66 565.3 437.5 565.3 437.26 565.14 437.08 564.94 436.78 564.71 436.62 564.53 436.46 564.46 436.89 565.06 437.25 565.63 437.43 565.9 437.45 565.99 437.27 566.14 436.92 566.32 436.32 566.47 435.53 566.49 433.6 566.53 432.47 566.53 431.69 566.52 430.8 566.58 430.22 566.68 429.41 566.77 428.67 566.85 427.9 566.95 426.75 566.96 426.03 566.83 424.96 566.75 423.51 566.48 422.87 566.34 422.35 566.34 421.72 566.46 420.98 566.59 420.55 566.74 420.23 567.04 419.68 567.61 418.84 568.35 417.97 568.78 417.08 569.21 416.35 569.62 415.7 569.8 414.53 569.87 413.99 570.01 413.06 570.28 412.51 570.52 411.7 570.9 411.28 571.16 410.75 571.49 410.18 571.64 409.3 571.63 408.17 571.67 407.62 571.84 406.86 572.16 405.76 572.49 404.96 572.52 404.17 572.38 403.33 572.1 402.57 571.75 401.93 571.46 401.39 571.36 400.22 571.36 398.75 571.1 397.77 570.95 397.24 570.96 396.54 570.91 395.95 570.86 395.29 570.96 394.93 570.93 394.81 570.84 394.79 570.71 394.81 570.55 394.91 570.39 395.12 570.33 395.56 570.32 396.12 570.39 396.53 570.35 397.03 570.15 397.42 569.93 397.74 569.63 398.07 569.36 398.33 569.14 398.42 568.99 398.42 568.85 398.26 568.4 398.09 567.94 397.95 567.32 397.86 566.73 397.81 566.23 397.69 565.83 397.55 565.45 397.36 565.26 397.31 565.28 397.27 565.46 397.27 565.71 397.21 566.34 397.18 567.08 396.99 567.71 396.71 568.74 396.32 569.52 396.1 569.72 394.74 569.81 394.46 569.76 394.26 569.58 394.04 569.49 393.68 569.48 393.34 569.52 392.94 569.5 392.6 569.42 392.51 569.51 392.51 569.63 392.69 569.74 392.97 569.86 393.07 570.01 393.03 570.22 392.72 570.37 392.24 570.34 391.74 570.13 390.65 569.91 389.2 569.8 387.75 569.76 386.16 569.78 385.16 569.67 383.68 569.47 382.96 569.48 381.83 569.64 380.68 569.78 379.47 569.76 378.65 569.69 377.96 569.52 377.48 569.53 377.02 569.64 376.59 569.7 375.63 569.59 374.94 569.6 374.52 569.71 373.65 570.19 373.38 570.56 372.79 571.14 372.72 571.42 372.6 572.17 372.41 572.55 372.09 572.73 371.59 572.96 370.21 573.58 368.85 574.06 367.18 574.44 366.17 574.59 364.84 574.61 363.51 574.53 362.58 574.51 362.24 574.61 361.96 574.63 361.76 574.58 361.68 574.4 361.54 574.27 361.29 574.27 360.18 574.35 358.32 574.32 357.14 574.19 355.61 573.9 353.5 573.54 351.72 573.2 350.37 572.95 348.33 572.76 346.16 572.66 344.13 572.61 342.12 572.66 340.03 572.66 337.44 572.82 336.03 572.87 333.74 572.97 332.08 572.97 331.12 573.08 330.16 573.23 328.91 573.62 327.31 574.24 325.42 575.26 324.54 575.83 324.04 576.29 323.5 576.8 322.77 577.62 322.26 578.57 321.8 579.52 321.64 580.11 321.67 581.19 321.84 582.08 322.09 582.54 322.37 582.85 322.8 583 323.7 583.26 324.58 583.38 325.65 583.54 326.07 583.72 326.44 584.12 326.58 584.48 326.61 584.82 326.52 585.12 326.3 585.41 325.79 585.71 325.06 586.15 323.96 586.69 322.55 587.13 321.14 587.36 320.05 587.57 318.95 587.78 318.24 587.78 317.14 587.81 316.58 587.7 316.21 587.4 316.04 587.01 316.04 586.3 316.18 585.91 316.49 585.45 317.16 584.72 317.75 584.31 318.53 583.87 319.04 583.54 319.27 583.26 319.52 582.59 319.69 582 319.68 581.64 319.66 581.41 319.54 581.2 319.18 580.9 318.55 580.44 318.13 580.13 317.71 579.72 317.23 579.18 316.66 578.7 316.12 578.32 315.3 577.91 314.65 577.6 313.58 577.35 312.56 577.15 311.94 577.12 311.5 577.28 311.33 577.46 311.17 577.66 310.91 577.99 310.63 578.1 309.98 578.28 309.25 578.49 308.69 578.77 308.29 578.98 308.15 579.46 308.21 580.31 308.19 580.59 307.88 580.67 307.14 580.75 306.27 580.6 304.8 580.5 303.42 580.48 302.71 580.58 300.94 580.62 300.15 580.57 299.38 580.26 297.92 579.67 297.02 579.24 296.06 578.78 295.01 578.32 294.16 577.97 293.68 577.56 293.08 577.13 292.35 576.7 291.27 576.39 289.95 576.14 288.76 575.89 288.11 575.59 287.74 575.31 287.68 574.8 287.68 574.44 287.68 574.13 287.56 573.85 287.36 573.72 287.22 573.75 287.05 573.93 287.03 574.1 286.78 574.23 286.39 574.23 285.88 574.08 285.03 573.83 284.29 573.55 283.22 573.38 282.09 573.07 281.01 572.72 280.7 572.62 280.08 572.62 278.9 572.76 277.96 572.79 277.48 572.95 276.81 573.18 276.36 573.29 275.31 573.35 274.58 573.25 274.24 573.05 274.1 572.74 273.92 572.3 273.89 572.1 273.98 571.87 274.11 571.61 274.53 571.15 274.9 570.79 275.15 570.43 275.35 570.35 275.52 570.35 275.8 570.47 276.03 570.7 276.31 570.96 276.71 571.13 277.1 571.21 277.5 571.21 277.61 571.15 277.78 570.92 277.84 570.58 277.7 570.37 277.38 570.09 277.04 569.86 276.7 569.63 276.28 569.56 275.71 569.41 275.43 569.26 274.95 569 274.55 568.75 274.35 568.47 274.4 568.29 274.49 568.24 274.74 568.06 275.42 567.59 275.61 567.59 275.87 567.67 276.24 567.82 276.83 567.99 277.37 567.99 278.19 567.93 278.72 567.78 279.37 567.67 279.99 567.59 280.3 567.64 280.81 567.71 281.49 567.96 282.06 568.24 282.54 568.47 283.02 568.52 283.61 568.49 283.9 568.46 283.98 568.36 284.01 568.28 283.95 568.18 283.89 568.1 283.72 568.03 283.5 567.95 283.41 567.83 283.38 567.65 283.5 567.59 283.61 567.54 283.86 567.46 284.09 567.36 284.17 567.23 284.23 567.13 284.17 566.95 283.94 566.87 283.77 566.93 283.46 567.06 283.07 567.03 282.7 567.11 282.53 567.11 282.36 567.01 282.22 566.83 282.22 566.68 282.25 566.55 282.41 566.42 282.72 566.37 283.12 566.37 283.66 566.23 284.05 566.23 284.42 566.33 284.59 566.59 284.96 566.61 285.47 566.56 285.78 566.4 285.89 566.27 285.83 566.02 285.72 565.92 285.35 565.84 285.15 565.74 285.06 565.49 285 565.29 285.06 565.18 285.25 565.08 285.37 565.08 285.65 565.23 285.91 565.33 286.19 565.41 286.36 565.36 286.53 565.2 286.61 565.05 286.64 564.79 286.66 564.46 286.69 564.15 286.8 564.02 286.91 564 287.06 564.02 287.11 564.07 287.25 564.15 287.65 564.17 287.73 564.12 287.82 564.02 287.9 563.89 287.93 563.71 287.87 563.58 287.7 563.17 287.56 562.92 287.47 562.51 287.44 562.17 287.21 561.76 286.95 561.53 286.59 561.23 286.3 560.92 286.02 560.54 285.65 560.46 284.97 560.29 284.4 560.27 283.92 560.35 283.44 560.63 282.91 560.92 282.26 561.12 281.58 561.05 280.67 560.9 280.05 560.57 279.45 560.17 279.14 559.89 278.63 559.68 278.21 559.74 277.85 559.75 277.26 560.01 276.75 560.47 276.19 561.25 275.94 561.71 275.43 562 275.04 562.1 274.78 562.05 274.42 561.85 273.99 561.77 273.74 561.93 273.29 562.42 273.06 562.55 272.95 562.55 272.72 562.42 272.35 562.25 271.99 562.07 271.62 561.74 270.99 561.36 270.42 561.21 270.06 561.21 269.6 561.29 269.13 561.5 268.85 561.84 268.2 562.4 267.81 562.66 267.47 562.74 267.3 562.74 267.1 562.64 267.04 562.44 267.04 562.26 266.84 562.21 266.34 562.42 266.05 562.6 265.94 562.73 266.08 562.85 266.11 563.01 266.12 563.14 266 563.27 265.72 563.37 265.33 563.5 265.16 563.68 264.85 563.99 264.74 564.25 264.77 564.4 264.91 564.53 265.25 564.48 265.53 564.32 265.98 564.01 266.43 563.75 266.71 563.75 266.88 563.77 267.08 563.87 267.2 563.97 267.45 563.97 267.68 563.95 268.18 563.79 268.38 563.76 268.44 563.89 268.41 564.02 268.1 564.15 267.85 564.23 267.48 564.2 267.4 564.36 267.43 564.61 267.18 564.95 266.78 565.03 266.58 564.93 266.33 564.9 265.93 564.98 265.48 565.17 265 565.32 264.47 565.35 264.1 565.23 263.87 565.28 263.82 565.36 263.73 565.51 263.71 565.82 263.69 566.31 263.55 566.49 263.12 566.62 262.73 566.65 262.36 566.47 262.16 566.27 261.93 565.99 261.56 565.99 261.23 566.07 261.17 566.17 261.17 566.28 261.51 566.45 261.74 566.72 262.17 567.18 262.51 567.36 262.88 567.51 263.59 567.58 264.32 567.65 264.44 567.75 264.41 567.96 264.41 568.19 264.53 568.27 264.81 568.16 265.26 567.95 265.65 567.87 265.93 567.9 266.02 568.25 266.11 568.51 266.28 568.66 266.59 568.69 266.84 568.58 267.15 568.4 267.49 568.27 267.91 568.16 268.25 568.06 268.53 567.9 268.67 567.72 268.79 567.59 268.87 567.39 268.75 567.23 268.72 567.11 268.69 566.88 268.81 566.7 269.23 566.51 269.9 566.3 270.7 566.25 271.06 566.24 271.26 566.24 271.4 566.42 271.49 567.19 271.61 567.6 271.67 568.24 271.51 568.52 271.37 568.81 271.17 568.91 270.86 568.89 270.72 568.76 270.43 568.66 270.29 568.68 270.21 568.81 270.24 569.04 270.33 569.27 270.3 569.35 270.04 569.51 269.79 569.61 269.62 569.71 269.46 569.92 269.37 570.13 269.4 570.2 269.74 570.23 270.08 570.15 270.56 569.76 271.4 569.19 271.82 568.96 272.07 568.93 272.22 568.98 272.36 569.23 272.59 569.44 272.67 569.67 272.67 569.85 272.59 569.98 272.34 569.98 272.11 570.03 271.94 570.08 271.86 570.19 271.86 570.42 271.97 570.54 272.17 570.52 272.42 570.36 272.71 570.31 273.19 570.25 273.47 570.3 273.7 570.58 273.7 570.76 273.39 571.02 272.94 571.41 272.75 571.64 272.58 571.85 272.44 571.98 272.33 572.16 272.35 572.23 272.47 572.31 272.58 572.39 272.58 572.46 272.47 572.57 272.27 572.64 272.19 572.77 272.28 572.93 272.39 572.98 272.62 573.1 272.73 573.28 272.73 573.44 272.65 573.54 272.28 573.64 271.76 573.58 271.34 573.43 270.91 573.33 270.06 573 269.55 572.88 268.23 572.78 266.48 572.79 264.53 572.76 262.83 572.77 260.8 572.74 259.25 572.65 257.13 572.33 256.02 572.08 255.06 571.73 254.52 571.63 253.39 571.23 251.89 570.78 250.39 570.51 249.08 570.03 247.35 569.54 246.14 569.39 244.16 569.16 242.49 569.1 240.91 569.19 240.12 569.25 239.08 569.54 238.09 569.66 236.8 569.85 235.87 570.1 234.77 570.36 234.04 570.6 232.8 571.08 231.74 571.63 230.44 572.15 229.27 572.78 227.75 573.57 226.86 574.19 226.1 574.76 225.77 575.05 225.38 575.49 225.21 575.82 225.02 576.61 225 576.95 224.89 577.15 224.69 577.18 224.47 577.11 224.29 576.91 224.21 576.65 224.06 576.52 223.55 576.32 223.3 576.33 223.16 576.41 222.99 576.64 223 576.87 223.03 577.23 223.23 577.64 223.72 578.09 224.18 578.5 224.52 579.11 224.65 579.9 224.91 580.64 225.35 581.53 225.66 581.94 226.09 582.06 226.74 582.18 227.13 582.36 227.17 582.48 227.14 582.61 226.8 582.8 226.61 583.08 226.61 583.26 226.67 583.44 226.95 583.61 227.01 583.82 227.02 583.92 226.85 584.28 226.57 584.44 226.28 584.47 224.75 584.36 223.26 584.28 222.07 584.19 220.6 583.95 218.37 583.59 216.34 583.41 214.08 583.13 211.84 582.83 210.66 582.71 208.6 582.48 206.79 582.27 204.73 581.92 202.97 581.61 202.12 581.41 201.84 581.19 201.69 580.81 201.48 580.06 201.07 579.43 200.53 578.77 200.04 578.16 199.58 577.68 199.35 577.46 198.78 577.31 197.7 577.15 197.03 577.05 196.91 577.11 196.95 577.28 197.34 577.53 197.75 577.99 198.43 578.31 199.03 578.61 199.77 579.09 200.43 579.62 200.83 580.1 201.07 580.71 201.04 581.04 200.91 581.23 200.4 581.31 199.34 581.28 198.72 581.14 198.01 580.82 197.16 580.62 196 580.51 195.04 580.42 194.24 580.25 193.82 580.34 193.04 580.66 192.54 581 192.12 581.54 191.68 581.96 191.21 582.4 190.54 582.77 189.78 582.99 189.3 583.1 188.49 583.54 188.05 583.81 187.66 583.99 187.09 584 186.81 583.93 186.55 583.73 186.35 583.73 186.21 583.84 185.94 584.2 185.66 584.48 185.27 584.52 184.34 584.48 183.41 584.44 182.76 584.24 181.36 583.73 179.15 583.2 177.34 582.77 175.56 582.46 173.83 582.08 171.99 581.78 169.81 581.59 168.01 581.39 167.04 581.28 165.49 581.3 163.5 581.46 162.03 581.34 160.87 581.28 159.12 581.13 158.07 580.89 157.13 580.66 156.65 580.64 155.49 580.63 154.9 580.59 154.37 580.76 153.3 580.73 152.42 580.74 151.6 580.63 150.62 580.4 150.35 580.34 150.15 580.27 149.61 580.12 148.55 579.97 147.46 579.83 146.71 579.94 145.37 579.87 144.54 579.78 143.86 579.86 143.25 580.06 142.96 580.1 142.49 580.11 141.91 580.02 141.19 579.93 140.72 579.99 140.13 580.21 139.68 580.34 139.24 580.59 138.83 580.87 138.7 581.2 138.53 581.53 138.47 581.7 138.47 581.9 138.48 582.19 138.66 582.35 139 582.57 139.46 582.67 139.69 582.75 139.87 582.85 139.94 582.95 139.94 583.05 139.85 583.15 139.67 583.34 139.27 583.45 138.73 583.44 138.25 583.34 137.25 583.36 136.4 583.58 135.36 583.89 134.06 584.2 133.25 584.44 132.56 584.74 131.68 585.22 130.88 585.77 130.2 586.44 129.36 587.17 128.54 588.14 128.08 588.62 127.71 589.4 127.5 590.05 127.42 590.83 127.46 591.57 127.49 591.75 127.59 592.28 128.05 592.69 128.58 593.03 128.99 593.19 129.69 593.23 130.73 593.34 131.52 593.39 131.97 593.46 132.43 593.66 132.66 593.84 132.75 594.02 132.71 594.21 132.51 594.4 131.92 594.44 131.04 594.43 129.69 594.37 129.35 594.3 128.62 594.27 127.49 594.23 126.47 594.2 125.93 594.13 124.89 594.05 124.05 593.98 122.76 593.88 122.24 593.83 121.49 593.74 121.33 593.6 121.31 593.37 121.41 593.21 121.93 593.03 122.63 592.83 123.28 592.72 123.75 592.55 124.27 592.5 124.72 592.47 125.1 592.38 125.21 592.11 125.22 591.76 125.21 591.16 125.29 590.81 125.56 590.46 125.85 589.62 125.84 589.19 125.69 588.61 125.43 588.08 124.89 587.23 124.13 586.52 123.26 585.76 122.02 585 120.99 584.52 120.03 584.17 118.47 583.78 116.68 583.58 115.28 583.41 113.98 583.24 113.23 583.2 112.33 583.32 111.52 583.52 110.02 584.02 108.76 584.52 107.75 584.83 106.55 585.47 105.61 586.16 104.73 587.09 104.28 587.52 104.01 587.92 103.84 588.31 103.85 588.7 103.86 589.01 103.96 589.38 104.37 589.7 104.83 589.83 105.22 590.05 105.41 590.28 105.48 590.42 105.53 590.68 105.42 591.04 105.41 591.32 105.35 591.61 105.44 591.88 105.75 592.22 106.2 592.36 106.52 592.56 106.64 592.96 106.63 593.27 106.48 593.42 106.27 593.53 106.03 593.53 101.38 592.95 99.3 592.87 97.36 592.91 94.9 592.96 91.03 593.4 87.81 594.06 87.18 594.78 86.58 596.32 86.49 597.85 86.4 599.51 85.91 600.34 84.88 600.6 83.33 600.87 79.72 601.07 78.8 600.85 76.48 600.91 75.44 600.69 74.64 599.89 74.37 599.54 74.86 598.47 74.97 598 74.96 597.52 74.94 596.94 75.44 596.22 76.2 595.49 77.6 594.87 78.5 594.38 78.99 593.43 79.99 591.99 80.21 590.57 80.32 590.18 80.14 589.55 79.99 588.94 79.94 588.37 80.04 588.1 80.2 587.87 80.54 587.57 80.89 587.37 81.01 586.97 81.01 586.85 80.85 586.78 80.55 586.71 80.25 586.77 79.93 586.8 79.6 586.78 79.25 586.64 79.13 586.42 79.12 586.1 79.11 585.69 79.08 585.34 78.96 585.07 78.74 584.91 78.58 584.91 78.42 585.01 78.1 585.34 77.95 585.79 77.56 586.21 77.38 586.41 77.21 586.44 76.89 586.35 76.58 586.19 76.06 585.9 75.81 585.61 75.43 585.47 74.78 585.49 74.27 585.53 73.73 585.51 72.67 585.61 71.7 585.73 70.95 585.85 70.17 586.02 69.61 586.23 68.48 586.5 67.97 586.66 67.35 586.82 66.51 586.89 66.93 585.18 67.35 583.46 67.56 582.15 67.84 580.66 68.34 579.11 68.76 577.33 69.05 576.15 69.26 574.54 69.53 572.56 69.84 570.88 70.01 569.21 70.15 566.55 70.14 565.01 70 563.86 70 562.59 70.22 561.18 70.56 559.17 70.68 557.29 70.84 555.29 71.09 553.87 71.08 552.14 71.25 550.26 71.62 547.86 71.73 546.68 72.1 545.82 72.7 544.98 73.15 544.35 73.17 543.76 72.83 543.11 72.56 542.59 72.55 542.33 72.72 542 73.12 541.86 73.3 541.85 73.52 542.04 73.85 542.23 74.11 542.26 74.29 542.19 74.46 542.02 74.46 541.79 74.45 541.5 74.55 541.17 75.36 540.56 75.57 540.32 75.64 539.93 75.62 539.43 75.79 539.1 76.11 538.74 76.94 538.62 78.43 538.62 79.12 538.73 79.97 539.21 80.81 539.71 81.25 539.8 81.69 539.76 82.08 539.52 82.57 538.89 83.17 538.38 83.46 538.18 83.51 538.16 83.54 537.99 83.74 537.37 83.88 536.85 83.83 536.5 83.62 536.08 83.43 535.71 83.41 535.39 83.6 535.02 83.96 534.75 84.16 534.46 84.22 533.91 84.14 533.32 83.96 532.9 83.77 532.48 83.69 532.15 83.72 531.91 83.75 531.69 83.87 531.41 83.87 531.22 83.79 530.92 83.27 530.91 83 531.01 82.45 530.93 82.32 530.76 82.32 530.51 82.43 530.21 83.12 529.63 83.48 529.21 83.79 528.89 83.96 528.6 84.1 528.28 84.16 528.01 84.29 527.86 84.65 527.81 84.98 527.87 85.69 527.9 86.1 527.93 86.84 528.01 87.25 527.91 87.63 527.74 87.88 527.52 87.99 527.3 88 527.15 87.89 526.96 87.62 526.83 86.94 526.5 86.31 526.17 85.99 525.72 85.69 525.2 85.46 524.56 85.3 524.33 85.05 524.26 84.75 524.23 84.42 524.3 84.12 524.47 83.65 524.64 83.35 524.63 83.13 524.48 82.99 524.17 82.78 523.2 82.58 522.21 82.47 521.64 82.46 520.2 82.52 519.68 82.8 519.17 83.19 518.73 83.33 518.55 83.39 518.36 83.39 518.16 83.51 517.72 83.59 517.39 83.68 517.15 83.85 516.88 84.07 516.58 84.21 516.29 84.27 516.04 84.24 515.79 84.08 515.42 83.79 515.07 83.54 514.85 83.44 514.47 83.47 514.15 83.58 513.81 83.7 513.51 83.79 512.55 83.98 510.94 84.47 508.85 84.99 506.48 85.37 504.75 85.78 503.39 86.23 502.41 86.52 501.64 87.02 500.41 87.56 499.13 88.07 498.3 88.3 497.63 88.3 497.21 88.28 496.79 88.2 496.44 88.2 496.14 88.37 495.87 88.54 495.65 89.04 495.48 89.28 495.49 89.61 495.52 89.83 495.57 90.74 495.58 91.4 495.58 91.92 495.39 92.64 495.03 93 494.91 93.88 494.89 94.35 494.85 94.95 494.66 95.67 494.38 95.75 494.31 95.97 494.11 96.19 493.96 96.47 493.87 96.86 493.67 97.25 493.41 97.91 493.02 98.41 492.63 98.72 492.29 98.97 491.87 99.14 491.57 99.58 491.13 99.75 490.86 99.87 490.44 99.99 489.83 100.05 489.5 100.22 489.11 100.52 488.94 100.8 488.94 101.1 489 102.11 489.4 102.93 489.74 103.89 490.09 104.35 490.4 104.94 491.05 105.51 491.7 105.99 492.64 106.37 493.12 106.67 493.44 107.32 493.67 108.2 493.98 109.61 494.34 110.84 494.68 112.07 494.89 113.2 494.98 114.24 494.92 114.77 494.9 115.26 494.76 115.73 494.5 116.12 494.13 116.32 493.84 116.55 493.34 116.78 492.8 117 492.48 117.12 492.19 117.12 491.79 117.05 491.49 116.81 491.15 116.67 490.85 116.62 490.42 116.63 490.05 116.86 489.59 117.03 489.39 117.25 489.22 117.5 489.17 117.77 489.2 117.96 489.21 118.34 489.53 118.83 489.81 119.13 489.99 119.35 490.04 119.57 490.02 119.85 489.82 119.99 489.6 120 489.33 119.86 489.01 119.18 488.68 118.75 488.25 118.62 487.88 118.65 487.43 118.91 487.02 119.66 486.38 120.44 485.85 120.97 485.41 121.17 485.19 121.26 484.7 121.18 484.35 120.94 483.9 120.51 483.6 119.99 483.27 119.64 482.99 119.53 482.52 119.49 482.05 119.6 481.8 119.77 481.63 120.05 481.34 120.14 481.12 120.14 480.99 120.11 480.7 120.04 480.45 120.04 480.08 120.13 479.78 120.27 479.59 120.55 479.54 121.21 479.55 121.68 479.48 121.98 479.36 122.18 479.07 122.41 478.5 122.58 478.18 122.69 477.91 122.89 477.69 123.45 477.4 123.99 476.94 124.08 476.8 124.16 476.6 124.14 476.43 124.11 476.3 123.7 476.17 123.35 475.9 123.05 475.67 122.75 475.47 122.64 475.17 122.6 474.82 122.63 474.42 122.72 474.03 122.86 473.64 123.15 473.27 123.62 473 124.03 472.84 124.39 472.74 125.03 472.65 125.47 472.63 126.1 472.57 126.49 472.55 127.04 472.38 127.3 472.19 127.52 471.99 127.72 471.72 128 471.38 128.2 471.16 128.47 470.99 128.78 470.82 129.28 470.83 129.5 470.83 129.69 470.89 129.9 471.09 130.31 471.27 130.92 471.55 131.35 471.68 131.57 471.68 132.02 471.59 132.46 471.47 132.74 471.3 132.99 471.13 133.19 470.84 133.3 470.67 133.44 470.37 133.59 470.1 133.84 469.66 134.01 469.34 134.32 469.12 134.71 469 134.96 468.98 135.12 468.99 135.48 469.07 135.89 469.25 136.25 469.32 136.77 469.31 137.32 469.24 137.71 469.1 138.54 468.83 139.1 468.52 139.76 468.26 140.46 468.07 140.84 468 141.31 468.03 141.75 468.12 142.27 468.52 142.7 468.65 143.15 468.66 143.64 468.59 144.25 468.4 145.39 468.2 145.99 468.16 146.79 468.07 147.9 467.99 148.48 467.88 149.06 467.86 149.4 467.77 149.65 467.62 149.89 467.44 150.5 466.86 150.97 466.33 151.36 465.81 151.99 465.21 152.32 464.97 152.78 464.83 153.11 464.83 153.47 464.86 153.87 465 154.29 465.33 154.56 465.82 154.76 466.08 155.11 466.23 155.88 466.21 156.28 466.06 156.61 465.72 156.8 465.27 157.08 464.81 157.34 464.49 157.58 464.33 157.89 464.23 158.11 464.21 158.6 464.28 159.12 464.43 159.29 464.39 159.4 464.29 159.46 464.13 159.5 463.76 159.52 463.42 159.68 463.2 159.98 462.88 160.42 462.64 160.59 462.54 161.23 462.51 161.94 462.51 162.49 462.37 162.77 462.22 163.15 461.96 163.65 461.47 164.09 461.16 164.39 460.98 165.03 460.94 165.34 461.04 165.74 461.23 166.16 461.68 166.61 462.05 166.98 462.25 167.47 462.25 167.98 462.18 168.55 461.98 169.01 461.68 169.58 461.38 169.93 461.2 170.41 461.1 171.07 461.03 171.67 460.81 172.15 460.61 172.5 460.45 172.76 460.52 172.92 460.74 173.12 461.27 173.46 461.53 174.05 461.66 174.34 461.74 174.67 461.74 174.93 461.73 175.18 461.77 175.33 461.83 175.49 461.91 175.75 461.91 176.02 461.89 176.26 461.82 176.57 461.62 176.83 461.33 177.02 461.23 177.38 461.16 177.62 461.16 178.13 461.16 178.28 461.06 178.48 460.86 178.7 460.74 178.96 460.72 179.36 460.75 179.78 460.91 180.13 461.09 180.46 461.24 180.95 461.22 181.32 461.12 181.59 461.12 181.83 461.21 182.03 461.35 182.39 461.74 182.72 461.88 183.34 461.9 183.67 462.01 183.96 462.35 184.35 463.18 184.71 463.45 185.04 463.59 185.57 463.63 185.96 463.49 186.36 462.91 186.57 462.25 186.77 461.58 186.87 461.22 187.01 461.12 187.14 461.1 187.31 461.18 187.52 461.48 187.9 462.21 188.16 462.46 188.45 462.54 189.07 462.5 189.92 462.26 190.49 461.92 190.84 461.81 191.18 461.75 191.51 461.6 191.75 461.34 192.13 460.75 192.6 460.48 192.9 460.32 193.33 460.32 193.94 460.43 195.31 460.54 196.6 460.73 198.02 461.07 199.09 461.21 199.69 461.06 199.91 460.86 199.95 460.63 199.9 459.78 199.9 459.4 200.16 459.05 200.21 458.6 199.69 457.33 199.51 456.52 199.6 456.13 200.2 455.78 200.5 455.47 200.66 454.82 200.58 454.2 200.57 453.58 200.66 453.27 200.7 452.73 200.56 452.16 200.48 451.62 200.26 451.31 200.13 450.92 200.21 450.65 200.25 450.42 200.47 450.19 200.6 449.96 200.59 449.8 200.42 449.5 200.12 449.03 199.64 448.57 199.51 448.19 199.59 447.65 199.85 446.72 199.89 446.18 199.88 445.95 199.62 445.61 199.45 445.07 199.54 444.8 199.71 444.57 200.14 444.41 200.74 444.41 201.6 444.56 202.76 444.44 203.66 444.2 203.92 443.89 204 443.43 203.91 442.47 203.78 441.12 203.9 440.58 204.07 440.15 204.63 439.49 204.89 439.03 205.06 438.45 205.09 437.29 204.95 434.98 204.98 432.64 204.84 430.05 204.48 427.2 204.43 425.5 204.43 424.96 204.6 424.46 204.81 423.57 205.11 422.92 205.41 422.53 205.92 422.14 206.87 421.87 207.82 421.59 208.64 421.28 208.94 421.24 209.2 421.24 209.5 421.36 210.02 421.47 210.32 421.47 210.5 421.39 210.54 421.2 210.54 420.93 210.36 420.66 209.92 420.01 209.27 418.78 208.31 416.78 206.83 414.47 206.09 413.35 205.97 412.68 205.32 412.62 204.43 412.31 202.08 411.2 200.71 410.26 199.43 409.63 197.91 409.46 196.44 409.47 195.33 409.7 194.42 409.88 192.95 410.57 192.04 410.9 190.72 411.04 188.34 410.87 186.66 410.93 185.8 411.25 184.04 412.31 182.22 413.22 181.15 413.32 179.38 413.43 178.27 413.71 177 413.9 175.43 413.82 173.9 413.38 171.92 412.67 170.65 412.45 169.18 412.46 167.5 412.52 166.79 412.35 165.57 411.68 163.98 410.47 163.57 409.84 163.57 409.52 163.82 409.2 164.31 408.75 165.67 407.56 166.12 406.83 166.31 406.11 166.3 405.43 165.73 404.07 165.11 403.13 164.6 402.32 164.33 401.37 164.47 400.32 165.17 398.73 166.21 396.23 167.24 393.14 168.02 390.1 168.11 388.83 168.03 386.16 167.69 383.08 167.47 381.31 167.48 378.14 167.49 374.15 167.36 371.34 166.97 368.54 166.23 366 165.17 363.02 164.44 360.85 164.05 358.72 164.05 357.92 164.04 357.14 163.82 356.63 163.1 353.67 162.38 350.82 160.86 346.45 160.59 344.44 160.87 342.52 161.55 339.54 161.7 337.15 161.93 333.7 162.91 329.56 163.28 327.16 162.93 326.02 162.15 325.46 161.39 325.09 160.3 324.92 156.1 325.68 151.8 326.63 149 327.46 147.49 327.3 146.4 327.04 145.29 326.2 144.29 325.17 142.43 323.4 139.89 321.74 138.01 320.25 137.43 318.92 135.99 317.71 132.56 315.4 128.27 313.39 125.21 312.51 119.1 311.41 112.9 310.7 108.21 309.96 103.61 308.55 99.66 307.12 95.91 305.3 91.6 303.31 89.04 301.37 84.68 297.95 81.62 294.49 80.09 292.53 77.51 290.4 72.81 286.8 70 284.49 68.74 282.71 66.8 280.46 65.29 278.02 63.78 275.48 62.58 272.73 60.72 269.82 59.22 267.66 57.62 265.89 55.37 264.04 53.91 263.03 53.44 262.18 53.41 261.42 53.89 260.77 54.39 259.61 54.58 258.84 53.89 258.09 52.88 257.26 52.3 256.42 51.94 255.56 51.59 255 50.6 254.84 49.07 254.89 47.74 254.45 47.23 252.64 47.2 251.88 47.46 250.34 47.11 249.58 46.73 248.44 45.03 247.06 43.65 245.38 43.16 244.15 43.13 243.29 42.97 242.44 41.68 240.47 41.19 239.15 41.27 238.47 41.79 237.79 42.63 236.8 42.81 235.93 42.79 235.36 42.41 234.31 41.63 233.96 40.53 233.8 39.21 233.65 38.42 233.1 37.74 232.45 34.73 228.71 30.83 224.72 27.5 221.28 21.87 215.62 18.19 211.82 15.06 208.96 13.7 207.95 11.26 205.06 7.91 201.73 4.79 198.48 2.11 195.31 1.16 193.81 1 192.67 1.92 192.86 4.51 194.02 7.53 195.06 11.3 195.7 13.86 196.28 16.75 197.04 20.21 197.98 26.1 199.41 31.78 200.95 37.46 202.59 43.15 204.52 49.49 206.43 57.93 208.66 66.68 210.94 73.23 212.86 79.56 214.6 84.66 215.99 89.77 217.67 97.07 219.49 104.29 221.98 112.38 224.75 121.31 227.14 123.63 227.66 129.82 229.62 134.45 230.47 138.41 230.86 140.92 230.61 142.87 230.09 143.96 229.78 145.27 229.65 149.43 229.37 153.7 229.28 157.96 229 163.31 228.32 170.63 227.31 177.48 226.61 181.96 225.95 184.91 225.71 189.62 225.43 194.44 225.16 201.01 225.24 204.3 225.09 204.44 225.08 205.07 225.04 208.25 224.44 211.27 223.78 215.12 223.21 217.33 222.93 221.55 222.97 227.51 222.88 232.7 223.27 236.53 223.52 241.62 224.24 245.13 224.92 249.24 225.92 254.16 226.88 257.83 227.56 261.56 228.05 265.49 228.62 266.47 228.67 268.03 228.87 269.38 229.45 270.13 230.06 271.48 230.97 272.12 231.31 273.04 231.31 274.18 231.32 274.94 231.18 275.59 230.8 276.02 230.43 276.57 229.34 276.96 228.16 277.24 227.22 277.84 226.09 278.39 225.33 279.59 224.3 281.22 223.22 282.85 222.29 283.72 221.72 284.37 221.07 285.19 220.13 285.74 219.51 286.45 219.05 287.1 218.86 288.4 218.73 290.24 218.5 291.44 218.28 292.31 218 293.44 217.27 294.9 216.76 296.37 216.49 298.53 216.51 300.38 216.33 302.33 215.97 303.53 215.41 305.1 214.9 306.68 214.68 308.52 214.51 310.15 214.38 311.29 213.92 312.87 213.22 314.12 213.09 314.88 213.1 316.56 213.12 318.56 213.52 322.06 214.03 328.17 214.9 333.63 215.29 339.42 215.73 344.39 216.27 348.72 216.65 350.66 216.83 353.15 216.72 355.32 216.37 355.7 216.29 361.12 216.36 361.78 216.3 362.79 216 363.73 215.69 364.38 215.48 366.48 214.93 369.13 214 370.8 213.52 372.28 213.12 374.44 212.57 376.97 211.99 379.13 211.51 380.28 211.19 381.73 210.64 383.35 210.27 385.11 209.89 387.05 209.35 389.08 208.83 391.3 208.23 392.48 207.79 394.51 207.24 396.76 206.77 399.83 205.88 403.45 204.93 405.09 204.48 407.24 203.98 409.3 203.46 411.79 202.72 414.37 201.91 416.87 201.29 419.26 200.6 421.57 200.05 424.04 199.32 426.49 198.7 429.62 197.92 431.44 197.55 433.66 196.89 435.01 196.48 435.8 196.07 438.25 195.12 441.38 194.1 444.08 193.29 446.31 192.76 449.12 192.12 451.32 191.53 452.86 191.06 454.7 190.43 456.33 189.8 457.37 189.34 458.2 188.93 458.65 188.65 459.03 188.33 460.7 185.78 461.22 185.51 461.85 184.99 462.23 184.6 462.58 184.53 462.84 184.37 462.96 184.19 463.15 183.92 463.4 183.58 463.62 183.26 463.94 183.02 464.23 182.79 464.27 182.59 464.32 182.33 464.46 182.1 464.71 181.82 465.01 181.62 465.28 181.19 465.53 180.99 465.76 180.85 466.05 180.76 466.18 180.67 466.23 180.58 466.22 180.41 466.26 180.3 466.35 180.17 466.54 179.98 466.83 179.7 466.94 179.48 466.94 179.39 466.87 179.3 466.55 179.12 465.2 178.22 463.31 176.95 461.76 175.82 460.03 174.55 458.43 173.32 457.54 172.56 456.12 171.34 456.09 171.32 456.44 170.98 456.46 170.54 456.47 170.44 456.57 169.97 456.67 169.63 457.06 169.15 457.34 168.74 457.44 168.37 457.58 167.62 457.68 167.24 458.21 166.49 458.73 165.64 459.79 164.45 460.07 163.94 460.06 163.44 460.05 162.85 460.08 162.35 460.15 161.98 460.25 161.67 460.57 161.23 460.78 160.85 460.88 160.38 461.02 160 461.27 159.66 461.87 158.84 462.15 158.22 462.46 157.25 463.11 155.12 463.27 153.68 463.23 153.06 463.22 152.66 463.32 152.25 463.46 151.81 463.81 151.22 464.23 150.53 464.3 150.09 464.33 149.57 464.28 148.79 464.33 147.39 464.53 145.98 464.9 143.86 465.49 142.51 465.69 141.76 465.76 141.23 465.68 140.8 465.24 140.36 464.73 139.68 464.61 139.15 464.61 138.62 464.67 138.16 464.92 137.78 465.3 136.59 465.38 136.25 465.29 135.92 465.14 135.64 464.84 135.55 464.5 135.51 463.77 135.37 463.2 135.23 462.57 134.71 461.94 134.3 460.62 133.09 459.81 130.86 459.51 129.68 459.47 127.79 459.77 125.96 460.07 124.36 460.31 123.11 460.96 121.39 461.48 120.2 462 118.99 462.43 117.91 462.64 117.14 463.04 115.83 463.28 114.66 463.49 113.84 464.01 112.07 464.84 109.7 465.4 108.22 465.45 107.59 465.85 106.28 466.27 104.57 467.12 101.47 467.67 99.42 468.05 98.17 468.39 97.34 468.74 96.85 468.97 96.59 469.49 96.22 470.01 95.98 471.19 95.82 472.5 95.65 474.74 95.25 477.33 94.92 479.24 94.55 481.57 94.04 483.73 93.29 484.95 92.58 486.64 91.47 487.62 90.83 488.37 90.23 489.14 89.48 490.25 88.47 490.83 87.92 491.73 87.06 492.45 86.4 493.03 85.99 493.59 85.7 494.11 85.41 494.47 85.2 494.63 84.72 494.59 84.1 494.67 83.31 494.8 82.91 495.06 82.54 495.18 82.34 495.21 82.05 495.2 81.43 495.19 81.03 495.28 80.75 495.38 80.63 495.51 80.49 495.64 80.26 495.63 79.98 495.56 79.52 495.58 79.13 495.78 78.95 495.98 78.89 496.37 78.58 496.56 78.35 496.65 77.92 496.77 77.15 496.69 76.05 496.71 75.49 496.81 75.26 497.13 74.63 497.31 74.06 497.41 73.78 497.57 73.6 497.77 73.57 498.1 73.57 498.36 73.71 498.69 73.73 498.86 73.58 499.12 73.5 499.38 73.49 499.65 73.66 499.92 73.97 500.23 74.3 500.56 74.53 501.02 74.49 501.28 74.35 501.61 74.06 501.97 73.91 502.2 73.85 502.76 73.93 503.16 73.89 503.49 73.66 503.97 73.23 504.23 72.83 504.36 72.49 504.45 72.09 504.54 71.47 504.85 70.81 505.11 70.24 505.5 69.84 506.11 69.12 506.93 68.4 507.94 67.76 509.35 67.25 510.13 66.9 511.58 66.51 512.31 66.45 512.8 66.41 513.66 66.17 514.28 65.86 515.14 65.53 515.93 65.38 516.99 65.37 517.38 65.36 517.81 65.3 518.44 65.18 520.16 65.02 521.51 64.95 522.27 64.99 523.9 65.34 524.73 65.67 525.04 65.98 525.04 66.18 524.83 66.59 524.38 67.36 523.96 67.8 523.01 68.49 522.75 68.86 522.49 69.23 522.33 69.54 522.33 69.71 522.47 69.91 523.1 70.13 523.99 70.29 524.33 70.46 524.5 70.65 524.5 70.82 524.31 71.17 524.31 71.45 524.48 71.67 525.01 72.12 525.72 72.6 526.31 72.79 526.71 72.78 527.01 72.7 527.46 72.43 527.99 72.15 528.64 71.8 529.56 71.33 530.42 71.13 531.15 71 531.74 71 532.3 70.99 532.5 70.99 532.63 70.9 532.89 70.7 533.15 70.22 533.38 70.02 533.81 69.81 534.07 69.75 534.47 69.92 534.7 70.17 535.11 70.85 535.61 71.47 536.15 72.09 536.68 72.34 537.31 72.47 538.33 72.56 539.43 72.64 540.28 72.6 541.18 72.85 541.88 73.15 542.28 73.46 542.95 73.91 543.51 74.07 544.11 74.47 544.5 74.69 545.1 74.82 545.98 74.73 546.1 74.78 546.17 74.95 546.17 75.03 546.44 75.05 547.28 75.04 548.1 75.04 548.65 74.92 549.16 74.78 549.65 74.72 550.4 74.54 550.98 74.56 551.5 74.64 551.79 74.7 552.22 74.69 552.51 74.63 553.03 74.43 553.71 74.34 554 74.17 554.16 73.87 554.35 73.72 554.93 73.55 556.13 73.21 557.52 72.89 558.43 72.83 559.37 72.71 560.7 72.36 562.44 71.78 563.16 71.58 564.1 71.23 565.07 70.86 566.1 70.47 567.14 70.24 568.31 70.09 569.38 70.08 570.75 70.01 571.78 69.9 572.66 69.69 574.09 69.18 575.38 68.89 576.45 68.52 576.78 68.33 577.23 67.88 577.61 67.51 578.32 66.84 579.28 66.11 579.99 65.83 580.68 65.55 581.65 65.4 582.66 65.23 583.4 65.19 584.02 65.05 584.96 64.99 585.97 64.9 586.49 64.73 587.04 64.53 587.53 64.08 587.82 63.64 587.97 62.88 588.06 62.13 588.06 61.43 588.02 60.71 587.92 60.21 587.97 59.18 588.13 58.53 586.41 57.68 584.81 57.21 583.51 56.81 581.73 56.92 579.96 57.38 578.19 57.92 576.12 58.3 575.63 58.31 574.44 58.25 573.44 57.93 572.83 57.61 572.32 56.94 571.91 56.27 571.68 55.08 571.75 54.23 571.83 53.3 572.29 52.02 572.76 51.24 573.04 50.56 573.32 49.87 573.6 49.27 574.18 48.84 574.87 48.57 575.6 48.37 576.44 48.41 577.85 48.16 579.2 48.14 580.29 47.9 581.63 47.43 582.71 46.91 583.6 46.35 584.45 45.5 585.52 44.49 586.47 43.81 587.42 43.29 588.19 43 588.57 42.61 589.14 42.16 589.77 41.54 589.87 41.49 590.56 41.03 591.33 40.38 591.68 40.07 592.1 39.8 592.84 39.58 593.69 39.05 594.32 38.77 594.68 38.61 594.96 38.58 595.32 38.58 595.71 38.6 596 38.78 596.35 38.9 596.53 38.9 596.81 38.87 597.1 38.77 597.33 38.56 597.72 38.35 598.39 38.19 599.03 38.09 600.03 38.02 600.63 37.92 601.62 37.64 602.68 37.29 603.6 36.98 604.1 36.64 604.52 36.27 605.08 35.72 605.64 35.41 606.1 35.11 606.99 34.76 607.55 34.42 607.94 33.99 608.46 33.5 609.07 33.19 609.67 33.04 609.95 32.94 610.16 32.85 610.34 32.55 610.41 32.21 610.46 31.06 610.64 30.78 610.88 30.63 611.31 30.35 611.8 29.68 612.22 29.22 612.64 28.91 613.48 28.34 614.29 27.69 615.1 26.86 615.66 26.19 616.22 25.31 616.85 24.15 617.54 22.62 617.99 21.43 618.45 20.7 618.69 20.58 618.87 20.61 619.02 20.7 619.2 21.06 619.56 21.75 620.1 22.24 620.57 22.42 621.71 22.68 623.24 22.97 625.49 23.32 626.35 23.49 626.53 23.71 626.68 24.56 626.83 25.47 626.98 26.1 627.34 26.46 627.77 26.83 628.45 27.03 629.23 27.09 631.98 27.37 633.82 27.47 635.78 27.51 639.84 27.52 640.3 27.58 641.19 27.9 641.84 28.3 642.41 28.72 642.87 28.96 643.37 29.14 644.33 29.19 646.04 29.03 646.75 29 647.39 29.08 648.46 29.53 649.46 30.08 650.32 30.53 651.21 30.76 651.93 30.94 652.39 30.94 653.03 30.76 653.49 30.39 653.73 29.9 654.08 29.23 654.37 28.81 654.72 28.41 655.18 28.1 655.32 27.86 655.32 27.74 655.18 27.56 654.75 27.47 653.08 27.48 650.3 27.49 648.98 27.44 646.63 27.51 645.96 27.63 645.28 27.88 644.75 27.94 644.47 27.89 644.25 27.77 643.68 27.28 643 27.01 642.86 26.86 643.03 26.71 643.58 26.63 644.22 26.45 645.35 25.98 646.6 25.43 648.3 24.54 649.43 23.87 650.25 23.32 650.81 22.74 651.24 22.25 652.02 21.51 652.62 21.18 653.01 21.11 653.44 21.11 654.01 21.44 654.62 21.96 655.98 23.17 657.09 24.07 658.45 24.89 660.09 25.55 661.16 25.94 662.05 26.15 662.98 26.14 663.94 26.14 664.9 26.07 665.08 26.13 665.19 26.23 665.19 26.47 665.1 26.76 665.14 27.1 665.36 27.46 665.64 27.95 665.72 28.67 665.73 30.44 666.01 30.92 666.7 32.07 667.31 32.95 668.06 34.01 668.52 34.65 669.06 35.04 669.59 35.37 670.2 35.55 670.84 35.86 671.2 36.19 671.38 36.58 671.45 37.25 671.59 37.68 672.06 38.19 672.81 38.49 673.71 39.12 674.35 39.61 674.7 39.82 675.09 40.01 675.82 40.24 677.57 40.35 679.78 40.23 681.1 40.14 682.19 40.32 682.84 40.2 683.8 40.17 684.4 40.05 684.63 39.79 684.97 39.42 685.32 39.15 685.55 38.84 685.53 38.38 685.35 37.59 685.4 37.18 685.56 36.86 685.86 36.65 686.39 36.58 687.18 36.82 688.41 37.4 689.88 38.23 690.6 38.36 691.08 38.25 691.31 38.04 691.3 37.78 691.17 37.37 691.28 37.11 691.51 37.01 691.98 36.68 695.03 34.6 698.6 32.25 700.13 31.18 700.23 30.77 700.21 30.31 700.44 29.99 700.62 29.84 700.91 29.62 700.96 29.36 700.95 29.11 700.82 28.86 700.5 28.25 700.48 27.79 700.53 27.43 700.7 27.17 701.48 27.04 702.43 26.92 702.79 26.8 703.08 26.59 703.31 26.28 703.41 25.71 703.69 25.04 704.28 24.11 704.74 23.58 705.14 23.06 705.42 22.34 705.56 21.41 705.66 20.79 705.88 20.07 706.04 19.7 706.33 19.39 706.75 19.12 707.94 18.89 708.71 18.61 709.12 18.29 709.71 17.92 710.72 17.38 711.6 16.84 712.42 16.21 713.18 15.62 713.32 15.46 713.35 15.41 713.57 15.14 713.64 15.05 713.79 14.63 713.81 14.58 713.84 14.5 713.97 14.17 714 14.15 714.12 14.08 714.15 14.06 714.16 14.06 714.51 14.05 714.63 14.05 714.78 14.06 715.54 14.13 716.25 13.96 716.38 13.89 716.73 13.69 717.26 13.32 717.75 12.88 717.78 12.83 717.86 12.99 717.88 13.03 717.92 13.07 718.01 13.15 718.32 13.34 718.42 13.39 718.65 13.51 718.71 13.54 719.13 13.52 719.37 13.41 719.6 13.3 720.41 12.83 720.5 12.76 720.57 12.71 720.59 12.69 720.62 12.67 720.86 12.48 720.96 12.4 721.03 12.38 721.04 12.37 721.26 12.29 721.49 12.29 721.5 12.29 721.88 12.37 721.92 12.38 722.71 12.62 723.1 12.65 723.14 12.65 723.19 12.65 723.24 12.65 723.46 12.61 723.61 12.59 723.91 12.53 723.99 12.54 724.4 12.57 724.94 12.61 725.75 12.63 726.14 12.61 726.38 12.6 726.86 12.51 727.58 12.29 728.29 12.28 729.05 12.35 729.51 12.4 729.62 12.41 730.46 12.33 731.83 12.05 732.92 11.77 732.99 11.75 733.37 11.6 733.62 11.49 733.99 11.53 734.04 11.6 734.19 11.78 734.55 12.24 735.01 12.79 735.06 12.86 735.18 12.91 735.52 13.04 736.15 13.17 736.33 13.05 736.45 12.97 737.01 12.56 737.04 12.54 737.38 12.27 737.95 11.94 737.96 11.93 738.15 11.85 739.01 11.47 739.29 11.34 739.46 11.22 739.58 11.14 739.68 11.07 739.84 10.92 739.99 10.77 740.1 10.72 740.26 10.58 740.79 9.93 741.2 9.61 741.34 9.57 741.47 9.5 742.07 9.36 742.17 9.33 742.62 9.09 742.64 9.08 742.66 9.07 742.92 8.87 743.02 8.65 743.02 8.64 743.04 8.43 743.05 8.38 743.14 8.11 743.21 7.99 743.23 7.95 743.26 7.9 743.48 7.6 743.67 7.36 743.85 7.12 744.04 6.9 744.13 6.74 744.13 6.47 744.13 6.28 744.22 5.85 744.31 5.72 744.32 5.71 744.4 5.58 744.65 5.39 745.14 5.23 745.16 5.23 745.16 5.22 745.44 5.06 745.52 4.99 745.64 4.87 745.69 4.83 746.12 4.31 746.4 4.04 746.6 3.84 746.94 3.52 747.16 3.33 747.17 3.33 747.35 3.29 747.41 3.28 747.47 3.27 747.92 3.22 748.44 3.16 749.57 3.01 749.69 3.01 749.79 2.99 749.96 3.01 750.29 3.02 750.6 3.01 750.99 2.95 752 2.89 752.23 2.83 752.59 2.73 752.98 2.61 753.18 2.54 753.7 2.42 754.36 2.2 754.68 1.93 755.05 1.85 755.28 1.95 755.4 2.11 755.53 2.25 755.63 2.25 755.85 2.24 756.03 2.19 756.29 2 756.44 1.89 756.82 1.81 757.04 1.75 757.23 1.65 757.67 1.45 757.79 1.43 757.95 1.43 758.11 1.51 758.58 1.53 758.87 1.5 759.22 1.47 759.62 1.36 760.16 1.17 761.01 1.08 761.51 1 761.74 1 761.86 1.08 761.86 1.21 Z"/>
</g>
</svg>