<?xml version="1.0"?>
<svg xmlns="http://www.w3.org/2000/svg" version="1.2" baseProfile="tiny" width="800" height="613" viewBox="0 0 800 613" stroke-linecap="round" stroke-linejoin="round">
<g id="balochistan_districts">
<path d="M 456.04 477.03 454.48 479.89 454.48 484.53 453.42 486.85 450.3 488.44 449.11 489.57 449.11 491.96 448.65 495.01 449.04 497.8 451.36 502.24 452.16 504.36 452.29 506.42 453.48 511.86 454.15 516.23 454.88 518.89 455.8 524.33 456.86 528.7 457 531.09 456.6 532.28 453.95 537.99 452.36 542.17 450.57 546.08 446.19 554.77 441.49 562.33 438.9 564.25 436.32 563.92 434.39 562.86 432.87 561.53 431.21 562.4 429.22 562.46 426.97 560.61 425.98 560.61 424.05 561.73 419.41 561.47 415.04 559.61 412.92 558.95 408.48 560.27 402.05 563.26 399.2 564.98 396.81 566.11 394.56 566.57 392.5 565.65 392.97 564.85 395.42 563.66 396.02 562.99 396.48 558.95 396.48 556.43 396.08 555.76 394.03 554.5 393.9 551.98 392.97 550.33 395.55 548.67 395.22 547.61 395.88 545.02 395.35 544.49 393.36 545.75 391.51 546.48 390.25 546.48 387.4 548.53 384.22 549.73 381.83 549.73 380.04 550.66 379.91 552.45 376.2 551.85 373.15 553.31 371.96 555.3 369.1 554.57 367.77 555.02 366.65 553.24 364.86 551.72 362.87 552.45 355.38 554.37 349.22 555.5 343.45 555.9 339.67 556.83 333.84 557.02 318.8 559.48 308.06 560.8 305.8 561.47 302.56 563.32 299.64 565.31 297.12 566.18 294.47 565.91 291.42 564.72 289.3 563.59 287.38 563.32 280.33 563.25 276.76 563.06 276.15 562.1 278.96 558.42 280.04 555.71 283.53 551.12 287.11 550.19 289.03 550.92 290.09 550.13 292.15 550.46 295.66 548.93 295.33 547.08 294.34 546.08 291.88 544.75 291.09 544.75 289.37 542.3 288.99 539.99 290.16 538.85 292.13 537.88 293.33 536.09 292.95 532.58 293.68 530.78 295.91 530.16 295.95 528.33 295.47 527.61 295.47 524.89 296.05 523.82 296.81 519.44 298.09 516.96 300.53 515.2 304.49 514.89 308.01 512.82 309.32 510.41 309.52 508.24 308.35 504.34 306.8 501.83 304.7 499.34 303.46 498.6 302.56 496.93 301.43 493.31 301.29 490.04 301.53 489.11 302.98 487.38 304.73 486.69 315.59 486.49 324.41 487.45 335.67 487 340.8 487.31 343.39 486.9 344.63 486.35 344.66 484.07 343.42 482.21 343.29 479.73 345.18 477.56 348.42 474.8 352.52 472.11 354.03 470.66 361.61 464.39 365.51 460.73 373.5 452.15 374.91 451.15 376.46 447.77 378.18 444.67 378.7 442.15 379.22 439.41 379.42 435.74 381.12 432.58 386.86 424.87 388.74 421.85 389.62 420.88 393.46 414.64 395.04 412.7 398.23 407.89 399.52 404.49 399.78 401.71 399.78 398.54 400.99 397.68 401.95 398.37 408.46 400.1 414.93 402.44 417.48 404.4 419.85 406.81 422.05 410.12 423.43 412.99 423.46 414.28 424.83 418.53 427.94 421.96 432.74 421.61 435.17 420.85 436.87 418.18 437.93 417.04 439.13 417.27 439.39 418.39 439.16 425.36 437.78 434.19 436.99 436.59 436.49 440.64 435.06 446.35 433.89 450.05 431.54 458.64 430.81 460.25 429.11 465.94 428.5 468.87 428.76 470.57 429.64 472.62 438.08 485.43 441.15 490.94 444.2 495.22 442.73 491 442.67 488.77 441.83 485.67 441.94 483.06 444.2 481.88 444.58 478.51 443.96 477.31 444.08 475.82 445.72 472.42 447.39 470.83 449.44 469.75 450.85 469.75 453.69 472.62 453.84 474.44 456.04 477.03 Z"/>
<path d="M 736.99 203.96 734.71 203.96 729.51 204.84 726.72 206.11 724.18 208.21 722.02 208.53 715.55 211.26 712.95 211.95 710.54 211.89 708.51 211.38 704.51 209.86 702.1 207.83 697.98 206.3 696.78 205.42 696.33 203.77 695.06 202.62 694.87 201.54 696.52 200.34 698.11 199.96 702.17 198.37 702.99 196.72 706.8 194.05 709.02 193.1 713.14 190.75 715.68 189.99 716.95 189.99 718.03 188.72 722.4 188.34 723.73 185.04 724.81 184.72 727.6 182.44 729.82 179.65 729.38 177.81 731.03 176.09 731.85 173.36 730.71 172.98 728.75 173.17 727.67 175.2 724.5 174.89 724.13 173.4 728.02 169.1 731.81 165.61 736.08 161.27 737.34 160.25 739.15 159.17 739.57 159.95 738.31 162.42 737.46 162.66 736.8 165.73 737.71 166.21 739.15 167.29 740.71 167.17 744.02 163.5 744.02 161.09 747.21 157.78 749.49 154.11 749.49 153.09 750.88 152.13 750.64 150.56 752.38 148.75 753.99 149.78 754.56 153.18 755.6 154.12 757.96 154.36 762.96 152.8 764.27 151.29 767.96 150.91 770.98 151.64 770.64 154.19 772.83 154.14 771.84 156.73 772.2 157.83 773.52 157.25 774.87 155.72 780.15 155.7 780.2 157.31 778.33 159.8 776.9 160.03 774.38 163.39 773.66 166.04 772.93 167.13 772.98 170.04 771.58 173.83 768.31 176.79 767.32 179.18 766.54 182.3 764.52 187.03 760.88 190.25 759.79 191.55 757.3 197.11 756.1 198.83 752.83 201.11 751.74 202.67 748.94 203.61 747.07 204.7 744.4 205.69 739.78 204.08 736.99 203.96 Z"/>
<path d="M 304.8 215.74 306.95 215.52 317.82 214.8 322.16 214.91 326.82 215.63 333.32 215.91 339.21 216.63 346.92 217.18 349.98 218.46 353.14 218.79 356.03 218.68 359.47 217.91 361.23 217.23 364.56 219.92 369.54 225.04 372.66 228.74 374.94 232.58 380.77 242.96 384.18 248.65 389.44 258.04 390.44 260.8 388.2 261.72 384.23 264.73 380.98 266.71 376.89 269.72 374.49 271.29 370.88 272.91 368.23 275.92 364.62 279.05 362.28 279.83 354.1 280.56 352.17 282.3 348.14 286.76 344.23 290.37 342.49 290.61 335.75 289.7 333.95 289.64 328.72 291.3 321.98 293.32 319.63 293.8 317.29 293.74 309.59 296.57 307.36 296.75 305.32 298.31 303.39 300.6 302.67 302.16 300.87 303.85 299.06 304.33 296.42 304.45 293.65 304.09 290.7 302.88 289.56 302.76 289.56 305.05 289.2 306.38 286.61 306.74 284.39 307.52 282.88 308.66 280 308.54 276.57 308.72 271.88 312.21 269.83 312.63 267.79 314.5 266.58 316 264.78 315.4 261.17 316.61 259.31 316.49 257.14 317.27 253.35 320.22 250.83 323.17 250.47 320.04 249.02 319.92 247.82 321.66 245.17 322.81 240.78 323.83 238.02 324.01 235.49 323.71 227.79 323.59 222.8 323.83 217.69 324.79 214.86 325.69 212.45 326.06 206.32 325.69 203.43 325.21 202.23 325.39 200.3 327.14 199.52 329 199.22 330.99 198.26 332.86 197.3 333.52 195.55 333.46 191.7 335.14 184.73 340.44 178.77 345.55 175.28 348.26 174.08 350.07 172.1 351.69 169.21 354.82 165.6 357.41 163.99 358.01 162.98 350.38 161.43 347.25 161.13 345.78 162.19 339.8 163.53 330.81 163.14 325.03 162.71 324.69 149.47 326.54 146.22 326.9 144.59 324.91 141.92 322.25 138.64 320.43 136.05 316.64 133.28 314.01 127.59 311.39 125.68 311.12 121.13 309.23 116.35 309.03 110.48 307.19 108.94 307.02 105.84 307.4 99.7 305.46 97.37 303.71 95.45 302.68 92.43 302 88.28 299.88 85.02 297.9 81.02 294.88 79.43 294.25 77.17 290.88 72.39 285.93 69 283.19 67.7 281.1 65.54 278.86 63.83 275.97 59.89 271.03 59.02 268.61 57.66 266.9 54.02 263.1 53.93 258.95 51.87 256.91 51.79 255.02 50.15 253.36 46.52 252.23 46.44 250.49 47.61 247.31 45.11 246.05 43.78 244.96 41.6 239.76 42.93 236.9 43.28 235.31 42.86 234.17 37.65 230.12 27.61 221.13 21.95 215.16 1 190.66 27 198.54 50.12 205.61 66.58 210.68 84.85 216.02 108.03 222.85 134.65 230.75 167.43 227.54 191.72 225.21 211.65 223.34 228.23 222.24 230.83 222.15 235.41 223.08 257.95 226.54 268.25 228.32 269.29 228.72 271.25 230.52 274.43 231.73 276.61 230.5 278.41 225.62 280 224.77 283.14 221.82 285.62 221.13 288.12 219.32 289.18 218.96 292.22 218.77 295.38 217.49 296.86 217.21 300.4 217.52 304.8 215.74 Z"/>
<path d="M 700.31 311.24 699.19 307.92 696.15 306.16 692.57 309.47 687.51 308.8 681.17 308.87 677.32 308.39 675.29 308.46 673.4 307.85 669.28 307.11 660.51 303.13 654.57 299.41 649.17 296.51 646.06 294.28 644.71 294.01 643.5 292.99 642.27 291.25 641.47 287.39 641.67 284.95 641.27 279.35 639.99 275.7 639.24 271.44 639.45 267.26 639.31 265.23 636.81 259.35 636.75 259.28 634.25 255.91 627.83 248.68 627.63 247.26 628.71 244.83 629.73 244.29 631.55 244.63 634.65 246.05 638.77 246.38 644.04 246.18 645.19 244.96 645.31 244.95 657.76 241.66 660.37 241.09 663.47 241.34 667.41 241.98 668.61 241.91 670.96 242.23 674.64 242.86 676.03 243.05 679.59 244.13 680.66 244.26 683.26 244.58 684.6 244.45 687.2 243.37 689.35 241.66 691.89 241.34 694.75 241.72 697.47 242.42 701.15 242.67 704.07 241.85 706.54 240.96 707.24 239.69 709.72 236.33 711.56 234.42 713.71 234.17 715.81 233.72 717.96 232.65 719.8 230.61 720.5 229.85 723.92 228.39 726.97 227.31 727.86 226.68 730.2 224.71 732.17 221.85 732.17 220.59 731.22 219.76 728.36 219.57 725.95 218.11 725.57 217.22 725.57 216.27 725.7 215.32 727.1 212.97 729.63 210.49 733 208.15 734.39 207.26 735.98 206.43 738.96 206.24 741.05 206.62 742.75 207.29 741.98 209.53 739.43 210.52 740.57 212.86 740.21 215.98 740.11 219.15 739.48 221.69 737.82 223.2 736.99 225.43 737.25 229.18 738.5 229.54 741.09 227.88 742.55 228.45 744.88 230.84 745.98 232.76 745.56 233.85 743.17 236.14 743.12 237.28 745.4 237.59 746.86 239.31 747.17 241.86 748.52 241.7 750.75 239.62 752.42 238.48 754.03 238.74 753.82 240.09 752.26 243 751.79 244.71 752.16 246.95 752.67 247.83 752.36 249.08 750.75 251.26 748.31 256.25 744.52 257.7 742.65 260.2 741.25 261.39 739.28 264.15 738.13 267.21 736.26 267.58 735.02 269.5 731.02 272.26 729.98 276.41 731.75 277.45 733.51 277.97 734.45 279.53 734.86 281.3 733.1 284.83 729.93 289.35 724.47 297.87 721.15 299.43 718.81 300.16 716.22 301.72 716.48 303.12 717.36 303.9 719.28 309.36 719.78 310.27 709.67 310.27 704.04 311.07 700.31 311.24 Z"/>
<path d="M 280.04 555.71 278.96 558.42 276.15 562.1 276.76 563.06 280.33 563.25 287.38 563.32 289.3 563.59 291.42 564.72 294.47 565.91 297.12 566.18 299.64 565.31 302.56 563.32 305.8 561.47 308.06 560.8 318.8 559.48 333.84 557.02 339.67 556.83 343.45 555.9 349.22 555.5 355.38 554.37 362.87 552.45 364.86 551.72 366.65 553.24 367.77 555.02 368.11 561.47 367.85 570.36 368.97 571.75 370.55 572.9 371.11 571.85 369.97 574.06 369.42 576 366.81 576.65 365.15 576.5 363.5 576.95 360.21 576.74 358.49 575.9 357.45 576.4 353.95 576.17 349.85 575.33 347.37 575.72 342.06 575.27 338.11 575.93 335.59 575.86 331.63 574.26 332.26 575.62 329.05 575.69 324.99 576.8 322.44 578.21 320.8 579.74 320.07 580.93 319.33 583.73 319.48 584.9 321.31 586.4 324.32 586.51 324.23 588.16 321.63 589.34 317.76 589.8 315.04 589.39 314.92 587.53 316.73 586.87 317.36 585.45 316.8 583.4 314.36 581.49 311.57 579.97 310.3 579.7 307.74 580.02 306.24 580.78 305.5 581.94 304.28 582.45 299.91 582.7 297.41 580.81 294.36 579.43 288.11 577.24 285.84 576.87 286.78 575.18 284.43 575.94 279.36 575.02 277.31 574.94 273.32 575.19 272.53 574.68 273.44 571.79 275.35 571.69 272.6 569.65 275.95 567.89 277.53 568.03 277.14 566.73 277.85 565.73 279.57 565.11 278.69 564.26 276.04 565.68 275.45 564.37 272.22 565.28 270.94 565.15 269.84 566.24 267.65 565.49 264.95 566.46 265.99 568.43 264.96 568.51 265.2 569.98 266.19 570.17 267 568.39 269.04 568.86 270.56 571.45 271.65 572.42 270.75 573.93 270.95 575.06 267.03 574.23 260.93 574.43 254.36 573.32 252.23 572.78 248.06 571.33 245 570.79 241.7 570.75 237.97 570.46 232.11 571.48 226.16 573.59 223 576.01 221.54 578.79 219.87 577.6 219.09 578.41 220.98 580.36 221.92 582.85 223.47 583.72 222.79 584.59 222.99 585.92 221.6 586.09 216.48 584.9 211.77 584.03 204.5 583.5 200.75 582.77 195.71 581.54 192.59 581.05 189.22 581.49 186.3 583.52 183.07 584.24 181.37 585.04 166.44 582.03 160.04 581.67 157.21 581.14 151.76 580.73 146.46 580.66 137.93 581.46 135.32 582.85 135.92 584.88 132.51 585.08 128.73 586.54 126.21 588.5 124.79 591.11 124.78 593.31 125.38 593.91 127.83 593.66 127.96 594.75 124.83 595.31 119.26 594.63 119.8 593.53 122.31 593.2 123.16 592.68 123.29 590.37 122.71 588.6 120.47 586.44 117.54 585.24 114.43 584.66 110.17 585 105.94 586.03 103.22 586.96 102.26 587.77 101.67 589.78 103.37 591.53 103.58 593 104.96 594.06 104.36 594.75 99.91 593.92 94.73 593.61 87.66 593.96 85.41 594.2 84.11 594.75 84.5 596.26 83.31 597.81 82.89 599.22 81.68 599.62 78.87 599.62 76.06 600.12 73.94 599.73 72.65 598.32 73.67 596.86 73.74 595.66 75.53 594.2 76.03 592.32 76.84 592.24 77.83 589.61 77.49 586.77 76.03 587.08 75.03 588.6 73.85 587.43 72.43 587.75 71 586.94 70.45 585.59 67.15 587.06 64.98 585.71 63.02 586.37 64.62 582.11 66.84 577.68 67.58 574.64 68.05 567.13 67.83 559.46 68.97 547.42 70.98 545.88 71.03 543.22 69.75 542 72.74 541.91 74.85 542.29 76.17 542.93 79.1 543.19 83.5 544.89 86.21 544.62 87.56 545.15 89.14 546.66 92.6 546.84 94 546.2 95.24 544.92 95.84 543.42 97 542.7 97.53 540.9 98.62 539.58 98.85 537.66 100.92 538.19 100.28 541.12 100.54 542.55 102.66 545.75 102.14 548.98 102.32 550.55 103.62 552.3 105.72 553.61 105.54 555.61 102.49 555.96 101.44 556.75 101.27 558.49 101.62 560.24 103.8 560.41 104.58 561.9 105.8 562.59 107.46 562.59 110.69 561.46 114.44 559.89 117.93 559.37 119.58 558.67 125.6 556.75 129.44 555.96 135.02 556.14 136.33 555.79 149.41 555.7 152.81 555.88 155.69 555.44 157.6 555.44 162.31 554.92 165.1 555 166.06 555.7 167.63 555.7 169.29 554.48 171.56 553.52 172.87 553.52 177.66 552.21 179.06 552.56 182.02 555.35 183.59 557.79 184.64 558.23 186.99 558.06 189.17 559.1 193.45 559.28 196.59 559.1 198.42 559.89 199.38 559.45 201.21 560.15 204.08 560.59 208.36 560.5 210.19 560.67 211.41 561.37 212.89 563.82 214.03 564.43 216.12 564.51 216.9 566.78 218.12 567.48 217.69 568.53 215.51 570.27 214.99 571.23 215.68 572.28 219.43 570.19 220.83 568.53 222.83 567.04 225.19 566.17 230.07 563.21 239.49 559.37 243.59 557.79 246.47 556.05 249.17 555 251.87 554.57 254.14 553.78 259.63 552.65 261.9 551.86 266 550.81 270.01 550.81 272.37 551.95 274.29 554.48 276.2 555.61 280.04 555.71 Z"/>
<path d="M 622.42 164.43 622.89 166.51 623.67 167.29 625.59 168.01 628.3 169.7 631.91 171.44 634.25 172.89 636.72 174.03 637.68 175.24 637.86 176.56 639.49 178.01 639.49 178.01 638.67 180.78 638.37 184.42 634.27 184.72 625.79 184.82 617.21 187.32 613.31 187.42 611.22 187.71 609.82 188.41 609.22 192.31 606.73 194.21 605.93 195.4 604.53 195.5 602.24 196.4 602.74 199.4 599.94 202.2 597.55 203.49 595.55 205.19 594.55 204.39 595.05 202.69 596.25 201.1 596.95 199.4 598.34 198 599.84 194.9 601.44 194.21 603.33 191.31 603.83 189.61 604.83 188.51 605.53 186.12 605.53 182.32 604.43 180.22 602.54 177.93 600.04 176.73 595.55 176.43 592.95 177.53 585.77 177.83 584.47 176.83 586.97 174.93 586.17 173.33 582.97 171.04 579.08 169.74 577.88 168.44 572.49 168.94 571.5 170.14 569.1 170.84 567.7 170.84 567.31 172.74 565.51 173.83 565.11 175.73 562.02 176.63 558.62 176.23 556.33 174.93 556.19 174.4 556.85 173.31 556.85 171.63 555.64 167.59 555.1 164.7 554.2 163.32 552.82 163.26 552.22 164.16 546.74 164.28 545.3 163.92 543.62 161.64 543.8 158.51 542.95 157.48 541.15 159.71 538.48 159.34 539.28 158.02 540.37 157.66 542.53 155.98 544.52 153.81 544.05 150.97 545.9 150.2 548.73 151.83 553 152.07 556.85 153.03 558.29 152.31 561.66 152.19 563.88 154.05 566.17 155.2 568.82 155.74 572 154.11 573.99 153.69 576.45 153.93 582.77 151.34 583.97 149.6 583.85 148.21 582.71 146.89 583.67 146.35 589.09 147.19 593.18 148.15 594.2 150.5 595.64 151.34 599.43 151.83 600.45 152.67 603.52 153.69 605.2 155.26 606.77 155.8 608.51 155.8 610.2 156.4 612.18 156.52 613.14 158.45 615.67 160.01 616.45 161.33 617.96 161.57 620.12 163.44 622.42 164.43 Z"/>
<path d="M 585.38 296.81 585.1 297.18 586.39 302.18 585.78 303.46 583.55 306.37 582.54 309 582.27 312.65 583.48 315.42 583.75 317.45 584.5 318.86 585.91 323.86 586.93 325.82 587.6 331.02 580.92 332.85 577.81 334 574.77 335.41 572.82 335.82 573.63 339.8 573.36 343.93 575.72 346.56 576.73 349.87 576.67 353.83 575.64 353.9 565.8 356.51 564.88 355.96 562.21 356.76 557.26 357.4 555.32 357.43 553.41 355.96 552.66 352.31 552.59 345.63 553.65 340.86 553.72 339.21 553.12 334.51 553.19 332 552.93 328.36 552.13 327.57 552.26 326.18 549.42 321.68 549.22 319.17 547.17 317.05 547.17 313.74 545.46 311.82 544.27 312.02 541.82 311.23 540.5 309.05 537.06 306.27 534.94 306.53 533.29 306.33 534.08 304.22 536.99 302.1 537.65 299.12 538.32 294.76 539.31 290 539.41 287.93 542.94 288.94 547.04 288.87 548.83 287.42 553.85 285.56 557.16 284.04 558.54 284.11 560.59 286.09 561.72 287.88 563.5 288.14 564.3 286.29 564.1 280.47 565.09 278.09 567.87 276.17 568.72 276.77 568.99 278.35 570.71 278.49 572.76 277.63 575.8 277.1 580.29 277.89 581.95 279.28 579.1 281.53 578.97 282.79 579.5 285.23 582.28 288.21 582.87 289.33 583.53 292.51 585.38 296.81 Z"/>
<path d="M 551.36 185.59 554.94 186.53 557.17 187.89 558.75 189.69 560.99 194.11 561.97 197.38 562.24 201.47 563.66 203.98 565.24 204.69 566.38 206.43 568.35 207.19 574.1 207.76 576.76 208.91 577.78 210.37 578.35 212.52 580.57 212.33 581.27 212.91 583.36 212.59 585.45 212.91 586.47 214.24 586.72 216.08 587.99 217.92 588.18 221.09 588.81 222.81 588.75 224.9 592.75 226.04 594.08 227 595.16 232.01 594.71 233.72 593.57 234.68 593.83 235.88 596.49 235.82 598.96 235.12 602.07 233.03 602.83 233.85 601.71 235.82 602.18 244.43 602.65 246.3 602.74 250.61 602.37 254.83 601.9 255.86 599.84 255.86 598.53 255.86 598.06 258.29 598.15 261.47 598.81 264.47 601.06 267.75 602.65 268.31 603.4 269.62 605.27 270.93 604.8 271.68 606.11 272.52 606.95 274.21 604.61 275.71 601.06 276.27 599.93 276.74 600.59 279.64 601.99 281.14 604.24 282.64 606.09 282.76 606.98 284.48 607.25 286.17 604.48 288.33 602.05 289.07 601.37 288.6 601.71 283.54 601.44 281.78 600.43 282.05 599.48 283.74 596.98 286.85 596.38 288.2 592.87 291.98 594.96 293.53 593.34 296.51 591.58 296.51 590.3 295.96 585.71 296.37 585.38 296.81 583.53 292.51 582.87 289.33 582.28 288.21 579.5 285.23 578.97 282.79 579.1 281.53 581.95 279.28 580.29 277.89 575.8 277.1 572.76 277.63 570.71 278.49 568.99 278.35 568.72 276.77 567.87 276.17 565.09 278.09 564.1 280.47 564.3 286.29 563.5 288.14 561.72 287.88 560.59 286.09 558.54 284.11 557.16 284.04 553.85 285.56 548.83 287.42 547.04 288.87 542.94 288.94 539.41 287.93 539.37 284.64 538.58 281.53 540.23 278.02 542.26 275.83 543.15 275.35 544.15 276.36 545.7 275.12 547.4 272.41 548.49 269.24 549.42 265.6 550.42 263.66 552.2 258.39 552.98 256.84 555.07 254.44 556.97 253.02 558.62 249.08 559.13 245.15 558.62 241.21 558.11 239.37 557.92 236.71 557.42 234.99 557.54 231.57 556.65 230.42 554.75 230.04 553.86 229.15 551.26 227.69 549.61 225.6 549.17 223.95 549.04 220.97 548.15 219.57 546.76 219.19 543.78 220.71 541.56 221.35 539.34 220.97 533.82 220.97 530.54 220.44 530.44 218.69 531.71 217.61 536.04 214.72 536.46 211.35 537.24 209.78 538.74 208.1 542.65 206.11 543.37 205.09 543.07 204.06 541.69 204.12 540.67 202.98 536.28 201.24 534.77 199.97 532.79 197.14 532.19 194.37 532.19 191.49 529.84 185.83 530.44 183.96 533.87 181.25 535.98 180.41 538.68 182.28 539.22 181.13 540.85 181.44 543.25 183.96 543.37 185.17 545.42 185.41 545.72 184.08 546.74 183.78 548.07 186.31 550.17 186.55 551.36 185.59 Z"/>
<path d="M 530.54 220.44 533.82 220.97 539.34 220.97 541.56 221.35 543.78 220.71 546.76 219.19 548.15 219.57 549.04 220.97 549.17 223.95 549.61 225.6 551.26 227.69 553.86 229.15 554.75 230.04 556.65 230.42 557.54 231.57 557.42 234.99 557.92 236.71 558.11 239.37 558.62 241.21 559.13 245.15 558.62 249.08 556.97 253.02 555.07 254.44 552.98 256.84 552.2 258.39 550.42 263.66 549.42 265.6 548.49 269.24 547.4 272.41 545.7 275.12 544.15 276.36 543.15 275.35 542.26 275.83 540.75 275.9 536.34 276.9 530.61 277.21 529.14 277.45 526.12 277.21 523.87 277.37 521.09 277.14 511.26 277.6 507.08 278.14 504.06 277.99 501.74 278.53 500.35 279.3 497.95 282.01 494.77 286.97 494.08 289.14 492.53 291.31 491.68 293.71 489.66 295.88 488.5 297.89 487.03 299.52 485.56 300.52 483.71 301.07 481.93 301.14 478.6 301.84 475.58 303.78 473.49 306.25 473.26 308.04 472.25 309.28 470.86 312.68 472.25 316.63 473.57 318.8 478.13 322.6 478.75 324.22 478.91 328.33 478.6 330.88 477.75 333.83 476.04 334.6 474.8 335.68 472.71 336.69 467.14 338.94 463.81 340.8 461.26 341.65 456.69 344.05 451.66 347.15 447.1 350.71 445.86 352.03 441.76 353.65 439.9 354.04 436.11 354.19 433.09 353.81 431.22 354 432.7 351.53 433.1 347.54 432.44 345.67 431.11 344.07 429.11 344.07 427.64 344.87 425.78 344.34 425.12 342.08 424.98 340.21 425.38 337.28 426.18 334.08 426.05 331.95 424.58 330.89 420.99 330.75 420.32 329.16 421.25 326.89 423.78 322.23 425.11 318.18 426.51 316.55 428.62 313.06 430.6 311.31 432.53 310.05 435.59 305.77 436.44 304.09 438.54 301.68 439.98 299.57 440.04 297.89 440.95 296.32 442.51 291.93 442.75 288.32 442.33 286.64 440.83 286.76 440.04 287.96 438.24 288.2 436.26 286.76 436.01 285.73 436.44 282.6 437.16 279.95 437.88 278.45 439.08 277.85 440.95 277.67 441.73 276.16 443.29 272.07 445.04 269.3 445.52 265.27 446.54 263.1 446.9 261.24 446.9 256.36 444.86 254.38 443.65 250.65 443.83 248.66 445.58 243.36 447.2 240.11 448.1 237.29 448.2 235.63 449.79 234.58 450.09 233.43 451.47 231.26 455.86 233.01 457.37 234.28 461.52 235.24 466.81 234.46 467.71 233.43 468.55 230.06 468.55 228.86 471.68 223.14 473.43 220.73 476.01 217.79 481.55 212.73 484.31 210.99 486.54 210.56 488.28 211.23 489.66 212.73 489.66 215.56 487.44 221.94 487.44 224.71 488.4 225.85 490.21 226.27 491.65 225.91 495.14 222 498.21 219.89 499.95 217.73 502.96 215.86 504.52 216.04 507.77 217.12 508.85 218.99 507.71 222.36 504.46 226.15 504.22 227.17 505.9 227.96 509.93 227.54 515.53 226.27 521.54 226.87 525.87 227.05 526.35 225.01 527.5 224.89 528.28 223.5 529.6 222.54 530.54 220.44 Z"/>
<path d="M 187.12 463.71 189.55 466.79 192.04 469.18 191.78 470.84 188.61 473.91 189.03 475.1 191.16 475.16 192.3 476.61 194.07 476.14 194.79 476.66 194.07 478.02 191.94 479.78 193.96 480.93 197.08 481.08 206.38 478.02 212.3 475.68 216.04 475.47 224.15 478.28 231.27 481.66 231.99 482.54 229.29 483.27 227.21 483.11 226.17 483.79 226.12 484.98 224.56 484.62 224.3 486.28 225.45 486.85 228.98 486.18 230.85 487.17 231.27 488.93 230.54 491.43 230.75 493.82 231.21 495.28 232.67 495.95 239.06 494.29 240.82 494.96 242.54 494.55 243.79 493.35 247.84 491.53 252.83 491.27 256.26 492.52 258.44 494.29 262.28 498.03 263.58 498.91 264.78 500.53 268 503.75 270.6 505.31 272.21 505.47 280.47 503.59 282.28 503.44 285.14 503.96 287.38 503.59 288.99 502.76 289.71 501.67 292.83 500.63 296.11 498.66 296.68 495.54 299.69 497.25 303.46 498.6 304.7 499.34 306.8 501.83 308.35 504.34 309.52 508.24 309.32 510.41 308.01 512.82 304.49 514.89 300.53 515.2 298.09 516.96 296.81 519.44 296.05 523.82 295.47 524.89 295.47 527.61 295.95 528.33 295.91 530.16 293.68 530.78 292.95 532.58 293.33 536.09 292.13 537.88 290.16 538.85 288.99 539.99 289.37 542.3 291.09 544.75 291.88 544.75 294.34 546.08 295.33 547.08 295.66 548.93 292.15 550.46 290.09 550.13 289.03 550.92 287.11 550.19 283.53 551.12 280.04 555.71 276.2 555.61 274.29 554.48 272.37 551.95 270.01 550.81 266 550.81 261.9 551.86 259.63 552.65 254.14 553.78 251.87 554.57 249.17 555 246.47 556.05 243.59 557.79 239.49 559.37 230.07 563.21 225.19 566.17 222.83 567.04 220.83 568.53 219.43 570.19 215.68 572.28 214.99 571.23 215.51 570.27 217.69 568.53 218.12 567.48 216.9 566.78 216.12 564.51 214.03 564.43 212.89 563.82 211.41 561.37 210.19 560.67 208.36 560.5 204.08 560.59 201.21 560.15 199.38 559.45 198.42 559.89 196.59 559.1 193.45 559.28 189.17 559.1 186.99 558.06 184.64 558.23 183.59 557.79 182.02 555.35 179.06 552.56 177.66 552.21 172.87 553.52 171.56 553.52 169.29 554.48 167.63 555.7 166.06 555.7 165.1 555 162.31 554.92 157.6 555.44 155.69 555.44 152.81 555.88 149.41 555.7 136.33 555.79 135.02 556.14 129.44 555.96 125.6 556.75 119.58 558.67 117.93 559.37 114.44 559.89 110.69 561.46 107.46 562.59 105.8 562.59 104.58 561.9 103.8 560.41 101.62 560.24 101.27 558.49 101.44 556.75 102.49 555.96 105.54 555.61 105.72 553.61 103.62 552.3 102.32 550.55 102.14 548.98 102.66 545.75 100.54 542.55 100.28 541.12 100.92 538.19 98.85 537.66 98.62 539.58 97.53 540.9 97 542.7 95.84 543.42 95.24 544.92 94 546.2 92.6 546.84 89.14 546.66 87.56 545.15 86.21 544.62 83.5 544.89 79.1 543.19 76.17 542.93 74.85 542.29 72.74 541.91 69.75 542 69.69 535.14 72.11 535.41 76.44 534.92 77.41 533.52 77.4 529.06 78.35 524.38 79.23 518.6 81.88 503.6 83.14 498.77 85.07 497.19 88.18 496.06 92.49 495.34 94.9 494.4 101.21 491.37 105.07 491.47 106.29 491.25 106.88 490.17 106.88 485.86 108.29 485.1 112.95 486.78 115.77 487.07 118.36 487.74 119.97 487.73 120.73 486.64 120.71 485.31 118.46 483.12 118.45 481.47 117.75 480.3 119.97 480.19 122.19 477.69 121.2 476.21 121.4 474.56 122.73 473.27 124.3 473.3 126.65 472.36 129.68 472.47 130.83 471.95 132.85 469.94 136.57 469.82 139.41 468.82 140.93 469.06 147.56 468.51 150.07 467.29 152.03 465.84 154.09 466.17 157.16 465.55 158.47 463.97 162.01 462.8 165.65 462.81 167.21 463.21 173.94 463.33 176.24 462.75 180.93 462.83 185.13 464.05 187.12 463.71 Z"/>
<path d="M 542.26 275.83 540.23 278.02 538.58 281.53 539.37 284.64 539.41 287.93 539.31 290 538.32 294.76 537.65 299.12 536.99 302.1 534.08 304.22 533.29 306.33 534.94 306.53 537.06 306.27 540.5 309.05 541.82 311.23 544.27 312.02 545.46 311.82 547.17 313.74 547.17 317.05 549.22 319.17 549.42 321.68 552.26 326.18 552.13 327.57 552.93 328.36 553.19 332 553.12 334.51 553.72 339.21 553.65 340.86 552.59 345.63 552.66 352.31 553.41 355.96 552.98 356.06 552.35 359.47 550.91 362.38 550.07 365.16 549.8 369.07 547.77 372.32 541.11 377.44 540.61 378.51 539.27 383.79 538.67 385.1 535.43 387.51 534.79 389.25 534.66 393.5 533.92 398.28 533.56 402.16 532.72 403.87 531.35 405.21 530.51 407.11 530.18 409.92 530.71 412.6 531.62 415.18 532.92 422.57 533.15 426.99 533.59 427.75 532.32 430.67 531.42 433.64 532.02 435.92 531.95 437.12 531.15 438.29 530.88 439.8 531.11 444.25 532.18 453.15 530.38 455.46 531.08 461.14 530.53 462.57 528.46 462.95 517.53 468.66 516.56 470.01 517.85 472.01 518.61 475.2 519.64 475.99 521.66 479.6 523.15 481.09 525.12 484.67 526.9 486.14 528.13 491.27 528.92 493.05 532.24 494.93 532.09 497.69 532.26 502.08 531.68 503.37 531.71 507.83 531.42 512.69 530.62 515.45 529.77 517.27 529.77 518.56 530.48 521.52 530.92 526.12 530.92 528.61 531.3 529.84 529.83 531.84 530.13 536.32 529.16 538.29 527.37 539.49 524.97 539.81 522.71 539.69 521.84 540.05 518.52 540.43 517.35 539.72 517.97 537.55 517.56 535.03 515.83 529.93 515.24 526.82 513.98 523.19 512.69 521.2 510.91 517.33 509.71 512.9 509.59 510.85 507.22 503.69 505.43 496.4 504.02 494.99 502.26 492.44 501.01 489.51 500.68 485.52 499.57 481.94 499.45 479.69 498.43 478.19 496.9 479.07 494.74 479.19 492.13 480.42 489.08 480.77 488.09 481.33 486.77 483.5 485.07 480.89 482.75 479.1 481.55 478.98 479.94 479.95 478.74 479.72 477.19 480.13 475.9 481.06 473.99 481.83 471.77 481.03 470.18 479.39 465.5 478.31 462.1 478.01 459.29 475.87 456.27 477.37 456.04 477.03 453.84 474.44 453.69 472.62 450.85 469.75 449.44 469.75 447.39 470.83 445.72 472.42 444.08 475.82 443.96 477.31 444.58 478.51 444.2 481.88 441.94 483.06 441.83 485.67 442.67 488.77 442.73 491 444.2 495.22 441.15 490.94 438.08 485.43 429.64 472.62 428.76 470.57 428.5 468.87 429.11 465.94 430.81 460.25 431.54 458.64 433.89 450.05 435.06 446.35 436.49 440.64 436.99 436.59 437.78 434.19 439.16 425.36 439.39 418.39 439.13 417.27 437.93 417.04 436.87 418.18 435.17 420.85 432.74 421.61 427.94 421.96 424.83 418.53 423.46 414.28 423.43 412.99 422.05 410.12 419.85 406.81 417.48 404.4 414.93 402.44 408.46 400.1 401.95 398.37 400.99 397.68 401.97 395.94 406.93 391.6 409.87 388.5 409.71 386.88 408.78 385.48 408.71 383.78 409.87 380.68 410.56 377.5 412.5 375.03 414.13 374.25 415.52 372.47 415.6 369.45 417.76 365.27 419.7 363.8 421.79 362.71 425.5 360.23 428.6 355.59 431.22 354 433.09 353.81 436.11 354.19 439.9 354.04 441.76 353.65 445.86 352.03 447.1 350.71 451.66 347.15 456.69 344.05 461.26 341.65 463.81 340.8 467.14 338.94 472.71 336.69 474.8 335.68 476.04 334.6 477.75 333.83 478.6 330.88 478.91 328.33 478.75 324.22 478.13 322.6 473.57 318.8 472.25 316.63 470.86 312.68 472.25 309.28 473.26 308.04 473.49 306.25 475.58 303.78 478.6 301.84 481.93 301.14 483.71 301.07 485.56 300.52 487.03 299.52 488.5 297.89 489.66 295.88 491.68 293.71 492.53 291.31 494.08 289.14 494.77 286.97 497.95 282.01 500.35 279.3 501.74 278.53 504.06 277.99 507.08 278.14 511.26 277.6 521.09 277.14 523.87 277.37 526.12 277.21 529.14 277.45 530.61 277.21 536.34 276.9 540.75 275.9 542.26 275.83 Z"/>
<path d="M 688.7 82.18 689.08 83.69 690.02 84.26 690.97 83.32 692.67 82.56 695.59 83.03 696.72 82.18 697.95 82.09 699.93 83.22 703.04 85.68 704.55 86.24 707.57 86.72 708.61 88.41 711.44 91.44 712.76 92.19 714.55 92.38 716.25 91.91 719.84 89.08 721.35 89.08 721.44 90.87 718.71 94.55 715.31 95.4 714.55 97.19 713.33 98.99 713.42 101.91 712.57 104.46 711.35 106.26 710.78 108.05 708.33 109.18 702.1 110.79 698.23 113.34 694.18 115.13 696.16 118.91 696.35 120.42 700.03 119.57 702.31 120.94 702.6 122.58 698.14 123.54 695.95 124.86 692.8 128.18 685.89 130.11 684.65 130.4 684.63 130.46 684.32 130.55 680.91 132.82 675.4 135.18 671.9 136.06 669.28 135.97 667.96 133.08 665.25 132.12 663.42 130.72 661.93 131.07 657.99 130.46 655.63 130.9 653.88 131.77 646.97 131.95 644.79 132.82 644.18 133.52 642.34 133.35 641.2 131.95 639.1 131.25 637.88 129.93 635.34 129.41 632.19 130.72 626.68 132.73 623.47 132.52 620.13 131.68 619.65 130.93 618.84 129.64 616.92 127.34 616.89 127.31 613.39 127.13 605.69 127.75 603.77 129.41 601.15 128.36 600.18 126.43 599.22 123.19 592.4 125.47 588.12 127.13 582.34 126.17 578.53 126.67 577.88 124.94 577.71 123.02 576.31 121.27 574.82 120.83 573.07 121.44 570.54 121.36 567.39 122.14 563.1 122.58 560.65 121.97 560.3 120.13 559.52 118.91 556.28 119.43 556.37 118.12 557.94 117.59 558.82 116.72 559.34 114.27 560.74 112.08 561 110.77 559.69 109.63 558.56 109.63 557.16 109.02 557.68 107.71 559.6 105.43 560.74 104.9 562.58 104.9 568.26 102.89 569.66 102.63 572.29 100.62 573.42 98.78 576.48 96.24 582.69 92.13 584.53 89.42 583.74 88.72 584.27 87.4 586.37 87.23 588.03 85.74 589.52 81.98 586.45 81.89 582.26 82.06 575.52 81.45 572.81 80.49 571.32 81.1 569.75 81.1 568.79 78.56 566.6 76.64 565.11 76.55 560.22 76.99 559.34 76.64 557.96 74.26 561.3 73.62 565.42 71.8 569.77 70.92 572.3 70.72 575.51 69.43 578.34 67.55 580.54 66.73 583.8 66.53 585.32 65.93 586.65 63.91 586.31 62.39 585.09 60.24 582.51 58.98 575.66 60.47 573.43 60.18 572.92 59.1 571.02 58.66 570.12 57.33 570.45 55.18 568.51 51.33 566.76 49.89 567.99 48.81 572.39 49.11 574.67 50.2 575.8 49.98 579.02 50.11 581.25 49.65 582.61 48.9 584.72 46.94 587.82 44.79 589.12 43.4 590.49 45.18 593.32 46.88 597.66 48.76 602.56 50.46 606.34 52.35 610.11 55.28 617.66 61.79 619.45 63.68 625.21 66.98 635.3 70.01 638.51 70.29 645.11 66.98 648.13 65.95 652.38 64.81 653.79 64.15 659.93 66.42 660.4 67.83 660.02 73.22 661.81 75.2 662.47 76.9 661.53 77.94 661.25 79.54 661.91 81.05 662.85 81.81 663.23 85.3 664.17 85.87 667.48 85.87 670.4 83.88 672.29 81.71 676.16 81.62 677.38 82.47 678.99 82.75 681.16 82.28 682.76 82.75 682.95 84.45 685.59 84.64 688.7 82.18 Z"/>
<path d="M 727.6 182.44 724.81 184.72 723.73 185.04 722.4 188.34 718.03 188.72 716.95 189.99 715.68 189.99 713.14 190.75 709.02 193.1 706.8 194.05 702.99 196.72 702.17 198.37 698.11 199.96 696.52 200.34 694.87 201.54 695.06 202.62 696.33 203.77 696.78 205.42 697.98 206.3 702.1 207.83 704.51 209.86 708.51 211.38 710.54 211.89 712.95 211.95 715.55 211.26 722.02 208.53 724.18 208.21 726.72 206.11 729.51 204.84 734.71 203.96 736.99 203.96 739.78 204.08 744.4 205.69 742.75 207.29 741.05 206.62 738.96 206.24 735.98 206.43 734.39 207.26 733 208.15 729.63 210.49 727.1 212.97 725.7 215.32 725.57 216.27 725.57 217.22 725.95 218.11 728.36 219.57 731.22 219.76 732.17 220.59 732.17 221.85 730.2 224.71 727.86 226.68 726.97 227.31 723.92 228.39 720.5 229.85 719.8 230.61 717.96 232.65 715.81 233.72 713.71 234.17 711.56 234.42 709.72 236.33 707.24 239.69 706.54 240.96 704.07 241.85 701.15 242.67 697.47 242.42 694.75 241.72 691.89 241.34 689.35 241.66 687.2 243.37 684.6 244.45 683.26 244.58 680.66 244.26 679.59 244.13 676.03 243.05 674.64 242.86 670.96 242.23 668.61 241.91 667.41 241.98 663.47 241.34 660.37 241.09 657.76 241.66 645.31 244.95 645.19 244.96 642.16 244.83 634.42 241.66 631.88 240.52 629.66 238.99 626.37 236.77 624.15 235.31 622.43 234.3 619.71 232.2 619.07 231.4 617.41 229.73 614.98 228.25 613.55 228.49 613.14 227.95 613.97 226.64 615.27 225.22 618.36 219.28 621.21 213.87 622.75 213.81 624 213.57 625.01 212.92 626.73 210.48 628.16 210.37 631.78 210.54 634.45 210.78 639.44 211.14 641.46 210.78 641.99 210.13 643.24 208.23 644.13 207.57 645.73 206.98 647.45 206.5 649.35 205.55 651.43 204.25 652.5 202.88 653.21 200.98 652.32 198.48 653.51 194.68 653.15 193.73 648.94 192.36 643.12 189.63 639.5 187.61 638.55 186.36 638.37 184.42 638.67 180.78 639.49 178.01 642.19 180.29 644.3 182.4 646.46 183.9 648.51 184.87 650.01 185.11 651.04 185.59 652.3 186.49 662.52 186.13 667.03 185.59 669.68 185.11 672.39 183.84 673.89 182.94 675.21 182.22 676.66 180.35 677.74 179.39 679.12 178.67 680.81 178.25 682.43 177.76 684.12 177.1 686.76 178.13 687.54 178.97 687.96 180.11 688.81 180.29 693.2 181.07 696.02 179.81 697.05 179.81 699.51 180.23 700.84 179.93 701.92 179.93 703.66 178.79 705.95 178.49 707.03 178.37 709.8 178.37 711.48 178.49 713.11 178.25 717.98 178.25 719.66 176.74 720.38 176.74 721.47 176.62 722.79 175.84 723.45 174.03 724.5 174.89 727.67 175.2 728.75 173.17 730.71 172.98 731.85 173.36 731.03 176.09 729.38 177.81 729.82 179.65 727.6 182.44 Z"/>
<path d="M 371.11 571.85 370.55 572.9 368.97 571.75 367.85 570.36 368.11 561.47 367.77 555.02 369.1 554.57 371.96 555.3 373.15 553.31 376.2 551.85 379.91 552.45 380.04 550.66 381.83 549.73 384.22 549.73 387.4 548.53 390.25 546.48 391.51 546.48 393.36 545.75 395.35 544.49 395.88 545.02 395.22 547.61 395.55 548.67 392.97 550.33 393.9 551.98 394.03 554.5 396.08 555.76 396.48 556.43 396.48 558.95 396.02 562.99 395.42 563.66 392.97 564.85 392.5 565.65 394.56 566.57 396.81 566.11 399.2 564.98 402.05 563.26 408.48 560.27 412.92 558.95 415.04 559.61 419.41 561.47 424.05 561.73 425.98 560.61 426.97 560.61 429.22 562.46 431.21 562.4 432.87 561.53 434.39 562.86 436.32 563.92 438.9 564.25 441.49 562.33 446.19 554.77 450.57 546.08 452.36 542.17 453.95 537.99 456.6 532.28 457 531.09 456.86 528.7 455.8 524.33 454.88 518.89 454.15 516.23 453.48 511.86 452.29 506.42 452.16 504.36 451.36 502.24 449.04 497.8 448.65 495.01 449.11 491.96 449.11 489.57 450.3 488.44 453.42 486.85 454.48 484.53 454.48 479.89 456.04 477.03 456.27 477.37 459.29 475.87 462.1 478.01 465.5 478.31 470.18 479.39 471.77 481.03 473.99 481.83 475.9 481.06 477.19 480.13 478.74 479.72 479.94 479.95 481.55 478.98 482.75 479.1 485.07 480.89 486.77 483.5 488.09 481.33 489.08 480.77 492.13 480.42 494.74 479.19 496.9 479.07 498.43 478.19 499.45 479.69 499.57 481.94 500.68 485.52 501.01 489.51 502.26 492.44 504.02 494.99 505.43 496.4 507.22 503.69 509.59 510.85 509.71 512.9 510.91 517.33 512.69 521.2 513.98 523.19 515.24 526.82 515.83 529.93 517.56 535.03 517.97 537.55 517.35 539.72 518.52 540.43 521.84 540.05 522.71 539.69 524.97 539.81 527.37 539.49 529.16 538.29 530.13 536.32 529.83 531.84 531.3 529.84 530.92 528.61 530.92 526.12 530.48 521.52 529.77 518.56 529.77 517.27 530.62 515.45 531.42 512.69 531.71 507.83 531.68 503.37 532.26 502.08 532.09 497.69 532.24 494.93 528.92 493.05 528.13 491.27 526.9 486.14 525.12 484.67 523.15 481.09 521.66 479.6 519.64 475.99 518.61 475.2 517.85 472.01 516.56 470.01 517.53 468.66 528.46 462.95 530.53 462.57 530.65 464.36 531.85 467.84 532.49 470.98 533.45 474.53 534.76 477.64 537.97 481.79 541.35 486.67 542.38 489.01 546.83 497.31 547.56 499.18 548.84 500.89 550.17 505.01 552.91 506.61 553.82 508.55 556.19 511.6 555.02 516.08 554.15 521 554.05 526.22 553.55 528.06 554.95 531.5 555.02 532.94 553.58 536.42 551.28 538.26 551.44 539.06 549.37 540.74 548.2 543.75 547.16 548.46 544.86 553.28 542.08 554.22 540.78 558.27 539.71 559.24 538.54 559.44 536.3 561.41 535.56 563.08 533.45 564.52 533.62 569.74 531.92 572.22 531.45 574.39 531.65 576.57 529.48 579.95 527.17 582.52 523.36 585.1 522.22 586.47 520.52 589.35 520.35 591.96 520.75 593.36 520.25 595.37 519.38 595.64 514.63 600.39 512.52 601.99 509.45 602.4 504.5 604.77 502.03 605.67 500.09 606.88 496.76 609.74 494.07 611.09 493.19 612 492.22 609.38 492.53 608.45 494.33 607.17 493.78 603.48 495.34 600.23 495.13 597.32 494.65 595.9 495.86 594.35 495.93 593.25 497.57 590.85 498.04 588.7 497.46 586.25 495 582.64 492.46 579.92 489.83 577.54 487.51 575.82 482.71 573.2 481.61 571.37 483.59 571.65 484.31 570.24 483.99 568.02 485.34 566.87 484.83 566 482.44 564.5 482.02 562.17 482.32 557.8 479.8 556.93 478.7 555.13 479.22 553.67 480.29 552.87 480.99 550.8 479.08 549.96 478.95 551.4 477.83 552.77 475 553.62 474.56 551.82 473.19 551.41 471.96 552.63 469.61 552.86 468.8 553.43 466.55 552.12 465.84 550.66 463.92 550.52 462.76 551.15 461.29 551.18 460.14 550 453.93 552.73 452.82 551.84 450.62 552.5 450.3 553.45 446.16 557.26 446.35 559.52 444.9 560.48 444.54 561.42 445.33 562.7 446.72 562.02 447.67 562.42 451.04 561.24 451.56 561.44 453.94 560.58 457.21 558.93 458.5 557.35 459.54 556.83 461.6 557.31 462.65 556.03 464.04 556.15 465.79 558.58 467.89 558.3 469.37 559.98 469.24 560.83 471.13 561.98 472.33 561.83 474.67 560.62 476.99 560.56 478.83 561.18 478.49 562.7 477.05 564 476.75 564.93 477.22 566.26 479.76 567.65 477.85 568.54 473.45 566.81 470.36 565.41 465.49 563.89 462.26 563.31 458.42 563.24 454.82 563.42 448.53 564.42 445.62 564.69 438.3 566.73 435.94 565.49 436.2 567.21 434.64 567.24 431.17 567.87 426.82 567.85 423.05 567.28 419.39 567.84 416.11 570.21 413.04 570.72 409.4 572.2 406.65 572.23 404.56 573.18 402.04 573.01 395.07 571.33 395.7 569.39 393.1 571.01 391.68 571.12 388.59 570.46 384.69 570.5 381.69 569.81 379.36 570.62 375.55 570.16 371.87 570.5 371.11 571.85 Z"/>
<path d="M 730.88 136.37 734.93 138.92 736.82 141.09 739.27 141.66 741.54 142.79 742.58 144.11 744.46 144.21 744.94 144.96 744.27 146.76 745.69 146.85 749.09 148.46 750.31 147.61 752.28 148.69 750.64 150.56 750.88 152.13 749.49 153.09 749.49 154.11 747.21 157.78 744.02 161.09 744.02 163.5 740.71 167.17 739.15 167.29 737.71 166.21 736.8 165.73 737.46 162.66 738.31 162.42 739.57 159.95 739.15 159.17 737.34 160.25 736.08 161.27 731.81 165.61 728.02 169.1 724.13 173.4 723.45 174.03 722.79 175.84 721.47 176.62 720.38 176.74 719.66 176.74 717.98 178.25 713.11 178.25 711.48 178.49 709.8 178.37 707.03 178.37 705.95 178.49 703.66 178.79 701.92 179.93 700.84 179.93 699.51 180.23 697.05 179.81 696.02 179.81 693.2 181.07 688.81 180.29 687.96 180.11 687.54 178.97 686.76 178.13 684.12 177.1 682.43 177.76 680.81 178.25 679.12 178.67 677.74 179.39 676.66 180.35 675.21 182.22 673.89 182.94 672.39 183.84 669.68 185.11 667.03 185.59 662.52 186.13 652.3 186.49 651.04 185.59 650.01 185.11 648.51 184.87 646.46 183.9 644.3 182.4 642.19 180.29 639.49 178.01 637.86 176.56 637.68 175.24 636.72 174.03 634.25 172.89 631.91 171.44 628.3 169.7 625.59 168.01 623.67 167.29 622.89 166.51 622.42 164.43 623.19 163.85 627.09 164.05 630.18 165.35 633.07 165.15 635.67 164.05 639.26 163.55 640.66 163.05 643.2 163.23 643.45 163.25 647.85 159.85 650.64 159.05 650.94 156.96 653.04 156.76 653.33 155.36 652.24 154.06 648.05 153.96 646.75 153.06 645.55 149.87 646.35 148.97 648.84 147.27 647.65 146.07 643.25 146.17 639.66 147.17 633.47 147.07 631.38 145.77 631.28 141.88 629.98 140.68 628.88 140.38 625.99 140.38 624.69 139.78 623.99 138.78 623.99 135.59 622.4 133.99 617.01 134.29 615.11 132.99 613.83 133.1 610.42 133.59 607.92 133.29 605.93 133.79 603.23 135.39 601.14 138.68 600.18 138.33 597.94 137.18 596.15 137.18 593.25 136.68 587.86 136.48 586.23 136.61 585.84 135.01 583.83 133.96 581.29 131.95 579.2 129.5 578.32 126.7 578.53 126.67 582.34 126.17 588.12 127.13 592.4 125.47 599.22 123.19 600.18 126.43 601.15 128.36 603.77 129.41 605.69 127.75 613.39 127.13 616.89 127.31 616.92 127.34 618.84 129.64 619.65 130.93 620.13 131.68 623.47 132.52 626.68 132.73 632.19 130.72 635.34 129.41 637.88 129.93 639.1 131.25 641.2 131.95 642.34 133.35 644.18 133.52 644.79 132.82 646.97 131.95 653.88 131.77 655.63 130.9 657.99 130.46 661.93 131.07 663.42 130.72 665.25 132.12 667.96 133.08 669.28 135.97 671.9 136.06 675.4 135.18 680.91 132.82 684.32 130.55 684.63 130.46 684.65 130.4 685.89 130.11 692.8 128.18 695.95 124.86 698.14 123.54 702.6 122.58 702.31 120.94 705.59 120.98 707.2 121.55 707.38 123.06 708.61 126.18 712.1 126.08 714.46 126.65 716.73 126.46 718.42 127.12 719.93 128.82 720.69 130.43 725.59 133.54 728.9 134.96 730.88 136.37 Z"/>
<path d="M 556.19 174.4 554.62 174.51 553.3 175.3 554.68 176.08 554.26 177.64 550.65 178.43 549.81 179.33 550.89 182.22 551.36 185.59 550.17 186.55 548.07 186.31 546.74 183.78 545.72 184.08 545.42 185.41 543.37 185.17 543.25 183.96 540.85 181.44 539.22 181.13 538.68 182.28 535.98 180.41 533.87 181.25 530.44 183.96 529.84 185.83 532.19 191.49 532.19 194.37 532.79 197.14 534.77 199.97 536.28 201.24 540.67 202.98 541.69 204.12 543.07 204.06 543.37 205.09 542.65 206.11 538.74 208.1 537.24 209.78 536.46 211.35 536.04 214.72 531.71 217.61 530.44 218.69 530.54 220.44 529.6 222.54 528.28 223.5 527.5 224.89 526.35 225.01 525.87 227.05 521.54 226.87 515.53 226.27 509.93 227.54 505.9 227.96 504.22 227.17 504.46 226.15 507.71 222.36 508.85 218.99 507.77 217.12 504.52 216.04 502.96 215.86 499.95 217.73 498.21 219.89 495.14 222 491.65 225.91 490.21 226.27 488.4 225.85 487.44 224.71 487.44 221.94 489.66 215.56 489.66 212.73 488.28 211.23 486.54 210.56 484.31 210.99 481.55 212.73 476.01 217.79 473.43 220.73 471.68 223.14 468.55 228.86 468.55 230.06 467.71 233.43 466.81 234.46 461.52 235.24 457.37 234.28 455.86 233.01 451.47 231.26 453.94 228.74 454.3 226.81 455.56 225.49 455.92 223.98 457.37 221.64 457.67 218.27 460.31 215.08 460.43 212.73 461.52 211.41 461.7 210.2 460.13 208.82 459.59 202.98 458.75 200.69 458.93 197.2 459.65 195.64 460.79 194.68 461.04 192.69 459.37 191.02 462.06 191.49 464.4 191.49 465.91 191.91 469.88 191.91 471.92 191.55 474.39 193.47 475.71 194.86 479.8 195.16 481.55 193.71 482.93 190.58 483.53 188.54 483.95 185.59 486.18 183.42 486.84 182.28 487.32 179.21 490.57 172.41 493.81 166.33 494.53 166.17 496.76 166.39 498.27 168.2 500.67 169.1 502.72 169.52 502.6 171.51 505.96 173.55 505.24 174.69 503.92 175.06 503.68 176.68 505.42 177.22 506.93 176.74 511.02 174.39 512.7 175.18 521.3 175.24 521.96 174.45 522.74 170.18 524.01 170 522.93 167.41 523.71 166.21 525.69 164.82 530.56 164.4 532.31 163.62 535.92 160.85 538.48 159.34 541.15 159.71 542.95 157.48 543.8 158.51 543.62 161.64 545.3 163.92 546.74 164.28 552.22 164.16 552.82 163.26 554.2 163.32 555.1 164.7 555.64 167.59 556.85 171.63 556.85 173.31 556.19 174.4 Z"/>
<path d="M 734.93 138.92 734.64 138.74 736.26 138.49 736.83 137.28 734.93 136.55 734.04 133.35 730.92 134 729.59 133.43 728.7 131.53 728.9 129.14 730.27 127.28 732.78 125.53 734.28 123.67 734.48 118.04 734.28 116.26 734.89 115.21 738.09 113.26 738.65 111.52 741.93 109.05 745.01 104.28 746.7 100.15 748.93 96.91 749.86 96.34 750.67 94.19 751.24 91.4 749.34 90.1 749.01 88.12 750.63 85.85 748.61 85.49 749.17 83.83 749.17 81.8 748.32 78.81 749.82 76.34 749.86 75.53 748.4 74.27 748.61 73.06 750.31 71.64 750.39 69.57 751.73 68.05 753.02 67.63 754.15 69.65 755.61 69.45 757.55 67.87 758.93 67.31 761.56 67.18 762.65 68.28 764.11 68.52 766.7 70.1 769.69 70.63 770.99 68.68 772.6 67.18 775.6 67.1 778.23 65.89 778.07 62.04 778.69 61.49 780.02 61.56 782.11 58.5 781.91 56.66 783.85 56.61 783.85 58.09 786.96 57.53 788.54 56.92 791.19 53.75 792.82 53.4 795.63 51.31 796.49 52.73 796.59 54.98 797.61 58.4 797.51 62.48 796.95 63.04 796.59 67.22 797.1 73.7 795.93 74.26 796.7 77.07 796.75 78.5 799 81.44 798.9 86.84 798.32 88.97 796.71 91.15 796.71 99.1 795.42 104.61 797.08 105.96 796.77 107.68 793.39 107.89 792.82 108.87 792.4 112.41 791.11 113.19 788.2 113.29 787.06 116.77 783.37 116.56 782.59 118.8 781.45 120.51 781.34 122.12 781.91 123.06 782.07 125.81 781.39 129.14 778.33 134.86 777.66 136.73 774.33 140.52 773.86 142.13 773.81 146.39 770.98 151.64 767.96 150.91 764.27 151.29 762.96 152.8 757.96 154.36 755.6 154.12 754.56 153.18 753.99 149.78 752.38 148.75 752.28 148.69 750.31 147.61 749.09 148.46 745.69 146.85 744.27 146.76 744.94 144.96 744.46 144.21 742.58 144.11 741.54 142.79 739.27 141.66 736.82 141.09 734.93 138.92 Z"/>
<path d="M 642.27 291.25 638.97 292.25 636.61 294.01 636.54 299.14 636.88 300.96 636.61 302.65 637.22 304.54 637.22 308.12 636.21 311.03 635.13 311.37 628.17 310.89 626.35 311.16 624.19 310.96 621.62 311.16 617.03 312.04 615.08 312.85 611.97 314.61 610.89 315.55 610.55 319.07 609.68 320.15 604.68 324.27 602.92 326.63 600.76 327.85 593.95 329.81 587.6 331.02 586.93 325.82 585.91 323.86 584.5 318.86 583.75 317.45 583.48 315.42 582.27 312.65 582.54 309 583.55 306.37 585.78 303.46 586.39 302.18 585.1 297.18 585.71 296.37 590.3 295.96 591.58 296.51 593.34 296.51 594.96 293.53 592.87 291.98 596.38 288.2 596.98 286.85 599.48 283.74 600.43 282.05 601.44 281.78 601.71 283.54 601.37 288.6 602.05 289.07 604.48 288.33 607.25 286.17 606.98 284.48 606.09 282.76 606.43 282.05 608.19 282.25 612.44 281.17 619.73 277.66 624.05 276.17 625 273.13 625.05 273.03 625.94 270.63 625.54 268.81 623.58 268.61 623.38 267.73 625.49 265.69 625.81 265.3 631.35 263.34 635.6 260.5 636.75 259.29 636.81 259.35 639.31 265.23 639.45 267.26 639.24 271.44 639.99 275.7 641.27 279.35 641.67 284.95 641.47 287.39 642.27 291.25 Z"/>
<path d="M 459.37 191.02 461.04 192.69 460.79 194.68 459.65 195.64 458.93 197.2 458.75 200.69 459.59 202.98 460.13 208.82 461.7 210.2 461.52 211.41 460.43 212.73 460.31 215.08 457.67 218.27 457.37 221.64 455.92 223.98 455.56 225.49 454.3 226.81 453.94 228.74 451.47 231.26 450.09 233.43 449.79 234.58 448.2 235.63 446.48 236.38 444.92 236.02 443.35 234.4 441.73 235.48 440.1 237.53 439.14 239.75 439.08 242.28 437.94 243.24 435.47 247.22 433.55 247.94 430.9 249.62 427.41 250.77 423.5 252.69 422.36 252.63 419.84 251.31 413.76 251.43 411.78 251.79 409.37 252.99 408.59 256.18 405.52 257.63 403.66 258.05 401.91 260.09 400.77 260.94 399.45 261.06 396.08 260.52 393.73 260.46 390.44 260.8 389.44 258.04 384.18 248.65 380.77 242.96 374.94 232.58 372.66 228.74 369.54 225.04 364.56 219.92 361.23 217.23 359.47 217.91 356.03 218.68 353.14 218.79 349.98 218.46 346.92 217.18 339.21 216.63 333.32 215.91 326.82 215.63 322.16 214.91 317.82 214.8 306.95 215.52 304.8 215.74 306.83 215.25 310.61 214.91 319.05 214.47 330.09 215.31 335.14 215.91 346.5 216.8 350.24 218.17 352.66 218.43 355.93 218.27 358.48 217.71 366.76 215.44 381.57 211.54 387.64 209.79 398.68 206.98 402.01 205.99 406.06 205.05 416.44 202.37 425.49 199.82 438 196.57 450.56 193.1 455.99 191.45 457.48 190.46 459.37 191.02 Z"/>
<path d="M 378.7 442.15 378.18 444.67 376.46 447.77 374.91 451.15 373.5 452.15 365.51 460.73 361.61 464.39 354.03 470.66 352.52 472.11 348.42 474.8 345.18 477.56 343.29 479.73 343.42 482.21 344.66 484.07 344.63 486.35 343.39 486.9 340.8 487.31 335.67 487 324.41 487.45 315.59 486.49 304.73 486.69 302.98 487.38 301.53 489.11 301.29 490.04 301.43 493.31 302.56 496.93 303.46 498.6 299.69 497.25 296.68 495.54 296.11 498.66 292.83 500.63 289.71 501.67 288.99 502.76 287.38 503.59 285.14 503.96 282.28 503.44 280.47 503.59 272.21 505.47 270.6 505.31 268 503.75 264.78 500.53 263.58 498.91 262.28 498.03 258.44 494.29 256.26 492.52 252.83 491.27 247.84 491.53 243.79 493.35 242.54 494.55 240.82 494.96 239.06 494.29 232.67 495.95 231.21 495.28 230.75 493.82 230.54 491.43 231.27 488.93 230.85 487.17 228.98 486.18 225.45 486.85 224.3 486.28 224.56 484.62 226.12 484.98 226.17 483.79 227.21 483.11 229.29 483.27 231.99 482.54 231.27 481.66 224.15 478.28 216.04 475.47 212.3 475.68 206.38 478.02 197.08 481.08 193.96 480.93 191.94 479.78 194.07 478.02 194.79 476.66 194.07 476.14 192.3 476.61 191.16 475.16 189.03 475.1 188.61 473.91 191.78 470.84 192.04 469.18 189.55 466.79 187.12 463.71 188.39 463.5 194.03 463.42 195.1 463.23 195.44 461.29 197.69 455.54 197.99 452.97 197.05 446.59 198 446.1 204.11 444.79 204.61 443.96 202.52 439.37 202.45 426.29 203.92 424.63 207.3 422.35 207.67 421.56 206.12 418.15 202.04 415.77 205.76 415.38 209.31 416.37 213.37 416.13 215.03 416.79 216.87 416.79 219.79 415.71 227.22 415.54 230.56 414.62 231.81 412.87 234.48 413.7 236.9 413.7 244.66 413.04 246.16 412.03 248.16 411.28 250.5 411.28 251.67 413.04 254.51 415.12 256.67 417.38 256.59 419.55 257.68 421.14 263.77 424.98 265.27 426.06 272.95 426.65 274.03 426.56 274.7 428.23 274.28 430.15 272.2 432.41 271.95 434.58 274.62 432.57 275.78 430.07 276.12 428.15 275.87 426.65 274.95 425.23 275.2 423.72 278.2 422.64 282.04 422.3 284.21 420.8 285.63 418.63 287.13 419.38 288.55 418.38 291.05 415.62 292.62 414.25 293.35 413.05 296.89 411.73 298.51 409.04 300.09 407.95 301.58 408.48 303.28 412.11 304.19 412.58 304.16 414.11 306.59 415.9 307.21 418.65 307.88 419.06 307.88 421.64 307.18 423.66 310.75 425.63 316.32 428.38 319.39 431.26 321.85 431.9 322.47 432.87 325.66 432.75 331.14 429.88 339.46 424.72 340.08 424.02 342.1 423.08 347.11 419.8 350.18 418.83 351.47 417.8 352.62 418.45 354.64 420.56 355.05 424.25 356.51 425.92 356.72 427.74 357.74 428.68 357.51 430.08 358.24 431.32 361.29 431.08 364.34 431.14 367.24 432.75 368.58 434.92 369.2 438.62 371.04 440.4 371.37 441.2 373.01 442.51 375.29 442.75 378.7 442.15 Z"/>
<path d="M 493.73 163.66 494.53 166.17 493.81 166.33 490.57 172.41 487.32 179.21 486.84 182.28 486.18 183.42 483.95 185.59 483.53 188.54 482.93 190.58 481.55 193.71 479.8 195.16 475.71 194.86 474.39 193.47 471.92 191.55 469.88 191.91 465.91 191.91 464.4 191.49 462.06 191.49 459.37 191.02 457.48 190.46 455.99 191.45 457.85 189.55 462.01 186.35 464.27 183.17 465.22 182.48 465.39 181.11 455.46 174.28 455.22 173.46 458.85 170.54 461.13 167.13 463.31 165.29 464.1 165.29 465.06 163.71 466.55 163.71 467.95 164.85 471.36 165.64 475.38 165.55 478.27 165.03 478.97 161.61 479.58 160.39 481.42 160.65 483.08 161.79 484.83 161.52 487.1 163.36 489.9 164.68 493.73 163.66 Z"/>
<path d="M 573.42 98.78 572.29 100.62 569.66 102.63 568.26 102.89 562.58 104.9 560.74 104.9 559.6 105.43 557.68 107.71 557.16 109.02 558.56 109.63 559.69 109.63 561 110.77 560.74 112.08 559.34 114.27 558.82 116.72 557.94 117.59 556.37 118.12 556.28 119.43 559.52 118.91 560.3 120.13 560.65 121.97 563.1 122.58 567.39 122.14 570.54 121.36 573.07 121.44 574.82 120.83 576.31 121.27 577.71 123.02 577.88 124.94 578.53 126.67 578.32 126.7 578.98 128.8 570.01 129.41 567.48 130.37 566.78 133 565.38 133.35 564.5 135.18 563.02 135.18 559.34 131.95 558.47 129.93 557.33 129.23 554.62 128.62 552.96 128.71 550.51 129.93 546.75 132.65 543.86 133.52 539.4 138.68 538.13 141.82 536.61 141.59 535.53 140.56 531.79 142.39 530.2 142.01 526.79 145.05 524.41 147.44 521.46 147.21 520.85 146.64 518.33 146.78 516.46 145.38 513.36 139.52 511.24 135.27 507.48 130.2 505.91 127.66 502.5 121.01 500.48 116.72 500.13 114.79 503.11 110.42 504.86 108.41 505.99 106.57 506.61 103.94 506.52 101.4 505.12 99.92 507.48 98.25 509.32 98.69 510.37 100.53 512.29 101.14 514.13 100.79 515.26 99.57 516.75 99.65 516.84 97.55 518.41 96.59 521.3 96.42 524.27 98.52 524.97 99.57 526.2 99.3 534.15 94.23 538.09 92.92 538.35 91.78 537.48 89.33 539.31 84.08 541.5 82.68 540.98 80.05 541.95 76.61 544.43 76.13 547.45 76.03 548.99 75.52 552.82 75.79 557.96 74.26 559.34 76.64 560.22 76.99 565.11 76.55 566.6 76.64 568.79 78.56 569.75 81.1 571.32 81.1 572.81 80.49 575.52 81.45 582.26 82.06 586.45 81.89 589.52 81.98 588.03 85.74 586.37 87.23 584.27 87.4 583.74 88.72 584.53 89.42 582.69 92.13 576.48 96.24 573.42 98.78 Z"/>
<path d="M 513.36 139.52 516.46 145.38 518.33 146.78 520.85 146.64 521.46 147.21 524.41 147.44 526.79 145.05 530.2 142.01 531.79 142.39 535.53 140.56 536.61 141.59 538.13 141.82 535.82 145.34 536.17 147.61 537.65 149.36 540.19 151.2 542.03 151.9 544.05 150.97 544.52 153.81 542.53 155.98 540.37 157.66 539.28 158.02 538.48 159.34 535.92 160.85 532.31 163.62 530.56 164.4 525.69 164.82 523.71 166.21 522.93 167.41 524.01 170 522.74 170.18 521.96 174.45 521.3 175.24 512.7 175.18 511.02 174.39 506.93 176.74 505.42 177.22 503.68 176.68 503.92 175.06 505.24 174.69 505.96 173.55 502.6 171.51 502.72 169.52 500.67 169.1 498.27 168.2 496.76 166.39 494.53 166.17 493.73 163.66 495.24 162.75 496.2 160.56 497.34 159.69 498.12 158.02 498.03 156.97 499.17 156.54 499.08 155.22 501.18 153.82 502.93 151.29 503.11 149.97 504.42 147.79 503.89 146.47 505.38 145.77 505.12 144.37 507.22 141.66 507.92 139.82 508.97 140.26 512.12 139.21 513.36 139.52 Z"/>
<path d="M 778.69 61.49 778.07 62.04 778.23 65.89 775.6 67.1 772.6 67.18 770.99 68.68 769.69 70.63 766.7 70.1 764.11 68.52 762.65 68.28 761.56 67.18 758.93 67.31 757.55 67.87 755.61 69.45 754.15 69.65 753.02 67.63 751.73 68.05 751.47 66.95 746.4 66.52 744.85 65.75 740.69 65.82 738.72 65.33 737.1 64.27 736.96 62.51 735.97 58.42 735.13 56.94 734.56 53.48 734.63 49.18 736.11 47.14 736.89 45.44 737.66 40.72 738.44 38.39 738.44 34.45 739.63 32.19 740.55 29.58 741.96 26.55 741.89 24.51 740.48 19.36 739 17.95 736.09 13.22 737.7 11.87 738.98 11.71 740.3 10.18 742.45 9.27 744.94 4.57 747.75 3.55 752.29 2.89 753.77 2.17 761.16 1 761.31 1.61 758.71 6.36 757.18 7.53 757.49 8.4 760.75 10.03 763.76 11.15 763.25 13.91 761.31 16.1 761.57 19.16 762.59 18.76 763.86 19.52 766.1 18.45 767.48 16.05 768.76 15.18 770.8 15.13 770.8 17.28 770.29 20.13 768.76 22.02 769.21 25.54 768.96 26.41 770.34 27.79 769.42 29.16 769.88 32.43 769.67 38.55 769.21 45.85 769.27 48.35 770.13 49.88 771.46 50.95 774.87 50.85 775.89 52.43 777.83 57.68 778.69 61.49 Z"/>
<path d="M 328.72 291.3 330.04 296.25 329.4 303.97 328.15 314.89 331.66 320.39 334.2 322.75 336.74 327.07 341.04 330.41 348.64 336.11 354.32 346.71 355.49 347.5 361.91 345.74 367.36 343.98 369.72 343.42 373.79 343.75 375.21 342.67 383.03 337.79 387.72 334.24 389.1 332.86 394.15 330.51 401.73 326.54 404.56 324.73 407.99 323.23 409.97 323.29 416.05 320.88 422.9 319.01 425.11 318.18 423.78 322.23 421.25 326.89 420.32 329.16 420.99 330.75 424.58 330.89 426.05 331.95 426.18 334.08 425.38 337.28 424.98 340.21 425.12 342.08 425.78 344.34 427.64 344.87 429.11 344.07 431.11 344.07 432.44 345.67 433.1 347.54 432.7 351.53 431.22 354 428.6 355.59 425.5 360.23 421.79 362.71 419.7 363.8 417.76 365.27 415.6 369.45 415.52 372.47 414.13 374.25 412.5 375.03 410.56 377.5 409.87 380.68 408.71 383.78 408.78 385.48 409.71 386.88 409.87 388.5 406.93 391.6 401.97 395.94 400.99 397.68 399.78 398.54 399.78 401.71 399.52 404.49 398.23 407.89 395.04 412.7 393.46 414.64 389.62 420.88 388.74 421.85 386.86 424.87 381.12 432.58 379.42 435.74 379.22 439.41 378.7 442.15 375.29 442.75 373.01 442.51 371.37 441.2 371.04 440.4 369.2 438.62 368.58 434.92 367.24 432.75 364.34 431.14 361.29 431.08 358.24 431.32 357.51 430.08 357.74 428.68 356.72 427.74 356.51 425.92 355.05 424.25 354.64 420.56 352.62 418.45 351.47 417.8 350.18 418.83 347.11 419.8 342.1 423.08 340.08 424.02 339.46 424.72 331.14 429.88 325.66 432.75 322.47 432.87 321.85 431.9 319.39 431.26 316.32 428.38 310.75 425.63 307.18 423.66 307.88 421.64 307.88 419.06 307.21 418.65 306.59 415.9 304.16 414.11 304.19 412.58 303.28 412.11 301.58 408.48 300.09 407.95 298.51 409.04 296.89 411.73 293.35 413.05 292.62 414.25 291.05 415.62 288.55 418.38 287.13 419.38 285.63 418.63 284.21 420.8 282.04 422.3 278.2 422.64 275.2 423.72 274.95 425.23 275.87 426.65 276.12 428.15 275.78 430.07 274.62 432.57 271.95 434.58 272.2 432.41 274.28 430.15 274.7 428.23 274.03 426.56 272.95 426.65 265.27 426.06 263.77 424.98 257.68 421.14 256.59 419.55 256.67 417.38 254.51 415.12 251.67 413.04 250.5 411.28 248.16 411.28 246.16 412.03 244.66 413.04 236.9 413.7 234.48 413.7 231.81 412.87 230.56 414.62 227.22 415.54 219.79 415.71 216.87 416.79 215.03 416.79 213.37 416.13 209.31 416.37 205.76 415.38 202.04 415.77 196.38 412.85 190.58 413.45 185.74 413.55 178.84 416.78 176.67 417.03 173.03 416.43 170.46 414.91 165.63 415.32 163.64 414.54 162.38 413.46 162.25 412 165.78 409.05 166.58 407.46 166.2 406.24 164.45 404.48 168.51 393.88 168.23 387.31 167.09 378.42 166.36 370.98 165.5 365.06 164.52 361.11 163.99 358.01 165.6 357.41 169.21 354.82 172.1 351.69 174.08 350.07 175.28 348.26 178.77 345.55 184.73 340.44 191.7 335.14 195.55 333.46 197.3 333.52 198.26 332.86 199.22 330.99 199.52 329 200.3 327.14 202.23 325.39 203.43 325.21 206.32 325.69 212.45 326.06 214.86 325.69 217.69 324.79 222.8 323.83 227.79 323.59 235.49 323.71 238.02 324.01 240.78 323.83 245.17 322.81 247.82 321.66 249.02 319.92 250.47 320.04 250.83 323.17 253.35 320.22 257.14 317.27 259.31 316.49 261.17 316.61 264.78 315.4 266.58 316 267.79 314.5 269.83 312.63 271.88 312.21 276.57 308.72 280 308.54 282.88 308.66 284.39 307.52 286.61 306.74 289.2 306.38 289.56 305.05 289.56 302.76 290.7 302.88 293.65 304.09 296.42 304.45 299.06 304.33 300.87 303.85 302.67 302.16 303.39 300.6 305.32 298.31 307.36 296.75 309.59 296.57 317.29 293.74 319.63 293.8 321.98 293.32 328.72 291.3 Z"/>
<path d="M 736.09 13.22 739 17.95 740.48 19.36 741.89 24.51 741.96 26.55 740.55 29.58 739.63 32.19 738.44 34.45 738.44 38.39 737.66 40.72 736.89 45.44 736.11 47.14 734.63 49.18 734.56 53.48 735.13 56.94 735.97 58.42 736.96 62.51 737.1 64.27 738.72 65.33 740.69 65.82 744.85 65.75 746.4 66.52 751.47 66.95 751.73 68.05 750.39 69.57 750.31 71.64 748.61 73.06 748.4 74.27 749.86 75.53 749.82 76.34 748.32 78.81 749.17 81.8 749.17 83.83 748.61 85.49 750.63 85.85 749.01 88.12 749.34 90.1 751.24 91.4 750.67 94.19 749.86 96.34 748.93 96.91 746.7 100.15 745.01 104.28 741.93 109.05 738.65 111.52 738.09 113.26 734.89 115.21 734.28 116.26 734.48 118.04 734.28 123.67 732.78 125.53 730.27 127.28 728.9 129.14 728.7 131.53 729.59 133.43 730.92 134 734.04 133.35 734.93 136.55 736.83 137.28 736.26 138.49 734.64 138.74 730.88 136.37 728.9 134.96 725.59 133.54 720.69 130.43 719.93 128.82 718.42 127.12 716.73 126.46 714.46 126.65 712.1 126.08 708.61 126.18 707.38 123.06 707.2 121.55 705.59 120.98 702.31 120.94 700.03 119.57 696.35 120.42 696.16 118.91 694.18 115.13 698.23 113.34 702.1 110.79 708.33 109.18 710.78 108.05 711.35 106.26 712.57 104.46 713.42 101.91 713.33 98.99 714.55 97.19 715.31 95.4 718.71 94.55 721.44 90.87 721.35 89.08 719.84 89.08 716.25 91.91 714.55 92.38 712.76 92.19 711.44 91.44 708.61 88.41 707.57 86.72 704.55 86.24 703.04 85.68 699.93 83.22 697.95 82.09 696.72 82.18 695.59 83.03 692.67 82.56 690.97 83.32 690.02 84.26 689.08 83.69 688.7 82.18 685.59 84.64 682.95 84.45 682.76 82.75 681.16 82.28 678.99 82.75 677.38 82.47 676.16 81.62 672.29 81.71 670.4 83.88 667.48 85.87 664.17 85.87 663.23 85.3 662.85 81.81 661.91 81.05 661.25 79.54 661.53 77.94 662.47 76.9 661.81 75.2 660.02 73.22 660.4 67.83 659.93 66.42 653.79 64.15 652.38 64.81 648.13 65.95 645.11 66.98 638.51 70.29 635.3 70.01 625.21 66.98 619.45 63.68 617.66 61.79 610.11 55.28 606.34 52.35 602.56 50.46 597.66 48.76 593.32 46.88 590.49 45.18 589.12 43.4 591.17 41.88 593.34 40.84 596.36 41.08 598.07 40.53 600.22 40.44 603.42 39.13 606.37 37.02 609.89 34.85 610.17 33.48 613.04 30.76 614.35 29.82 616.36 26.48 618.77 23.42 619.5 25.09 624.91 25.77 626.44 26.19 625.73 27.56 628.04 29.73 628.75 29.96 635.99 29.84 640.31 30.1 642.2 31.19 646.02 31.37 647.71 31.92 649.98 33.61 651.55 33.58 653.16 31.84 653.78 30.53 650.1 30.17 646.69 30.23 643.75 30.72 641.16 29.43 643.95 28.52 648.59 26.22 652.78 23.95 653.79 24.55 658.04 28.16 658.66 28.38 663.94 28.87 664.57 30.47 665.22 35.08 668.18 37.38 670.01 38.11 670.79 40.29 672.67 42.43 674.93 42.78 675.8 43.35 680.78 43.17 683.14 42.14 684.89 39.4 688.01 40.9 690.98 41.01 691.25 39.71 693.17 38.2 694.83 37.58 697.38 35.42 699.2 34.52 700.66 30.73 701.83 29.8 702.44 27.68 704.01 26.32 705.5 23.77 705.95 22.21 708.79 21.01 711.45 18.98 712.73 16.86 716.12 15.46 716.59 13.84 719.45 13.3 720.98 12.58 725.01 12.89 730.92 12.43 733.52 11.71 734.59 12.94 736.09 13.22 Z"/>
<path d="M 578.98 128.8 579.2 129.5 581.29 131.95 583.83 133.96 585.84 135.01 586.23 136.61 587.86 136.48 593.25 136.68 596.15 137.18 597.94 137.18 600.18 138.33 601.14 138.68 603.23 135.39 605.93 133.79 607.92 133.29 610.42 133.59 613.83 133.1 615.11 132.99 617.01 134.29 622.4 133.99 623.99 135.59 623.99 138.78 624.69 139.78 625.99 140.38 628.88 140.38 629.98 140.68 631.28 141.88 631.38 145.77 633.47 147.07 639.66 147.17 643.25 146.17 647.65 146.07 648.84 147.27 646.35 148.97 645.55 149.87 646.75 153.06 648.05 153.96 652.24 154.06 653.33 155.36 653.04 156.76 650.94 156.96 650.64 159.05 647.85 159.85 643.45 163.25 643.2 163.23 640.66 163.05 639.26 163.55 635.67 164.05 633.07 165.15 630.18 165.35 627.09 164.05 623.19 163.85 622.42 164.43 620.12 163.44 617.96 161.57 616.45 161.33 615.67 160.01 613.14 158.45 612.18 156.52 610.2 156.4 608.51 155.8 606.77 155.8 605.2 155.26 603.52 153.69 600.45 152.67 599.43 151.83 595.64 151.34 594.2 150.5 593.18 148.15 589.09 147.19 583.67 146.35 582.71 146.89 583.85 148.21 583.97 149.6 582.77 151.34 576.45 153.93 573.99 153.69 572 154.11 568.82 155.74 566.17 155.2 563.88 154.05 561.66 152.19 558.29 152.31 556.85 153.03 553 152.07 548.73 151.83 545.9 150.2 544.05 150.97 542.03 151.9 540.19 151.2 537.65 149.36 536.17 147.61 535.82 145.34 538.13 141.82 539.4 138.68 543.86 133.52 546.75 132.65 550.51 129.93 552.96 128.71 554.62 128.62 557.33 129.23 558.47 129.93 559.34 131.95 563.02 135.18 564.5 135.18 565.38 133.35 566.78 133 567.48 130.37 570.01 129.41 578.98 128.8 Z"/>
<path d="M 638.37 184.42 638.55 186.36 639.5 187.61 643.12 189.63 648.94 192.36 653.15 193.73 653.51 194.68 652.32 198.48 653.21 200.98 652.5 202.88 651.43 204.25 649.35 205.55 647.45 206.5 645.73 206.98 644.13 207.57 643.24 208.23 641.99 210.13 641.46 210.78 639.44 211.14 634.45 210.78 631.78 210.54 628.16 210.37 626.73 210.48 625.01 212.92 624 213.57 622.75 213.81 621.21 213.87 618.36 219.28 615.27 225.22 613.97 226.64 613.14 227.95 613.55 228.49 614.98 228.25 617.41 229.73 619.07 231.4 619.71 232.2 622.43 234.3 624.15 235.31 626.37 236.77 629.66 238.99 631.88 240.52 634.42 241.66 642.16 244.83 645.19 244.96 644.04 246.18 638.77 246.38 634.65 246.05 631.55 244.63 629.73 244.29 628.71 244.83 627.63 247.26 627.83 248.68 634.25 255.91 636.75 259.28 636.75 259.29 635.6 260.5 631.35 263.34 625.81 265.3 625.49 265.69 623.38 267.73 623.58 268.61 625.54 268.81 625.94 270.63 625.05 273.03 625 273.13 624.05 276.17 619.73 277.66 612.44 281.17 608.19 282.25 606.43 282.05 606.09 282.76 604.24 282.64 601.99 281.14 600.59 279.64 599.93 276.74 601.06 276.27 604.61 275.71 606.95 274.21 606.11 272.52 604.8 271.68 605.27 270.93 603.4 269.62 602.65 268.31 601.06 267.75 598.81 264.47 598.15 261.47 598.06 258.29 598.53 255.86 599.84 255.86 601.9 255.86 602.37 254.83 602.74 250.61 602.65 246.3 602.18 244.43 601.71 235.82 602.83 233.85 602.07 233.03 598.96 235.12 596.49 235.82 593.83 235.88 593.57 234.68 594.71 233.72 595.16 232.01 594.08 227 592.75 226.04 588.75 224.9 588.81 222.81 588.18 221.09 587.99 217.92 586.72 216.08 586.47 214.24 585.45 212.91 583.36 212.59 581.27 212.91 580.57 212.33 578.35 212.52 577.78 210.37 576.76 208.91 574.1 207.76 568.35 207.19 566.38 206.43 565.24 204.69 563.66 203.98 562.24 201.47 561.97 197.38 560.99 194.11 558.75 189.69 557.17 187.89 554.94 186.53 551.36 185.59 550.89 182.22 549.81 179.33 550.65 178.43 554.26 177.64 554.68 176.08 553.3 175.3 554.62 174.51 556.19 174.4 556.33 174.93 558.62 176.23 562.02 176.63 565.11 175.73 565.51 173.83 567.31 172.74 567.7 170.84 569.1 170.84 571.5 170.14 572.49 168.94 577.88 168.44 579.08 169.74 582.97 171.04 586.17 173.33 586.97 174.93 584.47 176.83 585.77 177.83 592.95 177.53 595.55 176.43 600.04 176.73 602.54 177.93 604.43 180.22 605.53 182.32 605.53 186.12 604.83 188.51 603.83 189.61 603.33 191.31 601.44 194.21 599.84 194.9 598.34 198 596.95 199.4 596.25 201.1 595.05 202.69 594.55 204.39 595.55 205.19 597.55 203.49 599.94 202.2 602.74 199.4 602.24 196.4 604.53 195.5 605.93 195.4 606.73 194.21 609.22 192.31 609.82 188.41 611.22 187.71 613.31 187.42 617.21 187.32 625.79 184.82 634.27 184.72 638.37 184.42 Z"/>
<path d="M 700.31 311.24 695.2 311.47 688.57 311.47 676.11 311.87 643.56 311.87 637.93 315.49 634.52 323.74 621.46 327.96 610 336.81 605.78 340.43 601.97 342.03 597.95 345.45 597.14 348.47 593.33 348.07 590.31 349.27 587.9 349.47 586.49 350.08 586.29 352.69 582.27 353.49 576.67 353.83 576.73 349.87 575.72 346.56 573.36 343.93 573.63 339.8 572.82 335.82 574.77 335.41 577.81 334 580.92 332.85 587.6 331.02 593.95 329.81 600.76 327.85 602.92 326.63 604.68 324.27 609.68 320.15 610.55 319.07 610.89 315.55 611.97 314.61 615.08 312.85 617.03 312.04 621.62 311.16 624.19 310.96 626.35 311.16 628.17 310.89 635.13 311.37 636.21 311.03 637.22 308.12 637.22 304.54 636.61 302.65 636.88 300.96 636.54 299.14 636.61 294.01 638.97 292.25 642.27 291.25 643.5 292.99 644.71 294.01 646.06 294.28 649.17 296.51 654.57 299.41 660.51 303.13 669.28 307.11 673.4 307.85 675.29 308.46 677.32 308.39 681.17 308.87 687.51 308.8 692.57 309.47 696.15 306.16 699.19 307.92 700.31 311.24 Z"/>
<path d="M 541.95 76.61 540.98 80.05 541.5 82.68 539.31 84.08 537.48 89.33 538.35 91.78 538.09 92.92 534.15 94.23 526.2 99.3 524.97 99.57 524.27 98.52 521.3 96.42 518.41 96.59 516.84 97.55 516.75 99.65 515.26 99.57 514.13 100.79 512.29 101.14 510.37 100.53 509.32 98.69 507.48 98.25 505.12 99.92 506.52 101.4 506.61 103.94 505.99 106.57 504.86 108.41 503.11 110.42 500.13 114.79 500.48 116.72 502.5 121.01 505.91 127.66 507.48 130.2 511.24 135.27 513.36 139.52 512.12 139.21 508.97 140.26 507.92 139.82 507.22 141.66 505.12 144.37 505.38 145.77 503.89 146.47 504.42 147.79 503.11 149.97 502.93 151.29 501.18 153.82 499.08 155.22 499.17 156.54 498.03 156.97 498.12 158.02 497.34 159.69 496.2 160.56 495.24 162.75 493.73 163.66 489.9 164.68 487.1 163.36 484.83 161.52 483.08 161.79 481.42 160.65 479.58 160.39 478.97 161.61 478.27 165.03 475.38 165.55 471.36 165.64 467.95 164.85 466.55 163.71 465.06 163.71 464.1 165.29 463.31 165.29 461.13 167.13 458.85 170.54 455.22 173.46 455.19 171.81 456.78 169.56 457.02 167.99 459.08 165.47 459.3 163.05 461.81 158.35 462.14 155.25 463.16 152.04 463.5 149.28 463.18 147.29 463.63 145.66 464.74 143.99 464.99 142.72 463.7 141.05 463.78 138.3 462.6 137.12 460.23 135.76 459.76 133.34 458.8 130.67 461.77 120.57 463.21 116.15 467.74 99.76 468.96 98.84 476.01 97.2 480.23 96.67 482.66 96.05 484.1 95.13 487.37 92.42 491.5 88.49 492.88 87.83 493.3 85.58 493.13 84.38 495.09 80.53 495.84 76.96 496.93 76.13 500.76 76.36 502.94 75.58 505.74 71.74 507.57 70.54 511.44 69.04 517.11 67.65 521.32 67.75 523.49 68.39 524.07 69.91 523.77 70.81 521.83 71.99 522.35 73.79 524.48 74.58 527.67 74.49 529.69 73.69 533.82 73.51 535.26 75.09 538.96 75.55 541.95 76.61 Z"/>
<path d="M 448.2 235.63 448.1 237.29 447.2 240.11 445.58 243.36 443.83 248.66 443.65 250.65 444.86 254.38 446.9 256.36 446.9 261.24 446.54 263.1 445.52 265.27 445.04 269.3 443.29 272.07 441.73 276.16 440.95 277.67 439.08 277.85 437.88 278.45 437.16 279.95 436.44 282.6 436.01 285.73 436.26 286.76 438.24 288.2 440.04 287.96 440.83 286.76 442.33 286.64 442.75 288.32 442.51 291.93 440.95 296.32 440.04 297.89 439.98 299.57 438.54 301.68 436.44 304.09 435.59 305.77 432.53 310.05 430.6 311.31 428.62 313.06 426.51 316.55 425.11 318.18 422.9 319.01 416.05 320.88 409.97 323.29 407.99 323.23 404.56 324.73 401.73 326.54 394.15 330.51 389.1 332.86 387.72 334.24 383.03 337.79 375.21 342.67 373.79 343.75 369.72 343.42 367.36 343.98 361.91 345.74 355.49 347.5 354.32 346.71 348.64 336.11 341.04 330.41 336.74 327.07 334.2 322.75 331.66 320.39 328.15 314.89 329.4 303.97 330.04 296.25 328.72 291.3 333.95 289.64 335.75 289.7 342.49 290.61 344.23 290.37 348.14 286.76 352.17 282.3 354.1 280.56 362.28 279.83 364.62 279.05 368.23 275.92 370.88 272.91 374.49 271.29 376.89 269.72 380.98 266.71 384.23 264.73 388.2 261.72 390.44 260.8 393.73 260.46 396.08 260.52 399.45 261.06 400.77 260.94 401.91 260.09 403.66 258.05 405.52 257.63 408.59 256.18 409.37 252.99 411.78 251.79 413.76 251.43 419.84 251.31 422.36 252.63 423.5 252.69 427.41 250.77 430.9 249.62 433.55 247.94 435.47 247.22 437.94 243.24 439.08 242.28 439.14 239.75 440.1 237.53 441.73 235.48 443.35 234.4 444.92 236.02 446.48 236.38 448.2 235.63 Z"/>
</g>
</svg>