<?xml version="1.0"?>
<svg xmlns="http://www.w3.org/2000/svg" version="1.2" baseProfile="tiny" width="800" height="389" viewBox="0 0 800 389" stroke-linecap="round" stroke-linejoin="round">
<g id="GB">
<path d="M 528.14 147.69 528.73 148.35 529.16 148.85 529.71 149.47 530.29 150.47 530.61 151.05 530.79 151.35 531.8 151.78 532.5 152.11 533 152.49 533.62 152.84 534.28 153.37 534.67 153.98 535.18 154.63 535.73 155.12 536.42 155.62 537.29 155.88 538.31 156.06 539.47 156.24 540.31 156.24 541.73 156.06 542.61 155.92 543.66 155.92 544.72 155.92 545.63 155.66 546.65 155.63 547.38 155.43 548.85 155.03 550.08 155.16 551.06 155.49 551.91 155.77 552.31 156.38 552.69 156.95 552.75 157.02 553.38 157.51 553.89 157.92 554.47 158.36 554.65 158.94 554.76 159.64 555.23 160.2 555.27 160.76 555.24 161.32 555.63 161.6 555.86 161.75 556.06 162.21 556.47 162.34 556.79 162.51 557.19 162.69 557.75 163.02 558.28 163.48 558.97 163.73 559.52 164.04 560.06 164.45 560.24 165.15 560.39 165.79 560.6 166.14 560.96 166.82 561.25 167.25 561.58 167.84 561.91 168.45 562.38 168.86 562.78 169.19 563.36 169.83 563.65 170.45 563.72 171.21 563.96 171.69 563.32 172.4 562.84 172.93 562.4 173.46 562.11 173.92 562 174.48 562.11 174.98 562.4 175.36 562.61 175.86 562.36 176.41 562.17 176.82 562.14 177.23 562.32 177.7 562.61 178.31 562.86 178.69 562.31 179.1 561.8 179.66 561.47 180.1 561.14 180.68 560.96 181.27 561.21 181.7 561.25 182.26 561.39 182.85 561.86 183.26 562.52 183.7 563.17 184.08 563.88 184.59 564.84 185.31 565.39 185.51 566.19 185.34 566.92 185.04 567.39 184.93 567.87 185.02 568.27 185.25 568.81 185.2 569.41 185.14 569.87 184.99 570.8 184.9 571.91 184.55 572.43 184.48 573.03 184.41 573.45 183.89 573.74 183.36 573.65 182.85 573.65 182.39 573.65 182.1 574.2 182.17 574.9 182.27 575.87 182.37 576.77 182.2 577.51 182.51 578.2 182.44 579.39 182.78 579.95 182.86 580.25 182.65 580.61 182.4 581.58 182.25 582.06 182.06 582.88 182.33 583.92 182.27 584.4 182.02 585 181.84 585.53 181.95 586.05 182.25 586.2 182.54 586.41 182.93 586.68 183.59 587.57 183.57 588 183.24 588.42 182.99 588.81 182.76 589.75 182.97 590.18 183.01 590.65 183.27 591.26 183.53 591.95 183.84 592.37 183.79 592.86 183.95 593.21 183.82 593.57 183.81 594.28 184.04 594.68 184.25 595.2 184.53 594.98 184.07 594.43 183.57 594.13 182.97 594.32 182.34 594.39 181.72 594.13 180.8 593.51 180.04 594.51 179.67 595.22 179.44 595.34 178.91 595.71 178.66 596.46 178.76 597.02 179.15 597.34 179.46 597.98 179.27 598.65 179.16 599.32 179.28 599.84 179.42 600.55 180 601.13 180.22 602.01 180.28 602.91 180.16 603.32 180.1 604.1 179.97 605.08 179.94 605.46 180.27 605.92 179.66 606.22 179.27 607.09 178.82 608.02 178.43 608.15 177.49 608.58 176.67 609.38 175.65 610.85 174.73 612.35 174.09 612.89 174.48 613.74 174.6 614.49 174.35 615.75 174.68 616.98 174.82 618.07 174.97 619.13 175.44 619.89 175.55 620.44 175.26 620.56 174.75 620.71 174.08 621.32 173.69 621.89 173.32 622.79 172.64 624 172.27 623.51 171.61 623.61 171.06 623.72 170.52 623.69 169.68 623.77 168.84 624.9 168.58 625.59 168.57 626.02 169.09 626.84 169.26 627.42 168.96 628.57 169.15 629.05 169.23 629.63 169.72 629.53 170.28 629.46 170.72 630.39 171.17 630.9 171.59 631.46 171.9 632.11 172.38 631.84 173.15 631.68 173.69 631.02 174.35 630.36 175.11 629.68 176.09 628.98 176.54 628.35 176.95 628.28 177.36 628.2 177.79 628.89 178.08 629.46 178.32 630.04 178.69 630.15 179.25 630.12 179.65 630.08 180.19 630.3 180.7 630.59 181.35 630.5 181.98 629.98 182.24 629.44 182.51 628.78 182.87 628.2 183.19 627.65 183.88 627.05 184.4 626.47 184.7 626.84 184.99 627.14 185.21 627.45 185.66 627.4 186.1 627.44 186.48 627.69 186.81 628.14 187.39 628.75 187.74 629.26 188.3 629.32 188.73 629.82 189.12 630.1 189.33 630.37 189.69 630.92 190.36 631.1 190.94 630.59 191.24 630.41 191.7 630.88 191.95 631.42 192.21 631.86 192.48 632.55 192.56 633.28 192.65 633.87 192.95 634.41 193.27 635.1 193.69 635.65 193.69 636.15 193.53 636.73 193.48 637.18 193.19 637.68 192.88 638.11 192.76 638.63 192.78 639.21 192.94 639.66 193.11 640.08 193.36 640.49 193.77 640.34 194.18 640.58 194.45 640.81 194.71 641.47 195 642.25 195.07 643.05 195.26 643.7 195.32 644.46 195.13 644.86 195.11 645.32 195.4 646 195.75 646.62 196.01 647.2 196.41 647.67 196.87 647.79 197.3 647.91 197.73 647.58 198.09 647.21 198.33 647.29 198.94 647.37 199.38 647.56 199.72 648.34 199.63 648.75 199.92 649.14 200.24 649.54 200.49 650.03 200.75 650.47 201.02 650.77 201.3 651.23 201.59 651.58 201.95 652 202.22 652.22 202.48 652.53 202.7 652.65 203.25 653.06 203.75 653.37 204 653.68 204.25 654.23 204.42 654.74 204.69 654.96 204.9 655.15 205.3 655.02 205.69 655.19 205.94 655.43 206.55 656.42 206.72 657.1 206.72 657.24 207.33 656.94 207.94 656.98 208.64 657.16 208.99 657.48 209.4 657.88 209.78 658.43 209.99 659.01 210.07 659.59 210.13 660.03 210.22 660.57 210.32 660.8 210.11 661.06 209.96 661.36 209.98 661.66 209.92 662.04 210.05 662.32 209.97 662.58 209.76 662.9 209.64 663.2 209.58 663.5 209.6 663.8 209.65 664.19 209.67 664.49 209.62 664.76 209.62 665 209.39 665.23 209.2 665.46 209 665.65 208.86 665.91 208.69 666.12 208.72 666.38 208.82 666.7 208.96 667.02 209.05 667.25 209.17 667.52 209.16 667.82 209.21 668.06 209.15 668.35 209 668.89 208.75 669.44 208.83 669.92 208.72 670.43 208.39 671.07 208.11 671.52 208.11 671.72 208.39 671.94 208.59 672.23 208.77 672.39 209.05 672.48 209.2 672.55 209.33 672.67 209.64 672.69 209.83 672.67 210.14 672.95 210.67 673.03 211.23 673.53 211.75 674.08 211.93 674.55 212.19 675.06 212.49 675.21 212.81 675.64 212.98 676.19 213.25 676.92 213.66 677.17 214.1 677.39 214.57 677.42 214.86 678.15 215.18 678.51 215.47 678.95 215.88 679.13 216.29 679.35 216.61 679.86 216.82 680.18 217.02 680.66 217.23 681.13 217.52 681.86 217.76 682.66 217.93 683.24 217.93 683.86 217.93 684.51 218.17 684.84 218.49 685.39 218.76 685.97 218.99 686.51 219.31 687.13 219.49 687.49 219.78 687.93 220.02 688.69 220.22 689.24 220.22 689.79 220.02 690.26 219.75 690.81 219.4 691.5 219.67 692.12 219.84 692.67 219.58 693.21 219 693.83 218.21 694.67 217.91 695.15 217.83 695.73 217.92 696.24 218.03 696.53 218.33 696.49 218.76 696.6 219.35 696.96 219.85 697.61 220.52 697.87 221.28 698.09 222.11 698.4 222.69 698.82 223.44 699.33 224.38 699.34 225.11 699.34 226.08 699.35 227.04 699.49 227.54 700.1 228.39 699.99 229.18 700.36 229.56 700.5 230.12 700.61 231.04 701.64 231.27 701.99 231.67 702.61 232.46 702.75 233.34 704.06 234.33 704.97 234.86 705.81 235.2 706.54 235.5 707.18 235.75 708.21 236.17 708.75 236.53 709.26 237.12 709.33 237.7 709.87 238.02 711.07 238.16 712.78 238.08 714.74 237.98 716.28 237.9 717.39 237.85 718.83 237.9 719.74 238.3 720.87 239.06 722.03 239.2 723.82 238.8 725.78 239.06 727.7 239.73 728.37 240.26 728.58 241.46 729.27 242.28 730.03 242.87 730.72 243.42 731.63 244.19 732.23 244.32 733.07 244.52 733.74 245.15 734.32 245.71 735.37 246.76 736.25 247.06 737.45 246.79 738.47 246.44 740.13 246.17 741.66 246.54 742.85 246.84 743.93 246.82 744.62 246.97 745.82 246.79 746.62 247.01 747.57 247.24 748.81 247.3 749.65 247.33 750.92 247.24 752.09 247.01 753.62 246.87 755.69 246.19 757 246.02 758.28 245.61 759.36 245.12 760.56 244.75 762.17 244.27 763.92 244.58 765.45 245.19 766.15 245.47 767.49 245.62 769.06 245.91 769.78 246.35 770.08 246.83 770.11 246.88 771.71 246.85 772.66 246.85 773.75 246.85 774.19 246.76 775.03 246.59 776.41 246.53 778.09 246.46 779.38 246.4 780 246.15 780.78 245.84 781.99 245.35 782.93 245.19 783.72 244.66 784.65 244.29 786.14 243.88 786.58 243.39 787.42 242.65 788.64 242.43 789.97 242.19 790.83 241.85 792.27 241.53 792.68 241.44 794.3 241.36 795.5 241.3 797.12 241.76 797.86 242.14 798.57 242.51 799 242.99 798.89 243.6 798.41 244.24 798.07 244.81 797.9 245.09 797.8 245.62 797.68 246.23 797.75 246.61 797.53 247.22 797.16 247.55 796.73 247.71 796 247.98 795.01 248.45 794.19 248.82 793.32 249.21 792.59 249.53 792.23 250.25 792.03 250.64 791.02 251.39 790.47 251.79 789.69 252.36 788.68 253.1 788.18 253.47 787.62 253.88 787.22 254.5 786.88 255.02 786.48 255.64 786.57 256.37 786.61 256.81 786.76 258.07 786.36 258.6 785.77 259.82 784.75 260.5 783.35 261.62 781.4 262.53 780.13 263.77 778.04 264.54 775.57 265.75 773.73 266.66 771.96 267.82 770.86 268.55 769.78 269.44 768.1 270.14 766.67 271.42 764.61 272.15 763.15 272.98 761.25 273.48 759.16 274.77 757.82 276.05 756.9 276.96 755.87 278.07 754.75 278.91 753.78 279.63 752.16 280.84 750.79 281.87 749.23 283.03 747.8 283.91 746.04 285 744.13 286.15 742.57 287.09 741.34 287.83 740.25 288.49 737.91 289.42 735.92 290.73 733.67 291.78 731.63 292.73 730.45 293.5 728.74 294.96 727.32 296.32 726.25 296.87 724.23 297.9 723.36 298.9 722.24 300.19 720.31 301.6 718.17 303.16 716.02 303.64 712.64 303.98 709.96 304.5 706.96 305.23 704.44 305.65 701.55 306.25 699.83 307.46 698.12 308.1 696.67 308.4 695.44 308.62 694.63 309.04 693.77 309.43 692.75 309.77 691.95 310.29 690.82 310.81 689 311.23 687.45 311.96 686.16 312.48 685.41 312.91 684.98 314.24 684.01 315.02 682.99 315.66 681.97 316.05 680.63 316.73 679.24 317.38 678.11 317.85 676.61 318.37 675.38 318.62 674.09 318.84 672.96 319.22 671.95 319.65 670.98 320.04 669.96 320.6 669.16 321.07 668.41 321.54 667.6 321.93 666.53 322.57 665.67 323 665.08 323.52 664.11 324.08 662.99 324.72 662.13 325.37 661.27 325.84 660.31 326.18 659.39 326.7 658.21 327.21 657.3 327.99 656.17 328.89 654.83 329.62 653.6 330.35 652.42 331.12 651.56 331.73 650.75 332.33 650.11 332.97 649.3 333.79 648.39 334.61 647.53 335.46 646.46 336.32 645.44 337.18 644.2 337.87 643.02 338.77 641.63 339.46 640.34 340.28 639 340.75 638.04 341.01 636.96 341.39 635.84 341.65 634.61 342.04 633.48 342.25 632.35 342.46 631.28 342.85 629.94 343.19 628.71 343.54 627.16 343.97 626.14 344.18 624.96 344.31 623.78 344.35 622.33 344.35 620.73 344.05 619.5 343.79 618 343.44 616.61 343.44 615.37 343.35 614.52 343.44 613.71 343.57 612.86 343.7 612.21 344.17 611.51 344.56 610.87 345.03 610.55 345.54 610.01 346.1 609.42 346.53 608.83 346.83 608.08 347.39 607.6 347.82 607.54 348.42 607.75 349.03 607.38 349.54 606.84 349.93 606.3 350.62 605.77 351.22 605.01 351.86 604.48 352.42 603.67 353.02 602.87 353.67 602.17 354.27 601.9 354.7 601.63 355.13 600.82 356.12 600.02 356.89 599.27 357.71 598.57 358.48 597.92 359.04 597.12 359.64 596.37 360.5 595.72 361.15 594.97 362.05 594.43 362.7 593.79 363.3 593.25 363.73 592.66 364.2 591.86 364.63 591.05 365.06 590.35 365.53 589.44 366.01 588.48 366.48 587.08 366.99 585.85 367.38 585.04 367.72 584.4 368.32 583.81 368.84 582.9 369.53 581.93 370 581.07 370.47 579.79 370.95 578.71 371.12 577.54 371.5 576.25 371.67 575.07 372.06 573.89 372.36 572.82 372.53 572.07 372.96 571.26 373.35 570.19 373.73 568.8 374.21 567.14 374.29 566.01 374.29 564.73 373.94 563.44 373.38 562.27 372.87 561.04 372.35 560.07 371.88 558.95 371.83 558.04 371.74 556.81 371.49 555.36 371.05 554.29 370.67 553.17 370.11 551.94 369.63 550.76 369.03 550.02 368.55 548.57 367.86 547.72 367.17 546.65 366.4 545.74 365.84 544.78 365.32 543.76 364.5 542.53 363.9 541.57 363.51 540.5 362.95 539.75 362.74 539.48 363.55 539.21 364.5 539.05 365.32 539.04 366.05 538.4 366.74 537.49 367.34 536.52 368.07 535.61 368.76 534.48 369.44 533.57 370.13 532.6 370.86 531.58 371.51 530.56 372.11 529.87 372.54 529.17 373.05 528.31 373.57 527.56 373.87 526.81 374.26 526.11 374.9 525.47 375.37 525.03 376.45 524.71 377.44 524.44 378.3 524.06 379.2 523.9 379.93 523.36 380.79 523.04 381.52 522.61 382.43 521.96 382.99 521.37 383.46 520.46 383.93 519.6 384.36 518.58 384.58 517.3 384.66 516.39 384.62 515.37 384.7 514.25 384.96 513.33 385.3 512.69 385.77 511.83 386.38 510.97 386.89 510.06 387.19 508.72 387.23 507.44 387.15 506.53 387.19 505.56 387.32 504.6 387.45 503.63 387.53 502.46 387.44 501.6 387.53 500.58 387.61 499.67 387.91 498.65 388 497.42 387.91 496.24 387.87 495.12 387.87 493.88 387.82 492.6 387.87 491.31 387.74 490.08 387.69 488.69 387.43 487.57 387.47 486.44 387.39 485.32 387.47 484.46 387.77 483.44 387.82 482.16 387.77 480.87 387.73 479.53 387.6 477.98 387.08 477.02 386.69 475.57 386.43 474.29 386.26 472.63 385.78 471.08 385.09 469.79 384.62 468.13 384.06 466.42 383.63 464.92 383.07 463.37 382.76 462.03 382.72 460.64 382.93 459.41 383.28 458.01 383.49 457 383.4 455.77 383.19 454.69 382.97 453.3 382.84 452.18 382.63 450.95 382.62 449.77 382.62 448.48 382.41 447.25 382.19 446.13 381.85 445.11 381.07 444.04 380.6 442.97 380.34 441.9 380.25 440.88 380.12 439.76 379.86 438.69 379.73 437.73 379.64 436.6 379.3 435.99 378.94 435.44 378.67 434.76 378.78 434.06 379.01 433.34 379.11 432.8 378.7 432.54 378.01 432.22 377.52 431.63 377.35 431.22 377.15 431 376.6 430.64 376.13 429.76 376.08 429.02 375.93 428.6 375.57 428.34 375.06 428.19 374.69 427.55 374.72 426.94 374.74 426.42 374.56 425.77 374.23 425.35 374.09 424.82 373.71 424.23 373.44 423.59 373.37 423.26 373.09 423.33 372.62 423.58 372.19 423.59 371.69 423.48 371.24 423.37 370.91 423.31 370.29 423.17 369.87 422.95 369.41 422.45 369 421.7 368.55 421.21 368.14 420.67 367.82 420.27 367.96 420.04 368.05 419.6 368.27 418.96 368.53 418.32 368.7 417.76 368.77 417.17 368.62 416.61 368.44 416.12 368.3 415.67 368.15 415.41 367.73 415.45 367.36 415.56 367.07 415.7 366.76 415.95 366.61 415.77 366.29 415.5 365.89 415.34 365.62 415.11 365.3 414.8 364.9 414.41 364.47 414.13 363.95 413.75 363.59 413.43 363.12 412.84 362.64 412.03 362.31 411.25 361.99 410.25 361.68 409.5 361.46 408.75 361.12 407.79 360.77 406.93 360.39 406.4 360.3 405.86 360.17 405.17 360.21 404.2 360.21 403.5 360.38 402.75 360.6 402.27 361.07 401.95 361.67 401.62 362.19 401.25 363.31 401.08 363.91 400.6 364.34 400.01 364.68 399.1 365.03 398.66 365.14 398.13 365.29 397.46 365.47 396.68 365.6 396.01 365.67 395.46 365.82 394.75 366.2 394.37 366.52 393.74 367.17 393.2 367.61 392.76 368.14 392.31 368.6 391.72 369.05 391.33 369.65 391.06 370.28 390.67 370.81 390.04 371.23 389.04 371.38 388 371.38 387.11 371.35 386.43 371.35 385.69 371.3 385.1 371.23 384.34 370.97 383.62 370.63 383.05 370.31 382.69 370.09 382.1 369.86 381.27 369.54 380.57 369.39 379.83 369.08 379.09 368.87 378.56 368.74 377.99 368.6 377.44 368.57 376.65 368.67 376 368.91 375.44 369.01 374.92 368.85 374.41 368.56 374.05 368.26 373.77 367.83 373.44 367.39 373.14 367.03 372.85 366.64 372.3 366.18 371.89 366.11 371.32 366.21 370.75 366.4 370.11 366.57 369.6 366.47 369.12 366.19 368.42 365.92 367.76 365.55 366.96 365.15 366.37 364.88 365.84 364.56 365.33 364.22 365.29 364.16 364.89 363.77 364.4 363.08 364.02 362.61 363.66 361.93 363.35 361.39 363.03 360.88 362.74 360.28 362.5 359.63 362.21 359 361.87 358.44 361.51 357.91 361.22 357.47 360.84 357.06 360.39 356.57 359.95 356.09 359.34 355.51 358.85 355.07 358.51 354.78 358.32 354.54 357.96 354.32 357.65 353.93 357.39 353.68 356.93 353.28 356.72 353.03 356.44 352.6 356.15 352.22 355.79 351.88 355.41 351.63 354.94 351.49 354.46 351.36 353.91 351.22 353.35 351.1 352.8 350.98 351.92 350.67 351.28 350.43 350.67 350.16 350.24 349.85 349.76 349.43 349.27 348.92 348.91 348.36 348.64 347.9 348.34 347.37 348.18 346.91 347.77 346.55 347.54 346.11 347.29 345.46 347.1 344.71 346.83 344.06 346.8 343.57 346.79 342.97 346.77 342.4 346.64 341.87 346.5 341.36 346.1 340.88 345.67 340.57 345.12 340.27 344.66 340.03 344.26 339.64 343.9 339.14 343.47 338.72 343.12 338.31 342.64 337.92 342.3 337.62 342.05 337.39 341.58 337.13 341.01 336.87 340.54 336.65 340.9 335.99 340.9 335.6 340.88 335.19 340.59 334.66 340.32 334.29 340.05 333.93 339.64 333.88 339.22 333.93 338.65 334.46 338.23 334.61 337.73 334.56 337.41 334.45 337.13 334.17 336.92 333.49 336.87 333.18 336.82 332.81 336.67 332.5 336.54 332.23 336.35 331.75 335.85 331.7 335.29 331.77 334.59 331.97 334.22 331.81 333.71 331.47 333.47 331.18 333.04 330.97 332.88 330.74 332.68 330.27 332.57 329.72 332.41 329.06 332.1 328.5 331.77 328.24 331.36 328.17 331.31 327.56 331.16 327.21 330.99 326.74 330.66 326.87 330.22 327.16 329.87 327.46 329.35 327.7 328.73 327.69 328.05 327.61 327.47 327.44 327.13 327.29 326.8 327.01 326.47 326.75 326.21 326.59 325.65 326.46 325.18 326.19 324.85 326.06 324.16 325.8 323.7 325.63 323.11 325.37 322.59 325.22 322.07 325.03 321.57 324.9 321.07 324.9 320.21 325.32 319.6 325.72 318.86 326.2 318.43 326.48 317.86 326.86 317.05 327.33 316.73 327.17 316.12 326.99 315.81 326.73 315.78 326.36 315.97 325.81 316.37 325.24 316.61 324.75 316.71 324.24 316.74 323.87 316.52 323.59 316.2 323.46 315.88 323.39 315.41 323.37 315.63 323.18 316.1 322.84 316.49 322.47 316.49 322.03 316.5 321.5 316.74 321.13 316.98 320.81 317.16 320.58 316.85 320.37 316.3 320.19 315.77 319.64 315.31 319.08 315.31 318.59 315.61 318.22 315.81 318.09 316.08 317.92 316.01 317.6 315.88 317.35 315.64 317 315.61 316.58 316.06 316.17 316.53 315.83 316.86 315.33 316.9 314.82 316.72 314.19 316.64 313.69 316.77 313.37 317.07 313.2 317.47 313 317.83 312.88 318.07 312.65 318.32 312.42 318.52 312.18 317.96 311.73 317.65 311.18 317.42 310.73 317.28 310.14 317.28 309.82 317.15 309.55 316.83 309.46 316.53 309.47 316.11 309.59 315.74 309.79 315.45 310.04 315.24 310.47 314.58 310.51 314 310.38 313.5 309.92 313.11 309.66 312.82 309.47 312.28 309.18 311.78 308.83 311.5 308.55 311.47 308.21 311.26 307.83 310.89 307.59 310.44 307.25 310.02 306.87 310 306.43 310.1 305.82 310.24 305.12 310.43 304.55 310.71 304.24 311.06 303.99 311.43 303.79 311.45 303.47 311.41 302.86 311.33 302.3 310.97 301.96 310.62 301.48 310.14 301.16 309.49 300.71 308.57 300.4 307.98 299.9 307.32 299.31 306.94 298.75 306.8 298.21 306.84 297.67 307.12 297.1 306.67 296.89 306.24 296.69 305.79 296.3 305.25 295.96 304.74 295.67 304.32 295.5 304.19 295.47 303.97 295.29 303.62 295.23 303.25 295.06 302.81 294.97 302.19 295.01 301.67 295.13 300.88 295.38 300.41 295.33 299.78 294.64 299.32 293.99 298.99 293.31 298.69 292.62 298.46 292.1 298.18 291.75 297.82 291.66 297.33 291.64 296.72 291.61 296.25 291.7 295.72 292.55 295.51 292.99 295.06 293.95 294.94 294.29 294.82 294.82 294.7 295.37 294 295.92 293.23 296.21 292.25 296.66 291.62 297.02 290.92 297.32 290.47 297.91 289.95 298.49 289.65 298.87 288.73 299.51 288.1 300.63 287.01 301.8 286.41 302.74 286.3 302.96 284.99 303.29 283.61 303.27 282.53 303.31 280.54 303 279.53 303.11 277.93 302.57 277.13 302.27 275.57 302.13 274.61 302.01 274.04 302.22 273.34 302.88 272.97 303.23 272.49 304.08 272.19 304.73 271.85 305.18 271.54 305.45 270.71 305.98 270.11 306.14 269.47 306.27 268.52 306.34 267.57 306.4 266.74 306.35 266.19 305.9 265.92 305.46 265.3 304.89 265.05 304.53 264.97 304.01 265.01 303.43 265.12 302.7 265.1 302.23 264.8 301.61 264.53 301.73 264.05 302.13 263.42 302.31 262.67 302.3 262.15 302.19 261.67 302.08 261.68 301.55 261.65 300.87 261.67 300.19 261.74 299.6 261.74 299.18 261.73 298.96 261.37 298.81 260.95 298.7 260.33 298.37 260.19 298.14 260.01 298.39 260.01 298.79 259.84 299.22 259.51 299.38 259.01 299.33 258.48 299.29 257.67 299.38 257.18 299.51 256.53 299.59 256.07 299.72 255.72 299.79 255.44 299.98 254.87 300.04 254.31 299.99 253.78 300.03 253.16 300 253 299.71 252.67 299.4 252.3 299.04 251.89 298.77 251.36 298.6 250.91 298.53 250.39 298.44 250.4 297.83 250.3 297.36 250.17 296.94 249.71 296.77 249.39 296.46 249.33 296.26 249.35 295.85 249.25 295.51 248.94 295.15 248.49 294.84 247.97 294.74 247.59 294.63 247.08 294.49 246.71 294.28 246.35 293.98 245.98 293.76 245.52 293.62 245.25 293.56 245.08 293.33 244.9 293.07 244.69 292.81 244.97 292.57 245.2 292.3 245.39 292.03 245.56 291.91 245.74 291.5 245.97 291.14 246.04 290.82 246.04 290.52 245.92 290.17 245.73 289.76 245.47 289.57 245.32 289.4 245.16 289.38 244.89 289.62 244.58 289.89 244.22 290.16 243.86 290.43 243.75 290.62 243.41 290.66 243.12 290.68 242.81 290.71 242.62 290.67 242.2 290.26 241.62 289.87 241.34 289.7 240.99 289.47 240.71 289.37 240.45 289.29 240.27 289.18 240.02 289.04 239.75 288.96 239.55 288.96 239.23 288.95 238.95 288.97 238.83 288.99 238.81 289.32 238.65 289.55 238.43 289.7 238.25 289.78 237.99 289.88 237.66 289.97 237.3 289.96 236.94 289.93 236.64 289.9 236.3 289.93 236.01 289.87 235.68 289.78 235.45 289.67 235.18 289.52 234.92 289.46 234.68 289.48 234.42 289.58 234.15 289.68 233.87 289.76 233.58 289.84 233.36 289.8 233.09 289.76 232.72 289.46 232.52 289.26 232.17 288.83 231.95 288.6 231.82 288.44 231.58 288.16 231.4 287.94 231.32 287.72 231.17 287.49 231.05 287.26 230.71 287.2 230.41 287.14 230.35 287.18 229.84 287.1 229.51 287.06 229.36 286.94 229.13 286.8 228.98 286.56 228.97 286.28 228.94 285.97 228.94 285.7 228.91 285.46 228.86 285.24 228.88 284.82 228.77 284.53 228.62 284.29 228.33 284.43 228.03 284.88 227.88 285.5 227.58 285.48 227.05 285.33 226.61 285.27 226.11 285.24 225.67 285.41 225.35 285.53 225.09 285.72 224.63 285.94 224.32 286.17 224.07 286.57 222.87 287.5 222.43 287.62 221.94 287.6 221.55 287.45 221.37 287.2 221.16 286.79 221.14 286.75 221 286.34 220.8 285.89 220.55 285.53 220.25 285.24 219.66 284.31 219.31 283.91 218.98 283.45 218.54 283.06 218.01 282.78 217.66 282.45 217.3 281.71 217.24 281.35 217.02 280.9 216.64 280.56 216.03 280.51 215.62 280.56 215.09 280.62 214.53 280.73 213.89 280.81 213.35 280.7 212.83 280.57 212.48 280.45 211.66 280.73 211.27 280.82 210.83 280.83 210.56 280.85 210.22 281.02 209.4 281.33 208.95 281.52 208.6 281.68 208.36 281.79 207.92 281.77 207.26 281.43 206.82 281.13 206.52 280.91 206.45 280.72 206.29 280.52 206.19 280.32 206.03 280.02 205.78 279.73 205.62 279.53 205.42 279.28 205.34 279.09 205.4 278.84 205.38 278.63 205.19 278.46 204.99 278.37 204.76 278.34 204.56 278.5 204.33 278.55 204.04 278.6 203.76 278.6 203.24 278.53 203.05 278.52 202.77 278.22 202.47 277.98 201.98 277.64 201.37 277.18 201.1 277 200.5 276.68 200.25 276.56 199.92 276.38 199.59 276.25 199.24 276.18 198.96 276.09 198.63 276.02 198.35 276.1 198.01 276.16 197.69 276.36 197.41 276.52 197.11 276.6 196.77 276.64 196.27 276.62 195.87 276.57 195.47 276.67 195.1 277.16 194.81 277.51 194.35 278.04 193.94 278.33 193.62 278.49 193.28 278.74 192.77 279 191.86 279.17 190.99 279.13 190.62 279.12 190.24 279.22 189.93 279.26 189.7 279.19 189.54 278.89 189.49 278.58 189.53 278.33 189.54 277.89 189.51 277.63 189.39 277.29 189.31 277.09 189.49 276.95 189.62 276.72 189.32 276.7 188.82 276.75 188.6 276.75 188.31 276.7 187.93 276.6 187.44 276.49 186.89 276.14 186.86 275.93 187.16 275.57 187.18 275.62 187.52 275.38 187.85 275.2 187.96 275.05 188.02 274.85 188 274.68 187.89 274.58 187.82 274.35 187.64 274 187.52 273.72 187.4 273.47 187.26 273.17 187.13 272.66 187.03 272.48 186.94 272.3 186.97 272.08 186.91 271.93 186.77 271.78 186.53 271.63 186.28 271.51 186.05 271.37 185.83 271.11 185.68 270.81 185.61 270.57 185.33 270.4 185.25 270.27 184.55 270.17 184.22 270.11 183.98 269.93 183.91 269.73 183.72 269.48 183.53 269.29 183.3 269.1 183.21 268.87 183.06 268.66 183 268.49 183.17 268.22 183.33 268 183.43 267.78 183.48 267.56 183.55 267.29 183.57 267.04 183.59 266.83 183.58 266.64 183.48 266.33 183.38 266 183.14 265.64 182.88 265.35 182.43 264.93 182.06 264.68 181.68 264.41 181.43 264.18 181.25 263.92 181.1 263.7 180.91 263.49 180.76 263.13 180.7 262.78 180.56 262.51 180.47 262.11 180.73 261.53 181.05 261.15 181.18 260.77 181.24 260.48 181.17 260.14 181.15 259.65 181.06 259.23 181.01 258.91 181.18 258.72 181.47 258.75 181.9 258.96 182.11 259.01 182.25 258.87 182.27 258.73 182.23 258.5 182.12 258.25 181.98 257.9 181.9 257.61 181.76 257.27 181.63 256.87 181.48 256.68 181.46 256.4 181.39 256.14 181.34 255.82 181.43 255.48 181.62 255.12 182.08 254.73 182.48 254.52 182.86 254.26 183.26 253.95 183.71 253.39 183.69 253.01 183.71 252.64 183.7 252.29 183.72 251.96 184.22 251.62 184.48 251.38 184.75 251.13 184.93 250.79 185.11 250.39 185.21 249.98 185.3 249.55 185.44 249.11 185.55 248.91 185.83 248.62 186.13 248.47 186.69 248.46 187.08 248.39 187.44 248.3 187.9 248.04 188.24 247.78 188.54 247.44 189.14 246.92 189.75 246.31 190.38 245.69 190.75 244.92 190.92 244.55 191.19 244.3 191.64 244.27 191.97 244.47 192.53 244.55 192.99 244.49 193.26 244.54 193.6 244.7 193.98 244.73 194.43 244.65 194.87 244.34 195.17 244.16 195.56 244.04 195.92 243.96 196.39 243.9 196.72 243.76 196.79 243.29 196.63 242.63 196.32 242.37 195.82 242.11 195.66 241.1 195.6 240.75 195.57 240.36 195.6 239.97 195.35 238.95 195.31 238.52 195.07 237.86 195.01 237.45 194.88 237.11 194.8 236.47 194.88 235.89 194.9 234.97 195.1 234.66 195.14 234.4 195.14 234.07 195.6 233.62 195.76 233.23 195.7 232.96 195.38 232.74 195.06 232.66 194.44 232.68 193.81 232.78 193.21 232.78 192.68 232.62 192.15 232.5 191.55 232.41 191.1 232.44 190.58 232.53 190.15 232.68 189.77 232.78 189.29 232.8 188.96 232.84 188.53 232.53 188.33 232.26 188.22 231.94 188.05 231.63 187.91 231.26 187.61 231.1 187.28 230.86 186.82 230.75 186.46 230.64 185.99 230.62 185.64 230.58 185.18 230.54 184.58 230.54 183.91 230.58 183.26 230.64 182.59 230.77 182 230.95 181.46 231.11 180.9 231.2 179.74 231.4 179.34 231.44 178.73 231.48 178.05 231.57 177.32 231.6 176.73 231.48 175.97 231.26 175.47 230.98 175 230.69 174.49 230.52 173.97 230.28 173.42 230.05 172.94 229.92 172.53 229.75 172.02 229.54 171.69 229.36 171.27 228.98 170.84 228.52 170.53 228.34 169.84 228.23 169.22 228.27 168.56 228.47 167.5 228.93 166.55 229.24 165.7 229.38 164.85 229.49 163.93 229.57 163.08 229.71 162.37 229.83 161.63 230.21 161.1 230.52 160.45 230.83 160.14 230.96 159.73 230.94 159.28 230.77 158.76 230.26 158.3 229.84 157.7 229.55 157.06 229.24 156.37 228.96 155.75 228.9 155.42 229.25 154.9 229.8 154.11 230.35 153.35 230.61 152.49 230.82 151.53 230.71 150.87 230.58 150.32 230.15 149.82 229.66 149.44 229.39 148.83 229.37 148.2 229.45 147.79 229.69 147.14 230.2 146.46 230.5 145.79 230.51 145.04 230.58 144.27 230.81 143.54 231.01 142.65 231.24 141.85 231.36 141.09 231.54 140.52 231.48 140.03 231.53 139.31 231.76 138.66 232.2 137.91 232.08 137.5 231.62 137.26 231.15 136.77 230.69 136.38 230.31 136.24 229.84 136.29 229.17 136.31 228.65 136.45 227.79 136.48 227.35 136.3 226.65 136.2 226.19 136.16 225.43 136.1 224.88 136 224.34 136 223.76 136.21 223.08 136.11 222.73 135.77 222.39 135.29 222.26 134.6 221.98 133.95 221.84 133.39 221.6 132.74 221.4 132.17 221.26 131.48 221.03 131.2 220.86 130.9 220.69 130.39 220.28 130.05 219.88 129.71 219.58 129.19 218.51 128.79 217.75 128.6 216.71 128.42 216.18 128.13 215.68 127.95 215.15 127.66 214.66 126.51 214.22 126.39 213.65 126 212.93 126 212.43 126.1 211.72 126.02 211.28 125.59 210.91 125.23 210.77 124.69 210.88 124.27 211.03 123.62 211.18 123.05 211.36 122.63 211.34 121.95 211.2 121.17 210.91 120.33 210.66 119.88 210.44 119.65 210.05 119.24 209.73 118.55 209.49 117.95 209.72 116.95 209.95 116.31 209.93 115.56 210.03 114.9 210.22 114.25 210.37 113.44 210.47 112.84 210.75 112.22 211.16 111.25 211.1 110.67 210.6 110.18 209.83 109.65 209.72 108.63 209.72 107.34 209.57 106.72 209.64 106.03 209.4 105.19 209.19 104.7 208.69 104.18 208.15 103.62 207.72 103.06 207.29 102.55 206.66 102.08 206.25 101.59 205.92 101.01 205.57 100.65 205.34 100.24 205.01 99.54 204.8 98.92 204.64 98.45 204.36 97.98 203.81 97.6 203.28 97.47 203.14 97.19 202.91 96.96 202.75 96.75 202.58 96.51 202.5 96.2 202.47 96.1 202.31 95.63 202.36 95.01 202.5 94.43 202.29 93.84 201.72 93.57 201.31 93.01 200.31 92.39 199.71 92.01 199.1 91.75 198.24 91.49 197.71 91.54 196.82 91.75 196.11 91.99 195.71 92.56 195.56 92.88 195.46 93.15 195.41 93.69 195.23 94.28 195.05 94.58 194.96 96.07 195.17 97.62 195.36 98.74 195.41 99.56 195.22 100.05 194.86 100.6 193.98 101.71 193.2 103.4 192.34 104.31 191.99 104.86 191.8 105.26 191.5 105.39 191.15 105.36 190.67 105.25 190.04 105.33 189.32 105 188.89 104.85 188.05 104.96 187.54 105.31 186.91 105.78 186.56 105.73 185.8 105.09 185.01 104.7 184.36 103.79 183.24 103.34 182.63 102.84 181.94 102.83 181.94 102.51 181.34 102.25 180.76 101.8 180.4 101.39 180.24 101.03 180.28 100.68 180.59 100.37 181.04 100 181.53 99.48 182.07 99.03 182.5 98.41 182.84 97.86 182.95 97.18 183.03 96.5 183.03 95.85 182.95 95.23 182.84 94.84 182.66 94.48 182.55 94.03 182.45 93.58 182.27 93.07 182.05 92.78 181.7 92.3 181.22 91.8 180.79 91.33 180.45 90.96 180.42 90.64 180.23 90.45 179.94 90.24 179.47 89.7 179.04 89.25 178.6 88.79 178.33 88.43 178.16 87.99 178.11 87.42 178.44 86.78 179.18 86.22 179.88 85.73 180.25 84.81 180.28 83.83 179.92 82.89 179.92 82.4 180.25 82.36 181.01 82.2 181.38 81.63 181.75 81.01 181.86 80.46 181.79 80.02 182.04 79.38 182.43 78.47 182.9 77.53 182.86 76.73 182.71 76.42 182.03 76.09 181.46 75.82 180.86 75.4 180.28 75.05 179.85 74.68 179.48 73.97 179.61 73.35 179.66 72.92 179.8 71.87 180.18 71.19 180.63 70.69 180.97 69.86 181.42 69.15 181.63 68.3 181.67 67.59 181.76 66.58 182.14 65.58 182.49 64.49 182.52 63.22 182.63 62 182.58 60.92 182.5 60.15 182.36 59.23 182.14 58.88 181.59 58.83 180.83 58.87 180.27 58.93 179.51 59.07 178.37 59.06 177.64 58.8 177.32 58.06 177.1 56.75 177.01 56.06 177.22 54.84 177.35 53.92 177.48 52.94 177.71 51.99 177.74 50.6 177.81 50.07 177.79 49.59 177.51 48.68 176.88 47.94 176.34 47.17 175.74 47.06 176.36 46.83 177.36 46.55 178.4 46.49 179.67 45.91 179.57 45.09 179.45 44.21 179.34 43.62 179.37 43.1 179.58 42.91 180.09 43 181.03 43.13 181.92 42.78 182.11 42.11 181.99 41.38 181.87 41 182.09 40.79 182.33 40.44 182.61 40 183.04 39.57 183.37 39.2 183.72 38.92 183.74 38.47 183.39 38.01 183.14 37.58 182.89 37.2 182.54 36.94 182.17 36.65 181.96 36.51 181.83 36.19 181.66 35.49 181.4 34.89 181.4 34.67 181.16 34.4 180.69 34.11 180.41 33.65 180.21 33.21 180.24 32.68 180.42 32.1 180.96 31.63 181.39 31.1 181.96 30.58 182.86 29.8 183.46 28.88 184.05 28.15 184.55 27.86 184.79 27.46 185.07 27.01 185.29 26.58 185.27 25.82 184.94 25.42 184.59 25.1 184.39 24.53 184.24 23.85 184.03 23.21 183.67 22.67 183.36 21.78 182.78 21.14 182.17 20.73 181.72 20.46 181.45 20.13 181.04 19.63 180.55 19.26 180.11 18.92 179.78 18.68 179.68 18.1 179.73 17.44 179.85 17.06 179.95 16.63 179.86 16.16 179.3 15.45 178.91 14.8 178.87 14.27 178.92 13.04 179.15 12.48 179.33 11.93 179.15 11.64 178.96 11.39 178.46 10.94 177.97 10.49 177.1 10.36 176.53 10.46 176.32 10.16 175.84 9.81 175.56 9.5 175.21 9.04 175.04 8.8 174.58 8.48 174.11 8.41 173.56 7.97 173.37 7.07 173.63 6.44 173.99 5.61 174.08 5.11 173.99 4.96 173.74 4.82 173.31 4.62 172.83 4.24 172.72 3.64 172.64 2.89 172.54 2.32 172.37 1.88 172.11 1.64 171.46 1.43 170.77 1.34 170.14 1.31 169.53 1.31 169.13 1.35 168.75 1.33 168.42 1.25 168.07 1.21 167.8 1.12 167.47 1.06 166.97 1.46 166.6 2.09 166.28 2.72 165.88 3.32 165.74 4.03 165.72 4.36 165.43 4.36 164.98 4.27 164.34 4.37 163.97 4.38 163.68 4.77 163.15 5.23 162.79 5.45 162.02 5.37 161.5 5.1 160.86 4.98 159.98 5.02 159.46 5.47 159.67 6 159.96 6.52 160.15 7.07 160.04 7.45 159.88 7.71 159.78 8.02 159.61 8.3 159.28 8.28 158.92 8.33 158.55 8.58 157.98 8.6 157.48 8.68 157.09 9.1 156.51 9.45 156.27 9.89 156.03 10.44 155.75 10.67 155.41 11.02 154.92 11.14 154.42 11.19 153.89 10.91 153.3 10.52 152.67 10.15 152.24 9.46 151.84 8.89 151.33 8.51 150.84 7.84 150.62 7.33 150.66 6.4 150.68 5.72 150.69 5.21 150.71 4.32 150.72 3.65 150.34 3.31 149.99 3.08 149.62 2.68 149.08 2.15 148.56 1.64 148.19 1.2 147.84 1 147.5 1.03 146.99 1.11 146.54 1.16 145.81 1.3 145.17 1.37 144.64 1.35 144.09 1.48 143.68 1.34 143.04 1.5 142.69 1.8 142.01 2.4 141.34 2.94 140.54 3.28 140.05 3.42 139.65 3.71 139.26 3.85 138.83 4.1 138.44 4.39 138.15 5 137.96 5.49 137.72 5.95 137.46 6.36 137.23 6.82 136.93 7.24 136.62 7.61 136.22 7.62 135.88 7.3 135.57 6.93 135.29 6.44 135.01 6.2 134.82 6.01 134.45 6.13 133.93 6.18 133.16 6.1 132.69 5.6 132.15 4.59 131.71 3.83 131.17 3.77 130.86 4.01 130.55 4.47 130.1 4.66 129.75 5.02 129.35 5.26 128.98 5.42 128.72 5.35 128.47 5.31 128.05 5.47 127.85 5.85 127.81 6.1 127.8 6.19 127.63 6.14 127.41 6.05 127.21 5.81 126.81 5.6 126.59 5.41 126.36 5.5 126.07 5.92 125.67 6.45 125.3 7.07 125.09 7.57 124.94 7.99 124.71 8.65 124.4 8.92 124.12 9.29 123.8 9.54 123.44 9.49 123.03 9.46 122.68 9.46 122.11 9.54 121.61 9.59 121.12 9.85 120.65 10.05 120.27 10.33 119.87 10.41 119.37 10.64 118.94 10.81 118.61 11.31 118.22 11.85 118.16 12.3 117.76 12.98 117.5 13.5 117.46 14.08 117.38 14.33 117.2 14.6 117 15 116.45 15.45 116.16 16.11 116.06 16.86 116.11 17.61 116.37 18.35 116.78 18.9 117.15 19.79 117.54 20.64 117.74 21.56 117.9 22.18 117.9 22.65 117.93 23.2 118.04 23.81 118.14 24.38 118.38 24.83 118.67 25.39 119.16 25.7 119.73 25.95 120.11 26.26 120.19 26.61 120.11 26.76 119.79 26.81 119.56 26.76 119.17 26.59 118.97 26.4 118.8 25.87 118.14 25.44 117.69 25.08 117.34 25.41 117.09 25.79 116.84 26.4 116.42 26.91 116.11 27.54 115.88 28.04 115.69 28.8 115.69 29.53 115.63 30.21 115.63 30.69 115.56 31.34 115.26 31.48 114.75 31.64 114.05 32.09 113.97 32.48 113.79 32.66 113.47 32.89 113.14 33.13 112.76 33.38 112.4 33.53 112.29 33.76 111.95 34.17 111.68 34.73 111.53 35.18 111.46 35.59 111.42 36.06 111.41 36.74 111.41 37.34 111.49 37.65 111.69 37.98 111.97 38.19 111.99 38.37 111.81 38.55 111.38 38.85 110.99 39.11 110.69 39.5 110.39 39.83 110 40.06 109.56 40.4 109.24 40.96 108.93 41.7 108.64 42.06 108.35 42.49 108.01 42.71 107.72 42.95 107.55 43.2 107.44 43.68 107.34 44.26 107.23 44.91 107.01 45.22 106.58 45.43 106.51 45.45 106.13 45.32 105.44 45.43 105.11 45.53 104.81 45.6 104.38 45.65 104.11 45.98 103.8 46.36 103.38 47.06 102.87 47.59 102.55 48.07 102.19 48.58 102.04 49.17 101.9 49.63 101.81 49.9 101.63 50.18 101.43 50.51 101.31 50.74 101.23 51.31 101.11 51.7 101.09 52 101.16 52.34 101.29 52.58 101.28 52.89 101.22 53.1 101.09 53.16 100.94 53.22 100.69 53.39 100.45 53.62 100.2 53.99 100.04 54.35 99.85 54.69 99.48 54.97 99.24 55.31 98.87 55.54 98.67 55.73 98.32 55.84 98 56 97.82 56.14 97.56 56.13 96.99 56 96.55 55.89 96.17 55.72 95.41 55.63 94.76 55.72 94.3 55.98 93.99 56.22 93.75 56.41 93.46 56.27 93.15 55.88 92.85 55.48 92.51 55.06 92.16 54.62 91.73 54.28 91.4 53.91 90.98 53.79 90.61 53.96 90.28 54.63 90.16 55.41 90.13 55.98 90.05 56.53 89.96 57.26 89.79 57.81 89.46 58.3 89.14 58.64 88.82 59.19 88.51 59.61 88.17 60.11 87.72 60.53 87.19 60.67 86.95 60.8 86.7 60.97 86.63 61.24 86.81 61.53 87 61.81 87.17 62.16 87.36 62.51 87.52 62.85 87.69 63.28 87.86 63.92 87.97 64.44 87.8 64.98 87.56 65.49 87.19 65.79 86.93 66.08 86.71 66.35 86.54 66.74 86.3 67.13 86.24 67.68 86.15 68.04 86.38 68.43 86.67 68.85 86.87 69.4 87.08 70.04 87.11 70.69 87.16 71.1 87.31 71.43 87.41 71.85 87.52 72.1 87.34 72.48 87.15 72.87 86.66 73.13 86.34 73.29 86.07 73.47 85.78 73.69 85.46 73.78 85.15 73.7 84.82 73.44 84.56 73.12 84.43 72.77 84.48 72.36 84.53 72.2 84.3 72 83.89 71.74 83.43 71.63 82.94 71.54 82.46 71.64 82.1 71.83 81.73 72.16 81.45 72.46 81.21 72.86 80.99 73.23 80.88 73.42 80.7 73.08 80.26 72.81 79.82 72.68 79.42 72.46 79.14 72.28 78.67 72.76 78.65 73.61 78.65 74.24 78.59 75.39 78.43 75.88 78.11 76.39 77.85 76.88 77.55 77.73 77.25 78.46 77 79.18 76.79 80.03 76.59 80.51 76.51 80.89 76.35 81.4 76.24 81.9 76.07 82.51 75.95 82.95 75.8 83.26 75.59 83.75 75.3 83.88 74.66 83.72 74.04 83.77 73.48 83.81 73.04 83.93 72.6 84.03 72.23 84.36 71.82 84.85 71.51 85.29 71.16 85.71 70.91 86.21 70.73 86.79 70.44 87.26 69.98 87.62 69.63 87.69 69.27 87.75 68.96 87.64 68.46 87.65 67.96 87.67 67.57 87.91 67.18 88.33 66.87 88.67 66.62 89.11 66.3 89.31 65.99 89.46 65.76 89.92 65.29 90.16 64.87 90.49 64.6 90.43 64.11 90.37 63.65 90.37 63.11 89.96 62.82 89.58 62.56 89.21 62.31 88.73 61.96 88.22 61.7 87.78 61.48 87.4 61.13 87.16 60.66 87.26 60.37 87.41 59.97 87.49 59.56 87.49 59.02 87.44 58.4 87.43 57.46 87.48 56.89 87.53 56.33 87.67 55.31 87.5 54.64 87.07 54.16 86.72 53.57 86.47 52.93 86.32 52.34 86.17 51.77 86.12 51.31 86.03 50.82 86 50.19 85.99 49.88 86.4 50 86.86 50.28 87.18 50.77 87.61 51.08 88.49 51.66 89.1 51.96 89.87 52.32 90.63 52.23 91.29 52 91.79 52.02 92.64 52.1 93.31 52.11 93.61 51.73 93.84 51.2 94.23 50.86 94.9 50.6 95.45 50.25 96.01 49.94 96.65 49.65 97.29 49.4 97.79 49.27 98.39 49.02 99.14 48.72 100.07 48.35 101.05 47.91 101.78 47.48 102.14 47.09 102.42 46.64 102.74 46.32 103.1 46.67 103.3 47.1 103.66 47.41 104.1 47.67 104.62 47.95 104.73 48.36 104.58 48.73 104.68 49.22 105.27 49.74 106.02 50.12 106.79 50.2 107.9 50.23 108.68 50.15 109.56 50.02 110.23 49.77 110.86 49.46 111.59 49.07 112.07 48.55 112.29 48.09 112.67 47.87 113.48 48.38 114.11 48.78 114.65 48.81 115.5 48.78 116.18 48.72 116.73 48.61 117.71 48.52 118.15 48.53 119.41 48.82 120.29 49.02 120.8 48.95 121.68 48.87 122.41 48.72 122.78 48.54 123.23 47.84 123.68 47.42 124.22 47.25 124.72 47.33 125.58 47.26 126.42 47.14 127.57 47.14 128.29 47.06 128.79 46.87 128.96 46.44 129.23 45.67 129.48 45.09 129.46 44.58 129.28 44.1 129.71 43.91 130.54 44.2 131.37 44.37 132.05 44.63 132.61 44.5 133.37 44.52 134.08 44.47 134.81 44.58 135.2 44.74 135.73 44.75 136.26 44.73 136.82 44.42 137.26 44.14 138.18 44.27 138.69 43.89 139.18 43.26 139.71 42.94 140.13 42.77 140.82 42.83 141.33 43.04 141.67 43.6 141.92 44.08 142.64 44.42 143.24 44.58 143.97 44.8 144.68 44.87 145.41 45.02 145.97 44.93 146.74 44.61 147.28 44.32 147.89 44.59 148.18 44.92 148.68 45.29 149.13 45.53 149.42 45.71 149.93 46.16 150.33 46.43 150.92 46.76 151.69 47.08 152.13 47.31 152.57 47.28 153.08 47.01 153.46 46.63 153.93 46.14 154.66 45.89 155.14 46.1 155.76 46.92 156.07 47.62 156.35 47.71 157.15 47.78 157.7 47.73 158.17 47.64 158.97 47.37 159.57 47.19 160.35 46.87 160.85 47.41 161.31 47.79 162.09 47.3 162.72 46.84 163.14 46.6 163.87 46.24 164.49 45.97 165.16 45.87 165.3 46.52 165.57 47.12 165.66 47.57 165.82 48.15 165.88 48.7 165.94 49.33 166.43 50.14 166.67 50.52 167.65 50.43 168.43 50.29 168.98 50.23 169.49 50.28 169.98 50.63 170.63 51 171.34 50.89 172.14 50.52 172.77 50.09 173.31 49.77 173.92 49.87 174.41 50.33 175.12 50.62 175.91 50.78 176.5 50.79 177.02 50.79 177.52 50.87 178.36 51.09 178.78 51.24 179.21 51.34 179.97 51.41 180.64 51.39 181.27 51.38 181.77 50.87 181.97 50.46 182.2 49.98 182.37 49.6 182.72 49.15 183.12 48.78 183.61 48.47 184.12 48.07 184.5 47.75 184.91 47.55 185.45 47.29 185.94 47.24 186.98 47.37 187.55 47.4 188.15 47.61 188.65 47.81 189.35 48.05 189.88 48.05 190.44 48.13 191.23 48.2 191.83 48.35 192.29 48.41 192.88 48.56 193.71 48.83 194.5 48.86 194.96 48.82 195.1 48.19 195.21 47.61 195.85 47.19 196.3 46.85 196.83 46.65 197.36 46.49 198.03 46.49 198.66 46.56 199.1 46.68 199.57 46.75 200.15 46.76 200.85 47 201.5 47.19 201.93 47.32 202.4 47.52 202.88 47.68 203.37 47.83 203.95 48.02 204.5 48.2 205 48.37 205.56 48.54 206.07 48.7 206.57 48.84 207.58 49.05 208.44 49.21 209.19 49.41 210.03 49.44 210.67 49.36 210.93 49.09 211.12 48.72 211.17 48.27 210.85 47.73 210.56 47 210.55 46.26 211.16 45.85 211.6 45.61 211.92 45.33 212.01 44.9 211.89 44.49 211.98 44.09 212.05 43.44 212.02 42.5 211.78 41.76 211.36 41.34 211.09 41.05 210.83 40.75 210.7 40.6 210.48 40.35 210.17 40.01 209.72 39.46 209.28 39.11 209.01 38.98 208.72 38.84 208.24 38.52 207.84 38.2 207.3 37.55 206.94 37 206.59 36.53 206.22 35.86 205.93 35.31 205.17 34.74 204.61 34.76 203.58 35.05 203.1 35.21 202.72 35.33 201.75 35.6 201.12 35.57 200.59 35.37 199.85 34.97 199.25 34.73 198.57 34.46 197.86 34.02 197.72 33.44 197.56 32.83 197.7 32.21 197.83 31.64 197.29 31.3 196.47 31.33 195.62 31.42 194.5 31.58 193.94 31.6 193.29 31.8 192.36 31.73 191.45 31.54 191.13 31.09 190.91 30.77 190.5 30.1 190.09 29.9 189.62 29.9 188.91 29.99 188.59 29.59 187.92 29.3 187.27 28.99 186.86 28.69 186.21 28.55 185.28 28.72 184.58 28.71 183.98 28.41 183.91 27.83 184 27.61 183.96 27.03 184.06 26.2 184.05 25.67 184.1 25.19 183.65 24.94 183.19 24.64 182.72 24.38 182.19 24.15 181.73 23.77 180.95 22.98 180.15 22.54 179.5 22.2 178.96 21.88 178.46 21.52 178.13 21.17 177.79 20.81 177.84 20.43 177.98 19.97 178.04 19.6 178.13 19.02 178.34 18.53 178.49 17.84 178.58 17.43 178.64 17.1 178.69 16.72 178.66 16.21 179.23 16.15 179.56 16.11 180.63 16.16 181.29 16.28 181.97 16.41 182.67 16.54 183.27 16.69 183.86 16.91 184.75 17.37 185.45 17.86 185.92 18.19 186.38 18.51 186.95 18.84 187.72 18.89 188.27 18.66 188.87 18.06 189.51 17.37 190.29 17.02 191.26 17.32 191.78 17.78 192.79 18.1 193.69 18.66 194.45 18.94 195.89 18.66 196.67 18.59 197.28 18.74 197.67 19.08 197.95 19.58 198.39 20.16 199.24 20.36 200.1 20.47 201.19 20.28 201.73 19.69 201.98 19.13 202.47 18.66 203.03 18.04 204.28 18.58 205.05 18.89 206 18.98 206.52 19 207.37 19.02 207.98 19.17 208.68 19.39 209.43 19.72 210.14 19.87 210.64 20.38 211.06 21.34 211.37 21.78 212.25 22.31 213.66 22.49 214.53 21.83 215.27 21.39 215.95 21.2 216.67 21.49 217.45 21.86 218.08 22.39 218.39 22.94 218.84 23.35 219.23 23.65 219.61 23.94 219.93 24.21 220.51 24.73 220.81 25.29 221 25.66 221.21 26.06 221.45 26.43 221.53 26.8 221.71 27.07 221.93 27.28 222.48 27.6 222.85 27.79 223.43 28.07 224.13 28.53 224.53 28.74 224.92 28.96 225.35 29.12 225.79 29.29 226.19 29.4 226.53 29.49 227.15 29.29 227.64 29.19 227.98 28.99 228.3 28.75 228.55 28.67 228.93 28.54 229.15 28.43 229.42 28.36 229.66 28.36 229.91 28.35 230.13 28.34 230.35 28.42 230.58 28.51 230.83 28.61 231.03 28.69 231.27 28.79 231.5 28.89 231.74 28.99 231.94 29.02 232.23 29.07 232.57 29.13 232.74 29.21 232.9 29.29 233.06 29.38 233.28 29.5 233.53 29.69 233.77 29.86 233.97 30 234.23 30.17 234.32 30.37 234.41 30.57 234.56 30.72 234.73 30.88 234.87 31.05 235.13 31.21 235.51 31.54 235.76 31.78 235.98 32 236.2 31.67 236.4 31.44 236.65 31.22 236.92 30.96 237.23 30.64 237.6 30.27 237.98 29.92 238.3 29.61 238.56 29.36 238.94 29.14 239.23 28.94 239.66 28.58 239.85 28.42 240.03 28.27 240.36 28.03 240.63 27.83 240.93 27.65 241.24 27.46 241.58 27.34 241.98 27.22 242.35 27.14 242.64 27.12 243.01 27.17 243.38 27.24 243.61 27.27 243.89 27.34 244.28 27.42 244.72 27.52 244.96 27.61 245.25 27.72 245.5 27.81 245.85 27.9 246.05 27.96 246.26 28.01 246.55 28.08 246.75 28.06 247.12 28 247.39 27.74 247.66 27.45 247.88 27.29 248.05 27.15 248.32 26.92 248.53 26.83 248.76 26.73 248.97 26.64 249.25 26.46 249.45 26.33 249.69 26.18 249.79 25.59 249.86 25.25 249.94 24.71 249.96 24.48 250.05 24.25 250.12 23.78 250.09 23.21 250.25 22.09 250.4 21.52 250.49 20.87 250.73 20.2 250.93 19.5 251.08 19.12 251.44 18.57 251.71 18.22 252.11 17.48 252.54 16.85 252.99 16.5 253.52 16.5 253.97 16.52 254.35 16.53 255.09 16.54 255.79 16.63 256.65 16.81 257.66 16.94 258.56 17.12 259.42 17.28 260.12 17.29 260.73 17.35 261.32 17.44 262.18 17.54 262.95 17.63 263.68 17.8 264.35 18.09 265.19 18.36 265.89 18.6 266.52 18.73 267.31 18.75 267.85 18.55 268.29 18.26 268.91 17.98 269.67 17.68 270.28 17.4 270.97 17.15 271.58 16.87 272.35 16.48 273.09 15.98 273.75 15.63 274.37 15.26 275.07 14.84 275.9 14.46 276.56 14.1 277.26 13.6 278.01 13.06 278.71 12.62 279.53 11.92 279.99 11.56 280.38 11.25 280.89 10.85 281.32 10.26 281.87 9.67 282.53 9.09 283.22 8.68 284.13 8.24 284.87 7.93 285.56 7.45 286.26 7.15 287.07 6.69 287.65 6.51 288.42 6.65 289.24 6.7 289.69 6.41 289.93 6.32 291.12 5.83 291.53 5.67 292.12 5.35 292.74 4.98 293 4.46 293.16 4.05 293.25 3.69 293.85 3.41 294.56 3.31 295.07 3.25 295.62 3.18 296.47 3.11 297.48 3.16 298.26 3.18 300.23 3.25 301.88 3.22 303.2 3.37 304.08 3.35 305.49 3.42 306.23 3.45 307 3.41 308.2 3.41 309.22 3.51 310.04 3.81 310.63 4.31 311.4 5.28 311.74 6.39 311.89 7.45 312.2 8.42 313.63 8.87 315.3 9.14 316.13 8.83 316.37 7.72 316.58 7 316.71 6.44 316.97 5.56 317.15 4.6 317.28 3.03 317.83 2.42 318.42 2.16 319.54 2.39 320.49 2.16 321.29 1.6 322.31 1.4 323.3 1.66 323.95 2.1 324.61 1.84 325.55 1.58 326.68 1.4 328.14 1.11 329.38 1.03 330.65 1.47 331.53 1.58 332.21 1.34 332.91 1.09 333.86 1 334.91 1.12 335.64 1.12 336.48 1.44 337.28 1.62 337.9 1.79 339.03 1.47 339.94 1.27 340.52 1.65 341.17 2.21 341.97 2.62 342.63 2.79 343.87 2.65 344.96 2.24 346.02 1.98 346.78 2.18 347.73 2.3 348.75 2.5 349.51 2.56 350.06 2.15 350.79 1.75 351.63 1.4 352.68 1.48 353.41 1.81 354.07 1.54 354.65 1.19 355.74 1.08 356.58 1.08 357.27 1.34 357.96 1.46 358.47 1.46 358.83 1.96 359.56 2.37 360 2.92 360.58 3.54 361.12 4.12 361.34 5 361.7 5.59 362.13 6.06 362.64 6.71 363.02 7.2 363.18 7.61 363.25 8.26 363.47 8.63 364.37 8.98 364.17 9.71 364.29 10.07 364.7 10.55 364.85 10.94 365.18 11.24 365.01 11.63 364.81 12.07 364.65 12.51 364.99 12.86 365.64 12.94 366.32 12.95 366.92 12.91 367.42 13.05 367.99 13.32 368.63 13.53 369.1 13.08 369.8 13.01 370.36 12.94 370.31 12.28 370.15 11.81 370.15 11.12 370.65 11.22 371.21 11.34 371.7 11.36 372.09 11.32 372.27 11.07 371.73 10.63 371.9 9.87 371.54 9.46 370.89 9.07 370.82 8.16 370.75 7.77 370.68 7.27 370.5 6.71 370.18 6.14 370.89 5.86 371.6 5.77 372.08 5.47 372.39 5.23 373.1 5.17 373.7 4.87 373.98 4.67 374.31 4.62 374.74 4.5 375.18 4.56 375.9 4.62 376.58 4.53 377.29 4.2 377.88 3.72 378.18 3.4 378.62 3.18 378.93 3.23 379.29 3.55 379.51 4.12 380.2 4.28 380.8 4.18 381.57 3.83 382.07 3.59 382.32 2.94 382.94 2.15 383.6 1.8 384.47 1.63 385.56 1.42 386.69 1.51 387.57 1.63 388.15 1.22 388.8 1.57 389.71 1.84 390.44 1.63 391.1 1.57 391.79 1.81 392.66 1.87 393.65 1.78 394.16 1.31 394.85 1.84 395.58 1.81 396.16 1.55 396.96 1.11 397.73 1.46 398.45 1.29 399.11 1.26 399.91 1.29 400.71 1.32 401.33 1.29 401.84 1.16 402.64 1.32 403.15 1.47 403.84 1.59 404.61 1.35 405.04 1.65 405.52 1.97 406.06 2.52 406.5 2.9 406.32 2.82 406.63 3.53 406.89 3.91 407.15 4.32 407.84 4.74 408.66 5.25 409.26 5.5 410.17 5.87 410.6 6.33 411.05 6.81 411.61 7.02 412.27 7.27 413.08 6.77 413.87 6.88 415.06 7.39 415.84 7.84 416.35 8.14 416.97 8.57 417.6 9.02 418.41 9.51 419.19 9.25 419.67 9.09 420.48 8.84 421.45 8.53 422.1 8.33 422.81 8.1 423.36 7.68 423.63 7.32 424.52 7.45 425.71 7.01 426.92 6.86 427.75 6.95 428.33 7.49 428.84 7.78 429.46 8.13 430.33 7.68 430.91 7.67 431.22 8.22 431.5 8.7 432.08 9.2 433.18 9.45 434.49 9.44 435.85 9.35 436.85 9.32 437.56 9.57 438.09 10.06 438.67 10.63 439.47 11.06 440.62 11.13 441.71 10.77 442.35 10.1 442.86 9.69 443.68 9.83 444.13 10.35 444.61 10.74 445.02 11.2 445.03 11.75 444.83 12.24 444.16 12.66 443.41 12.87 442.45 13.15 441.89 13.54 441.64 14.02 441.88 14.83 441.9 15.75 441.78 16.54 441.27 17.06 441.7 17.51 442.43 17.99 443.49 18.49 444.02 18.95 444.59 19.46 445.04 19.73 446.13 19.75 446.78 20.04 446.79 20.54 446.5 20.99 446.54 21.62 446.73 22.47 446.97 23.28 447.05 24.2 447.19 25 447.47 25.9 447.6 26.28 447.48 26.99 447.66 28 448.4 28.42 447.97 28.97 447.53 29.62 447.13 30.11 446.87 30.52 446.87 31.11 446.81 31.94 446.51 32.45 446.41 33.03 446.2 33.54 446.79 33.95 447.38 34.4 447 35.13 446.8 35.72 446.22 36.66 446.27 37.85 446.78 38.52 447.7 38.85 448.15 39.9 448.59 40.61 448.58 41.33 449.23 41.57 449.9 41.69 450.15 42.38 450.46 43.07 450.96 43.89 451.11 44.49 451.74 45.76 452.56 46.51 453.34 46.53 453.89 45.76 454.36 45.26 455.28 45.2 456.3 44.51 457.01 43.71 458.29 43.11 458.72 43.63 458.99 44.29 460.01 44.78 460.7 45.2 461.59 45.34 462.71 45.7 463.6 45.31 463.93 44.89 464.05 44.06 464.12 42.72 463.77 41.95 463.57 41.31 463.01 40.57 463.34 39.98 463.7 39.35 463.71 38.6 463.6 38.09 464.73 38.28 465.78 38.17 467.19 38.21 468.81 37.82 469.06 38.47 469.87 38.81 470.96 38.79 471.79 38.68 472.85 38.59 474.05 38.53 475.43 38.56 476.56 38.62 477.94 38.6 478.93 38.59 480.09 38.57 481.19 38.77 482.5 38.89 483.81 39.21 485.59 39.54 486.75 39.92 487.52 40.09 488.35 40.56 488.76 41.15 489.37 42.03 490.06 42.48 490.85 42.41 491.67 42.12 492.19 41.94 492.99 41.73 493.67 41.83 494.92 42.41 496.05 43.14 496.69 43.56 497.32 43.93 498.17 44.44 498.99 44.94 499.71 45.37 500.7 45.83 501.16 46.04 502.44 46.79 503.67 47.03 504.43 47.28 504.94 47.94 505.4 48.73 505.78 49.36 506.83 49.8 507.61 50.35 508.59 50.86 508.99 51.43 509.42 52.04 510.1 52.4 510.76 52.75 512.02 53.2 512.87 53.32 513.72 53.43 514.41 53.85 515.02 54.56 515.56 55.51 516.72 56.46 517.11 57.05 517.59 57.8 518.23 58.63 518.95 58.9 519.82 59.23 520.8 59.64 521.85 60.18 522.44 61.1 522.93 61.53 523.5 62.04 523.93 62.57 524.34 63.06 524.79 63.92 525.46 64.52 526.19 64.99 526.03 65.86 526.02 66.67 525.59 67.29 525.31 67.71 524.9 68.15 524.51 68.59 523.99 68.98 523.45 69.41 523.23 70.19 523.76 70.6 524.42 71.1 524.81 71.39 525.48 71.98 525.95 72.34 526.55 72.8 527.11 73.46 527.35 74.16 527.56 74.79 528.14 75.22 528.49 75.47 529.42 76.12 529.9 76.97 530.03 77.48 530.18 78.05 530.85 78.48 531.76 78.77 532.91 79 533.59 79.55 534.08 80.19 534.05 80.97 534.23 81.85 534.81 82.49 535.86 82.96 536.52 83.34 536.7 84.31 537.2 84.95 537.71 85.77 537.45 86.44 537.22 87.1 537.96 87.64 538.61 88.11 539.05 88.78 539.37 89.87 539.63 90.45 540.17 90.95 540.5 91.39 540.64 92.15 540.53 93.03 540.82 93.73 540.93 94.58 540.89 95.54 540.41 96.16 539.68 96.62 538.77 96.83 537.9 97.26 536.91 97.56 536.18 98.02 535.93 98.58 535.81 99.6 535.7 100.39 535.52 101.12 535.44 101.56 535.01 102.26 534.11 102.66 533.6 103.24 533.42 104.09 533.88 104.9 534.31 105.44 534.79 106.09 534.81 106.84 534.76 107.43 534.85 108.49 534.84 109.28 535.35 110.28 535.89 110.92 536.73 111.72 537.52 112.45 538.18 113.12 538.4 113.73 538.34 114.87 538.1 115.75 538.35 116.57 538.68 117.22 539.51 117.74 539.55 118.42 539.4 119.23 539.58 120.02 539.87 120.81 540.41 121.78 540.96 122.48 541.28 123.3 541.39 124.12 541.09 124.85 540.58 125.41 540.22 125.73 540 126.43 539.85 126.96 539.7 127.51 539.7 128.21 539.63 128.98 539.55 129.65 539.26 130.26 538.97 130.58 538.46 130.93 537.32 131.43 535.68 131.9 534.77 132.42 533.64 132.45 532.54 132.29 531.81 132.55 531.09 132.79 530.58 133.11 530.67 133.67 531.06 134.2 531.27 134.73 530.69 135.11 529.74 135.34 528.9 136.04 527.8 136.4 526.9 136.66 525.81 136.99 525.58 137.84 525.91 138.27 526.45 138.59 527.25 138.89 527.79 139.35 528.53 139.71 528.78 140.14 528.52 140.55 527.76 140.81 526.92 141.02 526.63 141.51 526.7 142.01 527.06 142.6 527.48 143.17 528.11 143.75 528.4 144.28 528.51 144.68 528.46 145.19 528.22 145.49 527.89 145.76 527.56 146.08 527.38 146.43 527.52 146.81 527.92 147.13 528.14 147.69 Z"/>
</g>
</svg>