<?xml version="1.0"?>
<svg xmlns="http://www.w3.org/2000/svg" version="1.2" baseProfile="tiny" width="800" height="399" viewBox="0 0 800 399" stroke-linecap="round" stroke-linejoin="round">
<g id="GB_districts">
<path d="M 346.74 210.8 347.82 212.03 355.16 212.14 357.19 211.35 363.18 212.59 365.55 215.53 366 219.48 364.87 221.17 365.78 224 359.11 228.06 359.68 230.54 363.86 232.92 363.63 236.08 370.75 240.93 377.19 243.76 379.11 247.14 383.62 249.85 387.35 250.53 386.79 253.69 389.61 254.94 395.03 255.16 395.6 257.76 398.87 258.44 400.79 263.07 405.65 267.47 411.41 270.52 411.75 273.68 413.67 276.28 414.23 280.12 411.52 285.31 411.18 287.46 414.01 289.38 416.83 293.56 421.01 292.88 422.48 297.06 426.54 298.3 419.54 300.33 417.96 304.51 415.02 305.75 416.04 310.95 418.19 311.28 416.83 315.35 419.77 319.64 419.43 322.35 416.6 324.83 414.8 332.17 409.38 332.63 405.08 336.24 402.83 336.24 400.79 338.16 406.55 342.34 407.79 344.26 407.79 347.42 411.3 347.42 420.56 351.71 423.04 354.53 423.72 359.84 425.53 365.83 424.85 370.45 421.01 373.05 417.97 378.57 415.53 373.17 406.3 369.98 403.7 371.75 401.22 374.94 396.49 376.01 392.47 381.33 386.79 381.33 381.47 378.84 377.33 378.96 374.49 376.24 368.46 375.53 363.73 368.44 357.22 361.46 350.11 359.28 348.1 355.34 346.54 349.94 342.7 347.57 342.33 344.91 338.86 345.19 338.21 342.81 335.93 342.26 333.09 338.05 330.07 338.6 325.86 336.49 322.84 336.4 318.44 338.6 318.81 331.82 318.35 327.34 321.28 322.86 317.07 321.21 312.95 317.18 313.5 312.15 310.11 309.68 309.11 307.02 305.63 305.47 301.97 306.02 300.78 302.36 298.17 302.5 294 298.69 301.95 291.17 307.45 287.85 310.7 288.07 316.41 287.2 320.46 285.75 324.5 281.85 329.13 281.56 334.12 274.19 334.48 271.73 340.84 268.55 343.08 261.69 340.48 254.75 341.2 252.8 338.38 246.58 334.91 244.13 333.11 235.17 326.96 230.47 327.54 227.07 324.91 225.25 325.46 220.27 331.67 213.95 326.92 210.33 326.36 207.4 330.2 205.36 331.22 203.56 327.72 201.64 326.47 199.83 330.54 195.2 333.25 193.28 336.64 193.05 343.08 190.23 344.66 193.51 344.66 200.73 347.59 202.31 348.05 204.91 344.88 210.33 346.74 210.8 Z"/>
<path d="M 222.74 191.21 223.69 194.52 225.84 196.22 231.15 196.89 234.76 194.86 235.21 198.93 238.37 202.77 241.31 203.78 245.94 204.12 250.57 208.41 252.27 210.9 254.53 210.11 257.01 211.35 259.16 216.54 265.37 222.64 268.31 224.56 274.29 223.43 277.68 225.01 284.46 230.66 291.46 234.5 293.72 231.9 296.88 233.93 303.54 235.85 305.46 233.37 312.69 233.71 317.89 226.59 324.21 226.14 324.91 225.25 327.54 227.07 326.96 230.47 333.11 235.17 334.91 244.13 338.38 246.58 341.2 252.8 340.48 254.75 343.08 261.69 340.84 268.55 334.48 271.73 334.12 274.19 329.13 281.56 324.5 281.85 320.46 285.75 316.41 287.2 310.7 288.07 307.45 287.85 301.95 291.17 294 298.69 298.17 302.5 295.19 306.2 286.5 313.8 279.27 312.42 275.7 313.06 274.05 315.54 270.2 316.54 268.01 315.63 264.99 310.14 259.86 309.59 256.66 310.5 250.34 306.57 250.89 304.28 248.42 303.64 248.51 300.25 245.49 300.16 242.93 298.6 236.06 299.61 231.03 294.21 224.07 297.23 222.15 293.66 219.13 290.28 215.28 290 210.71 291.1 207.04 287.81 204.76 287.62 201.19 285.24 194.41 288.63 192.03 287.07 189.01 280.49 186.17 279.57 185.9 276 183.25 271.43 184.44 268.31 184.07 265.48 188.55 258.06 192.49 256.05 192.77 254.4 198.9 253.49 197.53 251.29 197.53 241.87 192.22 241.96 189.74 240.77 181.6 241.04 171.53 239.3 164.66 239.4 153.5 239.03 150.75 239.3 140.87 241.77 138.3 240.04 138.21 235.19 137.39 232.26 132.63 230.15 128.6 223.56 127.5 220.54 122.19 220.63 118.9 219.54 113.5 221.37 112.86 219.81 106.08 218.35 104.71 216.43 99.4 212.86 95.92 211.58 93.45 207.27 95.01 204.8 100.86 205.35 105.44 201.69 107.36 201.42 107.55 196.75 106.41 193.86 113.47 189.86 117.82 189.09 116.53 185.4 116.79 180.65 118.82 178.14 126.23 177.77 129.18 176.85 135.11 180.76 137.21 183.27 141.6 186.44 144.62 186.44 149.31 188.39 154.39 187.76 156.35 190.68 160.03 190.12 162.54 186.88 165.38 188.54 173.09 190.12 176.85 187.39 181.42 186.69 184.7 188.72 190.12 190.82 194.25 191.15 196.68 187.91 200.37 189.16 204.2 189.2 205.42 188.06 209.4 189.68 212.13 192.44 216.11 192.3 218.18 191.26 222.74 191.21 Z"/>
<path d="M 676.67 226.6 679.68 228.78 687.21 231.37 693.69 228.46 696.91 230.1 703.45 231.51 706.66 234.82 712.46 236.99 715.89 239.41 722.46 242.55 724.98 242.54 733.62 240.22 739.7 239.28 744.4 241.81 745.82 245.47 750.59 246.74 750.81 249.05 753.46 250.48 757.01 250.26 761.92 251.6 765.8 249.61 772.25 248.26 781.44 249.22 782.63 251.14 787.4 251.2 790.88 252.41 791.24 249.49 793.65 248.95 799 253.44 797.77 257.53 793.4 259.89 787.01 265.45 787.49 268.64 786.31 270.18 774.48 276.56 769.39 280.46 759.93 284.6 756.15 288.51 750.47 293 744.2 296.31 740.89 298.67 728.47 305.65 723.5 309.43 719.25 313.46 711.44 314.4 701.03 316.88 697.72 318.66 687.79 322.2 685.07 325.4 673.12 329.89 667.56 332.61 664.72 335.33 653.37 341.36 646.63 347.75 642.61 349.99 637.17 351.88 631.02 353.07 625.93 354.72 620.85 354.49 616.85 353.43 609.88 348.52 608.34 345.75 608.25 342.37 602.36 332.92 601.53 329.84 602.32 325.8 599.42 323.2 599.5 320.96 589.88 315.25 583.37 315.03 579.9 311.29 574.14 311.86 567.59 310.33 562.31 308.35 557.96 305.62 550.27 302.41 542.71 300.44 538.97 300.35 533.12 296.08 524.95 287.73 525.47 281.89 530.27 275.08 536.24 267.6 537.65 264.84 537.74 255.03 539.63 251.61 547.98 246.46 553.26 244.49 557.39 244 561.7 242.2 572.82 231.3 576.86 229.01 581.48 227.61 585.88 224.14 589.39 222.25 601 217.94 606.19 216.8 608.52 217.85 614.76 224.22 623.77 230.77 632.65 235.7 637.97 243.12 641.93 251.87 647.91 256.92 650.46 257.14 660.44 242.2 664.79 237.1 666.41 233.76 673.36 229.28 676.67 226.6 Z"/>
<path d="M 237.42 40.96 241.17 44.74 247.69 45.39 248.18 51.91 245.9 55.98 256.01 55 260.73 56.47 259.43 62.17 264.81 62.34 268.56 63.48 275.73 69.02 279.97 69.83 276.38 72.44 273.88 76.81 271.52 77.37 266.88 75.97 260.5 80.28 259.43 85.73 249.66 87.36 248.96 93.99 245.27 96.79 243.25 103.83 246.79 107.48 243.06 109.44 239.97 113.2 237.31 114.67 235.28 120.49 236.02 127.53 237.57 131.7 242.69 134.83 244.72 139.37 248.74 141.91 249.26 144.71 245.13 150.06 245.39 153.04 246.97 155.22 248.19 159.38 244.83 162.26 243.69 164.43 242.69 170.07 243.43 172.5 237.64 175.86 232.48 175.82 230.93 177.55 230.53 184.19 227.91 184.3 222.67 182.97 222.74 191.21 218.18 191.26 216.11 192.3 212.13 192.44 209.4 189.68 205.42 188.06 204.2 189.2 200.37 189.16 196.68 187.91 194.25 191.15 190.12 190.82 184.7 188.72 181.42 186.69 176.85 187.39 173.09 190.12 165.38 188.54 162.54 186.88 160.03 190.12 156.35 190.68 154.39 187.76 149.31 188.39 144.62 186.44 141.6 186.44 137.21 183.27 135.11 180.76 129.18 176.85 126.23 177.77 118.82 178.14 116.79 180.65 116.53 185.4 117.82 189.09 113.47 189.86 106.41 193.86 103.98 190.16 99.58 192.72 96.38 192.36 90.7 187.78 87.78 190.07 85.12 189.89 83.84 191.72 80.54 192.91 76.33 189.79 73.68 189.98 70.38 191.9 64.89 193 59.86 191.81 59.67 187.51 51.34 188.15 48.69 185.86 47.13 189.79 45.3 189.25 43.84 192.17 27.91 196.38 19.22 193.46 11.8 192.36 10.06 191.53 7.5 187.14 3.84 184.49 1 183.66 2.28 180.28 7.13 172.86 9.97 166.73 9.6 164.17 4.11 159.32 2.74 156.48 3.11 151.45 5.67 147.61 5.94 136.53 7.04 132.78 10.61 129.21 13.91 127.11 22.97 128.02 28.19 126.19 33.64 120.35 39.45 118.23 48.51 112.47 53.18 110.63 54.55 108.8 55.46 101.85 56.75 98.92 59.31 97.27 64.8 95.63 70.2 95.81 71.3 92.33 73.31 90.14 78.07 87.85 82.83 84.28 84.94 78.24 88.05 74.76 85.4 69.09 84.11 63.14 86.04 61.22 89.06 61.03 95.74 59.11 99.95 56.18 109.47 58.11 117.8 57.56 134.18 51.88 139.49 51.79 145.72 54.44 154.6 56.18 164.12 55.27 165.67 57.92 169.52 59.3 177.66 59.75 180.23 59.3 182.42 57.28 186.72 57.01 189.65 57.92 195.97 56.46 205.03 59.29 209.15 57.01 210.25 52.34 208.51 48.5 203.84 44.1 198.72 43.55 197.43 40.08 191.76 38.89 187.55 38.89 181.87 35.32 177.42 28.69 185.12 28.05 189.51 29.89 192.04 29.01 198.32 29.8 199.78 31.6 203.16 30.37 206.93 30.22 211.94 32.25 216.44 32.93 220.63 35.03 224.89 39.63 227.43 40.32 231.5 39.75 237.42 40.96 Z"/>
<path d="M 368.35 167.95 371.54 170.02 375.94 174.2 373.46 177.81 376.85 178.37 378.88 179.84 380.01 188.76 376.62 190.91 371.54 191.7 369.39 193.28 368.6 196.56 366.23 198.59 361.26 199.94 358.55 205.02 352.22 207.28 346.74 210.8 344.88 210.33 348.05 204.91 347.59 202.31 344.66 200.73 344.66 193.51 343.08 190.23 336.64 193.05 333.25 193.28 330.54 195.2 326.47 199.83 327.72 201.64 331.22 203.56 330.2 205.36 326.36 207.4 326.92 210.33 331.67 213.95 325.46 220.27 324.91 225.25 324.21 226.14 317.89 226.59 312.69 233.71 305.46 233.37 303.54 235.85 296.88 233.93 293.72 231.9 291.46 234.5 284.46 230.66 277.68 225.01 274.29 223.43 268.31 224.56 265.37 222.64 259.16 216.54 257.01 211.35 254.53 210.11 252.27 210.9 250.57 208.41 245.94 204.12 241.31 203.78 238.37 202.77 235.21 198.93 234.76 194.86 231.15 196.89 225.84 196.22 223.69 194.52 222.74 191.21 222.67 182.97 227.91 184.3 230.53 184.19 230.93 177.55 232.48 175.82 237.64 175.86 243.43 172.5 242.69 170.07 243.69 164.43 244.83 162.26 248.19 159.38 246.97 155.22 245.39 153.04 245.13 150.06 249.26 144.71 248.74 141.91 244.72 139.37 242.69 134.83 237.57 131.7 236.02 127.53 235.28 120.49 237.31 114.67 239.97 113.2 243.06 109.44 244.4 116.45 249.58 118.38 253.62 122.1 255.88 131.47 262.83 135.83 265.74 140.19 270.1 140.19 272.2 141.33 278.5 140.36 283.19 141.33 286.42 143.26 291.75 149.08 295.47 154.9 298.05 154.74 303.39 148.6 305.97 144.72 313.41 145.85 320.52 145.36 326.66 146.5 331.34 148.92 334.25 152.15 341.04 154.09 345.08 158.94 347.5 158.94 352.51 161.04 356.39 160.55 362.05 161.52 363.5 162.65 364.47 166.21 368.35 167.95 Z"/>
<path d="M 530.8 157.33 525.03 159.07 524.13 161.55 515.32 165.05 511.14 164.94 505.49 165.84 502.67 164.94 502.67 162.68 500.07 157.94 496.68 157.6 497.25 152.06 490.7 148.68 489.46 147.1 482.11 147.89 477.93 149.13 473.42 148.9 466.3 146.98 459.41 146.08 455.01 144.39 450.38 140.21 448.34 136.59 439.42 130.61 436.94 129.71 430.27 133.88 417.96 137.38 409.49 152.52 408.13 155.79 401.58 160.53 398.08 161.78 395.48 160.87 393.9 163.02 390.85 161.44 390.97 158.27 386.79 155.23 383.62 160.53 380.91 159.29 373.8 161.32 370.86 160.98 369.96 165.05 368.35 167.95 364.47 166.21 363.5 162.65 362.05 161.52 356.39 160.55 352.51 161.04 347.5 158.94 345.08 158.94 341.04 154.09 334.25 152.15 331.34 148.92 326.66 146.5 320.52 145.36 313.41 145.85 305.97 144.72 303.39 148.6 298.05 154.74 295.47 154.9 291.75 149.08 286.42 143.26 283.19 141.33 278.5 140.36 272.2 141.33 270.1 140.19 265.74 140.19 262.83 135.83 255.88 131.47 253.62 122.1 249.58 118.38 244.4 116.45 243.06 109.44 246.79 107.48 243.25 103.83 245.27 96.79 248.96 93.99 249.66 87.36 259.43 85.73 260.5 80.28 266.88 75.97 271.52 77.37 273.88 76.81 276.38 72.44 279.97 69.83 275.73 69.02 268.56 63.48 264.81 62.34 259.43 62.17 260.73 56.47 256.01 55 245.9 55.98 248.18 51.91 247.69 45.39 241.17 44.74 237.42 40.96 242.72 38.61 247.47 39.1 250.19 38 252.31 30.67 253.98 28.49 262.96 28.83 266.98 30.07 271.23 29.32 278.45 25.41 285.11 20.04 292.37 17.62 296.48 14.97 310.27 14.77 311.95 16.07 313.23 19.97 316.59 20.72 318.21 16.54 318.62 9.39 325.24 7.8 327.63 4.27 334.04 2.64 336.89 1 339.37 1.54 341.58 5.34 341.11 6.93 344 10.25 352.24 10.32 352.65 7.74 354.43 6.19 360.63 5.77 359.96 11.38 364.16 16 368.09 24.14 371.88 24.41 374.74 23.26 373.02 17.92 381.55 15.2 385.03 15.39 389.15 11.97 393.88 13.63 398.76 12.86 404.32 12.86 406.95 10.57 410.63 12.43 410.08 15.84 421.87 20.21 428.62 18.47 433.12 19.08 437.44 20.58 442.38 21.42 447.83 21.58 448.47 23.97 445.72 25.07 445.18 29.33 447.85 30.88 450.36 34.08 451.07 40.27 449.34 45.74 449.7 48.64 454.74 57.52 456.97 57.41 459.72 54.73 461.91 54.02 464.97 56.79 466.89 56.08 466.94 49.48 472.38 49.97 474.87 51.06 481.86 49.69 489.2 51.22 492.67 53.66 495.65 52.95 504.21 57.5 509.55 61.23 511.83 62.01 516.79 65.41 522.19 70.85 529.38 76.09 528.28 80.89 530.69 83.2 532.54 87.88 538.47 93.08 540.34 95.55 539.84 98.55 542.58 102.38 543.58 105.53 542.44 108.39 539.93 109.47 536.86 114.32 538.07 120.45 542.64 124.45 543.01 126.99 546.72 129.62 547.61 133.85 541.45 132.31 540.01 133.24 540.76 143.04 533.31 144.05 532.6 146.85 529.47 147.26 528.16 149.01 530.38 150.57 529.93 154.2 530.8 157.33 Z"/>
<path d="M 530.8 157.33 533.42 162.02 540.47 165.73 545.08 164.41 550.26 164.67 554.25 165.64 554.76 170.3 561.82 178.61 563.61 182.56 562.4 185.91 562.89 189.5 560.83 193.15 562.93 195.56 572.38 195.71 573.48 193.61 579.08 193.63 584.28 192.91 589.11 194.81 594.6 195.6 593.44 191.73 595.19 189.58 600.34 191.31 604.75 191.36 609.81 186.81 614.02 185.6 617.67 186.84 621.45 184.45 622.85 180.94 627.04 180.68 630.34 184.54 627.6 189.04 628.84 193.07 625.54 196.32 629.75 203.59 634.04 205.32 637.07 204.65 639.14 206.08 645.06 207.37 645.88 211.27 648.99 212.64 654.06 217.72 655.55 221.5 660.13 221.5 667.2 220.55 669.06 219.61 671.3 222.27 676.67 226.6 673.36 229.28 666.41 233.76 664.79 237.1 660.44 242.2 650.46 257.14 647.91 256.92 641.93 251.87 637.97 243.12 632.65 235.7 623.77 230.77 614.76 224.22 608.52 217.85 606.19 216.8 601 217.94 589.39 222.25 585.88 224.14 581.48 227.61 576.86 229.01 572.82 231.3 561.7 242.2 557.39 244 553.26 244.49 547.98 246.46 539.63 251.61 537.74 255.03 537.65 264.84 536.24 267.6 530.27 275.08 525.47 281.89 524.95 287.73 533.12 296.08 538.97 300.35 542.71 300.44 550.27 302.41 557.96 305.62 562.31 308.35 567.59 310.33 574.14 311.86 579.9 311.29 583.37 315.03 589.88 315.25 599.5 320.96 599.42 323.2 602.32 325.8 601.53 329.84 602.36 332.92 608.25 342.37 608.34 345.75 609.88 348.52 616.85 353.43 615.17 353.66 608.78 357.92 607.6 361.11 603.34 364.54 598.38 369.98 593.05 375.06 585.72 378.37 582.05 380.74 577.56 381.45 570.11 383.69 567.27 384.05 550.95 378.61 545.15 374.94 541.49 373.29 539.6 377.07 536.64 378.61 527.3 385.47 525.64 387.83 523.87 392.8 521.5 394.57 514.76 395.04 512.04 397.53 499.27 397.88 485.31 398 480.46 397.41 470.76 395.04 466.86 393.15 463.43 392.92 459.17 393.74 455.15 392.68 450.89 392.8 439.89 389.6 434.93 389.01 430.31 385.11 425.35 383.22 425.35 379.91 422.39 377.78 417.97 378.57 421.01 373.05 424.85 370.45 425.53 365.83 423.72 359.84 423.04 354.53 420.56 351.71 411.3 347.42 407.79 347.42 407.79 344.26 406.55 342.34 400.79 338.16 402.83 336.24 405.08 336.24 409.38 332.63 414.8 332.17 416.6 324.83 419.43 322.35 419.77 319.64 416.83 315.35 418.19 311.28 416.04 310.95 415.02 305.75 417.96 304.51 419.54 300.33 426.54 298.3 422.48 297.06 421.01 292.88 416.83 293.56 414.01 289.38 411.18 287.46 411.52 285.31 414.23 280.12 413.67 276.28 411.75 273.68 411.41 270.52 405.65 267.47 400.79 263.07 398.87 258.44 395.6 257.76 395.03 255.16 389.61 254.94 386.79 253.69 387.35 250.53 383.62 249.85 379.11 247.14 377.19 243.76 370.75 240.93 363.63 236.08 363.86 232.92 359.68 230.54 359.11 228.06 365.78 224 364.87 221.17 366 219.48 365.55 215.53 363.18 212.59 357.19 211.35 355.16 212.14 347.82 212.03 346.74 210.8 352.22 207.28 358.55 205.02 361.26 199.94 366.23 198.59 368.6 196.56 369.39 193.28 371.54 191.7 376.62 190.91 380.01 188.76 378.88 179.84 376.85 178.37 373.46 177.81 375.94 174.2 371.54 170.02 368.35 167.95 369.96 165.05 370.86 160.98 373.8 161.32 380.91 159.29 383.62 160.53 386.79 155.23 390.97 158.27 390.85 161.44 393.9 163.02 395.48 160.87 398.08 161.78 401.58 160.53 408.13 155.79 409.49 152.52 417.96 137.38 430.27 133.88 436.94 129.71 439.42 130.61 448.34 136.59 450.38 140.21 455.01 144.39 459.41 146.08 466.3 146.98 473.42 148.9 477.93 149.13 482.11 147.89 489.46 147.1 490.7 148.68 497.25 152.06 496.68 157.6 500.07 157.94 502.67 162.68 502.67 164.94 505.49 165.84 511.14 164.94 515.32 165.05 524.13 161.55 525.03 159.07 530.8 157.33 Z"/>
</g>
</svg>