<?xml version="1.0"?>
<svg xmlns="http://www.w3.org/2000/svg" version="1.2" baseProfile="tiny" width="800" height="426" viewBox="0 0 800 426" stroke-linecap="round" stroke-linejoin="round">
<g id="kashmir">
<path d="M 649.63 80.39 652.2 93.48 653.74 97.07 655.48 100.15 657.71 103.09 660.1 105.21 662.63 106.84 664.79 107.57 667.09 107.93 676.54 108.97 678.06 109.38 679.23 111 679.21 113.11 680.73 115.23 683.08 115.57 689.41 115.51 696.84 114.04 699.69 113.96 701.2 114.34 702.92 115.53 706.85 118.25 708.19 119.44 710.44 122.41 713.47 125.47 716.26 127.38 718.38 128.46 722.95 129.94 724.06 130.86 725.56 132.6 727.41 134.84 732.33 138.52 735.79 141.11 737.57 142.14 744.81 144.43 749 146.36 754.17 150.32 756.33 151.97 758.14 154.15 758.7 156.22 758.59 158.08 757.45 160.92 756.1 164.29 753.55 167.68 751.65 169.45 747.35 172.73 745.19 174.15 742.04 175.88 728.93 181.66 727.09 182.09 722.84 184.21 720.68 186.14 719.74 187.39 719.71 189.23 720.52 190.33 723.19 191.41 726.94 192.24 728.4 194.49 727.49 196.96 722.73 200.23 721.02 201.96 721.07 204.07 720.9 206.17 720.44 207.65 721.22 211.99 722.35 214.61 724.53 218.79 727.18 221.88 729.04 224.06 729.78 225.7 730.25 228.23 729.06 231.51 727.33 233.62 723.93 236.56 720.14 240.53 719.8 241.9 720.37 243.87 722.93 248.92 724.6 251.65 727.43 256.3 730.23 260.42 731.22 261.42 732.94 263.91 734.93 266.31 741.94 273 748.83 278.54 751.51 279.71 753.37 281.86 755.79 282.79 757.95 285.49 760.04 286.98 762.13 287.73 764.06 290.07 765.93 291.08 768.5 292.46 769.38 294.12 768.43 296.71 768.58 298.69 769.63 301.57 774.81 303.91 776.77 304.8 778.63 305.42 783.91 306.17 785.54 308.69 785.95 311.26 785.69 313.16 784.99 315 780.51 320.29 779.76 322.09 779.61 325.39 779.95 327.9 780.42 329.29 781.43 330.52 786.17 332.18 788.46 332.15 790.62 332.48 793.14 333.39 794.67 334.58 796.03 336.77 797.41 340.04 797.86 345.22 797.45 347.19 796.04 350.57 794.02 353.04 793.29 355.22 794.5 357.35 796.94 358.41 798.58 360.5 798.86 361.89 798.88 365.12 796.5 372 795.29 376.6 796.88 377.26 798.81 376.87 799 379.41 795.22 388.01 794.86 390.44 794.63 394.53 794.46 397.01 793.07 397.15 789.68 398.02 786.95 398.71 779.63 402.37 776.61 405.01 775.47 406.94 775.69 408.53 775.98 410.57 774.61 413.81 774.25 415.98 773.62 417.54 771.91 417.9 768.62 415.74 766.14 415.96 762.87 418.18 758.64 418.54 757.12 421.04 755.55 421.25 749.2 418.68 747.93 418.17 745.95 415.87 744.32 414.75 742.51 411.73 740.12 411.15 737.29 410.29 734.84 408.47 732.13 405.16 729.87 403.52 729.09 401.46 729.11 397.52 728.71 394.17 728.07 392.97 727.5 391 729.23 388.24 729.75 386.87 728.43 381.84 728.09 378.12 727.71 376.67 727.04 375.25 725.1 373.64 715.75 374.34 709.99 374.62 703.5 374.64 697.27 374.24 691.86 373.64 686.39 372.38 675.84 366.68 673.32 366.15 671.75 365.71 670.58 367.29 667.71 369.59 665.89 370.59 664.65 371.79 663.04 372.35 661.51 372.66 660.23 373.16 658.67 374.05 656.7 375.32 655.42 376.61 653.38 376.82 651.31 375.96 649.72 375.17 648.1 375 646.66 375.1 645.09 376.32 644.52 377.7 643.83 378.98 642.54 379.82 640.98 379.28 639.24 379.37 637.49 379.71 636.28 380.45 635.35 381.51 634.85 382.89 633.18 382.11 631.68 381.84 631.18 383.16 631.77 384.94 631.85 386.7 630.44 387.83 628.8 388.17 626.66 388.36 625.22 388.44 623.74 388.42 621.9 387.51 620.8 386.32 620.66 384.38 621.02 382.87 620.76 381.14 619.66 380.04 617.79 378.76 616.29 377.44 615.5 375.98 614.55 374.95 613.36 374.15 612.08 372.92 612.37 371.35 613.31 369.9 614.5 366.84 614.01 365.24 613.23 363.51 611.83 362.52 610.41 361.98 608.98 361.57 607.27 359.96 606.89 358.33 605.67 355.46 604.37 353.89 603.09 352.57 600.29 349.21 599.6 348.03 598.74 346.38 597.99 344.59 597.26 343.37 595.27 342.2 593.48 341.53 591.41 340.42 589.07 338.57 588.14 336.8 587.62 334.79 587.86 333.3 587.24 332.02 585.51 331.72 583.64 332.3 582.24 332.99 580.66 333.85 579.54 335.01 578.65 336.11 577.69 337.15 575.63 337.93 572.93 338.85 570.29 339.16 568.92 339.24 567.27 339.88 566.27 340.98 565.3 342.32 564.03 343.71 562.58 345.1 561.04 345.87 559.56 345.94 558.19 345.93 555.51 346.51 554.08 347.22 552.73 347.94 551.16 348.59 548.6 348.9 546.49 348.89 544.09 348.84 542.43 348.9 541 349.65 540.01 351.75 540.04 353.21 538.54 353.95 537.46 353.06 535.87 351.97 534.09 351.06 532.48 350.73 530.38 350.35 528.82 349.75 527.44 349.04 525.08 347.68 523.19 346.45 521.59 345.82 520.26 345.2 519.84 345 518.23 344.58 516.68 344.5 515.15 345.02 512.6 345.33 510.75 345.39 508.29 345.04 507.01 344.57 505.49 343.54 502.97 341.07 501.47 340.41 498.65 338.46 497.27 337.43 495.97 336.35 492.59 334.56 490.77 333.49 488.73 332.32 487.2 331.5 485.52 330.84 484.06 330.27 482.93 329.44 480.95 327.53 478.46 323.56 477.41 322.64 476.07 321.77 474.17 320.94 472.37 320.39 470.74 320.24 469.54 319.59 468.87 318.22 468.61 316.8 467.9 315.43 466.21 315.01 463.89 313.24 462.66 312.04 461.65 310.68 460.56 308.11 459.21 308.65 457.79 309.22 455.87 309.62 454.17 309.89 452.33 310.02 449.23 310.41 447.12 310.57 444.87 310.88 442.99 310.79 441.84 309.87 442.06 308.49 440.83 307.32 438.95 307.84 437.51 307.12 436.58 305.39 434.88 305.54 433.25 306.21 430.96 306.48 428.82 306.67 427.01 306.91 425.39 307.84 423.22 309.02 421.12 309.23 418.64 308.4 416.53 307.63 414.13 307.79 412.18 308.72 410.56 310.01 408.4 312.35 407.23 313.22 405.54 314.54 404.25 315.5 402.74 315.87 400.35 316.8 398.81 317.67 397.1 320.34 396.68 323.32 396.66 325.29 396.05 327.2 394.63 328.37 392.79 329.24 390.95 329.72 388.45 330.15 384.73 330.49 381.22 332.19 379.34 332.5 377.06 332.59 374.81 332.78 372.57 333.26 371.6 334.99 370.88 336.45 368.98 337.94 367.59 339.11 366.02 340.07 364.45 341.02 362.33 342.19 361.16 342.9 359.63 344.22 358.5 345.08 356.68 346.57 354.98 348.06 352.97 349.25 350.38 348.31 349.19 347.45 348.04 346.36 346.4 344.99 344.66 344.05 342.92 343.7 341.44 343.2 339.67 342.61 337.82 342.34 335.45 343.51 333.77 344.67 332.61 345.8 331.6 346.88 331.33 348.62 331.3 348.81 332.7 350.91 335 352.33 337.29 353.33 339.19 354.99 340.53 356.35 341.81 357.89 342.53 359.69 343.74 361.91 345.19 363.09 346.42 364.3 347.98 365.77 347.53 370.36 345.53 374.44 345.08 376.06 344.67 377.69 343.69 378.84 345.31 379.19 346.89 379.16 347.28 379.78 347.12 380.45 345.34 381.28 343.69 383.82 341.75 388.95 341.06 391.43 339.47 392.87 337.51 394.14 335.63 395.82 334.01 397.36 332.53 398.33 331.11 399.13 328.14 400.72 325.96 401.64 322.15 403.08 321.92 405.14 321.99 406.72 320.66 408.05 318.73 408.58 317.01 410.46 315.32 412.02 312.8 412.08 310.02 411.85 307.55 412.36 303.8 413.04 302.23 413.19 300.12 413.55 298.52 414.05 297.17 416.02 296.4 417.39 295.86 421.58 295.1 423.62 294.25 425 292.82 424.62 292.93 422.81 291.19 421.36 289.57 420.98 288.38 420.02 289.49 418.79 286.6 418.53 284.99 420 282.12 420.65 280.73 420.48 278.95 419.28 276.82 418.68 275.29 418.96 273.23 419.75 270.78 420.8 267.68 421.92 264.07 423.78 264.06 423.63 263.89 423.36 263.67 423.17 263.48 423.1 263.25 423.11 262.68 423.22 262.33 423.25 261.89 423.17 261.44 422.98 261.16 422.79 260.82 422.59 260.66 422.33 260.58 422.01 260.49 421.81 260.24 421.66 259.93 421.57 259.2 421.46 259.05 421.34 258.93 421.12 258.94 420.86 258.94 420.48 259.04 420.01 258.98 419.7 258.84 419.48 258.61 419.26 258.35 419.07 258.03 418.91 257.54 418.71 257.21 418.65 256.86 418.64 256.59 418.71 256.24 418.83 255.59 419.09 255.45 419.11 255.16 419.12 254.93 419.03 254.63 418.82 254.49 418.6 254.43 418.14 254.46 417.65 254.64 417.12 254.63 416.92 254.58 416.76 254.47 416.64 254.35 416.6 254.07 416.61 253.79 416.67 253.55 416.86 253.23 417.12 253.09 417.23 252.93 417.26 252.57 417.23 251.75 416.97 251.14 416.71 250.93 416.57 250.71 416.33 250.5 416.05 250.13 415.54 249.89 415.25 249.48 415.03 249.14 414.95 248.96 414.94 248.8 414.99 248.68 415.15 248.45 415.47 248.19 415.67 247.8 415.77 247.39 415.74 246.76 415.64 246.1 415.32 245.83 414.97 245.69 414.57 245.76 414.26 245.93 414.1 246.26 414 246.75 413.88 246.97 413.74 247.05 413.6 247.03 413.32 246.98 413.1 246.98 413.01 246.99 412.86 247.09 412.72 247.1 412.6 247.01 412.5 246.8 412.36 246.44 412.22 246.16 412.04 245.87 411.8 245.53 411.61 245.24 411.55 244.97 411.59 244.53 411.78 243.86 412.07 243.49 412.14 243.12 412.13 242.78 412.04 242.51 412.03 242.3 412.04 242.06 412.09 241.57 412.29 241.24 412.3 240.81 412.26 240.64 412.29 240.44 412.35 240.28 412.48 240.16 412.59 239.99 412.61 239.79 412.64 239.63 412.68 239.41 412.91 239.01 413.2 238.69 413.39 238.26 413.55 237.98 413.66 237.69 413.76 237.36 413.75 237.25 413.67 237.22 413.47 237.29 413.19 237.28 413.01 237.15 412.86 237 412.64 236.97 412.48 236.98 412.4 237.06 412.17 237.29 411.88 237.5 411.5 237.51 411.3 237.41 410.94 237.29 410.65 237.05 410.37 236.67 409.96 236.14 409.57 236.05 409.37 236.06 409.17 236 408.92 236 408.32 236.01 408.02 235.91 407.75 235.6 407.37 235.42 407.28 235.14 407.16 234.71 406.96 234.6 406.76 234.61 406.56 234.73 406.11 234.78 405.77 234.75 405.55 234.67 405.27 234.37 405.01 234.03 404.82 233.58 404.63 233.33 404.57 233.15 404.56 232.98 404.62 232.69 404.99 232.31 405.31 232.11 405.43 231.97 405.49 231.78 405.49 231.47 405.41 231.07 405.17 230.49 404.85 230.04 404.51 229.68 404.32 229.45 404.21 229.06 404.13 228.36 404.02 227.71 403.93 227.29 403.84 226.78 403.57 226.27 403.3 225.51 402.89 224.75 402.51 223.87 402.02 223.58 401.93 223.41 401.92 223.29 401.98 223.13 402.11 222.91 402.61 222.57 403.35 222.02 404.22 221.69 404.73 221.55 405.25 221.64 405.44 221.82 405.69 221.83 405.8 221.83 405.98 221.74 406.06 221.59 406.15 221.3 406.18 220.85 406.24 220.54 406.35 220.02 406.69 219.7 407.04 219.36 407.21 219.04 407.3 218.93 407.38 218.82 407.52 218.68 407.7 218.42 407.85 218.18 407.99 217.75 408.04 217.44 408.05 217.17 408.02 217.09 407.88 216.95 407.65 216.6 407.44 216.11 407.18 215.77 406.9 215.42 406.7 215.04 406.45 214.56 406.35 214.24 406.41 213.83 406.59 213.54 406.87 213.2 407.31 212.87 407.84 212.64 408.08 211.99 408.16 211.33 408.11 210.09 407.94 209.1 407.75 208.74 406.78 208.5 406.21 208 405.7 207.42 405.26 206.92 404.9 206.42 404.65 206.18 404.6 206.06 404.59 205.96 404.57 205.84 404.59 205.79 404.63 205.64 404.74 205.49 404.83 205.43 404.86 205.27 404.87 205.01 404.81 204.55 404.69 204.15 404.53 203.67 404.38 203.44 404.33 203.17 404.23 203.07 404.15 203 404.03 202.94 403.87 202.84 403.76 202.73 403.67 202.68 403.56 202.68 403.43 202.73 403.25 202.98 402.71 203.1 402.5 203.14 402.3 203.09 402.05 202.92 401.88 202.69 401.71 202.51 401.68 202.3 401.71 201.98 401.82 201.29 402.11 200.79 402.28 200.68 402.28 200.55 402.22 200.37 402.06 200.06 401.85 199.88 401.75 199.66 401.72 199.44 401.71 198.95 401.8 198.4 401.91 198.1 401.95 197.95 401.92 197.69 401.84 196.88 401.51 195.89 401.25 194.99 401.04 194.59 401 194.41 401.01 194.3 401.06 194.17 401.17 193.95 401.71 193.58 402.47 193.38 402.8 193.23 402.91 193.04 402.99 192.56 403.14 192.06 403.28 191.62 403.44 191.24 403.6 191.02 403.69 190.84 403.71 190.69 403.71 190.38 403.65 189.74 403.52 188.78 403.36 187.74 403.2 187.09 403.01 186.73 402.94 186.3 402.88 186.12 402.88 185.9 402.92 185.7 403.05 185.53 403.18 185.42 403.33 185.3 403.36 185.07 403.42 184.68 403.4 183.63 403.31 182.89 403.2 182.25 403.09 181.92 403.1 181.59 403.12 181.37 403.21 181.2 403.36 181.05 403.53 180.89 403.71 180.8 403.76 180.7 403.77 180.56 403.73 180.25 403.6 179.71 403.34 179.63 403.25 179.62 403.11 179.65 402.8 179.76 402.65 179.83 402.4 179.81 402.04 179.69 401.81 179.47 401.63 179.09 401.52 178.71 401.43 178.49 401.38 178.34 401.35 178.27 401.35 178.22 401.4 178.15 401.49 178.04 401.59 177.92 401.67 177.8 401.68 177.63 401.68 177.48 401.72 177.38 401.81 177.11 402.04 176.86 402.2 176.68 402.25 176.51 402.26 176.35 402.21 176.27 402.11 176.25 402.09 176.08 401.81 176.07 401.67 175.92 401.45 175.62 401 175.45 400.61 175.43 400.4 175.51 400.16 175.71 399.57 175.79 399.25 175.76 399.08 175.65 398.82 175.55 398.58 175.51 398.37 175.59 398.01 175.76 397.66 176.2 397.03 176.47 396.3 176.58 395.9 176.56 395.67 176.46 395.47 176.34 395.35 176.08 395.24 175.55 395.11 174.57 394.88 173.75 394.59 173.18 394.26 172.89 394.05 172.7 393.82 172.59 393.58 172.59 393.36 172.67 393.15 172.98 392.95 173.8 392.59 174.04 392.45 174.19 392.37 174.24 392.29 174.29 392.15 174.17 391.66 174.18 391.38 174.18 391.07 174.16 390.81 174.04 390.62 173.92 390.54 173.68 390.54 173.39 390.6 172.79 390.75 172.26 390.83 171.83 390.85 171.68 390.82 171.56 390.76 171.47 390.66 171.4 390.45 171.41 389.78 171.37 388.93 171.27 388.82 171.16 388.72 170.87 388.54 170.65 388.45 170.53 388.33 170.49 388.21 170.49 388.04 170.59 387.78 170.83 387.52 171.17 387.32 171.51 387.16 171.66 387.04 171.73 386.87 171.67 386.53 171.55 386.36 171.38 386.32 171.04 386.4 170.58 386.46 170.1 386.41 169.72 386.29 169.53 386.04 169.39 385.61 169.32 385.24 169.25 384.96 169.16 384.57 169.16 384.43 169.28 384.35 169.43 384.31 169.62 384.33 170.11 384.21 170.57 384.04 170.81 383.83 170.93 383.55 171.06 383.06 171.09 382.27 171.06 381.45 171.13 381.23 171.3 381.15 171.61 381.15 171.95 381.2 172.19 381.16 172.53 381.04 172.78 380.8 173.07 380.31 173.24 379.97 173.56 379.67 174.12 379.26 174.65 379.02 175.4 378.81 175.79 378.69 176.04 378.47 176.23 378.25 176.41 377.9 176.56 377.42 176.56 377.13 176.49 376.85 176.35 376.74 176.04 376.66 175.56 376.49 175.24 376.37 174.81 376.22 174.5 376.18 173.9 375.99 173.28 375.78 172.77 375.59 172.61 375.47 172.34 375.2 172.08 374.91 171.87 374.56 171.59 374.07 171.4 373.72 171.16 373.42 171.02 373.01 170.93 372.42 170.99 371.89 171.17 371.16 171.37 370.32 171.57 369.82 171.82 369.31 171.87 369.03 171.8 368.66 171.59 368.25 171.4 367.96 171.5 367.62 171.77 367.09 172 366.6 172.37 366.08 172.81 365.55 173.05 365.09 173.38 364.58 173.58 364.01 173.73 363.43 173.84 362.45 173.89 362.16 173.99 361.88 174.73 360.54 175.2 359.69 175.85 358.48 176.37 357.37 176.74 356.66 177.19 355.85 177.41 355.48 177.59 354.79 177.62 354.51 177.57 354.12 177.56 353.69 177.47 352.67 177.41 352.16 177.34 352.04 177.24 352.04 176.97 352.12 176.29 352.36 175.49 352.61 174.69 352.85 174.11 352.99 173.55 353.19 173.31 353.33 173.04 353.59 172.65 353.97 172.23 354.29 171.94 354.39 171.68 354.37 171.56 354.25 171.35 353.84 171.08 353.55 170.92 353.43 170.6 353.34 170.36 353.38 170.09 353.54 169.85 353.76 169.61 354.02 169.21 354.45 168.7 354.85 168.48 355.11 168.19 355.5 167.92 355.82 167.65 356.12 167.55 356.37 167.47 356.65 167.42 357.06 167.51 357.34 167.7 357.61 168.44 358.25 169.13 358.7 169.71 359.03 170.13 359.36 170.46 359.53 170.73 359.8 170.77 360.02 170.72 360.26 170.48 360.49 170.26 360.61 169.99 360.69 169.36 360.68 168.37 360.65 168.11 360.69 167.77 360.85 167.5 361.15 167.21 361.45 167.18 361.64 167.2 361.9 167.29 362.29 167.41 362.66 167.67 363.11 167.98 363.5 168.24 363.87 168.33 364.15 168.37 364.46 168.27 364.74 168.1 364.84 167.86 364.9 167.32 364.67 167.12 364.51 166.57 364.16 166.23 363.91 165.97 363.74 165.49 363.66 165.05 363.65 164.55 363.77 164.06 363.95 163.36 364.09 162.39 364.28 162.05 364.38 161.76 364.52 161.59 364.72 161.47 364.84 161.25 364.88 161.03 364.84 160.72 364.84 160.24 364.95 159.8 365.18 159.57 365.26 159.47 365.24 159.4 365.15 159.55 364.93 159.6 364.63 159.51 364.3 159.29 364.09 159.05 363.99 158.69 363.91 157.8 363.9 157.39 363.89 157 363.95 156.52 364.09 156.23 364.25 155.98 364.41 155.76 364.7 155.42 365.16 155.22 365.3 154.98 365.28 154.96 365.22 154.69 365.28 154.23 365.35 154.04 365.43 153.97 365.54 153.89 365.74 153.84 365.92 153.67 365.98 153.41 365.88 153 365.75 152.71 365.71 152.01 365.74 151.21 365.96 150.73 366.04 150.54 366.02 150.39 365.83 150.49 365.57 150.93 364.96 151.06 364.58 151.06 364.13 150.88 363.7 150.54 363.45 150.23 363.29 149.89 363.2 149.27 363.16 148.81 363.23 148.14 363.27 147.1 363.26 146.74 363.17 146.43 362.99 146.07 362.66 145.54 362.25 145.13 361.92 144.92 361.82 144.53 361.75 143.51 361.85 143.17 361.98 142.72 362.04 142.28 362.08 141.94 362.12 141.66 362.1 141.41 361.96 141.11 362.05 140.68 362.04 140.07 361.99 139.9 361.99 139.82 362.13 139.27 362.07 139.03 362.05 138.47 361.97 138.18 362.19 137.87 362.54 137.51 362.84 137.34 363.32 137.25 363.58 137.07 363.95 136.74 364.33 136.25 364.1 136.07 363.91 135.89 363.75 135.65 363.63 135.55 364.12 135.34 364.84 134.32 364.75 133.3 364.6 133.16 364.74 132.68 364.59 132.18 364.43 131.79 364.53 131.56 364.49 131.11 364.46 130.66 364.43 130.43 364.32 130.33 364.13 130.16 363.92 130.08 363.67 130.01 363.35 129.82 363.34 129.72 363.36 129.24 363.42 128.98 363.17 128.57 362.92 127.77 362.77 127.66 362.62 127.27 362.36 127.35 362.17 127.22 362.15 127.17 362.04 127.15 361.96 126.98 361.89 126.9 361.71 126.78 361.63 126.81 361.49 126.69 361.47 126.79 361.36 126.73 361.27 126.7 361.18 126.58 361.18 126.29 361.05 126.06 360.96 125.78 360.84 125.49 360.72 125.32 360.7 125.33 360.56 125.03 360.46 124.97 360.31 124.98 360.19 125.07 359.71 125.09 359.37 124.76 359.28 124.42 359.14 124.15 358.99 124.18 358.58 124.21 358.22 124.42 357.79 124.55 357.49 124.65 357.29 124.74 357.08 124.77 356.91 124.58 356.82 124.4 356.7 124.26 356.56 124.01 356.38 123.79 356.24 123.56 356.09 123.39 355.92 123.04 355.87 122.29 355.81 122.28 355.65 121.9 355.56 121.43 355.49 121.13 355.43 120.64 355.39 120.34 355.4 120.23 355.34 120.18 355.27 120.04 355.31 120.01 355.55 119.59 355.6 119.28 355.67 119.17 355.56 118.97 355.57 118.91 355.45 118.53 355.53 118.52 354.67 118.35 354.68 118.35 354.45 118.22 354.4 118.27 354.27 118.08 354.21 117.59 354.11 117.17 354.03 116.92 353.94 116.66 353.85 116.39 353.81 116.12 353.81 115.92 353.83 115.65 353.76 115.1 353.61 115 353.49 114.78 353.4 114.51 353.36 114.33 353.3 114.03 353.26 113.52 353.2 113.1 353.16 112.89 353.14 112.76 353.26 112.47 353.23 112.22 353.19 112 352.91 111.84 352.65 112.18 352.57 112.15 352.41 112.23 352.22 112.19 352 112.25 351.59 112.18 351.43 112.09 351.33 111.85 351.32 111.45 351.33 111.35 350.86 111.33 350.58 111.35 350.33 111.22 350.04 111.2 349.87 111.17 349.78 110.61 349.78 110.3 349.74 110.05 349.73 109.68 349.68 109.51 349.64 109.33 349.54 109.28 349.62 109.16 349.62 109.05 349.66 108.91 349.79 108.71 349.76 108.45 349.55 108.42 349.29 108.42 349.15 108.33 348.81 108.23 348.61 108 348.4 107.86 348.34 107.6 348.3 107.65 348.17 107.59 348.09 107.33 348.03 107.16 347.97 107.01 347.87 106.78 347.83 106.69 347.75 106.56 347.7 106.37 347.65 106.29 347.83 106.14 347.7 106 347.67 105.98 347.93 105.81 348.09 105.66 348.16 105.42 347.97 105.26 348.11 105.18 348.21 104.81 347.87 104.47 347.84 104.27 347.59 103.78 347.39 103.52 347.35 103.17 347.2 102.95 347.18 102.73 347.07 102.5 347.01 102.19 346.93 101.82 346.89 101.47 346.78 101.08 346.74 100.23 346.7 99.58 346.68 99.07 346.65 98.51 346.61 98.19 346.41 97.91 346.22 97.68 346.11 97.31 346.02 97.14 345.89 96.95 345.8 96.69 345.71 96.08 345.54 94.95 345.25 94.78 345.11 94.46 345.11 93.81 345.08 93.64 344.94 93.3 344.93 92.81 345.01 92.64 345.18 92.2 344.98 91.94 344.93 91.66 344.78 91.38 344.67 91.11 344.47 91.15 344.19 91.21 343.91 91.18 343.72 91.05 343.58 90.9 343.5 90.77 343.48 90.52 343.48 90.55 343.08 90.61 342.89 90.63 342.77 90.67 342.41 90.7 342.07 90.72 341.69 90.62 341.58 90.5 341.58 90.1 341.49 89.95 341.49 89.68 341.44 89.6 341.34 89.19 341.5 88.91 341.59 88.61 341.72 87.99 341.99 87.7 342.1 87.32 342.15 86.82 342.09 86.58 342.17 85.93 342.17 85.69 342.08 85.22 342.04 84.92 341.95 84.8 341.83 84.68 341.79 84.33 341.75 83.99 341.61 83.84 341.61 83.54 341.5 83.42 341.4 83.2 341.41 82.74 341.38 82.38 341.41 82.25 341.3 82.23 341.1 82.42 340.91 82.55 340.79 82.55 340.52 82.53 340.07 82.63 339.95 82.85 339.78 83.06 339.62 83.16 339.45 83.33 339.24 83.32 338.95 83.21 338.83 83.09 338.65 82.81 338.53 82.57 338.36 82.52 338.27 82.39 338.12 82.27 337.82 82.14 337.67 81.91 337.58 81.6 337.6 81.36 337.71 81.05 337.8 80.86 337.8 80.69 337.61 80.45 337.5 79.98 337.38 79.65 337.25 79.32 337.19 79 337.14 78.79 337.14 78.57 337.05 78.53 336.81 78.46 336.64 78.35 336.36 78.42 336.25 78.68 336 78.67 335.87 78.39 335.66 78.19 335.4 78.23 335.29 78.25 334.92 78.22 334.78 78.08 334.71 77.99 334.56 77.86 334.41 77.62 334.37 77.38 334.4 77.18 334.48 76.32 334.6 76.01 334.65 75.48 334.6 75.17 334.75 74.94 335.14 74.46 335.08 73.91 334.82 73.28 334.43 72.93 334.24 72.31 334 71.82 333.7 71.56 333.49 71.38 333.5 71.09 333.28 70.72 332.99 70.55 332.93 70.46 332.66 70.36 332.56 70.06 332.46 69.66 332.44 69.43 332.47 68.82 332.54 68.57 332.54 68.17 332.55 67.5 332.78 67.01 332.83 66.1 332.83 65.78 332.75 65.44 332.39 64.9 332.25 64.68 332.27 64.06 332.28 63.8 332.34 63.22 332.48 62.6 332.49 62.27 332.43 61.49 332.37 60.84 332.31 60.06 332.26 59.9 332.29 59.38 332.29 58.97 332.3 59.04 332.59 59.11 332.81 59.21 333.04 59.31 333.28 59.34 333.51 59.25 333.93 59.23 334.18 59.2 334.63 59.2 335.16 59.08 335.45 58.86 335.93 58.62 336.15 58.3 336.28 57.97 336.36 57.66 336.44 57.31 336.69 56.93 336.96 56.77 337.1 56.42 337.15 55.85 337.18 55.08 337.17 54.79 337.22 54.38 337.15 54.2 336.45 54.11 335.94 54.27 335.58 54.32 335.34 54.36 335.06 54.71 334.81 55.09 334.47 55.33 334.23 55.43 333.92 55.35 333.61 55.13 333.23 54.85 332.89 54.96 332.51 55 332.29 55.06 332.11 54.84 332.08 54.65 332.12 54.17 332.15 53.92 332.02 53.55 331.94 53.27 331.45 53.05 331.11 52.88 330.96 52.28 330.75 51.82 330.32 51.52 330.03 50.98 330.03 50.58 329.81 50.08 329.53 50.11 329.38 49.97 329.28 49.72 329.13 49.79 328.81 49.59 328.6 49.35 328.37 49.18 328.1 48.97 327.86 48.72 327.65 48.51 327.35 48.49 327.19 48.42 327.03 48.42 326.79 48.45 326.53 48.57 326.22 48.76 325.86 48.8 325.7 48.82 325.45 48.86 325.24 48.81 324.84 48.86 324.71 48.81 324.56 48.82 324.27 48.71 324.1 48.64 323.95 48.33 323.68 48.1 323.47 47.86 323.3 47.76 323.35 47.34 323.32 47.07 323.22 46.84 323 46.58 322.88 46.49 322.79 46.37 322.76 46.24 322.78 46.11 322.75 46.04 322.74 45.89 322.67 45.76 322.6 45.57 322.49 45.33 322.39 45.13 322.3 44.94 322.19 44.75 322.1 44.57 322.02 44.45 321.94 44.41 321.84 44.38 321.76 44.23 321.75 44.09 321.75 43.92 321.74 43.63 321.75 43.38 321.72 43.15 321.71 43.05 321.62 42.98 321.54 42.91 321.39 42.8 321.32 42.56 321.21 42.3 321.14 42.16 321.12 41.98 321.11 41.73 321.05 41.47 321 41.37 321.04 41.25 320.95 41.16 320.87 41.07 320.77 40.98 320.68 40.87 320.68 40.72 320.63 40.55 320.62 40.38 320.64 40.17 320.66 40 320.73 39.98 320.81 39.83 320.89 39.62 320.97 39.5 321.03 39.35 321.01 39.14 320.98 39.12 321.13 39 321.18 38.87 321.24 38.67 321.32 38.6 321.36 38.39 321.33 38.15 321.32 37.91 321.29 37.66 321.28 37.51 321.23 37.29 321.22 37.02 321.18 36.79 321.18 36.68 321.13 36.68 320.97 36.62 320.95 36.48 320.96 36.31 320.93 36.16 320.93 35.99 320.94 35.81 321.02 35.64 321.08 35.42 321.1 35.23 321.13 35.09 321.17 34.95 321.21 34.82 321.18 34.67 321.11 34.54 321.08 34.41 321.12 34.21 321.21 34.07 321.22 33.96 321.2 33.81 321.15 33.73 321.08 33.71 321 33.7 320.89 33.67 320.79 33.59 320.68 33.5 320.62 33.4 320.47 33.32 320.34 33.24 320.21 33.18 320.09 33.08 319.88 33.02 319.7 32.98 319.51 32.97 319.37 32.94 319.23 32.94 319.14 32.95 319.06 33.1 318.89 33.18 318.74 33.24 318.56 33.26 318.47 33.28 318.34 33.28 318.19 33.26 318.02 33.15 317.84 33.04 317.67 32.84 317.42 32.74 317.22 32.73 317.04 32.74 316.86 32.81 316.65 33 316.39 33.18 316.22 33.3 316.12 33.51 316.01 33.71 315.88 33.9 315.77 34.03 315.72 34.1 315.7 34.17 315.61 34.26 315.5 34.21 315.32 34.07 315.11 33.83 314.93 33.61 314.78 33.37 314.65 33.19 314.54 33.04 314.39 32.93 314.27 32.86 314.13 32.84 313.98 32.85 313.87 32.87 313.72 32.96 313.55 33.18 313.43 33.43 313.38 33.7 313.45 33.99 313.76 34.17 313.96 34.33 314.08 34.5 314.19 34.67 314.26 34.78 314.35 34.87 314.38 35.01 314.41 35.17 314.39 35.3 314.37 35.38 314.33 35.48 314.21 35.51 314.09 35.53 313.93 35.55 313.76 35.53 313.58 35.49 313.38 35.47 313.2 35.38 312.98 35.36 312.85 35.31 312.68 35.24 312.5 35.21 312.36 35.25 312.27 35.25 312.17 35.3 312.06 35.26 311.93 35.27 311.75 35.31 311.59 35.33 311.48 35.38 311.37 35.44 311.28 35.49 311.18 35.54 311.12 35.61 311.02 35.73 310.94 35.94 310.93 36.1 310.99 36.28 311.05 36.45 311.08 36.57 311.1 36.78 311.12 36.84 311.1 36.94 311.09 37.04 311.09 37.15 311.06 37.27 311.04 37.35 311.01 37.43 310.99 37.54 310.98 37.58 310.94 37.69 310.86 37.77 310.74 37.77 310.62 37.73 310.45 37.63 310.27 37.54 310.18 37.48 310.1 37.4 310.02 37.36 309.95 37.3 309.82 37.24 309.68 37.16 309.57 37.08 309.44 37.02 309.3 36.99 309.23 36.96 309.14 36.94 309.07 36.96 308.98 37 308.87 37.09 308.75 37.2 308.58 37.32 308.46 37.41 308.37 37.51 308.24 37.62 308.13 37.74 308.02 37.86 307.92 37.98 307.72 37.89 307.63 37.77 307.54 37.66 307.48 37.58 307.43 37.48 307.37 37.38 307.31 37.28 307.22 37.26 307.14 37.19 307.01 37.17 306.93 37.16 306.78 37.16 306.68 37.19 306.56 37.26 306.45 37.34 306.37 37.42 306.31 37.49 306.16 37.53 305.99 37.58 305.9 37.6 305.77 37.64 305.67 37.66 305.5 37.76 305.39 37.95 305.19 37.97 305.04 37.93 304.93 37.87 304.74 37.77 304.56 37.7 304.41 37.6 304.27 37.42 304.18 37.21 304.11 37.04 304.08 36.83 304.03 36.68 304.01 36.47 303.97 36.24 303.89 36.05 303.77 35.93 303.67 35.85 303.49 35.91 303.25 36 303.01 35.99 302.68 35.81 302.42 35.56 302.25 35.3 302.12 35.08 302.2 34.91 302.28 34.74 302.36 34.58 302.41 34.47 302.51 34.43 302.63 34.44 302.73 34.47 302.89 34.54 303.03 34.61 303.3 34.63 303.47 34.61 303.61 34.57 303.82 34.51 304 34.45 304.18 34.37 304.33 34.32 304.46 34.22 304.67 34.15 304.75 34.03 304.8 33.94 304.83 33.83 304.86 33.7 304.84 33.57 304.79 33.46 304.69 33.39 304.58 33.35 304.49 33.36 304.38 33.36 304.27 33.38 304.14 33.4 304.03 33.42 303.96 33.45 303.85 33.5 303.72 33.52 303.54 33.45 303.37 33.35 303.15 33.26 302.96 33.17 302.76 33.11 302.62 33.07 302.54 33.01 302.42 32.99 302.31 33 302.16 32.97 302.06 33.01 301.95 33.06 301.88 33.12 301.84 33.21 301.82 33.31 301.82 33.45 301.86 33.59 301.91 33.73 301.95 33.8 301.97 33.86 302.03 33.96 302.05 34.03 302.04 34.08 301.94 34.09 301.81 34.03 301.63 33.94 301.5 33.88 301.41 33.88 301.31 33.86 301.15 33.88 300.96 33.81 300.82 33.61 300.74 33.37 300.79 33.07 300.85 32.83 300.84 32.52 300.78 32.32 300.73 32.08 300.63 31.87 300.55 31.7 300.44 31.56 300.33 31.48 300.24 31.36 300.12 31.26 300.03 31.18 299.91 31.13 299.81 31.11 299.75 31.17 299.67 31.36 299.64 31.46 299.61 31.57 299.61 31.68 299.56 31.76 299.44 31.75 299.23 31.69 299.13 31.61 299.04 31.45 298.99 31.19 298.92 30.85 298.96 30.62 298.94 30.5 298.9 30.4 298.89 30.27 298.83 30.09 298.76 30.02 298.67 30 298.64 30.07 298.47 30.23 298.35 30.41 298.34 30.64 298.31 30.79 298.27 30.88 298.24 30.99 298.06 30.99 297.88 30.96 297.67 30.94 297.52 30.9 297.38 30.79 297.11 30.57 296.73 30.4 296.46 30.15 296.03 30.09 295.79 29.96 295.63 29.91 295.43 29.83 295.21 29.82 295.1 29.85 294.95 29.86 294.59 29.83 294.46 29.67 294.35 29.54 294.18 29.5 294.02 29.49 293.9 29.46 293.85 29.53 293.75 29.62 293.59 29.69 293.4 29.83 293.29 30.03 293.2 30.29 293.17 30.51 293.15 30.71 293.12 30.83 293.08 30.93 293.05 31.05 292.94 31.02 292.85 31.01 292.75 30.88 292.61 30.75 292.52 30.62 292.44 30.5 292.34 30.35 292.29 30.22 292.2 30.07 292.11 29.96 292.02 29.75 291.98 29.62 291.95 29.43 291.9 29.11 291.83 28.87 291.77 28.64 291.68 28.43 291.58 28.3 291.47 28.24 291.35 28.19 291.23 28.16 291.12 28.13 290.99 28.13 290.92 28.11 290.81 28.1 290.72 28.13 290.59 28.15 290.48 28.21 290.34 28.28 290.18 28.39 290.11 28.42 289.97 28.42 289.94 28.44 289.83 28.48 289.67 28.42 289.56 28.32 289.43 28.03 289.23 27.85 289.15 27.71 289.07 27.56 288.92 27.48 288.85 27.42 288.74 27.38 288.62 27.33 288.57 27.31 288.52 27.35 288.35 27.42 288.21 27.55 288.09 27.68 288.04 27.9 288.04 28.1 288.09 28.2 288.14 28.38 288.17 28.52 288.21 28.64 288.21 28.73 288.19 28.82 288.08 28.89 287.99 28.93 287.96 28.96 287.89 29.02 287.62 29.06 287.43 28.97 287.26 28.91 287.09 28.82 286.92 28.77 286.74 28.65 286.53 28.55 286.38 28.47 286.27 28.25 286.13 28.04 286.16 27.87 286.24 27.71 286.36 27.58 286.53 27.46 286.7 27.38 286.86 27.26 286.99 27.13 287.09 26.94 287.25 26.8 287.39 26.71 287.52 26.65 287.69 26.57 287.79 26.5 287.93 26.41 288.01 26.27 288.07 26.15 288.04 26.02 287.98 25.97 287.89 25.95 287.73 25.96 287.57 25.93 287.42 25.9 287.24 25.89 287.08 25.77 286.96 25.63 286.8 25.44 286.66 25.2 286.55 25.02 286.5 24.92 286.44 24.85 286.4 24.81 286.24 24.91 286.06 24.99 285.93 25.05 285.84 25.14 285.71 25.32 285.5 25.52 285.25 25.73 285.14 25.83 285.08 25.96 285.01 26.08 284.9 26.16 284.81 26.23 284.76 26.28 284.72 26.34 284.65 26.48 284.58 26.59 284.42 26.71 284.25 26.74 284.05 26.59 283.87 26.3 283.79 26.1 283.82 25.86 284.03 25.72 284.13 25.41 284.17 25.14 284.14 24.96 284 24.71 283.44 24.48 282.95 24.41 282.79 24.34 282.6 24.33 282.5 24.3 282.36 24.27 282.09 24.29 281.85 24.45 281.58 24.61 281.48 24.95 281.24 25.08 281.16 25.13 281.03 25.2 280.9 25.07 280.61 24.93 280.31 25.2 279.24 25.34 278.97 25.48 278.84 25.7 278.79 25.98 278.77 26.15 278.74 26.24 278.69 26.35 278.47 26.34 278.25 26.24 277.99 26.14 277.81 26.1 277.63 26.27 277.4 26.55 277.34 26.95 277.31 27.18 277.22 27.26 277.18 27.35 277.1 27.38 276.9 27.41 276.78 27.41 276.59 27.45 276.36 27.48 276.16 27.57 275.98 27.78 275.87 28.08 275.82 28.33 275.85 28.65 275.85 28.91 275.71 28.99 275.65 29.11 275.44 29.19 275.25 29.22 274.97 29.12 274.75 28.89 274.68 28.65 274.76 28.37 274.94 28.07 275.04 27.72 275.06 27.51 275.05 27.39 275.01 27.16 274.87 27.12 274.67 27.16 274.51 27.32 274.41 27.66 274.38 27.9 274.34 28.07 274.23 28.23 274.06 28.33 273.79 28.34 273.65 28.25 273.4 28.16 273.29 28.19 272.99 28.28 272.84 28.42 272.74 28.59 272.67 29 272.59 29.33 272.59 29.48 272.88 29.66 272.9 29.92 272.87 30.05 272.79 30.56 272.64 30.76 272.45 30.86 272.22 30.91 272.05 30.98 271.76 31.03 271.55 31.15 271.28 31.35 271.16 31.78 271.14 32.31 271.41 32.59 271.48 32.88 271.44 32.99 271.3 33.03 271.04 33.02 270.9 33.03 270.69 33.11 270.51 33.11 270.44 33.08 270.28 32.97 270.18 32.83 270.1 32.67 270.02 32.45 269.97 32.25 269.97 32.08 269.95 31.95 269.93 31.79 269.92 31.66 269.91 31.54 269.9 31.38 269.87 31.28 269.82 31.13 269.66 31.14 269.6 31.16 269.51 31.2 269.42 31.25 269.33 31.31 269.2 31.33 269.06 31.38 268.99 31.42 268.89 31.45 268.78 31.48 268.64 31.48 268.54 31.35 268.35 31.35 268.27 31.3 268.17 31.1 268.05 30.92 267.99 30.83 268.07 30.75 268.15 30.67 268.22 30.64 268.28 30.64 268.34 30.64 268.43 30.64 268.53 30.6 268.62 30.57 268.72 30.48 268.79 30.42 268.84 30.34 268.88 30.23 268.88 30.16 268.88 30.12 268.85 30.01 268.79 30 268.69 29.98 268.57 29.95 268.44 29.95 268.34 29.95 268.22 29.95 268.12 29.95 267.99 29.97 267.87 29.98 267.74 29.98 267.62 30.02 267.47 30.02 267.37 30.01 267.22 29.8 267.17 29.75 267.22 29.67 267.22 29.57 267.22 29.41 267.16 29.33 267.09 29.27 267 29.25 266.89 29.23 266.77 29.22 266.67 29.22 266.55 29.21 266.46 29.26 266.36 29.3 266.23 29.3 266.14 29.3 266.05 29.23 265.93 29.18 265.89 29.11 265.83 28.99 265.64 28.99 265.5 28.99 265.34 29.04 265.22 29.09 265.07 29.2 264.88 29.27 264.77 29.33 264.73 29.45 264.71 29.58 264.71 29.74 264.71 29.84 264.71 29.92 264.77 30.02 264.87 30.14 264.92 30.21 264.98 30.28 265.05 30.34 265.13 30.49 265.22 30.62 265.27 30.75 265.32 30.87 265.33 31.05 265.33 31.11 265.24 31.1 265.15 31.1 265.04 31.06 264.95 30.99 264.87 30.88 264.75 30.84 264.65 30.77 264.54 30.72 264.46 30.66 264.37 30.54 264.13 30.49 264.02 30.41 263.92 30.31 263.78 30.24 263.61 30.24 263.51 30.23 263.39 30.21 263.29 30.18 263.19 30.18 263.06 30.23 262.96 30.32 262.89 30.48 262.82 30.59 262.81 30.72 262.81 30.84 262.81 30.95 262.86 31.08 262.91 31.23 262.94 31.38 262.94 31.44 262.86 31.48 262.79 31.52 262.71 31.58 262.61 31.61 262.52 31.66 262.44 31.77 262.31 31.98 262.26 32.07 262.25 32.17 262.14 32.24 262.07 32.29 262 32.3 261.89 32.36 261.81 32.52 261.6 32.61 261.49 32.71 261.48 32.83 261.46 33 261.46 33.14 261.45 33.25 261.45 33.41 261.49 33.69 261.55 33.83 261.55 34.02 261.56 34.06 261.51 34.13 261.44 34.16 261.34 34.15 261.15 34.1 261.05 34.07 260.95 34.07 260.86 34.04 260.81 34.03 260.72 33.99 260.6 33.97 260.54 33.93 260.47 33.91 260.4 33.9 260.34 33.79 260.32 33.73 260.29 33.57 260.29 33.5 260.29 33.4 260.29 33.28 260.29 33.16 260.29 33.05 260.29 32.96 260.27 32.74 260.23 32.66 260.21 32.58 260.17 32.5 260.13 32.4 260.09 32.31 260.01 32.21 259.91 32.13 259.81 31.91 259.57 31.91 259.24 31.91 258.99 31.91 258.75 32.03 258.46 32.15 258.34 32.27 258.19 32.34 257.99 32.37 257.86 32.37 257.72 32.29 257.51 32.29 257.27 32.29 257.02 32.29 256.83 32.29 256.65 32.22 256.51 32.22 256.38 32.22 256.2 32.31 256.05 32.51 255.97 32.75 255.87 32.8 255.72 32.75 255.58 32.63 255.5 32.46 255.38 32.36 255.23 32.19 255.09 32.07 254.94 31.9 254.76 31.78 254.58 31.7 254.39 31.66 254.29 31.56 254.19 31.41 254.08 31.22 254 31.1 253.92 30.98 253.82 30.83 253.63 30.64 253.51 30.47 253.43 30.25 253.39 30.03 253.34 29.74 253.3 29.52 253.18 29.38 253.06 29.28 252.83 29.28 252.69 29.33 252.52 29.47 252.32 29.57 252.24 29.96 251.82 30.22 251.56 30.22 251.27 30.22 250.98 29.95 250.65 29.71 250.69 29.44 250.82 29.3 250.98 29.23 251.23 29.08 251.31 28.91 251.35 28.55 251.37 28.33 251.37 28.23 251.19 28.06 250.9 27.92 250.68 27.77 250.37 27.6 250.16 27.48 249.92 27.34 249.73 27.09 249.55 26.87 249.38 26.7 249.22 26.58 249.16 26.32 249.01 26.03 249.14 25.81 249.22 25.42 249.19 25.15 249.05 24.82 249.08 24.55 249.06 24.35 248.97 24.31 248.79 24.56 248.26 24.79 247.78 24.93 247.51 25.13 247.23 25.44 246.88 25.6 246.66 25.71 246.4 25.75 245.99 25.79 245.78 25.71 245.54 25.49 245.24 25.37 245.11 25.17 244.88 25.07 244.68 24.97 244.51 24.85 244.35 24.78 244.21 24.68 243.98 24.61 243.82 24.56 243.61 24.49 243.4 24.39 243.27 24.27 242.89 24.2 242.55 24.24 242.21 24.41 241.95 24.63 241.61 24.68 241.37 24.84 241.2 25.11 241.02 25.34 240.87 25.5 240.69 25.65 240.5 25.76 240.35 25.91 240.16 26.05 239.98 26.14 239.87 26.2 239.79 26.33 239.61 26.42 239.51 26.54 239.38 26.61 239.31 26.77 239.22 26.87 239.17 27.07 239.11 27.18 239.04 27.32 238.96 27.41 238.91 27.56 238.65 27.72 238.45 27.94 238.28 28.14 238.17 28.35 238.06 28.75 237.47 28.85 237.23 28.9 236.88 28.92 236.69 28.98 236.52 29.05 236.39 29.2 236.25 29.34 236.02 29.34 235.84 29.38 235.69 29.38 235.57 29.41 235.45 29.41 235.06 29.41 234.81 29.45 234.5 29.52 234.35 29.4 234.03 29.06 233.54 28.92 233.13 28.77 232.65 28.77 232.43 28.7 232.1 28.45 231.69 28.48 231.24 28.4 231.01 28.33 230.78 28.23 230.64 28.14 230.52 27.77 230.35 27.12 230.06 26.66 229.82 26.44 229.55 26.21 229.48 25.96 229.43 25.75 229.34 25.59 229.25 25.22 228.95 25.08 228.72 25.01 228.36 24.79 228.09 24.49 228.03 24.14 228.01 24.04 227.87 23.94 227.69 23.85 227.62 23.8 227.46 23.7 227.36 23.6 227.3 23.36 226.84 23.41 226.1 23.48 225.84 23.57 225.59 23.77 225.26 23.79 224.97 23.89 224.81 23.98 224.6 24.13 224.4 24.15 224.17 24.27 223.95 24.32 223.37 24.42 223.08 24.46 222.92 24.54 222.75 24.61 222.57 24.61 222.44 24.9 221.73 24.97 221.48 25.09 221.33 25.18 220.84 25.38 220.59 25.38 220.41 25.47 220.27 25.52 220.1 25.59 219.92 25.62 219.71 25.52 219.14 25.54 218.95 25.62 218.74 25.66 218.58 25.74 218.46 25.81 218.29 26.05 217.94 26.1 217.74 26.19 217.51 26.29 217.41 26.34 217.29 26.51 217.12 26.65 216.81 26.8 216.57 26.84 216.38 26.92 216.32 27.21 216.07 27.23 215.82 27.23 215.62 27.23 215.46 27.06 215.33 27.13 215.11 27.04 214.92 26.99 214.72 26.96 214.55 26.94 214.39 27.11 214.08 27.3 213.95 27.42 213.87 27.66 213.75 27.71 213.63 27.76 213.46 27.76 213.26 27.76 212.95 27.97 212.21 27.85 212 27.8 211.82 27.73 211.69 27.56 211.39 27.17 210.71 27.05 210.38 26.44 209.76 26.25 209.6 26.05 209.48 25.8 209.33 25.7 209.27 25.42 209.11 25.4 209.09 25.35 209.06 25.29 209.02 25.23 208.95 25.19 208.91 25.17 208.88 25.09 208.83 25.02 208.8 24.91 208.75 24.75 208.65 24.6 208.61 24.51 208.49 24.45 208.38 24.38 208.32 24.16 208.12 23.78 207.75 23.62 207.48 23.42 207.21 23.29 206.87 23.13 206.67 22.84 206.44 22.56 206.22 22.31 206.11 22.11 206.03 22.08 205.91 22.03 205.76 21.86 205.59 21.6 205.3 21.53 205.19 21.47 204.87 21.36 204.63 21.12 204.27 20.97 204.03 20.78 203.73 20.74 203.67 20.49 203.3 20.37 203.09 20.37 202.97 20.23 202.37 20.25 202.15 20.3 202.04 20.32 201.96 20.32 201.78 20.1 201.41 19.91 201.28 19.62 201 19.59 200.79 19.59 200.63 19.67 200.57 19.76 200.18 19.57 199.93 19.54 199.66 19.44 199.46 19.32 199.31 19.23 199.11 19.15 198.98 18.98 198.57 18.93 198.45 18.82 198.33 18.65 198.23 18.52 198.14 18.37 198.06 18.18 197.93 18.02 197.82 17.84 197.73 17.56 197.61 17.33 197.4 17.22 197.28 17.18 197.19 17.15 197.06 17.13 196.92 17.19 196.67 17.21 196.56 17.25 196.45 17.32 196.33 17.41 196.15 17.41 195.98 17.4 195.81 17.4 195.68 17.39 195.55 17.39 195.43 17.39 195.07 17.39 194.97 17.39 194.58 17.37 194.39 17.27 194.14 16.94 193.72 16.79 193.51 16.57 192.98 16.54 192.75 16.54 192.45 16.56 192.28 16.65 191.76 16.6 191.38 16.55 191.08 16.53 190.92 16.51 190.53 16.48 190.36 16.46 190.15 16.42 189.93 16.37 189.74 16.31 189.55 16.28 189.4 16.18 189.14 16.14 188.94 16.09 188.67 16 188.46 15.9 188.23 15.8 188.08 15.7 187.97 15.32 187.7 15.06 187.73 15 187.61 14.96 187.46 14.96 187.35 14.97 187.21 15.08 186.95 15.16 186.76 15.16 186.62 15.15 186.47 15.11 186.31 15.07 186.16 15.01 185.99 14.97 185.83 14.93 185.73 14.9 185.58 14.89 185.44 14.89 185.34 15 185.07 15.07 184.93 15.15 184.78 15.21 184.64 15.23 184.46 15.26 184.25 15.19 184.14 15.06 184 14.89 183.87 14.74 183.72 14.67 183.64 14.59 183.56 14.54 183.39 14.54 183.2 14.57 183.05 14.6 182.87 14.67 182.61 14.67 182.6 14.59 182.52 14.57 182.4 14.57 182.22 14.57 182.01 14.55 181.8 14.52 181.65 14.43 181.41 14.36 181.2 14.27 181.02 14.21 180.82 14.05 180.61 13.94 180.34 13.87 180.16 13.87 179.98 13.98 179.86 14.12 179.75 14.29 179.71 14.5 179.62 14.61 179.5 14.7 179.41 14.7 179.29 14.61 179.17 14.45 179.08 14.25 178.93 14.11 178.84 13.96 178.78 13.86 178.63 13.75 178.48 13.73 178.24 13.8 178.12 13.95 177.97 14.13 177.79 14.22 177.67 14.22 177.49 14.2 177.34 14.13 177.2 14.04 177.01 13.95 176.8 13.95 176.65 13.89 176.44 13.8 176.23 13.84 176.05 13.89 175.87 13.97 175.66 14.02 175.48 13.97 175.3 13.82 175.09 13.79 174.91 13.73 174.64 13.75 174.37 13.79 174.16 13.84 173.95 13.9 173.74 13.93 173.62 13.99 173.44 14.01 173.21 14.01 173.05 13.95 172.87 13.9 172.75 13.86 172.57 13.79 172.42 13.77 172.15 13.77 171.97 13.83 171.82 13.92 171.7 14.06 171.52 14.19 171.34 14.24 171.1 14.3 170.92 14.3 170.77 14.24 170.59 14.17 170.41 14.12 170.29 14.04 170.11 13.99 169.93 13.99 169.81 14.03 169.69 14.17 169.6 14.31 169.52 14.49 169.42 14.51 169.3 14.64 169.15 14.64 168.97 14.62 168.82 14.53 168.7 14.44 168.58 14.41 168.46 14.41 168.29 14.37 168.16 14.32 168.01 14.21 167.86 14.14 167.71 14.03 167.53 13.9 167.35 13.76 167.2 13.64 167.05 13.49 166.87 13.33 166.71 13.2 166.54 13.06 166.35 12.9 166.15 12.74 165.97 12.61 165.79 12.51 165.64 12.38 165.39 12.33 165.18 12.25 164.97 12.18 164.68 12.08 164.37 11.97 164.13 11.84 163.95 11.75 163.8 11.66 163.56 11.59 163.38 11.48 163.14 11.38 162.9 11.36 162.72 11.29 162.42 11.38 162.15 11.43 161.88 11.56 161.67 11.67 161.43 11.81 161.19 11.95 160.98 12.1 160.8 12.24 160.63 12.42 160.5 12.53 160.36 12.67 160.29 12.85 160.17 13 160.06 13.1 159.96 13.16 159.85 13.14 159.7 13.07 159.55 12.91 159.43 12.78 159.31 12.67 159.19 12.55 159.04 12.48 158.92 12.48 158.79 12.53 158.62 12.57 158.52 12.62 158.35 12.62 158.22 12.57 158.05 12.5 157.93 12.42 157.84 12.1 157.71 11.9 157.71 11.65 157.76 11.54 157.92 11.49 158.07 11.45 158.24 11.4 158.55 11.31 158.7 11.22 158.9 11.11 159.08 10.93 159.23 10.68 159.26 10.52 159.26 10.36 159.26 10.29 159.32 10.2 159.41 10.2 159.6 10.14 159.75 10.11 159.87 9.94 159.95 9.71 159.92 9.51 159.89 9.35 159.87 9.28 159.8 9.21 159.68 9.12 159.59 9.03 159.44 8.99 159.29 8.99 159.14 9.08 159.05 9.23 159.03 9.32 159.06 9.51 159.11 9.59 159.11 9.59 158.99 9.55 158.87 9.55 158.76 9.55 158.63 9.57 158.46 9.59 158.27 9.62 158.15 9.64 158 9.66 157.85 9.62 157.73 9.62 157.62 9.53 157.53 9.44 157.49 9.3 157.43 9.14 157.4 9.03 157.37 8.98 157.28 8.92 157.16 8.89 157.07 8.82 156.98 8.69 156.92 8.66 156.83 8.69 156.74 8.71 156.65 8.64 156.56 8.51 156.51 8.33 156.5 8.19 156.48 8.08 156.39 7.97 156.36 7.83 156.23 7.72 156.12 7.61 156.05 7.51 156 7.51 155.94 7.51 155.82 7.56 155.73 7.62 155.67 7.76 155.61 7.9 155.55 7.97 155.46 7.97 155.34 7.97 155.22 7.94 155.13 7.89 155.04 7.81 154.92 7.76 154.83 7.71 154.73 7.69 154.58 7.67 154.41 7.65 154.28 7.65 154.11 7.62 153.93 7.6 153.77 7.58 153.62 7.55 153.45 7.44 153.41 7.33 153.31 7.15 153.22 6.99 153.13 6.83 153.04 6.63 153.02 6.43 153.01 6.2 152.92 5.98 152.74 5.86 152.62 5.73 152.47 5.61 152.35 5.43 152.3 5.28 152.29 5.23 152.2 5.23 151.99 5.21 151.84 5.2 151.72 5.11 151.66 4.96 151.54 4.85 151.45 4.75 151.3 4.75 151.18 4.8 151.06 4.91 150.97 5.04 150.85 5.12 150.76 5.23 150.64 5.38 150.58 5.5 150.43 5.45 150.31 5.34 150.28 5.04 150.23 4.77 150.26 4.52 150.26 4.3 150.26 4.14 150.17 4.03 149.96 3.92 149.84 3.85 149.66 3.69 149.57 3.47 149.56 3.28 149.62 3.01 149.71 2.9 149.81 2.76 149.89 2.59 149.95 2.49 149.92 2.41 149.83 2.33 149.65 2.33 149.5 2.33 149.35 2.25 149.13 2.25 148.96 2.31 148.87 2.31 148.69 2.27 148.6 2.22 148.48 2.08 148.12 2.04 147.97 2.04 147.85 1.97 147.72 1.9 147.58 1.81 147.46 1.66 147.34 1.5 147.19 1.32 147.06 1.18 146.92 1 146.68 1 146.52 1.13 146.47 1.36 146.38 1.63 146.23 1.77 146.19 2.04 146.08 2.19 146.04 2.51 145.95 2.8 145.93 3.05 145.92 3.19 145.87 3.25 145.77 3.34 145.62 3.35 145.47 3.28 145.41 3.17 145.32 3.14 145.23 3.14 145.08 3.26 145.02 3.39 144.99 3.43 144.81 3.44 144.57 3.52 144.39 3.61 144.18 3.68 143.97 3.8 143.68 4 143.1 4.02 142.86 4.11 142.65 4.24 142.47 4.38 142.35 4.52 142.2 4.65 142.08 4.65 141.96 4.54 141.9 4.42 141.84 4.31 141.7 4.31 141.55 4.4 141.37 4.45 141.16 4.53 140.98 4.62 140.8 4.74 140.71 4.9 140.62 5.14 140.49 5.24 140.38 5.3 140.2 5.28 139.99 5.23 139.83 5.21 139.72 5.28 139.51 5.39 139.36 5.53 139.18 5.68 138.97 5.78 138.76 5.91 138.49 5.89 138.22 5.88 138.04 5.84 137.83 5.79 137.59 5.7 137.44 5.62 137.26 5.48 137.08 5.34 136.81 5.16 136.66 5.1 136.44 5.19 136.24 5.25 136.11 5.37 135.94 5.37 135.73 5.38 135.49 5.3 135.16 5.32 134.92 5.34 134.5 5.27 134.32 5.16 134.08 5.07 133.93 5.18 133.69 5.22 133.42 5.4 133.18 5.5 132.91 5.7 132.7 5.88 132.4 6.1 132.16 6.26 131.95 6.4 131.74 6.56 131.53 6.55 131.35 6.51 131.2 6.51 131.02 6.57 130.81 6.62 130.63 6.69 130.45 6.73 130.27 6.76 130.06 6.84 129.85 6.87 129.64 6.89 129.37 6.89 129.1 6.89 128.95 6.89 128.77 6.82 128.56 6.82 128.31 6.73 128.04 6.6 127.74 6.52 127.47 6.39 127.26 6.28 127.02 6.12 126.69 6 126.48 5.98 126.21 6.05 126.09 6.19 125.94 6.27 125.78 6.48 125.6 6.71 125.45 6.91 125.31 7.18 125.19 7.34 125.03 7.49 124.88 7.67 124.7 7.85 124.55 7.94 124.34 7.92 124.19 7.92 124.01 7.92 123.86 7.96 123.6 7.99 123.36 7.97 123.15 7.96 122.97 7.94 122.79 7.89 122.64 7.8 122.43 7.74 122.25 7.67 122.09 7.62 121.97 7.47 121.71 7.47 121.55 7.47 121.41 7.56 121.35 7.67 121.26 7.76 121.17 7.85 121.05 7.9 120.93 7.92 120.8 7.94 120.62 7.96 120.44 7.96 120.29 8.03 120.17 8.1 120.05 8.23 119.87 8.36 119.72 8.55 119.58 8.66 119.51 8.68 119.39 8.73 119.33 8.88 119.28 9.04 119.27 9.16 119.27 9.38 119.24 9.65 119.21 9.77 119.21 9.99 119.15 10.17 119.06 10.38 119.1 10.51 119.16 10.67 119.31 10.87 119.46 11.07 119.58 11.25 119.62 11.37 119.59 11.52 119.49 11.78 119.4 12.09 119.32 12.31 119.32 12.43 119.29 12.63 119.26 12.77 119.23 13.08 119.14 13.29 119.05 13.53 118.96 13.96 118.87 14.24 118.86 14.6 118.9 15.03 119.07 15.23 119.19 15.39 119.28 15.56 119.37 15.75 119.47 15.91 119.56 16.2 119.71 16.45 119.74 16.74 119.77 17.06 119.77 17.26 119.77 17.6 119.8 17.82 119.8 18.01 119.8 18.1 119.8 18.37 119.8 18.54 119.8 18.75 119.87 19.07 119.87 19.36 119.86 19.61 119.83 19.83 119.77 20.17 119.71 20.42 119.59 20.56 119.53 20.67 119.41 20.82 119.27 20.92 119.17 21.16 119.05 21.32 118.9 21.41 118.75 21.55 118.61 21.68 118.51 21.77 118.39 21.86 118.24 21.88 118.09 21.97 118 22.11 117.91 22.22 117.79 22.42 117.64 22.54 117.52 22.76 117.35 23.04 117.35 23.31 117.38 23.76 117.5 24.14 117.68 24.37 117.82 24.64 118.01 24.75 118.19 25.07 118.36 25.23 118.39 25.43 118.39 25.61 118.34 25.9 118.25 26.17 118.19 26.33 118.1 26.62 118.01 26.78 118.02 27.07 118.04 27.23 118.04 27.59 118.04 27.91 118.02 28.23 118.02 28.5 118.05 28.66 118.05 29 118.11 29.17 118.11 29.51 118.08 30.05 118.13 30.19 118.25 30.58 118.44 31 118.62 31.45 118.77 31.75 118.95 32.02 119.07 32.27 119.22 32.52 119.43 32.61 119.76 32.74 119.97 32.86 120.18 32.9 120.39 33.02 120.57 33.2 120.79 33.36 121.05 33.67 121.2 33.9 121.29 34.14 121.33 34.37 121.27 34.64 121.26 34.87 121.3 35.05 121.26 35.32 121.24 35.52 121.21 35.59 121.12 35.75 121 35.84 120.82 35.97 120.58 36.08 120.34 36.18 120.13 36.26 119.92 36.42 119.68 36.54 119.5 36.67 119.38 36.78 119.2 36.87 119.01 36.99 118.77 36.99 118.53 37.08 118.38 37.08 118.2 37.03 118.06 36.98 117.85 36.92 117.58 36.87 117.37 36.74 117.22 36.65 116.97 36.55 116.76 36.44 116.58 36.3 116.4 36.19 116.26 36.13 116.1 36.13 116.01 36.26 115.89 36.4 115.68 36.62 115.44 36.8 115.32 36.96 115.2 37.09 115.05 37.32 114.87 37.52 114.63 37.68 114.42 37.82 114.24 37.97 114.06 38.15 113.91 38.26 113.76 38.26 113.61 38.35 113.4 38.36 113.25 38.45 113.13 38.56 113.05 38.72 112.93 38.88 112.84 39.17 112.63 39.37 112.45 39.57 112.27 39.78 112.03 39.93 111.85 40.11 111.63 40.32 111.33 40.5 111.09 40.61 110.88 41.06 110.43 41.22 110.28 41.38 110.13 41.56 109.86 41.71 109.68 41.81 109.5 41.85 109.29 41.78 109.14 41.56 109.05 41.31 108.96 41.15 108.84 41.1 108.72 40.94 108.66 40.63 108.58 40.47 108.54 40.16 108.57 39.95 108.48 39.79 108.36 39.61 108.21 39.41 108.15 39.11 108.06 38.85 108.01 38.57 107.96 38.32 107.88 37.97 107.82 37.65 107.73 37.51 107.58 37.27 107.43 37.11 107.28 36.9 107.1 36.9 106.89 36.9 106.71 36.93 106.53 37.06 106.29 37.15 106.08 37.19 105.9 37.31 105.66 37.46 105.51 37.56 105.42 37.69 105.33 37.82 105.21 37.91 105.11 37.91 104.97 37.98 104.82 38.03 104.52 38.14 104.28 38.34 104.1 38.59 104.01 38.93 104.01 39.15 103.95 39.4 103.83 39.54 103.59 39.79 103.34 39.95 103.13 40.12 102.92 40.21 102.6 40.22 102.35 40.21 102.08 40.15 101.84 40.15 101.69 40.23 101.57 40.42 101.42 40.6 101.27 40.82 101.12 40.96 100.88 41.25 100.79 41.52 100.74 41.75 100.7 41.97 100.61 42.06 100.49 42.22 100.34 42.33 100.2 42.53 100.04 42.71 99.89 42.96 99.65 43.08 99.5 43.23 99.34 43.41 99.11 43.53 98.93 43.6 98.75 43.68 98.57 43.68 98.39 43.68 98.21 43.69 98.03 43.8 97.82 43.91 97.58 44 97.37 44.11 97.22 44.16 97.04 44.22 96.78 44.22 96.6 44.32 96.39 44.52 96.21 44.68 96.03 44.92 95.88 45.06 95.76 45.33 95.67 45.56 95.64 45.65 95.55 45.65 95.46 45.67 95.37 45.67 95.25 45.67 95.16 45.69 94.98 45.69 94.81 45.69 94.58 45.69 94.37 45.76 94.14 45.78 93.93 45.87 93.63 46 93.51 46.18 93.39 46.38 93.3 46.55 93.18 46.63 93.03 46.72 92.83 46.79 92.55 46.99 92.52 47.27 92.53 47.54 92.59 47.83 92.64 47.96 92.52 48.06 92.4 48.15 92.25 48.41 92.08 48.53 91.95 48.73 91.77 48.94 91.53 49.23 91.41 49.52 91.35 49.7 91.12 49.91 90.91 50.17 90.66 50.44 90.45 50.71 90.27 50.99 90.07 51.19 89.89 51.51 89.7 51.73 89.53 51.96 89.5 52.21 89.5 52.38 89.41 52.68 89.34 52.88 89.34 53.06 89.52 53.29 89.7 53.52 89.88 53.97 90.01 54.31 90.01 54.62 90.01 54.87 89.94 55.07 89.83 55.45 89.71 55.75 89.62 56.31 89.51 56.74 89.51 57.01 89.54 57.24 89.66 57.46 89.86 57.62 89.86 57.82 89.74 58.05 89.74 58.23 89.87 58.41 89.98 58.57 89.98 58.79 89.89 59 89.84 59.16 89.8 59.38 89.8 59.52 89.8 59.65 89.74 59.72 89.68 59.83 89.51 59.9 89.33 59.93 89.15 60.01 89.03 60.08 88.94 60.17 88.85 60.28 88.7 60.28 88.49 60.35 88.31 60.46 88.13 60.6 87.89 60.83 87.79 61.03 87.68 61.07 87.55 61.12 87.29 61.32 87.29 61.46 87.29 61.64 87.22 61.8 87.13 61.97 87.04 62.11 86.87 62.24 86.93 62.34 87.07 62.7 87.22 62.99 87.32 63.19 87.47 63.42 87.59 63.65 87.7 63.85 87.7 64.12 87.69 64.46 87.57 64.73 87.47 65.02 87.3 65.18 87.15 65.4 87.09 65.66 86.97 66.01 86.88 66.24 86.91 66.53 86.91 66.78 86.88 66.98 86.85 67.26 86.84 67.48 86.79 67.69 86.75 67.91 86.75 68.18 86.72 68.32 86.64 68.5 86.54 68.59 86.45 68.7 86.31 68.83 86.18 69.06 86.15 69.4 86.18 69.58 86.31 69.7 86.51 69.97 86.66 70.17 86.78 70.3 87 70.4 87.12 70.82 87.12 71.16 87.12 71.45 87.12 71.7 87.24 71.98 87.3 72.22 87.3 72.45 87.22 72.58 87.1 72.63 86.98 72.72 86.76 72.72 86.56 72.79 86.43 72.9 86.35 73.08 86.26 73.17 86.14 73.26 86.01 73.28 85.87 73.37 85.72 73.4 85.51 73.37 85.35 73.35 85.12 73.44 84.97 73.57 84.82 73.66 84.69 73.78 84.51 74.03 84.34 74.29 84.31 74.64 84.33 75 84.31 75.18 84.25 75.49 84.31 75.74 84.33 76.01 84.33 76.21 84.27 76.39 84.18 76.55 84.1 76.8 84.1 77.07 84.09 77.43 84 77.57 83.91 77.72 83.79 77.82 83.67 77.9 83.52 77.97 83.34 78 83.19 78.02 82.98 78.02 82.77 78.02 82.62 78.06 82.41 78.22 82.29 78.35 82.14 78.49 82.05 78.47 81.9 78.4 81.75 78.29 81.57 78.35 81.39 78.45 81.33 78.54 81.21 78.62 81.09 78.72 80.97 78.85 80.85 78.87 80.67 78.85 80.55 78.8 80.43 78.71 80.2 78.8 80.14 78.99 80.1 79.25 80.05 79.44 80.01 79.55 80.1 79.77 80.17 79.96 80.22 80.2 80.19 80.43 80.14 80.65 80.05 80.77 79.99 80.95 79.9 81.15 79.92 81.26 80.05 81.44 80.02 81.53 79.93 81.71 79.86 81.94 79.8 82.08 79.89 82.26 79.95 82.41 79.93 82.57 79.84 82.66 79.78 82.71 79.69 82.78 79.6 82.91 79.48 82.98 79.37 83.02 79.21 83.07 79.03 83.07 78.91 83.04 78.72 83.09 78.72 83.25 78.8 83.43 78.86 83.7 78.95 83.93 79.06 84.13 79.03 84.27 78.92 84.49 78.79 84.85 78.62 85.01 78.74 85.1 78.91 85.28 79.07 85.51 79.16 85.85 79.21 86.1 79.18 86.34 79.15 86.46 79.09 86.46 78.91 86.64 78.76 86.77 78.61 86.82 78.37 86.82 78.11 86.9 77.9 87.06 77.72 87.26 77.54 87.54 77.42 87.78 77.24 87.97 77.15 88.14 77.03 88.33 76.91 88.48 76.79 88.6 76.63 88.66 76.49 88.53 76.43 88.44 76.37 88.23 76.34 88.15 76.22 88.08 76.07 87.96 75.95 87.85 75.8 87.71 75.7 87.67 75.53 87.65 75.19 87.58 74.95 87.55 74.71 87.58 74.32 87.64 74.05 87.67 73.81 87.67 73.57 87.71 73.37 87.78 73.19 87.85 73.01 87.93 72.8 88.11 72.56 88.3 72.41 88.52 72.31 88.77 72.31 89 72.34 89.22 72.38 89.49 72.32 89.79 72.32 89.97 72.28 90.08 72.14 90.19 72.02 90.33 71.9 90.53 71.78 90.69 71.66 91.03 71.45 91.28 71.27 91.63 71.09 92 70.93 92.27 70.85 92.49 70.79 92.42 70.67 92.34 70.55 92.26 70.4 92.22 70.21 92.2 69.94 92.15 69.73 92.08 69.41 91.99 69.2 91.86 68.96 91.77 68.72 91.77 68.48 91.79 68.17 91.65 68.11 91.47 68.05 91.5 67.93 91.54 67.69 91.56 67.46 91.58 67.22 91.58 66.97 91.54 66.82 91.36 66.8 91.16 66.74 90.97 66.67 90.97 66.52 90.97 66.23 90.97 66.02 90.99 65.84 91.02 65.66 91.04 65.48 91.08 65.3 91 65.21 90.97 65.03 91.06 64.88 91.15 64.64 91.24 64.4 91.33 64.22 91.29 64.04 91.1 64 90.77 63.87 90.63 63.63 90.54 63.45 90.68 63.27 90.84 63.12 91.04 62.97 91.2 62.73 91.31 62.46 91.37 62.22 91.64 62.16 91.85 62.13 92.1 62.12 92.44 62.06 92.7 62.08 92.87 62.18 93.11 62.24 93.22 62.23 93.38 62.15 93.59 62.05 93.84 61.97 94.08 61.97 94.31 61.96 94.63 61.91 95.1 61.96 95.39 61.96 95.68 61.9 95.89 61.78 96.11 61.69 96.3 61.6 96.34 61.42 96.38 61.3 96.47 61.15 96.57 61.06 96.75 60.97 96.9 60.88 97.01 60.76 97.15 60.67 97.33 60.58 97.44 60.49 97.54 60.38 97.71 60.28 97.89 60.16 98.12 59.98 98.14 59.83 97.99 59.71 97.83 59.54 97.69 59.35 97.56 59.2 97.49 59 97.51 58.84 97.51 58.61 97.42 58.46 97.19 58.36 97.08 58.24 97.06 58.1 96.99 57.92 96.83 57.77 96.63 57.7 96.29 57.64 95.9 57.7 95.59 57.62 95.2 57.49 94.87 57.37 94.48 57.28 94.3 57.28 94.17 57.19 94.1 57 94.03 56.77 93.89 56.65 93.76 56.5 93.71 56.38 93.64 56.19 93.49 55.96 93.29 55.96 93.03 55.96 92.76 55.98 92.76 55.8 92.76 55.65 92.83 55.47 92.97 55.29 93.1 55.21 93.28 55.06 93.33 54.94 93.15 54.88 92.97 54.76 92.83 54.55 92.85 54.4 92.94 54.22 93.08 54 93.24 53.82 93.44 53.52 93.67 53.31 93.85 53.1 93.84 52.95 93.84 52.74 93.78 52.53 93.94 52.35 94.05 52.2 94.18 51.99 94.18 51.61 94.29 51.34 94.34 51.03 94.49 50.76 94.77 50.73 94.99 50.7 95.13 50.58 95.2 50.4 95.33 50.19 95.58 49.8 95.81 49.6 95.99 49.24 96.48 48.82 96.89 48.7 97 48.49 97.41 48.37 98.01 48.31 98.6 48.1 99.1 48.01 99.89 47.83 100.29 47.84 100.79 47.86 101.23 47.84 101.51 48.1 101.91 48.25 102.03 48.62 102.12 49.03 102.1 49.57 102.56 49.65 102.96 49.71 103.41 49.86 103.77 50.09 104.1 50.41 104.39 50.68 104.53 50.93 105.07 50.96 105.54 50.93 106.03 50.97 106.52 50.91 106.77 50.75 107.07 50.69 107.48 50.58 108.05 50.51 108.48 50.39 109.18 50.31 109.65 50.35 110.09 50.39 110.38 50.25 110.52 49.88 110.53 49.53 110.68 49.31 110.81 49.51 111.35 49.8 111.72 49.9 112.03 50.03 112.04 50.22 112.04 50.58 111.98 51.1 111.96 51.7 111.99 52.29 111.98 52.75 112.4 52.85 112.86 52.95 113.51 52.96 114.06 52.8 114.48 52.45 114.72 52.35 114.98 52.88 115 53.3 114.9 53.94 114.87 54.45 114.94 54.9 115.16 55.22 115.7 55.72 115.94 56.1 116.42 56.49 117.14 56.54 117.98 56.49 118.81 56.42 119.37 56.31 119.89 56.17 120.62 55.71 120.89 55.47 121.19 55.08 121.45 54.51 121.87 53.76 122.19 53.46 122.81 52.88 123.31 52.7 124.14 52.8 125.52 52.92 126.22 53.19 127.61 53.66 128.5 53.57 130.24 53.84 131.18 53.8 132.39 53.82 133.54 53.53 133.63 53.34 134.16 52.51 135.12 51.48 135.67 50.5 136.48 49.94 136.74 49.62 137.19 49.1 137.58 48.59 138.19 48.32 138.75 48.01 139.61 47.62 140.28 47.36 140.89 46.88 141 46.4 141.1 45.94 141.2 45.64 141.6 44.8 141.78 44.41 142.25 43.67 142.66 43.59 143.19 43.62 143.63 43.63 143.94 43.71 144.18 44.02 144.39 44.47 144.65 45.08 144.94 45.67 145.34 46.25 145.89 46.85 146.3 46.89 147 46.67 147.45 46.57 147.99 46.53 148.38 46.61 148.71 46.76 149.01 46.82 149.2 46.97 149.31 47 149.68 47.14 150.13 47.4 150.6 47.7 150.99 48.04 151.37 48.21 151.77 48.4 151.53 48.9 151.49 49.37 151.61 49.84 151.94 50.33 152.52 50.85 153.04 51.28 153.84 51.56 154.41 51.95 154.83 52.23 155.14 52.65 155.45 52.95 155.52 53.44 155.56 53.98 155.54 54.25 155.21 54.43 154.91 54.65 154.67 54.92 154.5 55.42 154.38 56.03 154.29 56.56 154.31 56.95 154.67 57.29 155.07 57.58 155.39 57.79 155.57 58.12 155.6 58.42 155.84 58.67 156.29 58.97 156.76 59.23 157.01 59.39 157.35 59.62 157.79 60.03 158.3 60.14 158.87 60.1 159.06 59.73 159.31 59.51 159.63 59.33 160.01 59.22 160.27 59.21 160.55 59.29 160.66 59.53 160.66 59.81 160.78 60.33 160.98 60.72 161.26 61.21 161.75 61.6 161.57 61.81 161.35 62.01 161.14 62.21 160.82 62.32 160.48 62.49 160.22 62.65 160.1 62.93 160.17 63.36 160.33 63.91 160.3 64.36 160 64.79 159.59 65.09 159.2 65.46 159.23 65.82 159.44 66.13 159.55 66.35 159.61 66.63 159.38 66.77 159.2 66.89 158.94 67.21 158.93 67.64 159.34 68.13 159.8 68.61 160.29 68.77 160.56 68.95 160.4 69.16 160.19 69.44 159.98 69.76 159.97 70.22 159.97 70.61 159.63 70.93 159.22 71.23 159.02 71.39 159.44 71.41 159.72 71.47 159.99 71.59 160.18 71.84 160.16 72.16 160.07 72.6 159.86 73.04 159.51 73.53 159.35 74.02 159.37 74.34 159.64 74.56 160.18 74.72 160.46 74.86 161.17 74.45 161.66 74.12 162.04 73.87 162.69 73.46 163.23 73.11 163.98 72.74 164.42 72.74 164.85 72.85 165.31 73.02 165.76 73.15 166.28 73.38 166.69 73.52 167.29 73.75 167.58 73.87 167.99 74.1 168.47 74.21 168.71 74.36 168.99 74.58 169.28 74.83 169.58 74.96 170.09 75.11 170.68 75.18 171.23 75.19 171.68 74.98 171.99 74.72 172.37 74.46 172.66 74.35 172.81 74.76 172.95 75.07 172.98 75.6 173.34 75.66 173.64 75.89 173.91 76.38 174.05 76.96 174.14 77.43 174.32 77.85 174.46 78.05 174.83 78.24 175.04 78.48 175.49 78.79 175.81 78.93 176.42 78.75 176.92 78.69 177.36 78.73 177.52 79.15 177.64 79.39 177.76 79.66 177.81 79.98 177.85 80.25 178.04 80.85 178.28 81.1 178.56 81.2 179 81.24 179.37 81.11 179.87 80.65 180.24 80.6 180.6 80.64 180.83 80.96 181.07 81.28 181.32 81.75 181.33 82.1 181.34 82.45 181.02 83.03 181.43 83.21 181.94 83.44 182.34 83.67 182.56 83.87 182.86 84.13 183.28 84.48 183.59 84.83 183.96 85.21 184.28 85.64 184.63 85.98 185.03 86.19 185.52 86.46 185.89 86.73 186.24 87.15 186.37 87.59 186.48 88.05 186.49 88.56 186.5 89.08 186.53 89.52 186.77 90.08 186.93 90.74 187.15 91.3 187.36 91.69 187.71 92 187.85 92.41 188.11 92.87 188.35 93.27 188.67 93.76 189.09 94.21 189.52 94.58 189.89 94.85 190.42 95.09 190.98 95.3 191.76 95.57 192.24 95.67 192.72 95.78 193.2 95.9 193.63 96.02 194.04 96.14 194.37 96.36 194.69 96.66 194.94 96.99 195.19 97.36 195.37 97.58 195.77 97.93 196 98.15 196.28 98.49 196.59 98.69 196.76 98.9 197.05 99.15 197.48 99.54 198.02 100.05 198.4 100.46 198.79 100.9 199.12 101.25 199.38 101.64 199.7 102.1 199.99 102.6 200.25 103.15 200.45 103.71 200.71 104.24 200.99 104.68 201.27 105.16 201.58 105.76 201.91 106.16 202.34 106.77 202.69 107.11 202.72 107.16 203.17 107.46 203.63 107.74 204.15 107.98 204.85 108.32 205.43 108.65 206.04 108.89 206.47 109.13 206.91 109.22 207.47 109.07 207.97 108.91 208.47 108.82 208.82 108.88 209.3 109.28 209.56 109.62 209.82 109.94 210.12 110.32 210.36 110.7 210.67 110.97 211.12 111.22 211.58 111.35 212.06 111.26 212.64 111.06 213.32 110.97 213.81 111 214.31 111.12 214.77 111.24 215.42 111.42 216.07 111.68 216.68 111.82 217.4 112.1 217.92 112.3 218.23 112.49 218.73 112.78 219.36 113.07 220.03 113.3 220.55 113.36 221.2 113.4 221.79 113.4 222.57 113.43 223.48 113.43 224.35 113.3 224.91 112.93 225.25 112.47 225.49 111.92 225.82 111.4 226.34 110.99 226.73 110.59 227.13 110.13 227.59 109.74 228.15 109.18 228.48 108.89 229.1 108.57 229.58 108.43 230.17 108.37 230.85 108.26 231.44 108.1 231.9 107.97 232.29 107.87 233.08 107.57 233.6 107.27 234.02 106.89 234.17 106.36 234.5 105.38 234.78 104.93 235.06 104.41 235.49 103.99 236.14 103.8 236.75 103.65 237.6 103.65 238.21 103.62 238.67 103.73 239.14 103.81 239.89 104.15 240.74 104.45 241.39 104.75 242.05 104.94 242.92 105.21 243.61 105.49 244.31 105.78 244.83 106.2 245.11 106.61 245.44 106.93 245.69 107.38 246.03 107.76 246.3 108.11 246.5 108.39 246.64 108.63 246.88 108.98 247.03 109.26 246.82 109.39 246.69 109.66 246.6 109.91 246.56 110.24 246.79 110.61 247.19 110.73 247.61 110.86 248.1 111.02 248.62 111.15 249.11 111.08 249.67 110.93 250.23 110.71 250.62 110.51 250.82 110.44 251.17 110.31 251.64 110.6 252.07 110.95 252.73 111.35 253.17 111.71 253.36 112.11 253.48 112.48 253.53 113.02 253.63 113.31 253.72 113.7 253.72 114.14 253.5 114.52 253.43 114.93 253.73 115.18 254.28 115.23 254.8 115.48 255.27 115.8 255.63 115.93 256.2 116.22 256.66 116.37 257.19 116.35 257.76 116.33 257.89 116.65 258.11 117.1 258.47 117.42 259.13 117.55 259.9 117.59 260.21 118 260.4 118.49 260.76 118.66 261.28 118.8 261.56 119.23 261.79 119.84 262.26 120.2 262.89 120.11 263.5 119.91 264.1 119.82 264.58 120.05 265.12 120.37 266.1 120.67 266.94 120.74 267.88 120.86 268.87 121.08 269.76 121.2 270.69 121.27 271.63 121.5 272.57 121.92 273.46 122.59 274.44 122.9 275.52 123.09 276.64 123.28 277.67 123.28 278.75 123.28 279.74 123.47 280.95 123.58 281.89 123.77 282.97 123.96 283.86 124.03 285.08 123.85 286.16 123.55 287.38 123.36 288.55 123.4 289.91 123.66 291.22 124.15 292.72 124.53 294.17 125.02 295.3 125.44 296.65 126.04 298.11 126.46 299.23 126.61 300.5 126.84 301.34 127.18 302.7 127.63 303.87 127.74 304.99 127.78 306.12 127.82 307.01 127.78 307.76 127.52 308.75 127.45 309.73 127.52 310.72 127.49 311.93 127.71 313.01 127.75 314.14 127.87 315.26 127.83 316.34 127.87 317.33 127.87 318.36 127.91 319.43 127.98 320.33 127.91 321.12 127.65 322.01 127.57 322.76 127.5 323.8 127.57 324.64 127.5 325.48 127.39 326.33 127.27 327.13 127.24 328.25 127.31 329.42 127.28 330.22 127.01 330.97 126.56 331.72 126.03 332.29 125.62 333.09 125.32 334.07 125.09 334.96 125.02 335.76 125.06 336.88 124.98 337.78 124.8 338.53 124.42 339.33 124.01 339.84 123.59 340.41 123.1 340.78 122.31 341.07 121.67 341.54 120.92 341.68 120.28 342.01 119.49 342.25 118.74 342.53 117.87 342.91 116.93 343.47 116.51 344.08 115.95 344.74 115.61 345.4 115.35 346.15 114.9 346.76 114.44 347.37 114.07 348.26 113.54 349.16 112.98 350 112.34 350.8 111.74 351.79 111.13 352.59 110.53 353.43 109.89 354.23 109.37 354.79 108.76 354.8 108.12 354.94 107.41 355.18 106.58 355.41 105.86 356.07 106.05 357 106.54 357.85 106.88 358.92 107.41 359.81 108.13 360.66 108.58 361.45 109.07 362.39 109.75 363.14 110.35 364.4 110.96 365.05 111.37 366.08 111.9 367.16 112.32 368.14 112.81 369.08 113.15 370.35 113.52 371.42 113.75 372.22 113.83 373.21 113.86 374.05 114.28 375.13 114.73 376.16 115.19 377.28 115.68 378.4 115.98 379.39 115.98 380.84 115.91 382.06 115.49 383 115.15 383.71 114.82 384.36 114.44 385.3 114.29 386.33 114.03 387.37 113.69 388.49 113.54 389.52 113.2 390.46 113.05 391.59 112.64 392.34 112.22 393.18 111.81 393.98 111.21 394.5 110.76 395.06 110.23 395.77 109.93 396.85 109.59 398.07 109.14 398.91 108.73 399.71 108.31 400.32 107.9 401.03 107.52 401.73 107.15 402.25 106.73 402.72 106.36 403.28 105.83 403.75 105.26 404.41 104.47 404.98 103.91 405.63 103.16 406.34 102.63 406.9 102.14 407.51 101.46 408.17 100.75 408.88 100.07 409.58 99.2 409.82 98.83 410.05 98.45 410.67 97.92 411.37 97.36 412.08 96.83 412.55 96.34 413.2 95.78 413.67 95.25 414.14 94.65 414.61 94.31 414.94 93.86 414.76 93.33 414.81 92.81 415.23 92.43 415.89 91.94 416.4 91.68 416.92 91.3 417.39 90.81 417.67 90.36 418.24 89.95 418.85 89.61 419.41 89.19 420.16 89.08 420.87 88.97 421.62 88.89 422.69 88.97 423.91 88.97 425.22 89.27 426.3 89.5 427.71 89.76 428.97 89.77 430.01 89.73 431.04 89.62 431.93 89.43 433.29 89.05 434.37 88.75 435.54 88.45 436.48 88.12 437.47 87.93 438.45 87.74 439.53 87.4 440.52 87.18 441.45 86.84 442.3 86.61 443.47 86.2 444.6 85.49 445.82 84.88 446.85 84.09 447.93 83.49 448.83 82.74 449.77 81.99 450.52 81.23 451.32 80.52 452.02 79.8 452.59 79.24 453.29 78.71 454.04 78.19 455.08 77.51 456.16 76.87 457.33 76.23 458.32 75.44 459.12 74.76 460.15 74.31 460.95 73.86 461.79 73.56 462.54 73.14 463.3 72.58 464.28 72.02 465.13 71.53 465.64 71.08 466.4 70.7 467.34 70.14 468.04 69.8 468.7 69.38 469.4 68.97 470.29 68.48 471.14 68.14 472.03 67.77 473.02 67.43 474.14 67.24 475.22 67.02 476.54 66.56 477.52 66.15 478.74 65.59 479.92 64.99 480.81 64.65 481.7 64.08 482.55 63.41 482.92 62.24 483.58 61.86 484.71 61.41 486.07 60.77 487.66 60.4 488.65 59.95 489.36 59.49 490.25 59.19 491 58.85 491.7 58.48 492.78 58.29 494.05 58.03 495.55 57.46 497.05 56.41 499.59 55.89 501.79 55.51 504.42 54.87 506.76 54.42 509.72 54.12 511.61 53.7 513.48 52.33 515.17 51.1 516.15 49.97 516.91 49.1 518.68 48.19 519.61 47.72 520.85 46.52 522.36 45.25 523.39 44.57 525.17 43.74 527.14 42.82 528.88 41.67 530.93 40.86 531.89 40.28 532.96 39.63 534.33 38.81 536 37.8 537.54 36.85 538.8 36.08 540.16 35.06 541.36 34.16 542.78 33.1 543.62 32.47 544.6 31.74 545.51 30.76 546.32 29.97 547.49 28.84 549.32 27.71 550.98 27.28 552.25 26.55 554.06 25.91 555.31 24.79 556.78 24.18 557.73 23.4 558.69 22.76 560.24 21.74 561.86 20.94 564.02 19.89 565.85 19.21 566.95 18.13 568.67 17.33 569.89 16.36 570.78 15.75 571.3 14.69 571.64 14.22 571.52 13.12 571.48 12.74 571.41 12.1 571.75 11.56 572.05 11.1 572.4 10.56 572.89 10.2 573.33 9.87 574.22 9.22 574.89 8.73 575.37 8.37 576.26 7.72 576.44 7.37 576.75 6.75 577.39 6.46 578.15 6.12 578.87 5.8 579.73 5.39 580.37 5.15 580.76 5.01 581.08 4.73 581.27 4.19 581.21 3.86 581.31 3.32 581.4 2.86 581.55 2.62 581.85 2.12 582.26 1.55 582.36 1.02 582.63 1 582.97 1.02 584.46 1.33 592.87 5.41 605.98 15.45 618.2 24.62 631.93 36.82 633.48 37.99 634.74 38.5 639.85 42.15 640.95 43.49 640.97 45.32 639.99 46.71 637.37 48.56 635.55 49.53 639.68 59.82 640.53 61.82 641.78 64.75 646.78 73.71 649.13 77.86 649.63 80.39 Z"/>
</g>
</svg>