<?xml version="1.0"?>
<svg xmlns="http://www.w3.org/2000/svg" version="1.2" baseProfile="tiny" width="800" height="442" viewBox="0 0 800 442" stroke-linecap="round" stroke-linejoin="round">
<g id="kashmir_districts">
<path d="M 40.99 196.72 43.74 195.52 51.74 194.92 54.48 195.76 56.63 194.8 59.38 195.04 62.25 197.07 62.96 202.44 65.47 203.75 71.12 203.38 73.34 204.59 75.71 203.94 75.87 207.64 78.25 208.52 80.78 208.15 82.33 209.14 79.64 212.29 78.86 217.1 77.05 216.87 73.11 220.81 71.08 220.93 68.1 218.9 66.78 219.74 61.17 218.78 59.38 219.26 58.66 221.88 54.13 222.96 53.05 221.53 48.4 220.45 44.34 217.83 40.99 214.13 38.61 212.34 36.7 209.72 33.71 209.12 31.2 210.07 28.82 215.08 26.27 218.32 24.06 216.82 20.62 212.25 19.4 207.67 17.34 206.07 16.19 203.55 16.73 201.11 15.13 196.76 14.91 192.08 17.47 190.87 19.14 188.36 20.94 188.36 20.22 192.18 24.76 192.66 27.14 196 30.73 197.67 32.64 197.19 37.89 198.02 40.99 196.72 Z"/>
<path d="M 83.48 308.17 83.39 312.04 92.31 315.36 95.01 317.53 101.96 320.12 104.86 326.03 107.04 328.52 105.79 330.48 111.29 331.73 122.49 337.43 125.91 337.22 128.19 346.96 125.7 350.79 125.5 352.24 132.34 352.35 137.53 355.04 138.25 356.6 138.77 361.36 141.67 364.47 142.5 367.27 141.63 369.64 137.29 371.92 132.48 372.15 129.35 370.09 128.36 366.74 126.22 366.13 104.54 355.98 97.97 353.31 92.4 350.49 89.42 350.41 82.39 347.21 80.1 345.53 74.84 338.36 72.24 336.45 69.34 335.76 65.75 336.37 62.71 337.7 66.54 331.16 64.75 330.32 63.08 327.58 64.16 325.43 67.14 323.52 66.19 320.78 70.96 317.92 69.58 310.7 75.26 305.99 77.17 308.37 79.44 309.45 81.23 307.54 83.48 308.17 Z"/>
<path d="M 71.12 203.38 65.47 203.75 62.96 202.44 62.25 197.07 59.38 195.04 56.63 194.8 54.48 195.76 51.74 194.92 43.74 195.52 40.99 196.72 40.76 193.63 38.7 192.13 34.92 186.43 34.63 183.72 32.28 178.74 32.35 177.31 38.7 179.09 43.97 176.81 44.76 175.32 48.82 172.54 50.53 167.98 48.68 166.2 48.89 161.14 49.66 159.77 53.94 160.66 56.43 159.31 57.47 160.97 62.76 162.21 64.94 160.35 66.8 160.87 72.19 159.31 73.65 160.24 73.75 162.73 75.51 165.53 74.89 168.22 81.74 169.05 82.36 172.26 82.57 181.69 77.48 182.83 77.17 185.22 75.72 187.08 72.92 188.43 73.13 191.33 69.6 191.95 70.22 194.64 68.77 197.86 69.39 199.51 71.78 200.34 73.23 202.62 71.12 203.38 Z"/>
<path d="M 89.11 231.31 82.3 224.15 81.95 221.17 79.92 217.23 78.86 217.1 79.64 212.29 82.33 209.14 80.78 208.15 78.25 208.52 75.87 207.64 75.71 203.94 77.59 204.38 82.36 203.97 84.43 201.07 86.82 202.11 93.04 200.65 105.07 200.86 106.73 202.62 109.32 202.83 108.91 206.04 116.89 205.73 119.59 209.46 119.38 212.16 120.73 213.09 120.1 215.68 120.62 219.2 119.28 220.76 115.54 222.1 111.6 225.42 103.72 228.42 100.92 228.53 98.54 229.77 90.03 229.25 89.11 231.31 Z"/>
<path d="M 69.33 260.08 76.93 257.91 81.71 259.82 86.25 261.07 87.96 263.34 93.76 261.99 102.16 266.24 104.34 269.87 104.34 273.08 106.62 274.33 107.66 277.33 107.76 280.44 106.93 281.99 106.93 285.93 108.8 285.93 107.87 289.87 103.72 297.12 99.47 300.44 95.42 302.61 88.89 303.13 83.48 308.17 81.23 307.54 79.44 309.45 77.17 308.37 75.26 305.99 69.58 310.7 63.08 305.51 56.63 299.54 51.62 295.49 51.62 292.39 49.47 290.96 50.43 285.83 46.37 282.25 41.35 279.03 38.61 279.15 37.05 278.07 35.02 279.15 32.25 279.26 29.79 274.65 29.86 272.44 32.76 270 31.69 267.48 32.08 264.43 28.49 259.24 24.44 255.96 25.13 251.08 27.74 248.84 32.28 253.38 41.35 257.91 45.41 261.73 47.2 262.56 48.52 260.3 48.52 258.15 52.93 259.1 55.32 258.15 61.05 261.13 63.2 261.73 68.1 261.13 69.33 260.08 Z"/>
<path d="M 69.58 310.7 70.96 317.92 66.19 320.78 67.14 323.52 64.16 325.43 63.08 327.58 64.75 330.32 66.54 331.16 62.71 337.7 57.43 339.65 52.01 338.2 47.96 333.47 45.74 332.4 39.1 330.73 35.44 330.19 32.84 328.44 31.47 325.61 31.62 323.25 37.73 320.5 37.73 312.57 34.29 309.44 31.92 308.45 30.7 302.04 28.72 298 29.33 295.86 26.73 294.95 24.98 290.14 25.89 286.71 28.49 282.36 32.25 279.26 35.02 279.15 37.05 278.07 38.61 279.15 41.35 279.03 46.37 282.25 50.43 285.83 49.47 290.96 51.62 292.39 51.62 295.49 56.63 299.54 63.08 305.51 69.58 310.7 Z"/>
<path d="M 35.69 130.17 37.05 132.89 44.34 134.92 47.92 134.8 50.9 136.59 49.83 140.4 46.84 143.75 48.28 145.89 47.44 147.8 48.87 150.43 47.44 153.17 49.61 155.08 48.97 155.79 49.66 159.77 48.89 161.14 48.68 166.2 50.53 167.98 48.82 172.54 44.76 175.32 43.97 176.81 38.7 179.09 32.35 177.31 32.28 178.74 34.63 183.72 34.92 186.43 38.7 192.13 40.76 193.63 40.99 196.72 37.89 198.02 32.64 197.19 30.73 197.67 27.14 196 24.76 192.66 20.22 192.18 20.94 188.36 19.14 188.36 17.47 190.87 14.91 192.08 14.06 187.83 14.06 180.81 14.59 178.07 11.16 171.51 13.14 168.38 10.62 168.3 8.18 165.55 7.87 162.73 6.65 162.05 1.61 156.63 1 155.03 4.05 152.28 5.66 147.32 5.12 142.74 7.18 137.86 6.04 134.96 7.72 133.74 7.8 130.61 10.09 128.48 14.13 128.17 17.87 129.16 19.78 128.93 22.38 126.72 24.75 127.26 29.02 127.1 32 128.17 33.15 129.85 35.69 130.17 Z"/>
<path d="M 190.21 104.02 189.38 107.3 180.77 109.68 177.14 109.47 173.2 110.51 169.88 110.2 163.87 106.16 163.87 104.29 159.93 103.15 157.54 101.18 155.36 100.98 153.29 102.63 143.85 100.56 141.05 101.6 135.35 99.84 128.19 99.73 126.02 100.56 127.26 105.43 125.81 112.79 122.18 112.06 120.31 113.41 120 120.35 115.65 119.83 113.05 120.35 110.77 119.42 107.66 124.6 105.28 124.5 101.13 126.05 98.85 127.92 95.94 125.95 92.52 127.61 91.07 126.05 88.58 129.26 83.5 129.57 81.84 130.3 80.8 132.89 73.34 134.76 67.84 138.9 67.42 143.98 64 146.98 62.03 147.81 56.43 148.54 49.61 155.08 47.44 153.17 48.87 150.43 47.44 147.8 48.28 145.89 46.84 143.75 49.83 140.4 50.9 136.59 47.92 134.8 44.34 134.92 37.05 132.89 35.69 130.17 37.12 127.79 36.2 125.2 41.7 118.64 36.81 116.65 38.11 113.98 39.94 112.68 39.79 110.85 42.23 109.02 45.51 104.29 45.51 102.92 52.23 98.8 59.41 99.26 60.4 96.21 67.05 96.13 68.5 95.44 72.47 96.59 73.38 93.84 77.97 93.31 79.26 89.19 81.55 89.34 85.22 88.12 88.35 85.91 87.51 82.7 91.94 79.5 90.41 73.55 91.63 71.56 95.37 71.03 97.28 68.74 96.83 67.6 93.47 66.07 92.63 64.7 94.08 59.97 95.07 58.82 99.6 57.02 105.14 60.46 107.95 59.66 112.44 60.14 115.09 64.96 117.02 65.76 120.39 64.88 121.84 62.71 124.97 62.15 129.46 63.43 131.31 63.35 138.93 56.7 142.22 52.77 143.83 53.33 144.87 56.54 148.08 56.05 151.13 57.42 152.01 59.74 154.98 61.91 154.5 66.32 158.11 69.85 161.8 71.29 159.24 75.22 158.75 78.11 159.64 79.15 159.32 85.08 163.17 83.16 165.82 83.24 169.51 85.08 172.16 84.6 174.65 88.29 176.65 88.77 177.21 90.86 180.26 90.62 180.58 92.94 183.96 95.03 185.32 99.76 187.09 103.21 190.21 104.02 Z"/>
<path d="M 78.86 217.1 79.92 217.23 81.95 221.17 82.3 224.15 89.11 231.31 83.19 237.13 83.6 239.82 79.25 245.73 82.15 249.15 82.57 256.71 86.25 261.07 81.71 259.82 76.93 257.91 69.33 260.08 68.81 257.79 70.72 257.43 72.27 253.85 77.17 252.3 72.04 247.29 68.81 246.46 66.54 247.17 66.9 241.93 66.07 239.54 58.66 241.45 57.59 239.54 50.54 235.6 47.68 232.14 41.47 232.14 38.01 229.16 31.08 229.4 29.05 230.59 24.64 230.58 27.19 224.6 27.5 220.71 26.27 218.32 28.82 215.08 31.2 210.07 33.71 209.12 36.7 209.72 38.61 212.34 40.99 214.13 44.34 217.83 48.4 220.45 53.05 221.53 54.13 222.96 58.66 221.88 59.38 219.26 61.17 218.78 66.78 219.74 68.1 218.9 71.08 220.93 73.11 220.81 77.05 216.87 78.86 217.1 Z"/>
<path d="M 69.33 260.08 68.1 261.13 63.2 261.73 61.05 261.13 55.32 258.15 52.93 259.1 48.52 258.15 48.52 260.3 47.2 262.56 45.41 261.73 41.35 257.91 32.28 253.38 27.74 248.84 28.34 246.73 28.03 241.24 24.36 235.13 23.75 233.38 24.64 230.58 29.05 230.59 31.08 229.4 38.01 229.16 41.47 232.14 47.68 232.14 50.54 235.6 57.59 239.54 58.66 241.45 66.07 239.54 66.9 241.93 66.54 247.17 68.81 246.46 72.04 247.29 77.17 252.3 72.27 253.85 70.72 257.43 68.81 257.79 69.33 260.08 Z"/>
<path d="M 141.63 369.64 142.5 367.27 141.67 364.47 138.77 361.36 138.25 356.6 137.53 355.04 132.34 352.35 125.5 352.24 125.7 350.79 128.19 346.96 125.91 337.22 122.49 337.43 111.29 331.73 105.79 330.48 107.04 328.52 104.86 326.03 101.96 320.12 95.01 317.53 92.31 315.36 83.39 312.04 83.48 308.17 88.89 303.13 95.42 302.61 99.47 300.44 103.72 297.12 107.87 289.87 108.8 285.93 106.93 285.93 106.93 281.99 107.76 280.44 107.66 277.33 106.62 274.33 104.34 273.08 104.34 269.87 102.16 266.24 93.76 261.99 87.96 263.34 86.25 261.07 82.57 256.71 82.15 249.15 79.25 245.73 83.6 239.82 83.19 237.13 89.11 231.31 90.03 229.25 98.54 229.77 100.92 228.53 103.72 228.42 111.6 225.42 115.54 222.1 119.28 220.76 120.62 219.2 120.1 215.68 120.73 213.09 119.38 212.16 119.59 209.46 116.89 205.73 108.91 206.04 109.32 202.83 106.73 202.62 105.07 200.86 93.04 200.65 86.82 202.11 84.43 201.07 82.36 203.97 77.59 204.38 75.71 203.94 73.34 204.59 71.12 203.38 73.23 202.62 71.78 200.34 69.39 199.51 68.77 197.86 70.22 194.64 69.6 191.95 73.13 191.33 72.92 188.43 75.72 187.08 77.17 185.22 77.48 182.83 82.57 181.69 82.36 172.26 81.74 169.05 74.89 168.22 75.51 165.53 73.75 162.73 73.65 160.24 72.19 159.31 66.8 160.87 64.94 160.35 62.76 162.21 57.47 160.97 56.43 159.31 53.94 160.66 49.66 159.77 48.97 155.79 49.61 155.08 56.43 148.54 62.03 147.81 64 146.98 67.42 143.98 67.84 138.9 73.34 134.76 80.8 132.89 81.84 130.3 83.5 129.57 88.58 129.26 91.07 126.05 92.52 127.61 95.94 125.95 98.85 127.92 101.13 126.05 105.28 124.5 107.66 124.6 110.77 119.42 113.05 120.35 115.65 119.83 120 120.35 120.31 113.41 122.18 112.06 125.81 112.79 127.26 105.43 126.02 100.56 128.19 99.73 135.35 99.84 141.05 101.6 143.85 100.56 153.29 102.63 155.36 100.98 157.54 101.18 159.93 103.15 163.87 104.29 163.87 106.16 169.88 110.2 173.2 110.51 177.14 109.47 180.77 109.68 189.38 107.3 190.21 104.02 193.32 105.12 199.02 111.23 203.17 117.45 208.46 118.07 210.95 120.46 214.58 120.35 219.24 122.53 224.22 122.53 227.75 117.87 231.9 116.93 234.07 114.14 236.35 112.58 244.44 115.38 245.89 117.66 246.21 120.04 250.46 119.42 253.05 121.28 253.05 124.19 257.41 125.84 261.45 129.26 265.81 129.78 275.45 132.58 279.18 132.48 282.71 133.41 286.44 132.68 289.45 132.89 292.87 134.55 301.37 136.62 305.63 137.14 317.86 137.03 329.06 136.72 331.45 134.55 337.36 134.13 339.43 132.58 340.99 128.23 342.44 126.15 350.63 120.15 353.23 118.8 354.88 115.48 358.1 116.93 363.18 120.15 377.49 124.91 379.98 124.6 386.51 122.63 390.45 122.01 393.67 119.94 400.1 117.04 404.76 112.58 409.12 107.81 412.85 104.81 413.89 102.01 419.49 98.28 421.77 97.97 424.47 99.01 428.93 99.21 433.39 97.76 438.78 96.73 443.55 95.07 447.07 93.1 452.99 87.51 462.94 82.22 465.43 79.84 470.3 77.46 480.78 73.52 483.16 70.72 491.87 67.61 494.78 66.06 503.9 63.88 510.75 63.05 514.48 59.53 518.83 56.21 529.72 50.1 532.63 48.03 538.12 45.13 543.1 41.19 546.42 37.77 554.71 34.14 559.17 30.72 569.54 25.13 570.58 23.78 570.17 20.98 575.77 16.11 579.6 14.04 580.67 10.47 582.11 9.37 585.5 9.18 587.11 5.7 589.49 3.88 594.86 4.67 597.47 1 602.89 5.18 604.76 4.11 608.61 7.79 610.8 8.23 611.14 4.7 612.36 4.49 615.72 6.38 618.82 5.11 623.62 4.65 626.22 7.63 627.86 6.96 628.81 4.7 635.9 3.92 640.63 4.56 637.64 7.99 636.71 12 632.78 14.21 629.58 17.23 628.54 19.13 624.05 21.61 625.11 28.44 624.17 37.63 624.55 40.16 629.24 44.72 630.36 46.65 630.69 55.51 632.86 57.49 639.08 56.36 641.72 58.72 642.62 61.59 638.85 65.98 643.94 72.16 649.14 73.94 649.83 76.65 646.85 79.44 646.98 80.99 649.54 82.44 650.77 85.91 654.36 86.79 653.5 101.09 650.39 104.94 651.06 108.97 657.4 110.02 659.55 112.74 659.66 114.48 658.14 117.95 658.55 120.1 660.22 121.75 669.01 124.34 675.92 124.16 680.04 125.69 680.89 131.82 683.62 131.56 684.63 129.47 688.88 127.79 695.58 128.26 697.73 130.19 698.4 136.58 700.89 137.61 703.53 134.64 705.75 133.44 709.76 133.25 718.01 135.37 718.91 138.05 724.77 140.84 724.54 142.68 722.65 144.49 724.9 146.15 728.25 146.3 731.64 147.39 735.62 149.87 740.03 151.44 740.5 155.18 742.88 157.77 745.38 157.45 749.51 154.54 751.82 153.68 753.94 157 759.58 159.83 762.7 160.69 763.57 162.18 760.02 163.55 755.17 162.83 754.21 163.56 754.16 167.25 751.74 174.66 749.45 177.15 747.85 181.43 747.4 184.78 745.26 186.49 739.38 184.04 738.03 186.66 736.02 187.06 734.3 188.86 730.65 187.31 723.64 193.31 717.19 193.64 714.87 194.77 711.69 194.08 712.24 196.95 710.53 198.97 710.98 201.71 713.45 202.78 717.11 203.19 722.06 206.08 723.02 208.21 721.51 216.6 725.31 218.03 725.74 220.25 724.5 222.35 725.99 227.57 724.7 234.02 726.02 238.25 727.79 241.49 716.51 249.05 714.88 250.65 714.85 252.44 718.64 256.7 723.83 256.77 724.59 257.49 722.23 262.69 722.54 266.08 726.53 270.67 732.65 275.78 732.77 278.18 734.92 280.39 736.75 283.87 743.43 285.05 747.71 288.51 750.63 289.94 752.33 294.43 754.38 296.69 760.4 297.09 762.44 299.05 762.97 304.52 768.68 307.64 767.11 309.93 772.11 313.71 775.42 314.26 778.62 316.6 779.23 318.34 777.03 321.3 776.27 323.95 776.64 327.15 779.96 339.55 782.16 342.62 783.6 342.67 785.79 345.07 789.62 346.48 791.6 349.25 788.82 354.41 789.22 358.07 788.31 369.87 793.03 369.54 795.22 372.65 798.21 378.3 796.2 379.47 796.33 382.29 794.26 384.15 795.89 387.84 797.82 389.66 799 393.55 794.17 399.97 794.62 402.35 790.49 406.35 788.04 405.55 786.73 407.2 783.15 406.63 781.71 409.13 779.08 409.78 775.7 411.96 773.85 414.98 774.22 419.51 771.48 422.58 771.61 425.08 769.8 425.72 766.55 424.27 758.2 425.02 756.26 426.25 753.41 430.83 750.36 428.61 745.11 425.82 744.34 423.48 739.64 420.65 736.6 420.39 731.8 416.74 729.77 412.61 728 410.79 727.85 407.79 725.02 399.57 727.85 395.21 727.86 393.6 722.6 387.25 723.31 383.26 722.5 380.7 719.94 381.12 718.43 383.01 715.01 383.84 713.48 386.77 709.77 388.18 707.16 390.59 705.03 390.87 701.06 390.14 700.67 392.23 697.62 392.42 695.91 393.78 692.36 393.84 689.82 397.26 687.5 398.24 684.95 397.95 679.65 399.31 675.7 404.08 676.5 405.69 673.87 408.2 672.71 410.67 669.75 412.13 667.91 416.03 665.47 417.04 661.34 414.16 660.59 412.32 662.43 407.3 663.14 402.05 666.11 398.67 677.44 393.42 675.68 391.85 674.44 389.19 674.74 386.53 676.88 382.03 675.45 376.44 672.67 375.28 665.4 376.78 662.17 381.2 657.21 382.18 654.51 385.7 652.15 387.05 649.56 386.83 645.96 384.46 644.16 384.01 641.46 385.7 641.53 389.52 639.13 390.2 637.29 388.51 635.26 389.75 628.92 389.86 624.61 392.71 621.87 391.7 618.72 387.54 615.26 384.61 612.11 383 611.47 381.76 612.86 379.18 612.22 375.24 610.16 374.83 607.76 370.22 602.39 365.12 599.62 360.81 595.68 356.76 594.82 351.06 593.01 345.51 591.72 343.76 588.29 343.82 586.07 344.95 581.31 350.08 574.85 355.75 570.84 356.87 560.78 356.46 558.27 357.21 553.28 362.72 549.34 364.93 543 363.47 533.95 364.18 525.25 362.64 515.16 359.16 502.96 354.21 489.19 346.26 484.95 343.3 483.22 340.9 480.52 333.63 472.79 331.45 467.5 328.41 465.59 325.53 463.68 321.22 458.5 319.64 454.48 319.72 448.89 321.74 444.91 322.72 441.31 321.59 437.14 318.63 428.44 317.92 417.82 317.99 414.15 319.27 408.48 323.09 403.41 325.83 394.56 334.45 388.41 338.5 387.09 339.96 383.79 340.9 377.48 341.01 374.26 342.14 366.57 347.31 360.67 350.83 354.45 355.93 352.04 357.13 349.08 357.32 340.08 353.83 336.06 354.02 333.1 355.18 330.62 358.93 331.22 361.29 339.44 367.93 341.91 371.19 345.21 376.78 345.03 378.84 341.46 383.19 341.5 385.18 343.6 390.05 342.7 393.46 337.56 395.79 335.61 397.92 334.62 400.51 334.89 402.91 330.81 406.34 328.93 409.36 322.45 412.4 316.31 414.87 316.29 417.15 314.48 419.37 309.91 422.56 303.67 422.41 297.78 424.24 293.58 426.84 289.47 430.45 289.46 436.5 288.86 438.64 286.46 440.55 284.39 441 281.65 438.56 282.1 436.01 284.88 432.64 283.87 430.05 280.08 430.13 277.11 431.33 272.16 432.34 263.2 431.63 256.16 427.88 254.6 426.02 247.86 422.18 244.13 421.46 242.89 418.87 237.39 420.22 234.49 418.97 233.66 416.28 230.03 412.24 227.12 410.79 222.66 409.54 215.41 415.76 211.26 414.62 209.18 413.17 202.65 413.07 202.03 411.41 197.88 409.54 193.42 409.44 190.62 410.79 185.85 411.41 176.83 411.1 174.55 409.44 174.55 404.36 169.88 399.49 169.26 394.62 173.41 386.23 170.61 382.71 170.19 379.7 171.85 374.21 175.27 369.65 176.52 367.16 176.62 363.43 173.51 363.23 169.78 364.16 168.74 366.75 169.05 369.13 167.5 371.72 165.01 374 154.95 375.25 151.84 375.35 147.38 371.41 144.43 369.55 141.63 369.64 Z"/>
</g>
</svg>