<?xml version="1.0"?>
<svg xmlns="http://www.w3.org/2000/svg" version="1.2" baseProfile="tiny" width="800" height="931" viewBox="0 0 800 931" stroke-linecap="round" stroke-linejoin="round">
<g id="KPK">
<path d="M 724.75 3.42 724.53 3.93 724.44 4.54 724.38 4.92 724.23 5.41 724.18 5.81 724.54 6.18 724.88 6.54 725.4 6.92 725.97 7.26 726.64 7.61 727.48 8.07 728.3 8.9 728.78 9.29 729.33 9.54 729.82 9.81 730.3 10.12 730.77 10.38 730.71 10.88 730.73 11.43 730.63 12.3 730.66 12.91 730.57 13.14 730.65 13.74 731.27 14.06 732 14.07 732.97 13.89 733.65 14.04 734.08 14.35 734.76 14.67 735.46 14.98 735.79 15.4 736.54 15.3 737.03 15.31 737.46 15.52 737.88 16.21 738.12 16.55 738.45 17.02 739.41 17.21 740.37 17.29 741.05 17.08 741.64 17.06 742.8 16.89 743.7 16.8 744.56 16.77 745.12 17.12 744.98 17.72 744.84 18.37 745 19.01 745.15 19.61 745.89 20.06 746.6 20.35 747.23 20.6 748 21.01 748.56 21.23 749.21 21.26 750.23 20.98 750.62 20.85 751.12 20.69 752.2 20.38 752.79 20.36 753.58 20.96 753.89 21.53 754.28 22.23 754.64 22.72 755.01 23.29 755.58 23.98 756 24.31 756.5 24.64 756.8 24.79 757.08 24.92 757.54 25.29 758.02 25.87 758.33 26.22 758.57 26.48 758.7 26.64 758.97 26.95 759.26 27.26 759.7 27.69 759.95 28.46 759.98 29.46 759.9 30.13 759.81 30.55 759.93 30.97 759.84 31.42 759.51 31.72 759.05 31.97 758.41 32.4 758.42 33.17 758.72 33.93 759.06 34.49 759 34.97 758.8 35.36 758.53 35.64 757.87 35.72 756.99 35.69 756.2 35.48 755.31 35.32 754.25 35.1 753.73 34.95 753.19 34.78 752.61 34.6 752.09 34.42 751.51 34.23 750.91 34.04 750.39 33.88 749.9 33.72 749.4 33.51 748.95 33.37 748.28 33.18 747.54 32.92 746.94 32.91 746.45 32.83 745.99 32.71 745.33 32.64 744.62 32.64 744.07 32.81 743.52 33.01 743.05 33.37 742.38 33.81 742.26 34.42 742.11 35.07 741.64 35.12 740.81 35.09 739.95 34.8 739.32 34.65 738.85 34.59 738.22 34.43 737.4 34.35 736.81 34.27 736.26 34.27 735.53 34.02 735 33.81 734.38 33.59 733.78 33.56 732.7 33.42 732.19 33.48 731.62 33.75 731.19 33.95 730.79 34.29 730.26 34.71 729.75 35.04 729.33 35.42 728.96 35.88 728.78 36.29 728.55 36.79 728.33 37.22 727.82 37.75 727.15 37.76 726.45 37.78 725.66 37.71 725.21 37.6 724.78 37.45 723.89 37.22 723.38 37.13 722.83 37.13 722.22 37.12 721.39 36.96 720.65 36.65 720.14 36.17 719.49 36.06 718.93 36.4 718.27 36.85 717.44 37.23 716.69 37.35 716.01 36.96 715.5 36.6 714.97 36.55 714.39 36.61 713.58 36.76 712.55 36.85 712.31 36.46 711.8 35.61 711.73 34.95 711.67 34.37 711.5 33.77 711.41 33.3 711.13 32.67 710.98 31.99 710.28 32.09 709.63 32.38 708.87 32.76 708.43 33.01 707.77 33.48 706.95 34 706.48 33.6 705.95 33.03 705.14 33.37 704.52 33.55 703.68 33.84 703.19 33.94 702.61 33.98 701.77 33.92 701.49 33.82 701.16 33.09 700.51 32.23 700.01 32.01 699.24 32.28 698.75 32.78 698.36 33.18 697.83 33.46 697.36 33.5 696.9 33.25 696.1 32.92 695.48 32.58 695.06 32.3 694.54 31.82 694.23 31.63 693.75 31.38 693.24 31 692.94 30.66 692.29 30.37 691.73 30.67 690.93 31.01 690.34 31.1 689.58 30.95 688.83 30.87 688.07 30.64 687.45 30.48 686.7 30.12 686.43 29.62 686.08 29.03 685.55 28.81 684.82 28.75 684.39 28.93 683.83 29.27 683.32 29.92 682.79 30.32 681.82 30.18 681.37 30.47 680.79 30.8 680.23 30.82 679.68 30.82 679.27 30.64 678.5 30.53 677.76 30.58 676.96 30.56 676.38 30.7 675.67 30.42 674.8 30.24 673.94 29.95 673.49 30.14 673.67 30.64 673.7 31.18 673.43 31.78 673.16 32.59 672.98 33.04 672.46 33.23 671.7 33.31 670.5 33.32 669.62 33.44 668.72 33.52 668.2 33.44 667.64 33.61 667.17 34.05 666.7 34.79 666.31 34.97 665.54 35.12 664.62 35.21 664.09 35.28 663.17 35.07 661.86 34.78 661.4 34.77 660.37 34.85 659.8 34.97 659.08 35.04 658.2 35.06 657.63 35.03 656.98 34.62 656.13 34.08 655.73 34.31 655.51 34.79 655 35.33 654.24 35.74 653.59 36.07 652.88 36.33 651.96 36.46 651.15 36.54 649.99 36.51 649.19 36.44 648.4 36.04 647.78 35.49 647.67 34.98 647.83 34.59 647.72 34.17 647.17 33.87 646.71 33.6 646.34 33.28 646.13 32.83 645.75 32.46 645.42 32.79 645.13 33.27 644.75 33.67 643.99 34.12 642.97 34.58 642 34.96 641.21 35.28 640.58 35.54 640.06 35.68 639.39 35.94 638.72 36.24 638.14 36.57 637.57 36.94 636.86 37.21 636.45 37.57 636.21 38.12 635.91 38.52 635.2 38.5 634.32 38.42 633.79 38.4 633.1 38.63 632.3 38.74 631.5 38.35 630.87 38.04 629.95 37.44 629.5 37.11 629.16 36.6 628.68 36.31 628.25 36.18 628.27 36.51 628.3 37.16 628.39 37.68 628.44 38.16 628.59 38.76 628.75 39.36 629.02 40.03 629.38 40.66 629.83 41.16 630.01 41.85 629.86 42.92 629.81 43.51 629.75 44.1 629.77 45.08 629.82 45.73 629.82 46.3 629.74 46.72 629.58 47.14 629.48 47.45 629.72 47.93 630.12 48.31 630.59 48.53 631.11 48.81 631.62 49.17 632 49.43 632.4 49.7 632.82 50.01 632.83 50.57 632.89 51.05 632.96 51.56 632.61 51.84 632.36 52.29 631.87 52.78 631.72 53.02 631.51 53.34 631.05 53.67 630.7 53.93 630.26 54.26 630 54.67 629.99 55.07 629.97 55.6 630.09 56.13 630.03 56.44 629.95 56.82 629.58 57.18 629.09 57.67 628.48 57.97 627.96 58.16 627.52 58.42 627.07 58.78 626.55 59.1 626.2 59.54 626.09 59.92 625.97 60.38 625.93 60.85 625.88 61.43 626.05 62.07 625.91 62.75 625.4 63.05 625.07 63.26 624.62 63.43 623.98 63.55 623.46 63.73 622.93 63.85 622.52 64.01 622.03 64.1 621.14 64.31 620.39 64.52 619.62 64.79 618.73 65.1 618.22 65.41 617.69 65.68 617.18 66.02 615.98 66.18 615.31 66.24 614.43 66.25 613.92 66.27 614.11 66.76 614.35 67.05 614.48 67.47 614.76 67.93 615.12 68.39 614.92 68.57 614.53 68.69 614.11 68.92 613.81 69.17 613.45 69.47 613.26 69.85 613.16 70.23 613.24 70.73 613.36 71.25 613.63 71.72 613.84 72.15 614.01 72.39 614.44 72.34 614.8 72.29 615.14 72.42 615.41 72.7 615.5 73.04 615.4 73.37 615.17 73.7 614.98 74 614.81 74.28 614.54 74.62 614.14 75.13 613.74 75.33 613.48 75.52 613.03 75.41 612.69 75.3 612.26 75.14 611.59 75.08 610.92 75.06 610.35 74.84 609.9 74.63 609.49 74.32 609.12 74.08 608.54 74.18 608.13 74.24 607.73 74.5 607.44 74.67 607.15 74.9 606.83 75.17 606.3 75.55 605.74 75.81 605.19 75.99 604.52 75.88 604.08 75.7 603.71 75.51 603.35 75.35 602.99 75.15 602.69 74.97 602.39 74.78 602.11 74.59 601.93 74.66 601.79 74.92 601.65 75.17 601.21 75.73 600.69 76.19 600.25 76.55 599.67 76.88 599.32 77.21 598.81 77.54 598.23 77.89 597.47 78.07 596.89 78.16 596.3 78.24 595.49 78.28 594.79 78.4 594.61 78.75 594.73 79.13 595.12 79.57 595.47 79.91 595.93 80.37 596.37 80.73 596.79 81.09 597.2 81.4 597.34 81.72 597.14 82.03 596.9 82.28 596.63 82.6 596.53 83.08 596.62 83.77 596.8 84.56 596.92 84.95 597.05 85.41 597.06 86 596.92 86.28 596.75 86.46 596.63 86.81 596.43 87.17 596.19 87.38 595.84 87.76 595.55 88.01 595.2 88.4 594.81 88.6 594.43 88.77 594.19 89.03 594.01 89.28 593.95 89.54 593.88 89.69 593.67 89.84 593.34 89.9 593.08 89.91 592.73 89.78 592.42 89.7 592.02 89.72 591.42 89.84 591.18 89.93 590.83 90.05 590.54 90.26 590.26 90.45 589.78 90.54 589.16 90.69 588.63 90.85 588.12 91.22 587.58 91.55 586.84 92.09 586.44 92.53 586.1 92.86 586.05 93.14 585.97 93.58 585.87 93.89 585.76 94.25 585.89 94.97 585.87 95.36 585.65 95.44 585.32 95.88 584.64 96.12 584.04 96.23 583.54 96.34 583.28 96.44 583.03 96.63 582.8 96.93 582.35 97.28 581.97 97.59 581.2 97.89 580.61 98.21 580.26 98.55 580.02 99.01 579.67 99.41 579.26 99.73 578.99 100.04 578.68 100.45 578.5 100.9 578.31 101.09 578.08 101.06 577.74 100.77 577.42 100.57 576.78 100.48 576.08 100.48 575.59 100.49 575.16 100.53 574.69 100.61 574.11 100.76 573.68 101.05 573.43 101.41 573.28 101.52 573.02 101.9 572.76 102.29 572.53 102.63 572.34 102.97 571.93 103.16 571.46 103.24 571.3 103.98 571.15 104.5 570.46 104.82 569.96 104.89 569.25 104.89 568.49 104.96 567.7 104.95 567.18 105.15 566.52 105.39 565.98 105.72 565.35 106.15 564.95 106.42 564.6 106.68 564.98 107.05 565.43 107.52 565.98 108.2 566.19 108.38 566.36 108.59 566.42 109 566.36 109.24 566.21 109.58 565.84 109.66 565.51 109.57 565.26 109.18 564.93 108.58 564.35 108.07 563.87 107.76 563.28 107.51 562.65 107.41 562.07 107.29 561.57 107.26 560.92 107.26 559.97 107.1 559.07 106.89 558.15 106.48 557.57 106.09 556.8 105.67 556.01 105.4 555.23 105.34 554.54 105.45 554.07 105.75 553.65 106.33 553.37 106.53 553.11 106.72 552.5 106.81 551.96 106.84 551.25 107.12 550.78 107.53 550.21 107.6 549.69 108.01 549.52 108.35 549.28 108.81 549.2 109.33 548.9 109.74 548.69 110.14 548.42 110.63 548.37 111.14 548.28 111.66 548.29 112.26 548.32 112.63 548.37 113.05 548.1 113.43 547.72 113.76 547.43 114.06 546.75 114.38 546.31 114.62 545.79 114.78 545.14 114.99 544.58 115.38 544.15 115.8 544.05 116.1 544.25 116.35 544.47 116.57 544.72 117 544.82 117.21 544.87 117.43 544.78 117.62 544.52 117.62 544.11 117.66 543.95 117.88 543.99 118.31 544.06 118.57 543.89 118.84 543.64 119.23 543.27 119.65 543.07 120.01 542.59 120.48 542.33 120.81 542.4 121.13 543.19 121.7 544.25 122.16 544.77 122.72 544.85 123.21 544.8 124.02 544.68 124.56 544.88 124.95 545.13 125.14 545.64 125.43 546.02 125.74 546.36 126.05 546.35 126.41 545.96 126.83 545.53 127.16 545.04 127.46 544.62 127.7 544.13 127.98 543.62 128.23 542.99 128.43 542.68 128.73 542.42 129.14 542.28 129.58 541.97 129.99 541.82 130.41 541.47 130.92 540.91 131.76 540.28 132.46 539.97 133.17 539.79 133.54 539.95 134.21 539.81 134.64 539.83 135.21 539.76 135.76 539.61 136.44 539.56 137.2 539.48 137.66 539.44 138.2 539.66 138.55 540.12 138.92 540.64 139.3 541.2 139.85 541.61 140.41 541.86 140.8 542.21 141.16 542.92 141.56 543.84 141.55 544.37 141.53 545.09 141.52 546.06 141.5 546.59 141.46 547.29 141.69 547.69 142.2 548.28 142.73 549 143.15 549.39 143.6 549.79 144.26 550.09 144.88 550.04 145.43 549.92 145.96 549.54 146.47 549.31 146.82 548.73 147.11 548.28 147.36 547.9 147.62 547.47 148.21 547.39 148.63 547.36 149.15 547.1 149.74 547.05 150.13 547.07 150.51 546.78 150.85 546.45 151.04 546.18 151.14 545.79 151.3 545.21 151.42 544.67 151.22 544.11 150.92 543.64 150.7 543.6 151.24 543.73 152.16 544.01 152.83 544.1 153.37 543.86 154.17 543.38 154.56 542.98 155.11 542.96 155.41 542.86 155.8 542.96 156.46 542.95 156.93 542.61 157.24 541.86 157.26 541.24 157.4 540.58 157.83 539.93 158.16 539.5 158.54 539.57 159.07 539.66 159.41 539.7 159.69 539.78 160.06 539.81 160.4 539.76 160.8 539.77 161.22 539.8 161.86 539.89 162.52 540.11 163.24 540.36 163.91 540.82 164.18 541.42 164.37 542.2 164.47 542.83 164.56 543.23 164.67 543.43 165.17 543.58 165.62 543.74 165.88 544.26 165.97 545.13 165.88 545.78 165.51 546.73 165.23 547.19 165.43 547.26 166 547.59 166.5 547.84 166.98 548.32 167.16 548.65 167.52 549.01 167.81 549.33 168.32 549.23 168.54 549.36 169.13 549.83 170.04 550.3 170.55 550.56 171.08 550.87 171.28 551.44 171.46 552.02 171.27 553.31 171.03 553.87 170.98 554.54 171.02 555.29 171.43 555.78 172.01 556.22 172.11 556.62 172 557.31 171.88 557.92 171.83 558.17 171.93 558.53 172.27 558.91 172.73 559.43 173.24 559.78 173.68 560.06 173.96 560.49 174.43 561.16 175.07 562.09 175.68 562.65 175.99 563.32 176.38 564.03 176.59 564.63 176.75 564.96 176.95 565.38 177.32 566.18 177.67 566.62 177.69 567.09 177.46 567.51 177.17 567.81 176.92 568.58 176.4 569.53 175.78 570.35 175.15 570.9 174.21 571.45 173.62 571.94 173.17 572.54 172.6 573.1 172.42 573.56 172.38 574.04 172.59 574.35 172.88 574.63 173.38 574.85 173.62 575.49 173.62 576.21 173.9 576.55 174.07 576.69 174.21 576.99 174.43 577.27 174.82 577.67 175.18 578.12 175.44 578.59 175.71 579.07 176.07 579.35 176.04 579.75 175.68 580.2 175.34 580.66 174.89 581.02 174.59 581.24 174.34 581.64 174.12 582.4 174.24 583.1 174.37 583.47 174.17 583.34 173.24 583.24 172.25 583.43 171.72 583.98 171.5 584.59 171.47 585.51 171.58 586.37 171.71 586.98 171.81 587.04 170.49 587.33 169.4 587.57 168.36 587.69 167.71 588.49 168.33 589.26 168.9 590.21 169.56 590.72 169.85 591.27 169.87 592.73 169.8 593.71 169.76 594.74 169.53 595.71 169.39 596.98 169.26 597.7 169.03 599.06 169.13 599.84 169.36 600.11 169.69 600.12 170.45 599.97 171.65 599.92 172.44 599.87 173.02 599.93 173.83 600.29 174.4 601.25 174.63 602.06 174.78 603.18 174.86 604.46 174.91 605.79 174.8 606.92 174.76 607.97 174.4 609.03 174 609.77 173.91 610.65 173.86 611.4 173.65 612.27 173.18 612.79 172.82 613.49 172.35 614.6 171.95 615.05 171.81 615.69 171.75 616.43 171.62 616.82 172.01 617.19 172.46 617.63 173.06 617.9 173.69 618.25 174.29 618.58 174.99 619.41 175.15 620.39 175.19 621.35 174.7 622.01 174.29 622.47 174.03 623.05 174.11 623.69 173.99 624.29 173.61 624.46 173.21 624.5 172.42 625.01 172.08 626 172.07 627.02 172.45 627.98 172.42 628.49 172.04 629.08 171.3 629.74 170.53 630.35 170.18 630.8 170.24 631.17 170.42 631.66 170.7 632.13 171.16 632.69 171.61 632.91 172.1 633.11 172.4 633.45 172.59 633.83 172.63 634.32 172.99 634.84 173.44 635.35 173.94 635.66 174.3 636.18 174.53 636.65 174.72 637.13 174.83 637.5 174.94 637.91 175.13 638.55 175.24 639.23 175.32 639.94 175.32 640.66 175.24 641.23 175.13 641.88 174.77 642.35 174.33 642.9 173.76 643.28 173.25 643.6 172.78 643.97 172.46 644.35 172.41 644.77 172.57 645.24 172.96 645.51 173.56 645.85 174.18 645.86 174.19 646.38 174.91 646.85 175.54 647.8 176.72 648.21 177.4 648.88 178.22 648.93 179.01 648.44 179.39 648.08 180.04 647.96 180.57 648.12 181.45 648.47 181.9 648.37 182.66 648.5 183.31 648.52 183.82 648.39 184.18 647.97 184.49 647.39 184.69 646.45 185.06 644.68 185.96 643.52 186.78 642.95 187.69 642.43 188.07 641.57 188.27 640.41 188.21 638.79 188.01 637.22 187.79 636.92 187.89 636.3 188.07 635.73 188.26 635.45 188.32 635.12 188.43 634.52 188.58 634.27 189 634.05 189.74 633.99 190.67 634.27 191.22 634.54 192.12 634.94 192.76 635.59 193.39 636.18 194.43 636.45 194.86 637.07 195.45 637.68 195.68 638.32 195.53 638.81 195.48 638.92 195.64 639.24 195.68 639.49 195.76 639.71 195.94 639.96 196.11 640.24 196.34 640.38 196.49 640.78 197.04 641.27 197.62 641.77 197.91 642.41 198.08 643.15 198.29 643.58 198.64 643.95 198.89 644.55 199.25 645.07 199.59 645.56 200.02 646.09 200.68 646.67 201.13 647.26 201.58 647.81 202.15 648.31 202.67 649.19 202.89 649.91 203.13 650.56 203.06 651.91 203.22 652.97 203.22 653.53 203.33 654.04 204.14 654.65 204.66 655.66 204.73 656.31 204.29 656.94 204 657.78 203.9 658.46 203.74 659.15 203.54 659.93 203.44 660.6 203.46 661.65 203.22 662.28 202.98 662.99 203.23 663.42 203.57 663.67 203.97 664.14 204.2 665.02 204.46 665.83 204.76 666.54 204.91 666.98 204.94 667.57 204.75 668.25 204.59 668.69 204.43 669.25 204.31 669.64 204.47 670.08 204.85 670.16 205.31 670.06 206.05 670.06 206.58 670.46 207.32 670.59 207.92 671.79 208.38 672.1 208.9 672.29 209.45 672.59 209.97 672.78 210.52 672.97 211.61 673.39 212.4 673.94 213.52 674.29 213.83 674.64 214.25 675.18 214.68 675.5 214.86 675.79 215.04 676.51 215.28 677.1 215.42 677.78 215.64 678.37 215.89 679.05 216.03 679.77 216.32 680.27 216.46 680.62 216.81 680.73 217.18 680.5 217.89 680.51 218.49 680.62 219.06 680.67 219.63 680.72 220.43 680.83 220.91 681.01 221.65 680.98 222.1 680.83 223 680.81 223.55 680.76 224.24 680.91 224.74 681.31 225.14 681.83 225.61 682.08 226.11 682.51 226.58 683.29 226.71 683.96 226.25 684.72 226.01 685.23 225.96 685.82 226.02 686.62 225.83 687.46 225.71 688.39 225.47 689.15 225.25 689.95 225.02 690.74 224.94 691.44 224.93 692.15 224.62 692.83 224.09 693.26 223.84 693.91 223.75 694.56 223.78 694.96 224.06 695.48 224.57 696.05 225.01 696.73 225.16 697.74 225.27 698.63 225.05 699.44 224.78 700.26 224.21 700.8 223.63 701.15 223.26 701.79 223.33 702.51 223.62 703.18 223.95 703.82 224.24 704.29 224.68 704.83 225.21 705.3 225.39 705.74 225.42 706.06 225.28 706.74 224.96 707.29 224.63 708.06 224.23 708.81 224.11 709.7 223.96 710.66 223.87 711.54 223.77 712.43 223.62 713.43 223.3 714.53 222.82 715.22 222.6 715.87 222.56 716.59 222.68 716.91 222.86 717.37 223.35 717.81 223.75 718.14 223.93 718.68 224.16 719.11 224.32 719.61 224.46 720.18 224.7 720.73 224.95 721.26 225.14 721.75 225.44 722.28 225.73 723.07 225.96 723.68 226.09 724.45 226.05 725.16 225.96 725.8 225.92 726.21 225.87 727.42 225.67 728.01 225.57 728.58 225.4 729.2 225.21 729.89 225.08 730.58 225.02 731.27 224.98 731.9 224.98 732.38 225.01 732.75 225.06 733.23 225.08 733.61 225.2 734.09 225.32 734.44 225.56 734.75 225.73 734.9 226.12 735.08 226.44 735.2 226.78 735.4 227.05 735.85 227.38 736.19 227.34 736.7 227.31 737.09 227.21 737.54 227.06 738.08 226.96 738.56 226.93 739.18 227.02 739.74 227.15 740.29 227.32 740.92 227.31 741.58 227.21 742.22 227.19 742.56 227.28 742.89 227.51 742.95 227.79 742.79 228.19 742.31 228.66 742.31 229.01 742.26 229.28 742.06 229.61 742.04 230.57 741.96 231.17 742.03 231.85 742.17 232.2 742.24 232.63 742.48 233.31 742.53 233.76 742.78 234.83 742.76 235.24 742.79 235.64 742.85 236.01 743.02 237.06 743.54 237.34 743.87 237.61 744.03 238.3 743.95 238.79 743.62 238.94 743.12 239 742.74 239.09 742.34 239.21 742.02 239.39 741.57 239.73 741.09 239.81 740.7 239.77 740.34 239.61 740.06 239.56 739.58 239.62 738.99 239.53 738.65 239.33 738.18 239.36 737.89 239.62 737.72 240.01 737.34 240.81 736.68 241.46 736.04 242.09 735.41 242.63 735.09 242.99 734.74 243.27 734.26 243.54 733.88 243.63 733.47 243.7 732.89 243.72 732.58 243.87 732.28 244.17 732.17 244.39 732.02 244.84 731.93 245.29 731.82 245.72 731.64 246.14 731.45 246.49 731.17 246.76 730.9 247.01 730.37 247.36 730.36 247.71 730.36 248.07 730.34 248.45 730.36 248.86 729.89 249.44 729.48 249.77 729.08 250.04 728.66 250.25 728.18 250.66 727.98 251.04 727.89 251.4 727.94 251.73 728.02 252 728.04 252.3 728.19 252.5 728.33 252.92 728.47 253.27 728.55 253.57 728.7 253.93 728.82 254.19 728.85 254.44 728.83 254.59 728.69 254.73 728.47 254.67 728.02 254.46 727.72 254.43 727.55 254.62 727.6 254.95 727.69 255.4 727.71 255.91 727.78 256.27 727.72 256.57 727.59 256.96 727.25 257.36 726.98 257.96 727.07 258.39 727.22 258.67 727.28 259.03 727.43 259.41 727.63 259.63 727.79 259.86 727.98 260.13 728.24 260.38 728.63 260.65 729.03 260.92 729.49 261.36 729.77 261.66 730.02 262.04 730.12 262.38 730.23 262.7 730.23 262.9 730.22 263.12 730.19 263.39 730.12 263.66 730.07 263.89 729.97 264.12 729.8 264.35 729.62 264.64 729.68 264.81 729.84 265.04 729.94 265.27 730.17 265.47 730.37 265.67 730.57 265.93 730.65 266.14 730.9 266.33 731.25 266.39 731.98 266.5 732.06 266.63 732.35 266.81 732.42 267.06 732.58 267.37 732.8 267.64 733.05 267.8 733.31 267.92 733.56 268.07 733.71 268.23 733.77 268.39 733.74 268.62 733.84 268.81 733.94 269 734.07 269.53 734.22 269.84 734.34 270.1 734.47 270.39 734.66 270.76 734.73 271 734.85 271.11 734.87 271.29 734.8 271.49 734.69 271.65 734.35 271.84 733.99 272.08 733.97 272.03 733.65 272.41 733.69 272.63 734.26 272.99 734.77 273.11 735.17 273.22 735.48 273.27 735.7 273.27 736.23 273.22 736.53 273.24 736.4 273.48 736.21 273.62 736.3 273.83 736.42 274.18 736.45 274.46 736.44 274.92 736.41 275.19 736.46 275.5 736.62 275.82 736.86 275.9 737.18 275.85 737.58 275.74 737.97 275.76 738.88 275.8 739.83 275.62 740.36 275.35 740.72 275.09 741.06 274.91 741.48 274.61 741.97 274.06 742.27 273.7 742.65 273.18 743.07 273.08 743.49 273.13 744.01 273.15 744.37 273.12 744.68 273.03 744.97 272.86 745.31 272.65 745.66 272.58 745.96 272.5 746.3 272.58 746.59 272.68 746.96 272.74 747.3 272.88 747.65 273.07 747.91 273.2 748.53 273.53 748.82 273.72 749.45 274.2 749.96 274.55 750.27 274.8 750.58 275.12 750.77 275.13 751.32 275.2 751.61 275.2 751.91 275.15 752.15 275.1 752.36 274.93 752.6 274.96 752.8 275.06 753.01 275.24 753.03 275.45 752.97 275.71 753.05 275.91 753.25 276.17 753.42 276.38 753.68 276.69 753.85 277 753.95 277.21 754.12 277.41 754.2 277.61 754.51 277.85 754.98 278.16 755.66 278.51 756.12 278.54 756.37 278.42 756.74 278.25 757.21 278.06 758.07 277.73 758.42 277.55 758.71 277.53 759.17 277.52 759.57 277.43 760.43 277.14 760.8 277.26 761.34 277.4 761.9 277.51 762.57 277.43 763.15 277.32 763.71 277.25 764.13 277.2 764.77 277.24 765.17 277.61 765.4 278.07 765.46 278.45 765.83 279.23 766.21 279.57 766.76 279.87 767.22 280.27 767.56 280.76 767.93 281.17 768.55 282.14 768.86 282.45 769.12 282.82 769.33 283.29 769.48 283.71 769.5 283.76 769.71 284.19 769.91 284.45 770.31 284.6 770.83 284.63 771.29 284.5 772.54 283.53 772.8 283.12 773.12 282.88 773.6 282.64 773.88 282.44 774.21 282.32 774.67 282.14 775.19 282.18 775.65 282.23 776.21 282.39 776.52 282.41 776.67 281.77 776.98 281.29 777.3 281.15 777.45 281.4 777.56 281.7 777.54 282.14 777.6 282.37 777.62 282.62 777.63 282.91 777.66 283.22 777.67 283.52 777.82 283.77 778.07 283.91 778.22 284.05 778.57 284.08 779.1 284.16 779.16 284.13 779.48 284.19 779.83 284.25 779.95 284.49 780.11 284.73 780.2 284.96 780.38 285.19 780.64 285.48 780.77 285.65 781 285.89 781.37 286.34 781.58 286.55 781.96 286.86 782.25 286.91 782.48 286.95 782.78 286.86 783.07 286.78 783.36 286.67 783.63 286.57 783.87 286.55 784.14 286.61 784.43 286.77 784.67 286.89 785.01 286.98 785.32 287.04 785.67 287.01 785.99 287.04 786.36 287.07 786.73 287.08 787.08 286.99 787.35 286.89 787.54 286.8 787.77 286.64 787.94 286.4 787.96 286.06 788.08 286.04 788.38 286.01 788.72 286.03 788.92 286.03 789.21 286.11 789.46 286.26 789.65 286.37 789.93 286.45 790.21 286.57 790.58 286.8 790.87 286.98 791.48 287.38 791.93 287.82 792.12 287.86 792.45 287.83 792.75 287.8 793.1 287.76 793.21 287.56 793.59 287.28 793.97 287 794.29 286.72 794.57 286.47 794.74 286.49 794.9 286.66 795.17 286.87 795.37 287.29 795.5 287.66 795.49 287.97 795.42 288.3 795.18 288.68 794.99 289.11 794.82 289.24 794.61 289.52 794.37 289.8 794.09 290.05 794.3 290.32 794.49 290.59 794.67 290.83 794.95 290.9 795.43 291.05 795.82 291.27 796.2 291.58 796.59 291.81 797.11 291.96 797.51 292.07 798.06 292.17 798.52 292.49 798.85 292.87 798.96 293.23 798.93 293.65 799 293.87 798.47 293.89 797.87 293.88 797.4 293.86 796.46 294.07 795.86 294.18 795.15 294.43 794.44 294.5 793.95 294.65 793.82 294.9 793.33 295.04 792.75 295.54 792.53 295.97 792.25 296.21 791.95 296.67 791.8 296.92 791.72 297.14 791.55 297.28 791.29 297.32 790.95 297.35 790.77 297.67 790.71 298.05 790.58 298.37 790.58 298.82 790.43 299.07 790.3 299.25 790.11 299.46 790.17 299.71 790.17 299.97 790.19 300.14 789.98 300.4 789.7 300.65 789.46 301 789.27 301.22 789.1 301.49 788.99 301.7 788.97 301.88 789.14 302.13 789.35 302.27 789.57 302.35 789.5 302.49 789.29 302.67 789.14 302.76 788.97 302.97 788.88 303.19 788.88 303.37 788.88 303.58 789.2 303.56 789.52 303.56 789.76 303.56 789.93 303.83 790.02 304.06 790.08 304.21 790.23 304.39 790.4 304.53 790.49 304.8 790.57 305.03 790.72 305.14 790.94 305.14 791.41 305.24 791.79 305.39 792.27 305.55 792.63 305.64 793.1 305.57 793.51 305.64 793.74 305.73 793.94 305.9 794.02 306.12 794.04 306.28 794.17 306.42 794.45 306.55 794.56 306.73 794.56 307 794.53 307.19 794.62 307.43 794.77 307.6 794.94 307.84 795.13 308.03 795.31 308.18 795.28 308.36 795 308.57 794.79 308.71 794.6 308.84 794.47 308.96 794.34 309.07 794.13 309.18 793.95 309.29 793.83 309.43 793.65 309.54 793.44 309.65 793.31 309.75 793.2 309.93 793.16 310.08 793.12 310.29 792.88 310.4 792.62 310.51 792.37 310.65 792.02 310.72 791.68 310.72 791.12 310.67 790.74 310.72 790.46 310.74 790.18 310.74 789.88 310.83 789.62 310.95 789.43 311.04 789.3 311.06 789.02 310.99 788.81 310.87 788.51 310.85 788.1 310.92 787.8 310.92 787.54 310.96 787.22 311.03 787.16 311.31 787.03 311.64 786.84 311.92 786.6 312.1 786.41 312.28 786.24 312.5 786.34 312.71 786.51 313 786.9 313.16 787.13 313.21 787.18 313.43 787.07 313.64 786.96 313.93 786.85 314.21 786.75 314.39 786.79 314.61 786.88 314.72 786.83 314.93 786.81 315.14 786.77 315.36 786.75 315.57 786.75 315.82 786.75 316.17 786.75 316.34 786.98 316.43 787.22 316.5 787.43 316.52 787.47 316.7 787.47 317.01 787.45 317.29 787.43 317.56 787.39 317.85 787.34 317.99 787.56 318.06 787.73 318.13 787.71 318.51 787.71 318.8 787.81 319.08 787.96 319.37 788.07 319.62 788.16 319.99 788.22 320.24 788.24 320.57 788.28 320.8 788.39 320.98 788.48 321.12 788.56 321.26 788.3 321.34 787.98 321.43 787.53 321.62 787.12 321.84 786.82 322.05 786.42 322.3 786.22 322.45 785.99 322.59 785.82 322.73 785.69 322.88 785.56 323.04 785.34 323.09 784.98 323.09 784.66 323.16 784.4 323.11 784.12 323.08 783.82 323.08 783.57 323.2 783.33 323.38 783.12 323.67 783.03 323.92 782.94 324.13 782.86 324.35 782.81 324.58 782.81 324.87 782.77 325.15 782.71 325.47 782.66 325.94 782.71 326.23 782.79 326.51 782.81 326.92 782.85 327.12 783.03 327.25 783.15 327.42 783.3 327.57 783.39 327.75 783.48 327.89 783.73 327.93 783.84 328 783.99 328.07 783.92 328.23 783.77 328.43 783.6 328.57 783.37 328.71 783.17 328.86 782.94 328.96 782.66 329.18 782.32 329.32 782.08 329.54 781.89 329.75 781.8 330 781.8 330.31 781.74 330.59 781.59 330.77 781.37 330.95 781.37 331.17 781.22 331.24 780.94 331.27 780.64 331.31 780.24 331.26 779.96 331.15 779.74 330.95 779.64 330.76 779.44 330.61 779.01 330.81 778.76 330.97 778.59 331.1 778.35 331.13 778.07 331.01 777.75 330.9 777.54 330.83 777.34 330.72 777.28 330.72 777.32 330.95 777.32 331.1 777.26 331.31 777.21 331.51 777.13 331.63 776.98 331.78 776.89 331.89 776.83 331.99 776.72 332.06 776.53 332.17 776.36 332.19 776.14 332.12 775.97 332.01 775.69 332.08 775.48 332.17 775.37 332.28 775.16 332.32 775.03 332.16 774.79 332.14 774.58 332.25 774.43 332.32 774.17 332.42 773.89 332.48 773.61 332.51 773.38 332.46 773.12 332.37 772.99 332.26 772.75 332.32 772.45 332.37 772.22 332.43 772.11 332.5 772.22 332.77 772.28 332.91 772.3 333.05 772.28 333.27 772.13 333.41 772 333.55 771.92 333.7 771.81 333.84 771.68 333.91 771.62 334.13 771.75 334.34 771.83 334.52 771.85 334.7 771.68 334.81 771.53 334.99 771.34 335.13 771.29 335.38 771.29 335.56 771.29 335.81 771.27 336.06 771.23 336.24 771.14 336.45 771.06 336.63 770.93 336.78 770.76 336.92 770.58 337.03 770.16 337.13 769.83 337.15 769.53 337.15 769.34 337.24 769.13 337.35 768.89 337.42 768.57 337.42 768.27 337.4 767.91 337.33 767.69 337.4 767.26 337.42 766.83 337.4 766.53 337.44 766.23 337.64 766.08 337.85 765.98 338.01 765.83 338.19 765.72 338.37 765.74 338.64 765.78 338.84 765.74 339.09 765.63 339.27 765.61 339.43 765.5 339.59 765.4 339.73 765.18 339.84 765.05 339.93 764.97 340.09 764.97 340.32 764.86 340.59 764.79 340.74 764.64 340.88 764.37 340.97 764.09 340.97 763.74 340.9 763.44 340.75 763.1 340.75 762.69 340.75 762.2 340.75 762.07 340.61 761.92 340.34 761.69 340.2 761.37 340.02 761.22 339.79 761 339.63 760.6 339.59 760.32 339.63 760.17 339.79 760.04 339.95 759.93 340.06 759.72 340.18 759.54 340.27 759.22 340.31 758.97 340.31 758.71 340.36 758.45 340.42 758.11 340.44 757.87 340.47 757.57 340.51 757.23 340.51 756.95 340.47 756.54 340.58 756.22 340.72 755.96 340.8 755.77 340.97 755.43 341.17 755.11 341.3 754.7 341.44 754.38 341.44 754.14 341.44 753.86 341.32 753.59 341.17 753.35 340.99 753.01 340.87 752.58 340.69 752.45 340.53 752.3 340.46 752.13 340.65 751.94 340.76 751.74 340.87 751.53 340.96 751.36 340.96 751.12 340.96 751.06 341.26 751.01 341.42 750.78 341.55 750.5 341.68 750.33 341.96 750.2 342.18 750.11 342.39 750.11 342.64 749.98 342.82 749.88 342.93 749.79 343.04 749.7 343.18 749.66 343.39 749.58 343.61 749.45 343.81 749.36 343.88 749.21 343.95 749.04 343.95 748.78 343.95 748.59 344 748.33 344.06 748.07 344.17 747.88 344.17 747.67 344.04 747.45 343.88 747.17 343.88 746.94 344.02 746.75 344.02 746.49 343.79 746.21 343.65 745.89 343.61 745.37 343.61 744.71 343.74 744.35 343.85 743.9 343.99 743.66 344.11 743.36 344.2 743 344.2 742.59 344.2 742.05 344.04 741.77 343.83 741.5 343.61 741.28 343.4 741.05 343.4 740.68 343.49 740.49 343.6 740.19 343.6 739.91 343.63 739.65 343.83 739.27 344.06 739.03 344.28 738.69 344.51 738.37 344.73 738.04 344.98 737.74 345.28 737.49 345.53 737.27 345.8 736.93 345.87 736.59 346.02 736.33 346.3 736.09 346.52 735.94 346.68 735.64 346.88 735.53 347.06 735.41 347.2 735.26 347.34 734.91 347.29 734.59 347.22 734.25 347.2 734.01 347.24 733.93 347.58 733.82 347.81 733.73 347.99 733.52 348.13 733.28 348.24 733.07 348.38 732.92 348.52 732.81 348.88 732.79 349.13 732.7 349.4 732.7 349.65 732.7 349.94 732.7 350.14 732.68 350.35 732.68 350.46 732.68 350.6 732.66 350.71 732.66 350.82 732.55 350.92 732.27 350.96 731.95 351.07 731.78 351.21 731.5 351.39 731.31 351.6 731.07 351.82 730.94 352.07 730.94 352.28 730.88 352.59 730.81 352.8 730.68 352.98 730.58 353.23 730.45 353.52 730.32 353.77 730.3 353.99 730.3 354.2 730.3 354.41 730.21 354.63 730.13 354.84 729.97 355.06 729.76 355.35 729.59 355.52 729.44 355.7 729.14 355.99 728.92 356.17 728.69 356.37 728.56 356.53 728.37 356.71 728.26 356.85 728 356.96 727.72 357.01 727.4 357.07 727.06 357.17 726.89 357.46 726.63 357.64 726.41 357.82 726.18 358 726.09 358.14 726.09 358.32 726.16 358.61 726.18 358.93 726.16 359.23 726.05 359.61 725.85 359.86 725.66 360.11 725.36 360.41 725.19 360.7 724.89 360.84 724.63 360.92 724.22 360.92 723.92 361.02 723.69 361.24 723.56 361.52 723.5 361.88 723.41 362.06 723.41 362.22 723.3 362.35 723.15 362.49 723 362.6 722.87 362.71 722.7 362.89 722.55 363.17 722.51 363.39 722.4 363.64 722.25 363.92 722.21 364.14 722.21 364.35 722.21 364.6 722.46 364.82 722.66 365 722.93 365.18 723.11 365.35 723.49 365.46 723.9 365.53 724.2 365.62 724.54 365.69 724.84 365.75 725.21 365.85 725.44 365.93 725.66 366.11 725.85 366.25 726.1 366.36 726.47 366.32 726.66 366.37 727.03 366.46 727.22 366.53 727.28 366.68 727.48 366.82 727.78 366.93 728.03 367.03 728.12 367.21 728.08 367.46 727.95 367.68 727.77 367.89 727.56 368.22 727.37 368.39 727.17 368.57 726.64 369.11 726.51 369.36 726.29 369.65 726.04 370.01 725.82 370.27 725.65 370.49 725.39 370.78 725.16 370.99 724.92 371.21 724.58 371.46 724.38 371.56 724.19 371.71 724.06 371.8 723.96 371.94 723.93 372.12 723.83 372.37 723.83 372.55 723.7 372.73 723.48 372.91 723.31 373.12 723.14 373.34 722.95 373.59 722.71 373.87 722.43 374.09 722.28 374.27 722.09 374.41 721.87 374.56 721.62 374.84 721.44 375.09 721.29 375.24 721.29 375.34 721.36 375.54 721.49 375.7 721.66 375.92 721.79 376.13 721.91 376.38 722.02 376.68 722.17 376.86 722.24 377.11 722.3 377.44 722.36 377.69 722.43 377.85 722.43 378.06 722.32 378.24 722.32 378.53 722.17 378.81 722.06 379.05 721.93 379.26 721.78 379.41 721.63 379.62 721.44 379.91 721.35 380.16 721.22 380.41 721.1 380.69 720.95 380.98 720.84 381.2 720.64 381.34 720.56 381.45 720.32 381.48 720 381.5 719.79 381.55 719.51 381.5 719.19 381.52 718.91 381.59 718.63 381.54 718.35 381.43 717.99 381.25 717.8 380.95 717.58 380.68 717.43 380.46 717.39 380.21 717.24 379.96 717.09 379.71 716.98 379.32 716.68 379.07 716.38 378.89 716.06 378.75 715.7 378.53 715.16 378.35 714.67 378.14 714.2 377.91 714.03 377.76 713.38 377.71 712.98 377.75 712.78 377.75 712.38 377.68 712.18 377.68 711.86 377.64 711.48 377.64 711.09 377.66 710.66 377.66 710.47 377.66 710.13 377.64 709.93 377.62 709.59 377.73 709.4 377.84 709.08 377.91 708.73 378.02 708.52 378.07 708.28 378.07 708.09 378.04 707.7 377.84 707.58 377.63 707.26 377.39 706.98 377.23 706.53 377.02 705.99 376.87 705.67 376.84 705.33 376.84 705.07 377.04 704.92 377.18 704.68 377.36 704.55 377.5 704.38 377.61 704.28 377.72 704.25 377.9 704.15 378.08 704.04 378.22 703.89 378.34 703.72 378.51 703.61 378.68 703.42 378.86 703.14 379.01 703.01 379.13 702.84 379.29 702.71 379.44 702.54 379.51 702.24 379.65 701.83 379.72 701.57 379.8 701.27 379.83 700.93 379.85 700.54 379.85 700.29 379.76 700.09 379.76 699.77 379.76 699.67 379.76 699.43 379.76 699.17 379.76 698.77 379.73 698.53 379.73 698.14 379.73 697.8 379.69 697.5 379.65 697.16 379.48 696.97 379.37 696.73 379.24 696.54 379.14 696.34 379.03 696.11 378.89 695.6 378.69 695.17 378.64 694.82 378.65 694.31 378.76 694.03 378.87 693.77 378.98 693.41 379.09 693.24 379.12 693 379.16 692.85 379.19 692.59 379.19 692.23 379.28 691.91 379.39 691.74 379.52 691.59 379.55 691.37 379.5 691.14 379.35 690.9 379.18 690.71 379 690.56 378.93 690.3 378.87 690.09 378.98 689.83 379.05 689.68 379.05 689.36 379.09 689.1 379.12 688.95 379.12 688.76 379.14 688.59 379.2 688.52 379.27 688.5 379.41 688.37 379.5 688.14 379.66 687.99 379.84 687.84 380.06 687.75 380.2 687.66 380.34 687.66 380.52 687.64 380.74 687.62 380.95 687.6 381.11 687.53 381.25 687.43 381.4 687.32 381.51 687.19 381.61 687.08 381.68 687.08 381.85 687.08 382.04 687.25 382.35 687.32 382.49 687.4 382.69 687.47 382.9 687.58 383.15 687.64 383.33 687.66 383.55 687.68 383.76 687.7 384.01 687.66 384.3 687.62 384.6 687.62 384.78 687.62 385 687.64 385.17 687.53 385.42 687.32 385.6 687.1 385.82 686.93 386 686.74 386.19 686.41 386.34 686.18 386.5 685.9 386.68 685.64 386.89 685.56 387.09 685.38 387.27 685.3 387.41 685.32 387.73 685.47 387.99 685.66 388.38 685.79 388.67 685.94 388.92 686.05 389.24 686.2 389.6 686.3 389.92 686.3 390.22 686.39 390.47 686.39 390.69 686.39 390.87 686.39 391.19 686.37 391.51 686.32 391.76 686.24 392.01 686.19 392.26 686.15 392.48 686.06 392.69 686 392.91 685.94 393.16 685.94 393.37 685.98 393.55 686 393.77 685.81 394.02 685.63 394.27 685.44 394.52 685.18 394.8 684.97 395.16 684.73 395.41 684.6 395.74 684.39 396.02 684.35 396.34 684.22 396.63 684.32 396.81 684.45 397.1 684.54 397.31 684.52 397.81 684.49 398.1 684.58 398.49 684.58 398.78 684.58 399.03 684.43 399.23 684.36 399.39 684.26 399.62 684.32 399.89 684.53 400.07 684.71 400.39 684.88 400.6 684.96 400.82 685.07 401 685.13 401.28 685.18 401.53 685.2 401.75 685.22 402.07 685.07 402.39 684.94 402.64 684.77 402.89 684.6 403.11 684.47 403.29 684.38 403.54 684.4 403.66 684.47 403.86 684.49 404.11 684.42 404.33 684.29 404.45 684.02 404.61 683.82 404.72 683.67 404.83 683.56 405.04 683.48 405.26 683.41 405.51 683.31 405.72 683.31 405.9 683.44 406.06 683.58 406.13 683.71 406.21 683.71 406.35 683.56 406.49 683.39 406.67 683.22 406.81 683.07 407.03 682.96 407.28 682.94 407.57 682.7 408.27 682.55 408.61 682.47 408.86 682.36 409.11 682.27 409.32 682.25 409.61 682.21 409.82 682.06 409.86 681.91 409.93 681.91 410.11 681.95 410.22 682.08 410.32 682.17 410.4 682.14 410.57 682.04 410.75 681.97 410.88 681.8 410.93 681.5 410.95 681.16 410.97 680.77 411.08 680.6 411.13 680.28 411.26 680.11 411.31 679.79 411.49 679.51 411.6 679.36 411.65 679.36 411.85 679.57 412.13 679.74 412.29 679.96 412.45 680.15 412.63 680.32 412.78 680.43 412.92 680.51 413.08 680.6 413.24 680.6 413.39 680.64 413.56 680.81 413.99 680.88 414.14 680.92 414.24 680.92 414.46 680.85 414.57 680.85 414.76 680.94 415.03 680.94 415.21 680.94 415.39 681.05 415.6 681.13 415.71 681.26 415.75 681.45 415.68 681.62 415.59 681.75 415.46 682.07 415.35 682.31 415.28 682.57 415.3 682.76 415.41 682.85 415.62 682.97 415.76 683.1 416.01 683.3 416.12 683.55 416.12 683.85 416.12 684.17 416.09 684.54 416.14 684.67 416.17 684.73 416.32 684.58 416.5 684.41 416.57 684.28 416.71 684.17 416.82 684.02 416.96 683.89 417.07 683.83 417.21 683.83 417.36 683.96 417.53 684.09 417.64 684.26 417.79 684.36 417.86 684.39 418 684.41 418.18 684.41 418.43 684.47 418.54 684.64 418.55 684.86 418.61 685.01 418.75 685.16 418.93 685.31 419.07 685.56 419.29 685.84 419.39 686.08 419.41 686.31 419.43 686.51 419.54 686.7 419.64 686.91 419.75 687.04 419.88 687.17 419.93 687.21 420.13 687.23 420.31 687.26 420.5 687.3 420.72 687.3 420.92 687.32 421.08 687.34 421.27 687.36 421.45 687.43 421.58 687.49 421.68 687.58 421.83 687.64 421.94 687.68 422.04 687.68 422.19 687.68 422.33 687.6 422.44 687.42 422.51 687.25 422.58 687.19 422.65 687.12 422.76 687.12 422.9 687.12 422.97 687.25 423.03 687.38 423.12 687.51 423.24 687.68 423.4 687.81 423.44 687.94 423.55 688.11 423.56 688.32 423.58 688.47 423.63 688.56 423.74 688.54 423.85 688.49 423.96 688.54 424.06 688.69 424.14 688.77 424.24 688.82 424.35 688.88 424.49 688.94 424.6 689.07 424.64 689.26 424.67 689.44 424.74 689.54 424.8 689.65 424.9 689.65 425.03 689.69 425.17 689.67 425.35 689.65 425.53 689.61 425.67 689.59 425.91 689.56 426.1 689.56 426.26 689.56 426.39 689.61 426.53 689.61 426.68 689.52 426.68 689.28 426.62 689.18 426.59 689.01 426.61 688.9 426.71 688.9 426.89 688.94 427.07 689.05 427.25 689.15 427.36 689.24 427.5 689.33 427.59 689.52 427.61 689.75 427.64 690.03 427.68 690.23 427.59 690.27 427.45 690.33 427.27 690.33 427.03 690.44 426.93 690.53 426.85 690.72 426.85 690.91 426.85 691.21 426.82 691.43 426.64 691.56 426.42 691.66 426.19 691.77 426.01 691.84 425.64 691.88 425.44 691.94 425.26 692.07 425.06 692.37 425.01 692.61 425.01 692.99 425.17 693.08 425.28 693.16 425.42 693.23 425.62 693.23 425.78 693.16 425.98 693.12 426.1 693.06 426.3 693.06 426.46 693.14 426.6 693.29 426.78 693.42 426.92 693.57 427.07 693.76 427.21 693.85 427.39 693.87 427.57 693.8 427.69 693.68 427.82 693.5 427.94 693.29 428.09 693.12 428.18 692.99 428.34 692.78 428.5 692.6 428.7 692.43 428.91 692.26 429.16 692.09 429.45 691.96 429.74 691.81 429.99 691.74 430.31 691.64 430.63 691.72 430.99 691.74 431.2 691.87 431.49 692 431.78 692.09 431.99 692.19 432.28 692.3 432.46 692.45 432.67 692.58 432.96 692.71 433.33 692.79 433.67 692.88 433.92 692.94 434.17 693.09 434.48 693.22 434.66 693.37 434.87 693.56 435.09 693.75 435.32 693.92 435.55 694.07 435.75 694.27 435.94 694.44 436.16 694.59 436.34 694.76 436.52 694.91 436.73 695.04 436.95 695.12 437.12 695.25 437.3 695.32 437.48 695.36 437.64 695.36 437.84 695.4 437.98 695.51 438.13 695.61 438.27 695.64 438.45 695.64 438.66 695.49 438.84 695.46 438.99 695.25 439.11 695.08 439.2 694.91 439.31 694.86 439.45 694.86 439.59 694.93 439.81 695.01 440.02 695.08 440.17 695.16 440.38 695.23 440.6 695.23 440.78 695.16 440.99 695.1 441.28 694.95 441.49 694.78 441.71 694.67 441.85 694.6 442.03 694.6 442.24 694.62 442.57 694.71 442.74 694.75 442.96 694.82 443.1 694.88 443.32 694.88 443.51 694.86 443.78 694.79 444 694.75 444.14 694.69 444.39 694.62 444.64 694.58 444.89 694.56 445.21 694.62 445.54 694.66 445.75 694.83 446 694.9 446.22 694.83 446.43 694.75 446.68 694.68 446.9 694.64 447.11 694.75 447.36 694.81 447.61 694.81 447.79 694.92 448.04 695.03 448.27 695.11 448.44 695.13 448.61 695.13 448.83 695.02 448.97 694.81 449.19 694.64 449.37 694.55 449.51 694.57 449.8 694.7 449.98 694.83 450.15 695 450.23 695.17 450.33 695.41 450.51 695.6 450.62 695.71 450.76 695.71 450.91 695.6 451.01 695.47 451.16 695.21 451.26 695.02 451.32 694.85 451.44 694.72 451.59 694.72 451.8 694.81 452.02 694.94 452.34 695.13 452.59 695.19 452.84 695.3 453.05 695.38 453.3 695.49 453.59 695.53 453.77 695.55 454.02 695.55 454.27 695.55 454.48 695.58 454.63 695.67 454.72 695.67 454.73 695.59 455.04 695.55 455.26 695.52 455.44 695.52 455.67 695.58 455.86 695.67 455.96 695.76 456.06 695.94 456.24 696.13 456.39 696.3 456.55 696.38 456.69 696.35 456.94 696.31 457.16 696.24 457.33 696.16 457.5 696.07 457.66 695.94 457.99 695.94 458.1 695.94 458.28 695.99 458.46 696.03 458.58 696.09 458.76 696.15 458.97 696.19 459.14 696.25 459.34 696.26 459.51 696.26 459.69 696.16 459.91 696.03 460.23 696.02 460.39 696.02 460.52 696.07 460.7 696.14 460.84 696.45 460.8 696.91 461.12 697.03 461.26 697.14 461.44 697.26 461.71 697.37 461.96 697.43 462.28 697.48 462.53 697.59 462.84 697.63 463.01 697.7 463.24 697.77 463.46 697.81 463.73 697.84 463.98 697.88 464.18 697.89 464.65 697.91 464.84 697.98 465.2 698.03 465.65 697.93 466.28 697.9 466.48 697.91 466.83 697.94 467.11 698.21 467.74 698.39 467.99 698.77 468.49 698.9 468.79 698.64 469.2 698.37 469.22 698.02 469.26 697.28 469.28 696.89 469.28 696.71 469.31 696.56 469.36 696.34 469.33 696.22 469.29 696 469.25 695.8 469.24 695.64 469.21 695.47 469.18 695.27 469.15 695.01 469.15 694.67 469.15 694.32 469.17 694.09 469.17 693.87 469.18 693.43 469.29 692.97 469.46 692.74 469.59 692.43 469.65 692.22 469.59 692.08 469.53 691.86 469.47 691.66 469.4 691.63 469.54 691.58 469.8 691.58 470.02 691.6 470.2 691.36 470.43 691.28 470.7 691.14 470.85 691.08 470.95 690.55 471.39 690.38 471.47 690.57 471.75 690.49 471.84 690.36 471.93 690.25 472.04 690.06 472.15 690.04 472.18 689.86 472.38 689.78 472.55 689.7 472.67 689.53 472.82 689.35 472.93 689.19 473.02 689.07 473.12 688.9 473.28 688.83 473.42 688.74 473.55 688.6 473.69 688.46 473.79 688.27 473.92 688.13 474.05 687.96 474.24 687.77 474.42 687.6 474.52 687.35 474.64 687.1 474.76 687.04 474.86 686.89 475.04 686.84 475.2 686.76 475.41 686.61 475.61 686.59 475.91 686.61 476.05 686.55 476.19 686.42 476.28 686.27 476.37 686.09 476.58 685.95 476.8 685.76 476.96 685.53 477.12 685.29 477.29 685.18 477.42 685.09 477.55 684.93 477.7 684.7 477.82 684.43 477.91 684.16 478 683.98 478.08 683.86 478.17 683.77 478.31 683.72 478.57 683.85 478.91 683.94 479.16 683.85 479.27 683.69 479.32 683.41 479.33 683.17 479.34 682.89 479.28 682.65 479.12 682.66 478.84 682.86 478.72 682.97 478.58 682.92 478.4 682.43 478.09 682.38 477.85 682.42 477.69 682.44 477.57 682.34 477.4 682.17 477.25 681.85 477.09 681.55 476.78 681.39 476.69 681.16 476.59 681.01 476.43 680.91 476.22 680.79 476.06 680.7 476.01 680.46 475.98 680.26 476 679.72 476.1 679.52 476.16 678.98 476.39 678.84 476.58 678.78 476.72 678.71 476.89 678.56 477.15 678.38 477.5 678.18 477.75 677.99 477.92 677.69 478.17 677.41 478.23 677.12 478.23 676.81 478.17 676.6 478.18 676.52 478.41 676.51 478.53 676.51 478.71 676.23 478.99 675.88 479.24 675.9 479.36 675.9 479.37 676.2 479.44 676.41 479.43 676.73 479.41 677.16 479.32 677.46 479.27 677.7 479.31 677.73 479.36 677.75 479.62 677.69 479.99 677.63 480.38 677.56 480.73 677.16 481.5 676.96 481.72 676.7 482.05 676.55 482.3 676.35 482.49 676.01 482.71 675.78 482.9 675.43 483.12 675.11 483.35 674.93 483.57 674.85 483.7 674.54 483.86 674.25 483.91 674.05 483.93 673.57 484.02 673.28 484.16 673.05 484.4 672.45 485.02 672.29 485.1 671.82 485.21 671.58 485.21 671.42 485.23 671.42 485.35 671.58 485.92 671.68 486.21 671.68 486.42 671.65 486.69 671.64 487.01 671.56 487.14 671.45 487.27 671.12 487.49 670.74 487.69 670.55 487.75 670.39 487.81 670.22 487.9 670.05 488.11 669.92 488.38 669.73 488.88 669.59 489.17 669.49 489.3 669.22 489.57 669.05 489.71 668.78 489.96 668.4 490.29 668.33 490.57 668.46 490.78 668.66 491.04 668.84 491.19 668.92 491.4 668.89 491.7 668.8 492.08 668.69 492.34 668.54 492.58 668.39 492.77 668.19 492.92 667.61 493.24 667.25 493.58 666.94 493.84 666.69 494.12 666.76 494.26 666.99 494.32 667.05 494.67 666.95 494.75 666.83 494.87 666.69 495.08 666.58 495.22 666.41 495.29 666.27 495.29 665.73 495.22 665.49 495.3 665.18 495.47 665 495.62 664.56 496.28 664.22 496.65 663.88 497.04 663.59 497.16 663.32 497.19 663.09 497.14 662.82 497.03 662.48 496.92 662.21 496.83 661.9 496.8 661.55 496.85 661.03 497.02 659.93 497.51 658.6 498.31 658.39 498.29 658.25 498.1 658 497.6 657.86 497.39 657.62 497.15 657.35 496.99 657 497.06 656.92 497.09 656.65 497.15 656.43 497.19 656.18 497.3 655.94 497.44 655.38 497.61 655.13 497.71 654.93 497.9 654.73 498.14 654.61 498.31 654.45 498.72 654.36 499 654 499.9 653.88 500.16 653.66 500.42 653.54 500.56 653.01 500.78 652.59 501.01 652.25 501.16 651.92 501.3 651.61 501.43 651.15 501.54 650.93 501.63 650.7 501.67 650.39 501.76 649.86 501.87 649.61 501.84 649.39 501.76 647.91 502.24 646.19 502.77 645.27 502.83 644.37 502.7 643.14 503.11 642.63 503.68 641.94 502.73 641.05 502.48 640.07 502.64 638.95 503.65 638.22 503.63 637.2 504.32 636.59 504.59 635.61 505.54 635.33 506.08 635.09 506.44 634.47 506.61 634.07 506.6 630.72 507 630.51 506.6 630.43 506.23 630.32 505.82 628.93 505.55 628.58 505.45 627.65 506.13 626.87 506.52 626.48 506.85 625.71 506.93 624.88 507.31 624.44 506.98 623.52 506.93 623.11 506.84 622.72 506.81 622.19 506.92 620.98 507.59 620.35 507.63 619.84 507.66 617.93 508.5 617.63 509.37 617.26 509.75 617.51 510.45 617.35 511.17 617.02 511.16 616.59 510.82 615.49 511.38 614.05 511.28 613.89 512.42 612.22 513.51 611.97 513.85 611.04 514.07 610.71 514.09 610.11 514.17 609.56 514.31 609.1 514.89 608.77 515.01 608.43 515.2 608.42 515.54 607.97 515.6 607.58 515.62 606.51 515.79 604.76 515.69 604.21 515.74 603.71 515.64 603.35 515.63 602.87 515.62 601.92 515.82 602.58 515 603.47 514.56 603.12 513.2 602.62 513.09 601.98 513.02 601.64 512.81 601.2 512.85 598.02 512.41 597.44 512.28 597.11 512.02 596.15 511.27 596.5 511.11 597.05 510.93 597.39 510.56 597.6 510.23 597.44 509.83 596.14 510.22 595.37 510.62 594.53 510.74 594.02 510.54 593.61 509.62 593.15 509.29 592.41 509.22 592.06 509.35 591.51 509.36 591.62 509.81 591.39 510.17 590.71 510.52 590.37 510.46 590.27 510.12 589.81 510.07 589.28 510.24 588.83 510.36 588.31 510.46 587.86 510.33 587.53 509.19 586.61 507.91 587.39 507.18 587.51 506.75 587.75 506.26 587.98 505.88 588.45 505.42 588.91 504.95 589.31 504.61 589.52 504.32 589.85 503.96 590.43 504.17 590.71 504.37 591.57 504.84 592.05 504.88 592.31 504.66 592.65 504.26 592.95 503.92 593.32 503.54 593.81 502.92 594.03 502.42 594.36 501.99 594.44 501.59 594.71 500.22 592.74 500.44 592.4 500.58 591.81 500.54 591.32 500.44 591.13 500.16 591.15 499.29 590.68 499 589.96 499.05 588.47 500.24 588.08 500.19 587.61 500.18 586.75 499.96 586.71 499.86 586.52 499.36 586.37 498.8 586.09 498.36 586.01 497.22 586.49 497.19 587.15 497.11 587.81 497.01 588.22 497.48 588.24 497.97 588.77 497.64 588.95 497.1 588.81 496.03 588.48 495.75 588.2 494.91 588.18 494.47 588.18 494.01 588.22 493.13 588.29 492.66 588.38 492.3 588.56 491.66 588.49 491.25 588.4 490.31 584.54 490.08 584.03 490.64 583.59 490.7 582.18 490.35 582.02 489.95 581.72 489.61 581.44 489.3 581.32 488.57 580.77 488.37 580.34 488.06 579.89 487.87 579.43 487.73 578.29 485.79 579.34 485.84 579.8 485.86 580.47 485.76 580.91 485.49 581.34 485 581.37 484.38 581.06 483.91 580.86 483.16 580.49 481.83 580.26 481.5 579.64 481.23 579.12 480.8 578.6 480.49 578.04 480.26 577.49 479.82 577.01 479.59 576.47 480.36 576.08 480.75 574.96 482.04 574.47 482.31 574.04 482.22 573.95 482.67 573.05 483.25 572.62 483.61 572.29 483.94 571.6 484.47 571.15 484.79 570.81 485.07 570.68 485.6 570.95 485.9 571.38 486.07 572 486.34 572.47 486.58 572.73 486.88 572.53 487.24 571.97 487.26 569.48 487.4 569.07 487.49 568.45 487.42 567.78 487.34 567.65 487.84 568.26 488.27 568.07 489.09 568.34 489.56 568.47 490.02 568.39 491.11 568.05 491.4 566.95 492.12 565.82 492.88 564.89 492.92 564.66 493.23 563.32 493.63 562.75 493.72 562.08 494 561.53 494.26 560.78 494.41 559.8 493.99 557.93 495.12 557.8 494.39 557.41 493.82 557.7 493.02 556.97 492.59 556.25 491.45 555.58 491.95 554.49 492.33 553.63 492.23 553.16 492.19 552.33 492.27 551.77 491.95 551.73 491.15 552.43 490.56 552.1 489.62 553.48 488.76 553.92 488.8 555.09 487.8 555.67 487.03 555.52 486.69 555.6 486.21 555.33 485.77 555.75 485.65 556.15 485.58 558.03 485.1 558.4 484.88 558.83 484.57 559.36 484.2 559.41 483.63 559.29 483.23 558.68 482.84 557.63 482.29 557.34 481.99 557.06 481.62 556.28 481.1 555.97 480.98 555.54 480.81 555.2 480.68 554.83 480.46 554.24 480.37 553.2 480.14 551.91 479.72 551.36 479.62 550.52 479.97 549.82 480.13 549.18 479.93 548.89 479.65 548 479.64 547.24 479.28 544.15 478.63 543.33 479.29 542.73 476.14 542.83 475.65 542.87 474.88 542.51 473.87 542.52 473.18 542.63 473.18 542.59 473.1 542.58 472.91 542.65 472.58 542.65 472.38 542.41 472.5 542.14 472.63 542.09 472.65 541.81 472.85 541.58 472.89 541.39 472.79 541.21 472.68 541.02 472.59 540.39 472.24 540.15 472.07 539.94 471.98 539.74 471.95 539.51 471.98 539.32 472.06 539.15 472.16 538.94 472.32 538.81 472.46 538.61 472.62 538.35 472.64 538.06 472.64 537.82 472.6 537.32 472.58 536.96 472.58 536.63 472.58 536.29 472.56 536.01 472.53 535.79 472.53 535.43 472.56 535.15 472.49 534.9 472.35 534.26 472.07 532.97 471.87 532.3 472.06 531.93 472.14 531.16 472.37 530.23 472.55 528.92 472.91 527.81 473.18 527.8 473.18 527.1 473.3 526.37 473.48 526.21 473.28 526.12 473.09 525.9 472.84 525.6 472.4 525.46 472.07 525.21 472 524.8 471.99 524.43 472.02 523.99 472.02 523.77 472.04 523.53 472.03 523.21 472.02 523.02 472.01 522.88 471.97 522.76 471.95 522.48 471.87 522.29 471.8 521.94 471.69 521.65 471.63 521.25 471.53 520.9 471.48 520.66 471.4 520.46 471.33 520.17 471.25 519.89 471.16 519.6 471.06 519.32 471.04 519.11 471.13 518.88 471.27 518.86 471.48 518.91 471.78 518.88 471.98 518.89 472.07 518.99 472.42 519 472.64 519.02 472.97 519.01 473.16 519.01 473.42 519.01 473.74 518.99 474.1 518.97 474.4 518.94 474.73 518.92 474.95 518.92 475.18 518.9 475.44 518.89 475.69 518.71 475.93 518.48 475.98 518.13 476.07 517.92 476.1 517.69 476.17 517.41 476.24 517.04 476.33 516.77 476.4 516.54 476.45 516.31 476.49 516.06 476.56 515.83 476.61 515.65 476.65 515.44 476.71 515.39 476.72 515.22 476.75 515.04 476.82 515.01 477.22 515 477.46 515 477.74 515.04 477.97 515.02 478.42 514.98 478.62 514.45 478.98 514.18 479.07 513.86 479.16 513.45 479.29 513.1 479.42 512.5 479.64 511.7 479.94 511.19 480.13 510.68 480.31 509.85 480.65 508.9 480.99 508.6 481.12 507.89 480.96 507.39 480.82 506.94 480.73 506.45 480.58 506.05 480.48 505.87 480.52 505.52 480.7 504.91 481.12 503.84 481.76 503.2 482.23 502.22 482.7 500.93 483.39 500.25 483.76 500.13 483.82 499.39 484.2 498.42 484.69 497.18 485.37 496.24 485.83 495.08 486.36 494.43 486.81 494.09 487 493.21 487.44 492.65 487.73 492.16 488.01 491.95 488.08 491.76 488.17 491.63 488.29 491.47 489.14 491.27 489.56 491.15 490.12 491.39 491.22 491.78 491.93 492.16 492.54 492.5 493.16 492.63 493.69 492.55 494.34 492.47 494.49 492.33 495.24 492.14 495.61 491.99 496.24 492.13 497.02 492.33 497.86 492.37 499.39 492.31 499.96 492.24 500.54 492.21 501.22 492.17 501.93 492.13 502.69 492.04 503.49 492 504 491.97 504.44 491.91 504.82 491.79 505.6 491.77 505.86 491.72 506.62 491.82 506.98 492.31 507.91 492.76 508.85 492.9 509.1 493.21 509.59 493.41 510.09 493.43 510.24 493.41 510.39 493.24 510.59 492.46 510.52 491.54 510.19 490.42 509.6 489.68 509.2 488.62 508.72 488.15 508.68 487.81 508.74 487.66 508.96 487.77 509.32 487.94 509.62 487.89 509.87 487.29 510.01 486.83 510.15 486.47 510.19 486.17 510.29 485.05 510.54 483.39 510.41 482.95 510.21 481.8 509.69 480.44 509.43 479.4 509.28 477.97 509.08 477.06 509.01 476.87 509.02 476.55 508.96 474.54 508.49 472.35 507.79 470.83 507.31 469.4 506.78 467.78 506.42 466.65 506.49 465.84 506.84 465.46 507.21 465.79 507.62 466.27 508.3 466.68 508.84 466.79 509.14 466.67 509.58 466.19 510.12 465.51 510.53 465 510.88 463.05 511.22 462.67 511.34 462.32 511.53 461.76 511.61 460.92 511.75 460.3 511.91 460.01 512.03 459.77 512.2 459.64 512.41 459.7 512.48 459.6 512.76 459.49 513.22 459.5 513.5 459.52 513.87 459.47 514.17 459.36 514.47 459.06 514.75 458.64 515.24 458.43 515.51 458.23 515.91 457.94 516.32 457.62 516.74 457.13 517.3 456.71 517.72 456.69 517.75 456.47 517.92 456.03 518.21 455.82 518.33 455.62 518.36 455.37 518.09 455.16 518.1 454.98 518.23 454.67 518.58 454.32 519.25 454 520.48 453.7 521.7 453.48 524.3 453.14 524.41 452.88 524.56 452.6 524.73 452.23 525.05 452.04 525.34 451.71 525.67 451.33 526.04 450.99 526.53 450.83 527.13 450.88 527.66 450.9 528.02 450.96 528.48 451.24 529.12 451.46 529.56 451.57 529.89 451.57 530.41 451.32 530.73 450.74 531.32 450.56 531.6 450.56 532.01 450.47 532.61 450.44 533.05 450.56 533.62 450.56 534.07 450.48 534.8 450.54 535.33 450.59 535.92 450.65 536.22 450.71 537 450.63 537.66 450.53 538.34 450.37 538.85 450.09 539.18 449.83 539.46 449.06 539.87 448.28 540.05 447.51 540.23 446.97 540.51 446.48 540.86 446.11 541.48 446.43 542.4 446.6 542.87 446.87 543.33 447.05 543.98 447.32 544.35 447.51 544.53 447.79 544.8 448 545 448.24 545.66 448.45 546.22 448.55 546.96 448.32 547.5 447.97 548 447.71 548.49 447.4 549 447.03 549.66 446.69 550.15 446.35 550.61 446.08 550.92 445.74 551.27 445.37 551.68 444.74 552.15 444.36 552.4 443.98 552.78 443.82 552.93 442.76 553.49 442.32 553.97 442.09 554.17 441.79 554.36 441.41 554.55 440.95 554.69 440.56 554.8 440.05 554.89 439.57 555.03 439.3 555.11 438.97 555.2 438.68 555.31 438.55 555.83 438.47 556.29 438.43 556.74 438.13 557.21 437.77 557.83 437.1 558.6 436.88 558.82 436.57 559.03 435.54 559.38 434.63 559.63 433.9 559.91 433.53 560.12 432.77 560.95 432.6 561.4 432.45 561.75 432.36 562.17 432.31 562.66 432.33 563.18 432.62 564.1 432.81 564.65 432.96 565.17 432.94 565.94 432.88 566.36 432.37 567.13 432.07 567.37 431.68 567.66 431.09 568.07 430.8 568.3 430.26 568.46 429.95 568.5 429.33 568.39 428.26 568.07 427.6 567.71 427.21 567.59 426.78 567.55 426.2 567.82 425.46 568.17 424.79 568.43 424.04 568.7 423.23 569.09 422.5 569.54 421.64 569.98 420.9 570.38 420.28 570.68 419.58 570.9 418.89 571.15 417.78 571.59 417.32 571.82 416.12 572.47 415.47 572.83 415.31 572.91 414.99 573.07 414.22 573.47 413.53 573.81 413.01 573.97 412.49 574.24 411.16 574.61 410.69 575.1 410.21 575.58 409.78 576 409.4 576.35 408.74 576.93 408.61 577.33 408.51 577.61 408.26 577.97 408.07 578.2 407.88 578.59 407.77 578.88 408.02 579.09 408.35 579.13 408.82 579.09 409.15 579.15 409.22 579.21 409.2 579.22 409.27 579.24 409.62 579.48 409.8 579.69 410.06 580.4 410.25 580.95 410.32 581.25 410.31 582.25 410.31 582.61 410.1 583.55 409.64 584.4 409.33 584.86 409.01 585.31 408.7 585.67 408.34 585.82 407.94 586.07 407.47 586.42 407.05 586.66 406.67 586.89 406.47 587.08 406.22 587.62 406.27 588.05 406.33 588.41 406.41 588.83 406.57 589.21 406.71 589.91 406.84 590.7 406.93 591.29 406.83 591.8 406.77 592.39 406.99 592.86 407.31 593.24 407.33 593.53 407.48 593.8 407.64 594.09 408.08 594.67 408.51 595.11 408.99 595.54 409.46 595.94 409.98 596.32 410.39 596.6 410.85 596.99 411.37 597.36 411.8 597.81 412.12 598.05 412.37 598.3 412.83 598.71 413.24 599.08 413.48 599.28 413.8 599.6 413.97 599.91 414.16 600.22 414.31 600.58 414.42 601.01 414.6 601.49 414.86 601.97 415 602.4 415.14 602.88 415.26 603.29 415.32 603.68 415.31 604.14 415.27 604.52 415.25 605.02 415.21 605.67 415.11 606.11 414.96 606.65 414.81 607.12 414.66 607.67 414.42 608.27 414.09 608.79 413.92 609.07 413.79 609.33 413.5 609.76 413.38 609.88 413.31 610.06 413.14 610.37 412.87 610.72 412.17 611.3 411.15 612.04 410.44 612.54 409.37 613.32 408.47 614.3 407.64 615.55 407.27 617.13 407.37 618.54 407.42 619 407.48 619.45 407.56 620.23 407.67 621.2 407.7 621.5 407.8 622.08 407.99 622.78 408.21 623.47 408.32 623.83 408.39 623.98 408.1 623.95 407.62 623.91 406.96 623.81 405.98 623.76 404.98 623.64 404.21 623.53 403.58 623.25 403.09 622.96 402.82 622.83 402.48 622.62 401.81 622.35 401.25 622.19 400.56 622.13 399.58 622 398.65 621.77 397.94 621.34 397.43 621 396.87 620.77 396.43 620.5 395.87 620.19 395.27 619.83 394.71 619.42 394.39 618.69 394.45 618.28 394.43 617.76 394.05 616.99 393.79 616.61 393.51 616.23 392.93 615.56 392.73 615.35 392.39 614.85 391.94 614.28 391.8 614 391.41 613.67 391.16 613.32 390.68 612.65 390.42 612.43 390.04 612.44 389.73 612.12 389.69 611.64 389.59 610.9 389.53 610.32 389.4 609.48 389.32 608.7 389.19 607.95 389.12 607.39 388.99 607.01 388.99 606.62 389.18 606.19 389.36 605.55 389.51 604.83 389.57 604.25 389.66 603.89 389.21 603.37 388.6 603.03 387.79 602.58 387.1 602.09 386.44 601.64 385.61 600.85 385.4 600.53 385.21 600.29 384.82 599.86 384.08 599.12 383.47 598.58 382.75 598.04 382.42 597.94 382.16 597.46 382.14 596.92 381.64 596.73 380.62 596.86 379.8 597.06 378.92 597.36 378.38 597.61 377.47 598.08 376.84 598.39 376.17 598.63 375.7 598.55 375.53 598.85 375.61 599.15 375.72 599.44 376.02 599.97 376.16 600.28 376.39 600.59 376.71 600.52 376.93 600.71 377.08 601 376.94 601.3 376.53 601.7 375.97 601.8 375.26 601.61 374.88 601.46 374.37 601.38 373.97 601.56 373.43 601.48 373.09 601.4 373.06 600.69 373.31 600.45 373.24 600.11 372.94 600.17 372.55 600.13 372.14 600.22 371.67 600.28 371.5 599.97 371.67 599.64 371.91 599.14 371.79 598.77 371.23 598.76 370.56 598.93 370.25 598.98 369.96 598.98 369.62 598.81 369.38 598.61 368.71 598.46 368.23 598.36 367.33 598.28 366.89 598.21 366.24 598.17 365.77 598.18 365.4 598.14 364.91 597.95 364.88 597.5 364.73 597.24 364.17 597.11 363.86 596.94 364.03 596.54 364.25 596.34 364.55 596.2 364.42 595.91 364.07 595.53 364.33 595.13 364.2 594.85 364.14 594.8 363.84 595.01 363.44 595.14 362.94 594.89 362.58 595.09 362.35 595.41 362.24 595.69 361.95 596.23 361.92 596.62 361.26 597.03 360.83 596.9 360.43 597.11 360.05 597.19 359.81 597.01 359.52 597.22 359.28 597.58 359.11 597.84 358.84 598.26 359.02 598.78 359.23 599 358.95 599.61 358.72 599.85 358.43 600.21 358.71 600.68 358.62 601.03 358.38 601.37 358.31 601.97 358.07 602.34 358.49 602.9 358.69 603.13 359.08 603.32 359.43 603.35 359.76 603.42 360.01 603.69 360.33 604 360.58 604.15 360.96 604.12 361.4 603.91 361.77 603.89 362.2 603.95 362.48 604.1 362.75 604.4 362.71 604.72 362.53 605.01 362.05 605.34 361.86 605.7 361.98 606.08 362.03 606.39 362.12 606.9 362.27 607.14 362.24 607.68 362.29 607.99 362.67 608.56 362.88 608.77 363.26 609.04 363.69 609.29 363.69 609.98 363.56 610.67 363.6 611.12 363.9 611.33 364.28 611.53 364.56 611.68 364.81 611.91 364.78 612.21 365.04 612.41 365.38 612.61 364.96 613.3 364.73 613.88 364.57 614.18 364.28 614.36 363.91 614.28 363.5 614.25 363.12 614.64 362.88 614.99 362.5 615.37 362.32 615.6 362.33 616.09 362.27 616.38 362.09 616.71 361.73 617.13 361.49 617.42 361.12 617.82 360.81 618.3 360.73 618.49 360.69 618.58 360.96 618.8 361.16 619.08 361.16 619.39 361.33 619.81 361.34 619.82 361.44 620.27 361.71 620.77 362.13 620.93 362.31 621.24 362.77 621.69 363.11 621.93 363.43 621.92 363.61 621.64 363.69 622.09 363.62 622.48 364.1 622.82 364.49 622.89 364.83 622.77 365.22 622.63 365.61 622.46 365.99 622.35 366.58 622.36 366.8 622.53 366.76 622.81 366.69 623.12 366.68 623.5 366.79 623.77 367.17 624.01 367.7 624.65 367.93 625.01 368.19 625.32 368.58 625.49 369.01 625.65 369.23 625.87 369 626.18 368.63 626.29 368.07 626.43 367.78 626.49 367.46 626.91 367.27 627.34 367.14 628.04 367.13 628.38 367.11 628.77 366.82 629.19 366.56 629.9 366.36 630.24 366.03 630.61 365.66 630.98 365.24 631.25 364.75 631.5 364.41 631.65 364.1 631.84 363.74 632.12 363.17 632.43 362.85 632.59 362.55 632.8 362.14 633 361.51 633.13 361.2 633.15 360.63 633.07 360.35 632.9 360.07 632.67 359.6 632.41 359.14 632.31 358.56 632.25 358.15 632.13 357.83 631.97 357.63 632.49 357.1 632.78 356.68 633.09 356.3 633.32 355.79 633.5 355.43 633.59 355.17 633.71 354.98 633.75 354.77 633.79 354.53 633.79 354.05 633.41 353.67 633.19 353.32 633.01 353.05 632.71 352.8 632.88 352.3 633.24 352.06 633.43 351.83 633.64 351.82 633.64 351.56 633.83 351.26 634.09 351.04 634.28 350.75 634.5 350.38 634.8 350.19 634.93 350.03 635.03 349.72 635.13 349.16 635.12 347.84 635.04 347.34 635.01 346.9 634.87 346.51 634.68 345.9 634.46 345.54 634.33 345.12 634.13 344.83 633.97 344.62 633.86 344.5 633.79 344.42 633.73 344.29 633.62 344.03 633.46 343.62 633.27 343.49 632.54 343.56 632.16 343.6 631.84 343.7 631.5 343.73 630.95 343.28 631.04 343.02 631.14 342.4 631.35 341.77 631.52 341.24 631.64 340.89 631.77 340.4 631.91 339.77 632.14 338.96 632.36 338.31 632.55 337.65 632.7 336.92 632.9 336.32 633.06 335.87 633.17 335.23 633.35 334.8 633.48 334.37 633.62 334.31 633.66 334.15 633.73 333.91 633.86 333.72 633.92 333.49 633.93 333.22 633.84 333.02 633.74 332.88 633.69 332.78 633.64 332.71 633.6 331.79 633.82 331.7 634.12 331.58 634.31 331.5 634.4 331.42 634.49 331.31 634.5 331 634.26 330.72 634.13 330.44 634.41 330.3 634.65 330.1 634.8 329.87 635.01 329.54 635.27 329.09 635.54 328.67 635.63 328.33 636.09 328.18 636.36 327.79 636.7 327.57 636.79 327.18 636.89 326.44 637.05 325.61 637.24 324.89 637.3 324.21 637.26 323.91 637.32 323.54 637.37 323.31 637.4 323.3 637.41 323.01 637.52 322.79 637.6 322.58 637.79 322.19 638.09 321.52 638.55 320.89 638.93 320.54 639.16 320.09 639.41 319.6 639.56 319.05 640.07 318.75 640.64 318.21 641.64 318.02 642.06 318.02 642.53 318.16 642.74 318.09 643.06 317.94 643.27 317.41 643.74 316.82 644.14 316.27 644.67 315.84 645.19 315.57 645.67 315.38 646.35 315.32 646.89 315.3 646.99 315.3 646.99 315.14 647.94 315.26 648.84 315.22 649.58 315.11 650.26 315.19 650.76 315.42 651.31 315.56 651.44 315.73 651.73 315.59 652.46 315.52 653.03 315.48 653.88 315.45 654.49 315.38 654.91 315.16 655.38 314.73 655.8 314.62 656.26 314.52 656.88 314.49 657.58 314.48 658.17 314.44 659.4 314.36 659.87 314.24 660.12 313.92 660.63 313.81 661.53 313.85 661.89 313.9 662.35 313.86 662.73 313.77 663.29 313.91 664.18 313.66 664.53 313.3 664.77 312.6 664.91 312.05 664.95 311.43 664.71 310.84 664.41 310.13 664.33 309.52 664.4 309.38 664.41 309.56 664.58 309.66 664.72 309.75 664.87 309.85 665.05 309.84 665.28 309.88 666.76 309.92 666.88 310.07 666.99 310.2 667.06 310.27 667.08 310.32 667.14 310.36 667.23 310.64 667.51 310.69 667.58 310.78 667.79 310.81 668.06 310.83 668.37 310.86 668.5 310.97 668.78 311.06 668.93 311.32 669.26 311.55 669.48 311.73 669.65 311.88 669.98 311.87 670.18 311.8 670.34 311.82 670.68 311.87 670.85 312.07 671.64 312.14 671.79 312.23 671.92 312.37 672.15 312.43 672.39 312.45 672.47 312.46 672.73 312.46 672.88 312.41 672.99 312.29 673.27 312.18 673.39 311.97 673.67 312.23 674.05 313.33 675.25 313.54 675.52 313.62 675.69 313.74 675.97 314.05 676.2 314.28 676.35 314.44 676.46 314.73 676.72 314.86 676.88 315.14 677.25 315.27 677.49 315.29 677.69 315.33 677.91 315.47 678.26 315.58 678.49 315.36 680.38 315.13 680.44 314.92 680.65 314.86 680.9 314.6 680.88 314.56 681.19 314.44 681.44 314.34 681.73 314.04 682.51 313.97 682.94 314.19 683.32 314.3 683.56 314.38 683.83 314.56 684.09 314.74 684.33 314.94 684.85 314.92 685.08 315.09 685.38 315.37 685.58 315.69 685.75 316.02 686.04 316.17 686.2 316.5 686.37 316.69 686.4 316.91 686.37 317.27 686.25 317.72 686.13 317.48 686.45 316.25 688.69 316.21 688.92 316.21 689.22 316.2 689.46 316.29 689.86 316.51 689.94 316.87 690 317.18 689.87 317.47 689.82 317.8 689.89 317.63 690.23 317.37 690.52 317.38 690.73 317.43 690.94 317.51 691.35 317.57 691.68 317.61 692.14 317.69 692.41 317.82 692.92 318.02 693.27 318.13 693.51 318.25 693.79 318.39 693.96 318.5 694.19 318.78 694.41 318.97 694.58 319.2 694.82 319.39 695.23 319.45 695.5 319.48 695.68 319.52 696.13 319.61 696.81 319.48 697 319.3 697.09 318.93 697.14 318.7 697.45 318.58 697.86 318.61 698.08 318.68 698.21 318.8 698.41 319.06 698.66 319.24 698.81 319.56 699.09 319.96 699.34 320.36 699.55 320.55 699.62 320.79 699.62 321.18 699.61 332.53 707.23 332.52 707.74 332.37 708.05 332.21 708.5 330.57 711.36 330.15 712.09 329.8 712.49 329.92 712.63 330.8 713.2 331.61 713.83 332.26 714.72 333.14 715.29 333.8 715.73 334.68 715.99 335.2 715.99 335.79 715.87 335.94 715.12 336.25 713.68 336.41 713 336.71 712.5 337.01 712.25 337.6 712.13 338.41 712.14 339.15 712.14 339.81 712.27 340.26 712.21 340.78 711.72 340.79 711.03 340.79 710.47 340.43 709.96 340.43 709.77 340.44 709.46 340.59 709.21 341.7 709.03 342.88 708.98 343.69 708.86 344.58 708.93 344.87 709.19 345.37 710.13 346.73 713.46 346.98 714.09 347.62 714.39 348.46 714.48 348.96 714.48 349.2 714.48 349.35 714.65 349.3 714.9 349.08 716.08 348.82 717.63 348.46 718.97 347.89 720.64 347.84 720.93 347.83 721.02 347.8 721.36 347.56 722.62 347.16 723.55 346.61 725 346.49 725.77 346.36 726.29 346.36 726.53 346.6 726.65 347.18 727.04 347.95 727.39 348.11 727.91 347.73 728.2 347.21 728.17 346.54 728.02 346.16 728.03 345.79 728.27 345.61 728.8 345.16 729.81 345.19 730.66 345.39 731.3 345.69 731.73 346.37 732.32 346.85 732.76 347.05 733.08 347.25 733.68 347.28 734.76 347.1 735.17 346.87 735.49 346.55 735.78 346.03 735.99 345.47 736.32 344.43 736.38 344.19 736.35 343.28 736.24 342.62 736.21 341.1 736.12 340.43 736.05 339.91 735.9 339.24 735.83 338.82 735.92 338.49 736.05 338.26 736.25 337.98 736.62 337.71 736.94 336.92 737.76 336.22 738.26 335.51 738.91 331.05 742.49 329.34 744.05 328.36 744.83 327.57 745.53 327.21 746.06 326.85 746.71 326.49 747.44 326.22 748.33 325.96 749.14 325.69 749.55 325.36 749.88 324.76 750.21 324.29 750.46 323.72 750.7 322.97 751.08 322.14 751.86 321.59 752.59 321.23 753.37 320.77 753.94 320.27 754.55 319.91 755.12 319.64 755.85 319.22 757.79 319.24 758.75 319.32 759.84 319.48 760.68 320.08 761.55 320.32 761.83 320.47 762.07 320.67 762.38 320.81 762.54 320.82 762.7 320.82 762.86 320.83 763.03 320.65 763.36 320.63 763.39 320.26 764.35 319.75 764.91 319.37 765.42 318.4 766.43 317.46 767.95 316.83 768.63 316 769.31 315.41 769.43 313.45 769.36 312.4 769.1 311.14 768.74 310.82 768.74 310.56 769.08 310.44 769.2 310.32 769.7 310.02 770.54 309.7 771.1 309.47 772.27 308.86 773.67 308.87 774.12 308.89 774.67 309.09 775 309.42 775.22 309.76 775.43 310.22 775.76 310.5 776.2 310.64 776.58 310.67 777.75 310.42 778.09 310.04 778.7 309.6 779.44 308.85 780.67 308.75 781.67 308.45 782.85 308.21 783.35 307.91 784.47 307.8 785.12 307.49 785.68 307.12 786.25 306.93 786.75 306.95 787.19 306.95 787.36 306.96 787.75 306.6 788.81 306.02 789.21 305.38 789.73 304.54 789.85 303.49 789.87 302.98 790.05 302.53 790.34 302.53 790.56 302.55 791.01 302.82 791.44 303.03 791.88 303.43 792.27 303.6 793.87 303.97 795.37 303.7 797.26 303.59 798.04 303.09 799.94 303.22 800.19 303.49 801.44 303.79 803.23 303.33 804.5 303.18 805.07 303.01 805.7 302.85 806.35 302.77 806.94 302.99 807.78 303.17 808.31 303.44 808.7 303.36 809.02 302.89 809.51 302.5 809.96 302.23 810.25 302 810.67 301.91 811.22 302.1 811.91 302.35 812.98 302.43 813.4 302.42 813.83 302.38 814.09 302.11 814.28 301.38 814.53 299.66 815.2 298.97 815.52 298.43 816.04 298.05 816.53 297.81 817.37 297.61 818.38 297.45 819.06 297.09 820.39 296.74 821.3 296.18 823.27 295.63 824.96 295.09 826.29 294.35 827.26 292.84 829.51 292.75 829.7 292.56 830.34 292.44 830.74 292.15 830.96 291.79 831.22 291.19 831.3 290.6 831.31 290.07 831.31 289.72 831.38 289.47 831.51 289.25 831.74 289.09 832.29 288.74 833.33 288.48 833.73 288.12 833.96 287.53 834.38 286.79 834.69 286.48 834.89 286.24 835.09 286.02 835.32 285.77 835.94 285.47 837.17 285.4 837.64 285.19 838.09 285 838.38 284.57 838.6 283.77 839.01 283 839.52 282.81 839.78 282.4 840.31 282.01 841.03 281.76 842.11 281.46 843.24 281.32 844.2 281.43 844.56 281.52 844.73 281.89 844.84 282.87 845.06 283.03 845.25 283.21 845.59 283.09 845.88 282.84 846.01 281.86 845.89 280.1 845.5 279.58 845.45 279.03 845.61 277.8 846.32 277.41 846.55 276.85 847.22 276.01 848.34 275.25 849.43 274.63 850.56 274.09 851.64 273.6 852.83 273.4 853.49 273.34 853.69 273.42 853.8 273.72 853.99 274.19 854.09 274.5 854.28 274.77 854.59 274.82 855.03 274.66 855.55 274.44 855.69 274.01 856.3 273.61 856.95 273.5 857.29 273.46 857.81 273.86 858.17 274.27 858.35 274.74 858.7 274.87 859.22 274.92 859.66 275.3 860.21 275.51 860.59 275.95 861.06 276.08 861.36 276.07 861.76 275.97 862.08 275.75 862.21 275.17 862.24 275 862.33 274.84 862.6 274.81 863.21 274.69 863.61 274.53 863.89 274.08 864.22 273.71 864.35 273.4 864.32 273.14 864.35 272.98 864.5 272.91 864.76 272.94 865.26 273.1 865.6 273.07 866.06 272.95 866.34 272.78 866.55 272.55 866.74 272.2 866.82 271.98 866.83 271.79 866.98 271.68 867.11 271.5 867.47 271.37 867.81 271.21 868.33 271.32 868.57 271.58 868.66 271.9 868.69 272.34 868.76 272.85 868.87 273.04 869.07 273.3 869.4 273.58 870.04 273.97 870.44 274.59 870.88 275.12 871.27 276.1 871.85 276.35 872.09 276.49 872.37 276.52 872.99 276.42 873.31 276.31 873.69 276.18 873.78 275.89 873.9 275.58 873.96 274.1 873.88 273.2 873.87 272.58 873.67 272.27 873.64 271.66 873.63 271.32 873.66 271.22 873.76 271.2 873.94 271.56 874.08 271.87 874.24 272.33 874.5 272.43 874.79 272.4 875.25 272.43 875.87 272.44 876.33 272.45 876.89 272.72 877.2 272.91 877.52 273.17 877.6 273.44 877.66 274.54 877.84 274.95 877.93 275.36 878.11 275.63 878.29 275.74 878.53 275.7 878.8 275.41 879.29 274.98 879.87 274.68 880.54 274.41 881.44 274.29 882.09 274.12 882.79 273.86 883.41 273.73 883.85 273.64 884.29 273.69 884.6 274.11 884.88 274.51 884.97 274.93 885.25 275.12 885.59 275.04 885.85 274.97 886.08 274.53 886.36 273.97 886.57 273.81 886.72 273.58 886.92 273.37 887.15 272.87 887.38 272.25 887.64 271.59 887.81 269.68 887.82 268.31 887.96 267.97 888.04 267.62 887.99 267.28 887.92 267.06 887.96 266.87 888.11 266.83 888.47 266.81 889.26 266.8 890.03 266.96 890.59 266.99 891.11 266.89 891.42 266.78 891.8 266.91 891.98 266.95 892.33 266.8 892.57 266.46 892.65 265.77 892.66 265.39 892.63 264.89 892.62 264.58 892.8 264.42 893.1 264.37 893.27 264.72 893.41 265.33 893.67 265.62 893.79 265.85 894 265.85 894.34 265.64 895.06 264.74 895.69 263.73 895.67 262.76 895.75 262.25 896.07 262.14 896.47 262.22 897 262.1 897.53 261.75 898.28 261.72 898.35 261.32 898.81 260.85 899.22 260.44 899.48 260.01 899.57 259.3 899.68 258.37 899.9 258.05 900.03 257.83 900.17 257.68 900.45 257.59 900.71 257.56 901.07 257.64 901.44 257.84 902.06 257.99 902.49 258.06 902.96 257.92 903.77 257.6 905.2 257.35 905.93 257.06 906.42 256.6 906.95 255.95 907.34 255.91 907.35 255.3 906.95 254.52 906.72 253.72 906.55 252.49 906.24 251.13 905.55 250.87 905.09 250.69 904.3 250.51 903.45 250.38 902.94 250.06 902.66 249.54 902.48 249.34 902.42 249.08 902.36 247.97 902.18 246.72 902.16 245.6 902.15 244.62 902.14 243.63 902.52 242.44 903.01 241.43 903.95 240.76 905.24 240.42 905.46 239.83 905.68 239.44 905.62 238.39 905.49 236.55 905.47 234.38 905.38 233.27 905.43 232.35 905.08 231.51 904.5 230.92 904.27 230.33 904.21 230 904.26 229.87 904.43 229.54 904.54 229.34 904.81 228.94 905.03 228.61 904.86 228.42 904.58 228.17 904.01 227.91 903.78 227.32 903.61 226.07 903.48 224.9 903.18 223.6 902.49 222.68 901.92 222.16 901.74 221.57 901.74 220.98 901.78 220.38 902.12 219.75 902.53 218.9 902.52 218.79 902.51 218.83 902.92 218.45 903.54 218.1 904.07 218.18 904.34 217.96 904.59 217.7 904.89 217.17 905.21 216.65 905.47 216.24 906.04 216.22 906.39 216.1 906.79 215.55 907.29 214.84 907.5 213.8 907.57 213.23 907.61 212.56 907.74 211.77 907.91 211.51 907.9 210.71 908.09 209.94 908.26 208.44 908.3 206.82 908.51 206.27 908.62 205.86 908.69 205.13 908.79 204.69 908.92 204.3 909.06 203.78 909.12 203.5 909.23 203.28 909.8 202.93 910.52 201.87 911.79 201.68 912.13 201.3 912.72 200.64 913.35 200.32 913.8 200.24 914.15 200.11 914.77 200.03 915.33 199.86 915.73 199.37 916.15 199.23 916.35 199.1 916.6 199.29 916.91 199.06 917.17 198.37 918.62 197.57 920.32 196.94 921.42 196.19 922.39 196.03 923.46 196.12 924.45 194.42 925.01 192.27 925.52 190.37 925.94 187.97 926.54 185.22 927.23 180.83 928.5 178.04 929.62 177.21 930 173.96 926.24 173.17 924.24 174.14 923.36 174.43 922.26 173.87 921.64 173.07 921.11 172.39 920.59 172.3 919.89 172.33 919.38 172.58 918.79 173.31 918.11 174.4 917.44 174.68 916.35 174.71 915.44 174.41 914.23 174.04 912.01 174.07 908.5 173.71 905.98 173.79 903.97 174.14 901.27 174.92 896.78 175.35 894.78 175.78 892.52 175.78 889.81 175.43 886.98 174.71 884.65 173.98 882.42 173.62 879.8 173.08 876.07 173.11 875.27 172.9 874.76 172.32 874.64 171.5 874.61 170.44 874.58 169.7 875.36 168.97 876.14 167.74 877.41 166.88 878.29 165.22 878.94 163.66 879.69 162.7 880.27 161.85 880.94 161.11 881.82 160.37 882.71 159.86 883.69 158.88 884.77 158.4 885.06 157.81 885.14 156.87 885.11 155.69 885.27 155.44 885.67 155.3 886.17 154.93 886.66 154.23 886.64 153.76 886.62 152.84 886.29 152.36 886.58 152.11 886.97 151.97 887.47 151.61 887.66 150.91 887.54 150.46 887.23 149.9 886.61 149.8 886 149.48 885.19 149.16 884.58 148.69 884.56 147.07 884.11 146.6 884.1 146.24 884.19 146.11 884.59 146.07 885.49 146.48 887.01 146.55 888.31 146.5 889.52 146.12 890.11 145.4 890.49 143.86 890.94 143.49 891.53 143.46 892.24 143.3 893.34 142.93 893.83 142.57 894.02 141.98 894.1 140.19 893.82 140.01 893.82 139.99 893.78 139.34 892.84 138.91 890.99 138.35 888.27 137.92 886.47 137.85 885.29 136.94 883.18 135.96 880.51 135.65 879.17 134.49 877.27 134.12 875.73 133.7 874.65 133.21 874.09 132.37 873.89 129.36 873.7 127.26 873.71 126.11 873.61 125.15 873.31 124.54 872.69 123.58 871.77 122.25 870.8 121.52 869.62 121.03 868.6 121.02 867.72 121.13 866.69 121.66 865.25 121.81 861.91 121.96 858.36 121.93 853.93 122.15 851.51 122.61 847.85 122.7 844.15 122.8 841.06 122.91 839.46 122.84 838.07 122.65 837.05 122.59 836.33 122.22 835.51 122.15 834.68 122.14 833.5 122.44 832.31 122.98 832 123.63 831.43 123.93 830.5 123.93 830.04 123.8 829.73 123.32 829.32 122.53 828.81 122.17 828.35 121.92 827.69 121.55 826.04 121.03 822.24 120.9 820.49 120.95 819.46 121.07 818.85 121.37 818.43 121.85 817.97 122.57 817.35 123.29 816.88 123.65 816.36 123.82 816.05 123.82 815.74 123.64 815.08 123.39 814.56 123.39 814.15 123.38 813.53 123.8 811.94 124.27 810.6 124.56 808.9 124.85 808.02 124.85 807.2 124.84 806.22 124.84 806 124.84 805.4 124.23 805.3 123.32 805.3 122 805.51 120.91 805.83 120.37 806.19 119.77 806.61 118.81 807.95 118.1 808.98 117.26 809.91 116.6 810.74 115.82 811.67 114.99 812.76 114.45 813.22 113.54 813.48 112.64 813.75 111.8 813.91 110.89 813.71 109.92 813.15 109.31 812.69 108.56 812.62 107.48 812.63 107.29 812.37 107.04 811.09 107.03 810.11 106.95 807.9 107.07 807.33 107.73 806.45 108.56 805.47 109.52 804.54 110.24 803.19 110.65 802.27 110.89 801.29 111.18 800.56 111.6 800.1 111.84 799.33 111.83 798.71 111.46 798.14 110.62 797.84 108.8 797.13 107.59 796.78 105.77 796.07 102.73 794.6 101.7 793.73 100.54 793.01 99.43 792.21 98.52 791.54 98.45 791.29 98.45 791.08 98.93 790.82 99.6 790.56 100.74 789.73 101.28 789.26 101.39 788.7 101.57 788.39 102.17 787.82 102.89 786.52 104.07 783.94 105.02 781.93 105.74 781.1 106.94 780.07 107.18 779.35 107.18 779.09 106.94 778.94 106.51 778.94 105.55 779.1 103.91 779.26 102.89 779.63 102.1 779.84 101.44 779.9 100.89 779.95 99.99 779.91 99.68 779.75 99.38 779.75 99.14 779.81 98.29 780.17 97.93 780.38 97.51 780.49 96.79 780.65 96.48 780.85 96 781.22 95.64 781.32 95.22 781.33 95.04 781.33 94.79 781.07 94.55 780.76 94.12 780.56 93.4 780.72 92.8 781.24 91.53 781.66 90.53 781.89 90.51 781.89 90.17 782.02 89.12 782.33 88.71 782.45 88.37 782.55 87.5 782.64 86.45 782.72 85.57 782.8 84.72 782.81 84.02 782.77 83.83 782.79 82.45 782.99 80.45 783.19 79.58 783.29 79.35 783.33 79.01 783.4 77.92 784.39 77.52 784.77 76.19 786.27 76.17 786.29 75.84 786.59 75.53 786.88 75.16 787.03 75.12 787.05 74.57 787.27 74 787.49 73.54 787.96 73.52 787.98 73.26 788.85 73.22 790.03 73.04 790.29 72.34 791.12 71.45 792.27 71.41 792.34 71.09 793.18 71.04 793.59 71.03 793.79 70.79 794.14 70.36 794.41 70.29 794.46 69.96 794.66 69.56 794.88 69.23 794.97 68.86 795.06 68.08 795.23 67.83 795.37 67.51 795.54 66.98 795.93 66.24 796.72 65.67 797.46 65.45 797.57 65.23 797.68 64.67 798.25 63.9 798.75 63.79 798.82 62.61 799.43 61.7 799.75 61.35 799.9 60.49 800.43 59.79 800.92 59.57 801.07 58.6 801.78 58.22 802.05 57.9 802.28 57.87 802.28 56.92 802.11 55.8 801.69 55.45 801.27 54.85 800.54 54.33 799.9 54.11 799.6 53.83 799.27 53.56 799.13 53.1 799.1 52.82 799.17 52.54 799.25 51.93 799.51 51.81 799.56 51.68 799.6 51.46 799.69 50.29 799.97 47.59 800.57 46.33 800.78 45.42 800.81 45.15 800.79 44.25 800.7 43.46 800.67 42.03 800.6 41.57 800.6 41.12 800.74 40.38 800.95 39.58 801.16 39.15 801.18 38.48 801.21 37.94 801.23 37.76 801.23 36.62 801.23 35.34 801.12 34.55 801.06 33.84 801.15 33.55 801.2 33.19 801.27 33.12 801.27 32.85 801.27 32.42 801.27 32 801.2 31.41 801.02 30.52 800.74 29.77 800.58 29.31 800.64 28.91 800.74 28.88 800.75 28.64 800.88 28.56 800.95 28.05 801.34 27.7 801.62 27 802.04 26.13 802.53 25.71 802.74 25.29 802.95 25.08 803.02 24.41 802.98 24.33 802.92 23.7 802.6 23.26 802.39 23.09 802.24 22.85 802.01 22.84 802 22.8 801.92 22.66 801.62 22.6 801.71 22.59 801.72 22.19 802.14 21.49 802.71 20.7 803.24 20 803.63 19.96 803.64 19.73 803.78 18.35 804.11 17.41 804.03 16.91 803.98 16.9 803.98 16.39 803.96 15.71 803.98 15.64 804.01 15.4 804.16 15.37 804.29 15.09 804.83 15.01 805.06 14.71 805.95 14.57 806.06 14.16 806.57 14.14 806.61 14.09 806.65 13.83 806.98 13.71 806.74 13.57 806.56 13.39 806.16 13.13 805.6 12.73 804.95 12.59 803.76 12.65 801.93 12.62 801.67 12.5 801.37 12.3 801.01 12 800.13 11.78 799.43 11.72 799.09 11.59 798.64 11.22 797.98 11.17 797.9 11.01 797.61 10.89 797.41 10.17 795.47 10.05 795.06 9.83 794.52 9.74 794.31 9.5 793.7 8.69 792.2 8.42 791.37 8.39 791.3 8.37 791.24 8.13 790.33 7.64 789.03 7.63 789 7.21 787.97 7.51 784.53 8.03 782.3 8.27 781.15 8.55 777.38 7.64 775.41 6.95 773.96 6.75 772.36 6.5 771.21 6.38 769.61 6.14 767.77 6.27 764.91 7.22 760.17 6.33 757.34 5.75 754.27 6.35 752.49 7.6 750.07 7.47 749.47 6.79 746.41 6.75 746.24 6.64 744.32 6.87 741.23 7.24 739.9 7.5 737.69 7.77 736.43 7 735.09 5.82 733.18 4.78 731.35 4.18 729.84 3.31 727.94 2.41 725.68 1.76 724 1.26 722.55 1 721.22 2.08 719.93 3.23 717.63 4.73 715.21 5.93 712.74 7.51 710.86 8.77 709.54 10.36 707.77 11.47 706.92 12.06 706.53 14.03 706.01 15.85 705.4 18.49 704.75 21.48 704.53 23.84 704.28 25.23 703.22 26.04 702.41 27.04 701.08 28.09 699.44 29.4 697.74 31.29 695.64 34.44 692.92 35.27 691.74 36.04 689.67 36.06 688.49 35.33 686.93 34.69 685.36 34.8 683.37 35.57 682.29 35.36 681.29 34.09 679.8 33.44 679.06 32.2 678.3 31.02 677.41 30.4 676.95 27.62 674.56 26.35 673.51 25.52 672.36 25.41 670.62 27.53 669.34 29.45 668.5 30.34 668.02 34.17 664.95 35.33 663.8 37.16 661.52 38.23 660.71 40.04 658.92 41.91 657.67 44.74 655.91 46.71 655.56 47.65 655.2 47.26 654.26 46.65 653.37 46.31 652.52 45.63 650.21 45.37 646.39 44.72 644.73 44.74 643.47 45.01 639.75 44.55 638.6 44.3 636.45 44.47 634.19 44.8 632.09 45.53 631.17 47.62 628.21 48.34 627.56 49.91 625.83 53.21 623.3 53.66 622.75 55.15 621.34 57.12 620.32 58.37 619.63 60.73 619.95 62.41 620.08 64.15 619.84 66.01 620.18 69.31 620.47 71.48 620.57 74.26 619.81 75.99 620.26 78.07 620.21 79.02 619.35 79.69 618.89 80.59 618.63 81.92 618.09 85.18 617.07 87.82 616.36 90.05 616.12 93.8 615.77 96.8 616.8 98.31 617.56 99.71 618.27 101.4 618.98 103.92 619.82 105.4 619.64 105.92 619.58 108.25 619.37 110.43 619.32 112.89 618.16 113.52 617.45 114.8 615.51 116.49 615.1 118.9 614.68 121.31 613.7 122.55 613.63 125.64 613.26 127.5 613 129.91 612.73 130.68 612.15 131.32 611 132.9 609.01 134.21 607.36 135.21 606.15 136.16 604.74 137.38 603.53 138.04 602.69 139.4 602.21 142.6 601.83 144.34 601.62 147.24 601.32 150.49 601.75 151.65 601.38 152.38 600.62 155.56 598.31 156.14 597.83 157.58 596.84 160.14 595.82 161.2 595.53 162.67 595.11 164.34 594.27 165.81 593.53 166.49 592.88 168.38 591.12 171.18 588.39 172.18 587.26 172.89 586.48 174.22 585.06 175.33 583.86 177.45 582.36 180.18 581.42 183.06 581.78 182.91 581.16 181.84 579.4 180.76 577.83 180.47 576.12 181.25 575.05 181.04 574.05 180.02 572.65 179.11 571.52 178.45 570.74 177.66 569.88 176.17 568.2 174.28 567.18 173.52 567.02 172.24 566.28 169.85 564.86 169.11 564.21 168.72 563 167.91 560.75 167.35 560.23 166.15 559.81 164.69 558.76 163.32 557.54 161.53 556.11 160.12 555.21 159.33 554.17 158.6 552.38 157.82 550.63 157.36 548.82 157.32 547.34 157.49 545.85 159.15 541.75 159.3 540.5 159.89 539.21 160.94 536.74 160.49 534.31 157.44 533.37 155.3 532.42 153.61 530.59 153.48 529.4 153.74 527.44 153.8 526.41 153.24 525.75 152.91 525.36 152.54 524.24 152.68 522.43 151.76 521.43 149.6 520.62 148.22 520.65 146.43 521.16 144.78 521.33 143.18 521.43 140.74 521.04 140 520.7 138.4 520.12 135.21 519.07 132.54 518.29 131.27 517.96 129.18 517.54 128.02 517.31 126.92 516.66 125.25 515.64 124.27 515.05 123.14 514.22 122.34 513.45 121.75 511.22 121.63 510.13 121.34 508.27 120.89 506.27 120.47 503.98 118.9 502 116.2 499.98 115.59 499.45 114.65 496.51 114.62 492.81 114.41 491.74 110.79 490.08 109.38 488.62 108.1 487.83 106.7 486.6 106.18 485.18 105.76 483.63 106.18 481.28 107.41 479.86 108.18 479.12 110.69 477.78 112.47 477.42 113.5 477.13 112.94 475.53 112.87 474.42 112.66 473.7 112.58 472.7 112.65 470.63 112.31 469.63 112.32 468.68 113.45 467.05 114.13 467.05 115.38 467.18 116.43 467.37 118.35 467.5 119.37 467.5 121.33 467.74 122.12 467.64 123.51 467.73 125.59 467.74 126.63 467.6 127.47 467.61 128 467.53 129.86 467.55 130.85 467.34 132.8 467.95 135.47 468.16 137.18 468.79 139.14 469.63 140.82 470.13 142.15 470.62 144.62 471.89 146.75 472.51 147.92 472.04 151.21 471.94 152.28 471.56 153.51 472.27 154.4 473.01 156.55 474.34 156.72 474.44 157.36 474.82 159.83 475.95 161.59 476.63 162.56 477.28 163.37 477.76 164.82 478.25 165.89 478.44 166.63 478.67 167.17 478.8 169.2 479.39 170.64 479.12 173.16 479.39 174.91 479.41 175.44 479.52 178.09 480.1 178.85 480.14 181.25 481.38 183.51 481.04 187.47 480.91 191.93 480.85 195.39 480.8 198.14 482.16 201.08 484.21 202.78 484.44 206.51 484.63 210.83 484.26 213.69 483.98 217.65 483.79 220.85 483.6 226.05 483.31 228.59 482.85 231.18 482.58 235.06 482.72 237.9 482.4 240.39 482.06 246.15 481.83 247.92 481.79 249.78 482.24 253.57 482.67 256.31 482.71 258.59 482.35 261.1 481.88 263.99 481.29 266.35 481.3 267.29 481.12 269.55 480.96 274.47 479.7 276.18 478.52 276.21 475.97 275.55 475.11 274.9 474.08 274.77 473.48 275.02 472.22 277.47 471.43 279.43 471.07 280.93 471.78 282.45 471.91 285.2 472.12 288.01 471.93 290.52 471.2 291.63 470.73 293.25 469.03 293.7 468.55 294.56 467.94 295.37 467.19 296.98 466.92 300.15 466.21 301.83 466.32 304.39 465.24 304.41 464.67 304.52 462.65 304.34 462 303.92 460.74 302.98 457.56 303.45 456.36 304.71 454.68 306.6 453.44 308.99 450.97 310.79 449.72 312.05 448.28 312.69 446.81 313.15 446 312.71 442.03 312.52 440.62 313.24 439.36 313.24 438.78 312.06 436.95 311.68 436.44 311.39 435.21 311.84 434.24 312.66 433.25 313.78 431.96 315.56 429.97 317.25 426.21 317.92 423.44 319.27 420.71 319.37 420.05 319.4 418.63 319.4 418.25 318.05 416.85 316.51 415.54 316.11 415.05 314.07 414.41 311.37 413.37 310.09 413.15 307.73 412.36 307.2 412.45 306.15 411.6 304.97 410.48 303.97 408.83 303.27 407.72 302.53 406.72 301.46 405.75 299.31 404.05 297.47 402.42 296 402.03 292.75 399.26 291.73 399.14 291.29 398.8 290.15 397.42 289.55 395.37 289.35 393.9 289.45 393.27 289.39 391.07 289.5 389.37 289.43 388.19 289.27 387.08 289.21 385.33 289.39 384.85 290.37 384.12 292.93 383.48 295.11 383.2 296.94 382.8 298.68 382.38 301.88 382.47 303.48 382.18 305.13 382.62 306.18 383.17 308.69 382 308.62 380.82 308.69 379.48 309.37 377.87 309.12 376.75 310.13 375.35 309.74 373.68 308.57 371.4 307.57 369.11 306.84 367.17 306.73 365.58 307.8 363.4 309.47 362.4 310.93 361.53 316.51 360.28 318.81 358.2 319.32 357.81 321.81 355.95 323.04 354.76 324.3 353.53 326.09 353.58 326.74 353.59 329.52 352.12 329.77 350.88 330.28 349.36 331.74 346.48 333.52 346.3 335.84 345.62 337.28 344.38 339.5 341.42 339.92 340.73 340.34 339.29 340.68 338.56 341.52 336.77 341.78 334.99 343.94 332.45 344.88 331.69 347.09 330.3 349.37 329.5 351.02 328.99 352.49 328.67 355.05 327.62 356.74 326.78 359.57 325.1 360.56 324.66 362.43 323.76 365.63 322.37 366.05 322.19 367.77 321.38 369.51 320.48 371.21 319.72 372.02 318.83 372.86 318.09 373.02 316.99 372.91 316.1 372.91 313.27 375.37 313.54 375.25 313.2 375.15 312.25 374.62 311.15 374.95 310.57 375.4 309.93 376.19 309.28 377.03 308.62 378.22 308.11 380.44 306.98 381.82 306.54 383.6 306.2 383.13 305.81 382.33 305.27 381.77 304.52 381.44 304.04 380.69 303.47 379.92 302.45 379.8 301.87 379.78 300.86 379.87 300.52 379.85 299.93 379.52 298.41 379.19 297.76 378.59 297.37 378 297.03 377.93 296.31 378.54 295 379.08 294.06 379.84 293.53 380.99 293.02 382.06 292.25 383.66 291.53 384.77 291.18 385.99 290.12 387 288.83 388.03 288.01 389.35 287.48 390.2 287.85 391.39 287.95 392.33 288.01 393.18 287.8 393.57 286.77 394.51 284.37 395.38 283.56 395.87 282.97 396.18 282.3 396.83 281.92 397.69 281.92 397.9 281.68 400.22 278.84 400.94 278.03 402.02 277.31 402.42 276.61 402.25 275.76 402.4 275.11 401.87 275.37 401.33 275.24 400.79 275.04 399.86 274.81 398.95 274.51 398.41 274.28 397.69 274.18 397.12 274.4 396.56 274.52 395.9 274.56 395.29 274.47 394.75 274.19 394.17 273.8 393.65 273.24 393.21 272.57 392.97 271.96 392.6 271.33 392.09 270.93 391.66 270.57 391.09 270.17 390.72 269.56 390.17 269.01 389.67 268.59 388.87 268.42 388.32 268.42 387.45 268.34 386.84 268.17 386.39 267.81 386.06 267.25 385.61 266.69 384.85 266.18 384.34 265.84 383.54 265.46 383.03 265.05 382.54 264.54 382.08 263.84 381.75 263.24 381.78 262.64 381.91 262.09 382.13 261.46 381.53 261.15 382.53 258.55 382.93 257.94 383.17 257.28 383.45 256.64 383.92 256.09 384.4 255.58 385 255.13 385.56 254.72 386.27 254.13 386.84 253.34 387.14 252.87 387.66 252.07 388.21 251.06 388.85 250.02 389.24 249.34 389.5 248.83 390.01 247.97 390.57 247.31 391.14 246.96 391.58 246.6 392.11 246.18 392.51 245.61 392.82 245.1 393.3 244.62 394.03 244.45 395.03 244.38 395.69 244.07 396.15 243.47 396.52 242.79 396.81 242.21 396.95 241.68 397.02 241.06 397.31 240.55 398.02 240.11 398.33 239.65 397.95 239.1 397.7 238.46 397.54 237.89 397.33 237.41 397.03 236.95 396.41 236.41 395.7 236.01 395.05 235.7 394.49 235.2 394.16 234.76 393.61 234.15 393.16 233.62 392.52 233.19 392 233.05 391.3 233.01 390.67 232.89 390.09 232.72 389.68 231.94 389.39 231.11 389.07 230.62 388.52 230.16 388.37 229.84 388.5 229.2 388.95 228.72 389.09 228.22 388.82 227.74 389.12 227.07 389.44 226.38 389.66 225.77 389.4 225.29 389.05 224.71 389.09 223.99 389.58 223.74 390.22 223.32 390.52 222.82 390.7 222.29 391.21 221.83 391.79 221.5 392.15 221.1 392.31 220.46 392.46 219.91 392.4 219.29 392.49 218.56 392.05 218.11 391.57 217.78 391.03 217.33 390.63 216.31 390.12 216.31 389.37 216.21 388.67 216.32 387.85 216.4 386.96 216.54 386.35 216.46 385.77 216.25 385.2 216.09 384.68 215.95 384.14 215.64 383.65 215.36 382.84 215.17 382.33 214.85 381.92 214.46 381.39 214.09 380.85 213.65 380.36 213.38 379.75 213.21 379.08 213.06 378.38 212.93 377.67 212.86 377.05 212.74 376.61 212.35 376.45 211.76 376.13 211.25 375.69 210.91 375.16 210.7 374.67 210.43 373.97 209.98 374.3 209.4 373.9 208.86 373.37 208.53 373.48 207.94 373.98 207.26 374.4 206.8 374.79 206.44 374.93 205.65 374.88 204.93 374.64 204.4 374.14 204.18 374.31 203.59 374.91 203.48 375.62 203.3 376.29 203.22 376.85 203.16 377.53 202.7 378.2 202.26 378.89 201.88 379.43 201.56 378.95 200.9 378.68 200.23 378.82 199.71 379.48 199.48 380.05 199.13 380.74 198.71 381.28 198.04 381.37 197.47 380.92 196.97 381.24 196.54 381.14 195.87 381.16 195.17 381.31 194.47 381.64 193.89 381.58 193.27 381.08 192.98 380.46 192.73 379.83 192.48 379.27 192.13 378.78 191.84 378.22 191.44 377.46 191.41 376.62 191.39 376.06 191.32 375.23 191.12 374.66 190.72 374.25 190.34 373.7 189.78 373.98 188.76 373.45 188.3 373.15 187.79 373.39 187.27 372.77 186.98 372.34 186.6 371.9 186.28 372.2 185.6 372.53 185.03 372.81 184.57 372.59 184.03 372 183.6 371.47 183.1 372.12 182.62 372.61 182.2 373.14 181.84 373.69 181.44 374.1 181.09 373.94 180.44 373.05 180.36 372.54 180.2 372.01 179.94 371.45 179.79 370.62 179.52 370.01 179.2 369.78 178.63 369.78 178 369.71 177.44 369.21 176.99 368.51 176.52 367.71 176.12 367.09 175.7 366.72 175.13 366.26 174.7 365.78 174.04 365.44 173.24 364.97 172.55 364.56 171.89 364.18 171.2 363.76 170.67 363.05 170.23 362.36 169.86 361.79 169.34 361.29 168.99 361.25 168.38 361.08 167.69 360.63 166.95 359.73 166.69 359.12 166.57 358.34 166.28 357.71 166.2 356.9 166.42 356.08 166.81 355.24 166.88 354.65 166.65 354.37 166.12 353.59 165.89 353.03 165.76 352.42 165.44 352.08 165.04 351.72 164.46 352.08 163.76 352.6 163.11 353.05 162.63 352.77 162.03 352.17 161.4 351.64 160.88 351.21 160.39 351.4 159.68 351.7 159.08 351.87 158.38 351.9 157.74 352.25 157.18 351.83 156.65 351.01 156.2 350.32 155.72 349.76 155.3 349.26 154.98 348.73 154.68 348.39 154.24 347.78 154.27 347.22 154.38 346.57 154.42 346.01 154.55 345.38 154.67 344.52 154.86 343.87 155.1 343.07 155.17 342.46 155.15 341.54 155.11 340.98 154.96 340.43 154.44 340.11 153.87 339.57 153.31 338.84 152.78 338.29 152.34 337.95 151.87 337.39 151.68 336.58 151.59 336 151.22 335.74 150.52 334.88 150.24 334.05 149.85 333.74 149.38 333.61 148.36 332.96 148.09 332.44 147.62 332.16 146.86 331.63 146.14 331.01 145.78 330.38 145.59 329.9 144.96 328.99 144.64 328.45 144.45 327.61 144.22 326.97 144.27 326.39 144.19 325.95 143.42 325.48 142.81 324.97 142.59 324.28 142.67 323.93 142.2 324.48 141.81 324.49 140.99 324.6 140.33 325.06 139.85 325.66 139.41 326.22 138.85 326.27 138.14 326.67 137.43 327.24 136.99 327.4 136.35 327.3 135.37 328.08 134.71 328.96 134.41 329.48 133.74 330.27 133.33 330.79 133.55 331.3 133.84 331.93 133.95 332.4 133.7 332.81 133.36 333.44 132.68 333.2 132.18 333 129.86 333.11 129.09 332.67 128.5 333.24 127.95 334.13 127.37 334.93 126.72 335.45 126.83 336.12 126.81 336.7 126.65 337.19 126.25 337.87 125.89 338.79 125.56 339.41 125.21 339.89 124.9 340.01 124.34 340.08 123.58 340.75 123.76 341.59 123.68 342.26 123.1 342.69 122.53 343.14 122.21 343.84 121.69 344.63 121.58 345.53 121.67 346.42 121.81 347.04 121.85 348 121.79 348.62 121.43 349.14 120.79 349.62 120.3 349.91 119.75 350.15 118.9 350.36 118.11 350.43 117.51 350.54 116.86 350.5 116.13 351.08 115.94 351.66 115.9 352.7 115.67 353.51 115.35 354.09 115.16 354.63 115.12 355.16 115.12 355.94 114.7 356.5 114.19 357.35 114.06 358.17 113.88 358.56 113.34 359.27 113.42 360.01 113.25 360.76 112.7 361.41 112.31 361.57 111.65 361.28 110.82 361.32 109.89 361.88 109.24 362.4 108.97 362.3 108.02 364.2 108.02 365.4 108.02 367.47 108.02 369.54 108.02 371.27 108.1 371.84 107.58 372.09 107.08 372.18 106.4 371.8 105.77 371.52 105.31 371.34 104.71 371.77 104.23 372.67 104.35 373.23 104.45 373.76 104.48 374.3 104.35 374.6 103.76 375.32 103.54 376.12 103.35 376.69 103.08 377.17 102.55 377.23 101.92 377.05 101.07 377.33 100.54 378.11 100.08 379.38 100.02 379.93 100.06 380.59 99.58 381.08 98.96 381.9 98.9 382.06 98.18 381.83 97.51 382.4 96.83 382.67 96.3 383.31 96.12 384.16 96 385.17 95.87 385.93 95.86 386.93 95.87 387.59 95.91 388.2 95.93 388.83 95.84 389.74 95.82 389.94 95.02 389.94 94.46 390.25 93.97 390.63 93.38 391.11 93.16 390.3 92.56 389.8 92.24 389.31 91.75 388.77 90.99 388.38 90.51 387.89 90.24 387.11 89.92 386.92 89.14 386.55 88.56 387.72 88.19 388.32 88.05 388.77 87.75 388.79 86.97 389.26 86.69 390.09 86.45 390.58 86.27 391.17 86 391.42 85.28 391.7 84.57 392.49 84.17 393.01 84.11 393.79 83.89 393.77 83.32 393.47 82.74 393.98 82.24 394.73 81.72 394.91 80.91 394.7 80 394.65 79.06 394.69 78.48 395.06 77.95 395.62 78.01 396.43 78.1 396.98 78.05 396.71 77.6 396.28 77.04 395.97 76.5 395.65 75.86 395.92 75.05 396.13 74.31 395.96 73.66 395.73 72.69 395.57 72.15 395.64 71.58 396.63 71.17 397.47 70.8 397.95 70.53 398.69 70.14 398.98 71 399.11 71.72 399.77 72.4 400.58 73.07 401.23 73.38 401.78 73.43 402.26 73.66 402.96 74.2 403.37 74.62 404.1 75.1 404.8 75.01 405.5 74.74 406.04 74.37 406.48 74.08 406.45 74.98 406.51 75.51 407.42 76.1 408.11 76.31 408.77 76.53 409.5 76.87 410.48 77.54 410.94 77.9 411.36 78.27 411.87 78.61 412.24 79.18 412.33 79.77 412.38 80.25 412.31 80.68 412.31 81.55 413.51 86.26 413.9 86.52 414.21 86.69 414.53 86.91 414.77 87.12 415.04 87.33 415.4 87.55 415.79 87.81 416.56 88.17 416.89 88.31 417.42 88.48 417.9 88.84 418.35 89.04 418.71 89.2 419.06 89.34 419.48 89.5 420.05 89.68 420.45 89.82 421.17 90 421.76 90.15 422.42 90.31 422.91 90.43 423.48 90.57 424.16 90.75 424.84 90.89 425.16 90.98 425.53 91.03 426.11 91.12 426.66 91.18 427.34 91.28 427.88 91.4 428.31 91.47 428.71 91.33 429.02 91.11 429.44 90.73 429.83 90.46 430.43 90.36 431.07 90.36 431.68 90.39 432.29 90.4 432.92 90.37 433.27 90.24 433.3 89.75 433.03 89.22 432.85 88.8 432.78 88.41 432.7 87.96 432.78 87.28 432.8 86.91 432.79 86.54 432.07 86.54 431.26 86.61 430.42 86.69 429.58 86.69 428.68 86.65 428.1 86.56 427.63 86.46 427.28 86.39 426.72 86.92 426.17 86.66 425.95 86.24 425.82 85.68 425.7 85.17 425.58 84.09 425.58 83.34 425.59 82.73 425.45 82.04 425.32 81.39 425.13 80.96 425.16 80.31 425.15 79.74 424.81 79.27 424.51 79 424.33 78.67 424.68 78.4 425.44 78.12 426.37 77.89 427.33 77.71 428.36 77.5 429.37 77.43 430.51 77.34 431.58 77.44 432.65 77.57 433.67 77.67 434.28 77.65 435.08 77.58 435.47 77.57 435.95 77.74 436.31 77.89 436.82 77.85 437.44 77.73 438.04 77.66 438.68 77.5 439.2 77.37 439.66 77.33 440.24 77.32 440.7 77.03 440.65 76.59 440.67 75.99 440.98 75.85 441.38 75.76 441.38 75.34 441.01 74.82 440.91 74.49 441.11 74.09 441.4 73.76 441.72 73.53 442.04 73.24 442.42 72.88 442.47 72.25 442.55 71.89 442.74 71.53 442.98 71.24 443.23 70.98 443.66 70.77 443.94 70.59 444.52 70.26 445.11 69.92 446.05 69.55 446.37 69.47 446.77 69.49 447.3 69.62 447.97 69.79 448.48 69.91 449.07 70.12 449.51 70.31 449.9 70.44 450.3 70.64 450.84 70.88 451.49 71.18 451.89 71.34 452.25 71.47 452.68 71.41 453.15 71.33 453.6 71.28 453.95 71.18 454.52 70.13 455.23 68.7 455.8 67.42 456.66 66.27 456.94 65.13 457.8 64.27 458.66 63.56 459.02 63.03 459.27 63.64 459.84 63.89 460.6 64.01 460.8 64.6 461.21 64.95 461.81 64.89 462.39 64.69 462.86 64.51 464.17 63.87 464.88 63.53 465.57 63.15 466.33 62.71 467.22 62.18 467.68 61.97 468.47 61.74 468.95 61.7 469.48 61.69 470.08 61.6 470.75 61.41 471.57 61.25 472.34 61.13 472.23 60.8 472.45 60.34 473.04 59.91 473.76 59.45 474.26 58.84 473.9 58.53 473.41 58.07 472.96 57.67 472.55 57.29 472.19 56.9 471.67 56.42 470.96 56.27 470.34 56.07 469.84 55.78 470.31 55.13 470.89 54.65 470.89 54.16 470.27 54.17 469.57 54.15 468.98 53.98 468.45 53.75 467.95 53.41 467.62 53.19 468.43 52.78 468.88 52.49 469.41 52.19 469.89 51.88 470.61 51.39 470.8 50.83 470.57 50.08 470.29 49.28 470.22 48.41 470.1 47.72 469.72 47.17 469.87 46.4 469.77 45.49 469.68 44.73 470.13 44.28 470.74 44.33 471.52 44.38 472.67 44.35 473.69 44.48 474.26 44.57 474.89 44.71 475.55 44.79 476.15 44.69 476.53 43.94 477.21 43.39 477.82 43.03 478.46 42.85 479.08 42.61 479.76 42.47 480.28 42.39 480.93 42.32 481.55 42.52 482.22 43.16 483.24 43.19 483.84 43.09 484.42 43.07 485.07 43.06 485.68 43.11 486.07 42.71 486.77 42.25 487.42 41.95 487.71 40.98 487.7 40.29 486.98 39.8 486.44 39.35 485.87 38.89 485.41 38.43 484.76 37.63 484.68 36.99 484.97 36.17 485.43 35.6 486 35.1 486.5 34.61 486.92 34.28 487.64 33.89 488.24 33.54 488.52 32.81 488.8 31.94 488.98 31.14 489.14 30.33 489.31 29.82 489.63 29.04 490.29 28.39 491.03 27.7 491.69 27 492.02 26.88 492.38 26.85 492.75 26.81 493.3 26.75 493.65 26.74 494.21 26.76 495.03 26.99 495.79 27.22 496.75 27.53 497.12 27.66 497.7 27.9 497.82 28.37 498.57 28.52 499.44 28.46 500.25 28.44 501.23 28.42 501.78 29.03 502.34 29.37 503.02 29.06 503.54 28.88 504.3 28.85 504.73 28.51 504.94 27.92 505.53 27.31 506.21 27.18 507.02 27.14 507.44 26.74 507.63 26.06 507.99 25.37 508.68 25.17 509.22 25.48 510.23 26.15 510.79 26.4 511.42 26.68 512.06 26.88 513.12 26.82 513.73 26.64 514.33 26.45 514.84 26.31 515.31 26.08 515.93 25.91 516.57 25.85 517.14 25.77 517.77 25.66 517.77 25.11 517.84 24.12 518.7 23.52 519.24 23.33 519.81 23.16 520.39 23.09 521.18 22.99 521.94 22.94 522.51 22.91 523.24 22.95 524.17 22.97 525.1 23.17 525.74 23.56 526.55 23.74 527.2 23.62 528.32 23.59 528.87 23.57 529.4 23.57 530.32 23.56 531.31 23.63 532.12 23.85 532.81 23.85 533.28 23.54 534.21 23.25 534.65 23.11 535.3 23.11 534.89 22.58 535.02 21.82 535.49 21.3 536.42 21.05 537.34 20.85 537.83 20.53 538.1 19.74 538.42 19.31 539.07 19.29 539.54 18.88 539.96 18.3 540.63 17.96 541.45 17.61 542.06 17.29 542.78 16.74 543.39 16.26 543.94 15.78 544.38 15.18 544.92 14.97 545.47 15 546.15 14.59 547.46 14.31 548.04 14.04 548.58 13.65 549.72 13.59 550.42 13.64 551.11 13.7 551.94 13.61 552.92 13.03 553.45 12.72 554.26 12.37 555.06 12.43 555.81 12.49 556.62 12.44 557.23 11.97 557.93 11.61 558.63 11.47 559.41 11.25 560.31 11.4 560.93 11.57 561.54 11.78 562.33 12.02 563.08 12.36 563.65 12.64 564.16 12.49 564.87 12.62 565.65 12.51 566.27 12.57 567.07 12.66 567.7 12.58 568.23 12.59 568.88 12.71 569.72 13.13 570.34 13.57 571.18 13.31 571.63 13 572.46 12.62 572.95 12.39 573.98 12.04 575.18 11.61 575.57 11.32 576.43 11.19 577.06 11.29 577.69 11.56 578.12 11.89 578.67 12.72 579.31 13.06 580.2 12.92 580.71 12.78 581.56 12.65 582.14 12.63 582.56 12.32 583.11 12.04 583.69 11.87 584.29 12.22 584.74 12.49 585.19 12.8 585.98 13.36 586.76 13.43 587.35 13.4 588.35 13.2 589.14 13.25 589.82 13.11 590.37 12.93 591.23 12.68 592.17 12.84 592.96 13.04 593.61 13.39 594.55 13.36 595.16 13.18 596.06 13.26 596.6 13.42 597.26 13.51 598.16 13.34 598.63 13.03 599.27 12.41 599.8 11.85 600.49 11.82 601.2 11.9 601.78 12 602.39 12.18 602.94 12.4 603.66 12.7 604.29 12.89 604.95 12.29 604.96 11.67 605.1 11.08 605.54 10.5 606.09 10.36 606.39 9.85 606.28 9.16 606.77 8.83 607.41 8.44 607.99 7.89 608.65 7.6 609.88 7.49 610.68 7.99 611.77 8.64 612.55 9.31 613.23 9.65 614.14 9.68 614.69 9.54 615.4 9.36 616.07 9.61 616.95 9.49 617.79 9.47 618.45 9.41 619.37 9.44 620.08 9.52 620.84 9.66 621.45 9.68 622.19 9.33 623.11 8.94 624.05 8.68 624.59 8.46 625.53 8.13 626.21 7.66 626.36 6.74 626.88 6.18 627.61 5.65 628.61 5.43 629.24 5.4 630.25 5.45 630.99 5.6 631.67 5.78 632.29 5.93 633.53 6.25 634.34 6.33 635.35 6.02 635.89 5.7 636.44 5.4 637.02 5.14 637.56 4.93 638.48 4.62 639.13 4.59 640.18 4.52 641 4.58 641.62 4.66 642.39 5.01 642.59 5.62 643.57 6.02 643.97 6.47 644.34 6.96 645.49 6.78 646.17 6.78 646.78 6.7 647.85 6.54 648.69 6.25 649.5 5.85 650.42 5.41 651.06 5.51 651.78 6.02 652.46 6.19 653.38 6.19 654.34 6.12 655.23 6.05 655.69 5.89 656.3 5.89 656.96 5.85 657.5 5.77 658.19 5.35 658.67 4.92 659.18 4.68 659.72 5.11 660.35 5.48 661.01 5.72 661.68 5.98 662.36 6.2 662.78 6.64 663.09 7.24 663.34 7.76 663.87 8.28 664.59 8.39 665.33 8.2 665.97 7.75 666.58 7.25 667.21 6.77 667.8 6.27 668.46 5.81 669.18 5.46 669.72 5.36 670.25 5.37 670.79 5.47 671.56 6.02 672.42 6.67 673.04 7.06 673.63 7.02 674.26 7.1 675.15 6.95 676.01 6.96 676.59 6.49 676.93 5.95 677.55 5.4 678.51 5.01 679.29 4.42 679.6 3.95 680.22 3.57 680.89 3.61 681.59 3.74 682.15 3.91 682.7 4.06 683.61 4.3 684.18 4.31 685.18 4.39 685.92 4.81 686.56 5.25 687.4 5.23 688.19 4.84 688.81 4.5 689.63 4.43 690.27 4.46 691.16 4.4 692.11 4.17 692.7 3.87 693.52 3.81 694.32 3.99 695.18 3.92 695.93 4.13 696.94 4.45 697.56 4.68 698.09 4.8 698.94 5.15 699.47 5.53 700.07 6.02 700.5 6.39 701.25 5.81 702.17 5.23 702.75 5.12 703.67 5.02 704.58 4.9 705.16 4.82 706.05 4.8 706.6 4.87 707.13 4.94 708 5 708.68 4.73 709.36 4.03 709.79 3.44 710.31 3.28 711.03 3.35 711.66 3.38 712.16 2.82 712.65 2.3 713.16 2.44 713.83 2.67 714.59 2.6 715.18 2.9 715.64 3.22 716.32 3.46 717.03 3.6 717.6 3.42 718.55 3.12 719.51 3.01 720.38 2.81 720.87 2.52 721.61 2.08 722.35 1.71 723.15 1.52 725.09 1 725.12 1.53 725.07 1.93 725 2.27 724.91 2.7 724.75 3.42 Z M 247.92 624.14 247.88 624.31 247.88 624.31 247.92 624.14 Z" fill-rule="evenodd"/>
</g>
</svg>