<?xml version="1.0"?>
<svg xmlns="http://www.w3.org/2000/svg" version="1.2" baseProfile="tiny" width="800" height="833" viewBox="0 0 800 833" stroke-linecap="round" stroke-linejoin="round">
<g id="punjab">
<path d="M 556.1 6.94 557.07 9.47 557.29 9.77 560.41 13.94 562.57 15.4 562.94 15.65 563.76 17.73 563.61 19.44 563.46 21.53 562.42 23.54 561.08 27.03 560.98 27.36 560.12 30.08 560.71 31.79 562.34 34.49 562.65 34.99 564.28 37.75 564.66 39.83 564.58 43.1 564 45.17 563.91 45.48 562.35 46.53 561.46 47.34 561.46 49.35 561.26 50.17 561.08 50.92 560.79 52.11 561.75 53 563.61 54.26 564.73 55.3 565.55 56.79 567.33 58.95 568.23 60.36 567.93 61.41 567.85 63.34 568.82 64.01 568.9 65.79 568.44 65.89 568.15 65.94 567.92 66.11 567.18 66.61 566.07 68.18 566.02 69.52 565.99 70.33 567.85 73.01 568.39 74.83 568.45 75.02 567.55 75.52 566.59 76.06 566.54 76.11 564.73 77.85 563.88 79.74 563.55 80.49 563.46 80.67 562.2 82.09 561.31 85.44 561.75 87.97 563.02 90.12 564.36 90.2 565.3 90.85 565.55 91.02 564.95 93.1 565.32 94.01 565.64 94.8 565.92 95.48 566.89 97.04 566.37 98.38 567.48 100.24 567.73 101.49 568.08 103.29 570.38 104.26 570.68 105.75 571 105.78 571.03 105.79 571.76 105.87 572.62 105.97 573.24 106.72 573.31 106.8 573.62 107.17 573.73 107.31 573.88 113.63 573.73 115.05 571.95 115.94 569.75 116.67 569.71 116.68 569.45 116.83 569.43 116.84 568.6 117.28 567.78 117.73 567.63 120.03 567.84 120.46 568.97 122.78 570.68 123.94 571.5 124.5 574.26 124.9 575.07 125.02 577.09 125.51 577.11 125.51 577.82 125.69 581.14 126.55 581.54 126.65 583.7 127.7 584.06 128.03 584.89 128.81 586.16 130.67 587.36 131.99 587.38 132.01 587.64 132.31 588.55 132.6 590.14 133.12 590.17 133.13 592.93 133.72 593.21 133.69 594.71 133.5 598.08 131.82 598.28 131.71 601.02 130.53 601.04 130.52 601.71 130.41 602.33 130.3 603.38 130.12 604.53 129.93 607.36 130.6 609.89 132.46 610.26 133.01 610.62 133.56 610.77 133.77 611.32 134.61 611.67 135.13 615.02 139.45 617.25 141.09 620.75 142.72 621.67 143.13 621.79 143.19 624.1 144.21 625.92 144.26 627 144.29 629.31 145.33 632.43 147.04 636.49 148.69 638.83 149.64 639.44 150.17 639.87 150.54 641.46 150.9 641.51 150.91 641.55 150.93 643.66 151.96 645.15 152.69 648.27 154.07 650.21 154.93 652.62 156.11 653.72 156.66 655.79 157.68 658.58 158.92 659.96 159.54 661.09 159.86 662.04 160.13 662.64 162.29 663.01 163.41 664.5 164.6 664.5 164.6 666.06 165.42 668.29 165.71 670.75 165.19 672.75 164.15 673.73 163.63 674.97 162.97 677.7 162.88 677.86 162.95 678.16 163.14 680.57 164.69 681.28 165.57 681.89 166.31 684.92 168.53 686.01 168.5 687.95 168.43 689.85 168.08 690.68 167.93 693.61 167.52 697.75 167.22 698.01 166.98 698.1 166.9 700.17 165 701.69 162.47 701.39 160.15 702.14 158.26 702.4 157.62 704.18 157.72 704.18 157.72 704.21 157.72 704.91 157.34 706.03 156.71 706.11 156.71 708.05 156.61 709.06 156.91 709.07 156.91 709.06 156.94 708.96 158.43 708.96 158.88 708.96 160.55 707.75 162.98 705.83 165.6 704.42 167.42 703.71 170.05 702.8 172.78 702.87 173.31 703.21 175.71 704.82 178.13 705.93 179.14 704.72 181.57 704.14 182.53 703.21 184.1 701.89 187.33 701.89 188.77 701.89 189.25 702.5 192.08 702.84 192.57 703.32 193.28 703.61 193.69 704.22 194.09 706.24 195.41 706.36 195.63 706.89 196.56 707.04 196.83 707.04 199.76 707.04 200.88 707.04 201.78 707.67 202.24 709.27 203.39 712.16 203.3 712.3 203.29 712.4 203.3 715.31 203.5 716.31 203.58 718.06 203.7 722.7 203.09 725.43 201.78 729.78 201.88 730.13 202.04 730.86 202.37 733.51 203.56 733.82 203.7 734.07 204.37 734.43 205.31 737.46 205.72 740.42 205.45 740.79 205.42 741.96 206.23 742.81 206.83 743.92 207.14 744.03 207.17 746.14 207.74 746.52 207.85 746.85 207.94 748.57 206.63 752.01 203.19 753.74 202.01 753.93 201.88 756.25 202.99 758.27 203.09 758.58 203.25 760.21 204.06 761.1 204.51 764.64 208.45 764.92 209.38 765.45 211.07 765.53 211.14 766.02 211.52 766.36 211.78 766.58 211.84 768.24 212.28 768.27 212.29 771 211.78 773.63 210.97 774.22 212.2 774.84 213.5 775.36 213.78 776.16 214.21 778.48 214.21 780 214.81 780.57 215.21 782.32 216.43 782.77 217.01 783.33 217.74 784.65 217.9 785.05 217.95 785.24 218.18 786.56 219.76 789.9 221.78 791.46 222.51 793.42 223.42 793.41 223.57 792.69 223.72 793.05 224.24 792.94 225.15 792.74 226.64 792.85 227.12 792.9 227.35 792.99 227.78 793.08 227.94 793.24 228.26 793.48 228.72 794.31 229.13 794.73 229.33 795.11 229.91 795.59 230.62 797.46 230.69 797.72 230.7 798.12 230.91 798.31 231.01 798.33 231.04 798.67 231.55 798.86 231.83 798.91 232 799 232.34 798.15 233.46 798.08 236.54 798.07 237 798.06 237.18 796.64 238.24 796.18 238.47 795.44 238.84 791.23 240.21 790.9 240.7 790.67 241.06 790.49 241.33 790.49 241.44 790.57 244.22 790.1 245.75 789.46 246.35 788.09 247.01 786.65 247.69 786.02 247.99 785.29 248.83 785.23 248.9 785.02 250.33 784.91 251.06 784.54 251.86 783.66 252.55 780.22 255.23 780.05 255.32 779.46 255.6 778.72 255.57 778.5 255.24 778.17 254.72 778.31 253.08 778.35 252.63 778.11 252.04 778.05 251.89 776.65 251.02 776.62 251.04 776.6 251.05 776.57 251.06 776.55 251.07 776.21 251.24 775.72 251.49 775.24 252.84 775.23 253.83 775.22 254.62 775.06 254.88 774.32 256.05 773.68 256.48 771.37 258 768.74 257.91 765.42 256.92 764 258.18 763.37 258.75 763.36 258.75 763.36 258.76 763.35 258.77 763.34 258.77 761.95 258.84 761.36 258.87 760.65 259.26 760.24 259.5 760.06 259.46 759.63 259.38 759.48 259.35 758.43 258.44 755.88 260.84 755.43 261.27 755 261.45 754.78 261.54 753.68 261.44 752.82 261.36 751.77 261.56 751.08 262.05 750.28 262.6 750.14 262.7 749.39 262.92 748.74 262.93 748.67 262.93 748.64 262.93 748.6 262.93 748.53 262.93 748.16 262.73 747.61 262.43 747.08 262.14 747.08 262.14 747.05 262.12 747.04 262.11 747.02 262.09 744.28 260.04 743.52 259.46 742.65 259.19 741.67 258.89 739.86 258.76 739.78 258.79 738.23 259.3 737 260.07 736.77 260.22 736.75 260.23 735.67 261.1 733.18 263.11 732.85 263.33 731.23 264.44 731.17 264.48 729.12 265.88 728.74 266.37 728.63 266.51 727.43 266.62 727.11 266.65 726.59 266.7 726.49 266.88 726.42 267.02 725.65 268.46 725.5 268.95 725.37 269.39 724.97 270.22 723.85 272.57 723.62 272.99 723.5 273.2 723.44 273.31 723.32 273.41 723.01 273.69 722.21 274.07 720.38 274.65 719.35 274.81 717.4 275.09 715.93 275.04 714.05 274.98 713.71 274.81 712.76 274.31 712.64 274.1 711.66 272.39 711.6 272.27 711.18 272.26 710.47 272.24 709.92 275.84 709.83 276.14 709.68 276.59 708.74 277.2 707.43 278.04 706.43 278.68 702.37 281.87 702.03 282.21 701.21 283.04 699.06 284.65 698.71 284.91 697.46 285.46 694.77 286.66 694.58 286.81 693.93 287.35 693.84 287.43 693.64 287.59 693.48 287.92 692.96 288.93 692.95 289.35 692.82 289.56 692.54 290 692.31 290.09 692.06 290.18 691.79 290.28 691.51 290.26 690.59 290.17 688.79 290.1 688.7 290.09 688.44 290.56 688.42 291.32 688.39 292.3 688.21 293.28 687.92 294.84 688.19 296 688.28 296.45 688.41 297.07 688.61 297.35 688.99 297.89 688.92 298.61 688.58 298.74 688.41 298.81 687.37 298.7 687.33 298.68 686.29 298.09 685.64 298.03 685.62 298.04 685.29 298.19 685.19 298.24 685.27 299.05 685.31 300.37 685.32 300.71 685.32 300.71 685.21 303.17 685.54 303.86 686.91 306.44 687.61 307.53 688.39 308.73 690.45 311.83 692.38 314.88 692.91 315.71 693.26 316.27 693.92 317.69 694.3 318.5 695.12 320.36 696.21 323.57 696.21 323.58 696.37 324.54 696.86 327.58 696.86 327.65 697.06 330.03 697.4 331 697.64 331.7 698.68 332.75 700.12 334.18 700.6 334.67 700.87 335.28 701.29 336.22 701.5 337.16 700.13 340.75 699.43 342.57 699.33 342.65 696.25 345.15 695.38 346.06 694.26 348.57 692.51 352.52 692.42 352.71 692.1 353.46 691.94 353.82 691.89 353.94 691.87 354.03 691.86 354.1 691.82 354.26 691.82 354.26 690.56 357.19 689.76 359.04 689.55 359.54 689.56 359.83 689.73 363.26 689.86 363.7 689.92 363.93 689.78 365.01 687.83 371.27 687.36 372.8 687.29 376.03 687.37 376.48 687.65 378.02 688.75 380.41 688.82 380.57 688.85 380.64 688.9 380.74 690.33 382.1 690.78 382.54 690.8 382.56 691 382.76 691.38 383.12 692.69 383.84 693.44 384.05 693.66 384.11 694.23 384.03 694.89 383.93 695.02 383.83 696.65 382.61 697.92 382.64 698.4 382.65 700.95 383.2 702.76 383.52 704.57 384.28 704.81 384.5 705.36 384.99 705.54 385.16 705.6 385.26 706.48 386.92 706.5 386.96 706.73 387.51 706.92 387.96 707.13 388.47 707.41 389.29 707.56 389.76 707.37 390.23 706.95 390.58 706.62 390.85 705.18 390.87 704.27 390.88 703.86 391.13 703.52 391.35 703.26 391.8 702.89 392.45 702.56 394.79 701.24 395.54 700.46 395.47 699.64 395.39 698.43 394.72 697.03 393.44 696.77 393.2 696.3 392.76 695.75 392.24 695.42 391.85 695.11 391.47 693.61 390.37 693.19 390.05 692.37 389.45 692.03 389.45 690.78 389.44 690.62 389.44 690.22 389.83 689.97 390.08 688.75 396.33 688.77 396.62 688.8 397.15 689.31 399.27 688.42 400 687.67 400.43 687.36 400.61 685.25 402.04 684.86 402.21 684.38 402.43 683.22 402.96 682.78 402.77 681.81 402.35 680.97 402.21 679.06 402.8 678.9 403 678.7 403.25 678.38 403.34 678.24 403.39 678.14 403.45 677.72 403.75 675.88 405.05 673.54 406.96 672.49 408.08 672.39 409.1 672.3 409.95 671.89 410.69 671.47 410.65 669.12 411.02 667.5 412.58 666.92 412.77 666.65 412.87 666.36 412.97 665.23 413.41 664.85 414.05 664.75 414.21 664.8 415.12 665.71 416.36 665.97 416.71 665.99 416.87 666.08 417.68 665.9 417.83 664.99 418.55 664.9 418.62 664.34 418.61 663.59 418.2 663.36 418.08 663.34 418.07 662.41 417.75 661.41 418.42 659.94 418.42 659.7 418.58 659.19 418.91 658.99 420.99 657.46 422.81 656.68 423.75 656.38 424.36 655.89 425.36 656.56 426.61 656.11 427.48 655.64 427.79 654.97 428.24 654.01 428.23 652 428.23 651.63 428.86 652.04 429.41 652.17 429.59 653.15 432.12 654.3 433.26 654.28 433.38 654.21 433.83 654.1 433.88 654.07 433.89 654.06 433.89 653.93 433.95 652.98 433.77 652.44 433.67 650.55 434.78 649.16 434.87 648.84 434.89 647.68 435.23 647.18 435.79 646.34 436.74 644.52 439.35 643.03 441.53 642.22 442.46 641.62 443.16 641.24 443.15 640.29 443.94 639.29 444.77 636.99 446.68 636.07 447.14 635.02 447.18 634.88 447.18 634.39 447.2 633.1 448.26 632.43 448.82 630.84 449.28 630.44 449.81 630.33 449.95 630.41 450.97 629.92 452.98 629.75 453.69 629.78 454 629.9 455.74 628.83 455.98 627.69 456.23 627.32 456.66 627.08 456.95 627.1 457.46 628.23 458.21 628.26 458.52 628.29 458.78 627.34 460.27 625.88 461.48 625.86 461.47 625.05 461.34 624.45 461.24 623.4 460.37 622.74 459.57 622.61 459.41 622.42 459.17 621.33 459.42 620.49 460.8 617.52 462.46 615.61 463.53 615.08 463.97 614.97 464.06 614.42 464.69 613.53 465.7 613.17 466.44 613.02 466.74 612.72 468.94 612.21 469.71 611.49 469.68 611.24 469.67 610.61 469.34 610.14 469.1 608.61 469.01 608.22 469.59 608.21 469.61 608.78 471.64 608.12 472.92 607.96 474.01 607.77 474.31 607.63 474.54 606.62 474.65 604.41 475.09 604.12 475.62 603.21 476.85 603.11 476.99 602.57 477.43 602.46 477.52 601.56 478.25 601.3 478.47 600.44 479.48 600.21 480.3 600.13 480.59 600.18 481.43 600.59 482.17 600.71 482.38 601.3 482.57 603.08 483.63 605.25 485.02 606.74 485.97 606.77 486.03 606.79 486.07 606.84 486.18 607.51 486.99 608.03 487.63 609.71 489.68 610.05 490.39 610.27 490.86 610.96 492.4 611.42 493.42 612.46 497.76 612.73 500.43 612.76 500.74 613.04 503.42 612.73 504.26 612.55 504.77 611.55 505.53 610.09 506.64 609.96 506.74 608.16 507.94 608.02 508.02 605.73 509.37 604.73 510.23 597.56 515.25 597.19 515.69 597.13 515.76 597 515.82 596.39 516.11 593.63 518.38 592.7 519.42 591.31 520.75 589.21 521.53 587.75 521.89 586.91 522.3 579.82 524.01 579.16 524.09 568.33 526.76 568.31 526.77 566.85 526.98 561.61 528.61 558.99 529.57 558.35 529.8 557.96 529.95 546.96 534.01 539.24 536.85 537.7 537.97 537.56 538.44 537.18 539.81 536.87 540.89 536.15 542.83 535.7 544.04 535.65 544.34 535.54 545.06 535.4 545.15 535.26 545.24 535.23 545.61 535.21 545.93 534.21 549.21 532.11 556.13 531.13 559.37 530.61 561.17 529.73 563.51 529.75 564.16 529.75 564.39 529.53 564.69 529.32 564.99 529.03 565.95 528.43 567.79 528.11 568.8 527.23 571.7 526.33 574.66 524.9 579.11 523.13 584.58 522.08 587.3 521.68 588.36 519.49 592.32 519.08 592.61 518.64 593.75 518.19 594.52 516.89 596.78 516.72 596.96 516.3 597.41 516.11 597.61 515.82 598.48 514.24 601.16 513.72 602.05 513.11 603.03 511.48 605.64 508.67 610.31 508.63 610.37 502.88 619.62 502.73 620.19 501 623.02 498.44 627.2 498.28 627.76 498.22 627.95 491.34 635.5 491.3 635.55 489.94 637.17 488.94 638.19 486.26 640.93 485.63 641.71 485.55 642.01 485.48 642.28 480.93 651.4 480.74 651.97 480.57 652.49 479.08 655.35 478.99 655.53 478.19 657.08 477.11 657.94 474.8 658.85 474.31 658.9 470.49 660.36 468.58 661.1 465.4 662.24 456.69 665.55 455.72 665.94 453.45 666.87 452.06 667.38 450 668.13 449.1 668.78 448.89 668.93 446.91 670.03 446.64 670.14 445.88 670.44 444.18 671.33 443.69 671.69 442.94 672.25 438.62 674.68 435.88 676.23 435.46 676.67 435.4 676.67 434.98 676.64 434.43 677.15 432.92 677.89 431.29 678.69 429.83 679.7 427.41 681 426.83 681.16 426.55 681.24 425.41 682.19 424.4 682.7 424.34 682.73 422.54 683.75 420.54 684.89 419.57 685.39 419.01 685.68 416.13 687.15 411.92 688.5 408.9 689.47 408.7 689.52 408.04 689.7 406.12 691.16 406.04 691.23 397.3 700.55 393.63 705.68 392.51 708.82 391.47 711.74 391.29 712.26 391 713.12 390.69 714.03 387.24 723.82 387.02 724.7 386.71 725.96 386.29 726.38 386.05 726.62 385.94 727.53 385.91 727.86 385.37 729.41 384.92 730.69 383.97 733.35 381.38 740.54 379.56 743.66 378.16 746.07 375.45 748.09 374.51 748.79 373.82 749.31 373.72 749.75 373.71 749.79 372.4 751.23 370.24 753.18 367.15 755.47 365.5 756.68 361.66 759.32 361.34 759.55 361.23 759.64 356.63 763.08 356.41 763.24 356.22 763.41 352.84 766.39 351.14 768.42 349.85 769.94 343.66 778.19 343.62 779.08 343.58 779.91 342.88 783.8 342.17 787.76 341.48 792.45 340.67 797.9 340.56 797.97 339.44 798.68 338.86 798.85 338 799.09 336.55 799.51 331.95 800.88 320.84 804.88 320.74 804.91 320.45 805.01 318.92 805.52 317.71 805.92 313.93 807.42 311.1 808.25 305.86 808.76 299.33 809.39 289.58 809.82 282.96 810.12 277.51 810.37 268.67 810.81 267.45 810.96 258.02 812.55 255.11 813.04 254.4 813.01 253.06 813.39 251.37 813.88 244.48 816.75 242.66 817.56 236.57 820.25 233.68 821.53 228.5 823.69 224.38 825.41 218.62 827.78 213.39 829.93 209.88 831.26 209.86 831.26 207.18 831.9 204.57 832 202.02 831.49 201.76 831.47 198.36 831.2 197.97 831.16 196.46 830.99 191.63 830.71 190.99 830.55 190.38 830.41 190.06 829.93 190.02 829.86 189.56 829.17 188.04 827.42 187.78 827.12 186.18 824.74 185.95 824.26 185.8 823.95 185.63 823.59 185.27 823.21 184.89 822.8 184.74 822.63 184.71 822.42 184.67 822.21 184.32 821.65 183.48 820.31 183.39 820.03 183.3 819.76 183.2 819.46 182.92 819.05 182.55 818.5 181.97 817.73 181.39 816.96 181.1 816.44 179.95 814.37 179.86 813.99 179.76 813.53 179.6 812.8 179.44 811.74 179.21 810.32 179.12 804.46 177.71 802.46 177.62 802.33 177.39 802.12 175.74 800.55 173.35 798.27 169.46 794.72 165.35 791.14 164.71 790.58 163.38 790.06 160.46 788.91 159.32 788.74 157.76 788.51 155.12 788.66 153.71 788.75 151.16 789.3 149.61 789.75 147.56 790.35 146.09 790.61 144.44 790.91 138.85 792.1 134.94 795.41 134.59 796 134.47 796.2 133.2 797.61 133.02 797.81 130.53 800.27 130.4 800.36 127.69 802.34 117.98 808.27 117.92 808.34 115.79 810.76 114.52 812.2 113.83 811.8 111.83 810.63 109.82 809.26 105.7 808.29 103.04 807.73 100.46 807 98.04 805.79 96.1 803.61 94.41 801.84 91.67 801.68 89.89 801.11 88.44 799.1 87.7 797.95 86.83 796.6 85.78 794.82 81.99 790.79 78.19 787.16 75.13 783.2 73.11 780.06 72.23 778.69 69.89 774.74 70.13 771.99 69.24 770.78 69.24 769.25 71.66 767.56 70.85 766.02 69.48 763.2 68.03 760.86 68.35 757.47 66.26 756.99 65.77 755.21 65.61 752.15 65.93 750.74 66.42 748.6 65.85 745.61 64.32 745.05 62.87 743.84 59.32 741.18 57.85 739.86 56.98 739.08 54.52 737.02 54.48 736.98 51.25 736.9 45.28 736.18 40.93 736.18 37.62 734.24 40.2 731.34 38.27 730.69 30.36 729.97 26.33 729.32 21.73 729 19.07 729.8 16.65 730.45 14.87 731.5 14.15 733.51 12.7 733.92 10.52 734.24 6.65 734 6.53 733.79 5.76 732.39 4.71 729.16 3.58 725.77 2.77 723.92 1.4 722.71 1 720.53 1.97 719.72 5.03 718.11 8.66 716.98 11.49 715.53 13.83 714.56 22.3 701.33 27.22 694.31 28.75 691.57 29.96 688.83 29.31 686.08 27.86 683.66 25.12 682.86 22.38 681.24 23.99 674.79 25.76 673.5 30.2 670.51 32.14 667.53 33.35 667.45 35.04 666.97 35.77 665.27 36.81 662.21 38.19 660.59 38.87 659.51 39.88 657.93 42.06 656.08 43.27 653.9 44.96 652.2 48.27 650.99 50.85 649.94 52.22 648.57 52.3 647.04 53.19 644.78 54.64 642.2 57.14 638.81 57.63 636.88 56.82 635.51 56.25 632.04 56.98 629.37 58.27 627.12 59.4 624.86 59.72 622.76 58.92 622.03 57.22 622.36 54.64 624.13 51.17 627.36 49.08 627.6 48.43 626.15 48.59 623.65 48.03 622.28 46.33 620.99 45.12 620.99 42.78 620.5 42.86 618.73 44.48 617.44 46.57 615.18 47.22 613.48 45.53 610.5 43.11 608.4 41.9 606.79 39.64 605.9 38.59 606.39 37.3 607.51 35.6 608.48 33.67 607.92 33.27 602.11 34.56 598.64 37.14 596.3 38.11 592.35 38.27 587.43 38.83 582.59 37.86 581.06 37.06 578.96 38.59 577.91 41.01 577.43 41.65 574.68 42.22 573.95 43.51 572.26 44.77 571.46 46.17 570.57 48.91 569.92 51.82 568.23 56.17 566.78 57.87 564.36 60.61 562.1 62.95 560.81 63.84 559.2 64.8 558.15 65.77 555.65 68.68 549.52 70.37 547.5 73.27 545.08 74.71 543.73 76.02 542.5 77.95 538.38 79.16 535.16 80.37 530.32 81.91 526.61 85.29 523.22 86.99 522.01 88.28 519.02 89.17 516.12 89.08 514.26 89.08 511.6 90.21 509.91 90.78 507.17 91.34 505.79 92.96 505.79 92.63 502.97 93.52 501.28 94.97 500.63 97.47 500.23 99.01 498.7 100.38 496.36 100.3 493.86 96.75 493.29 92.63 493.29 89.97 496.28 89.65 496.68 87.96 497.16 87.39 496.6 87.39 495.47 88.12 494.26 88.68 493.13 88.92 491.44 88.28 490.71 87.55 491.27 85.54 491.52 85.86 487.89 86.05 487.57 88.04 484.34 90.46 479.42 90.62 476.75 90.54 472.8 91.26 470.3 92.55 469.17 96.42 464.41 97.47 461.51 100.3 455.94 102.23 452.64 103.28 447.47 103.04 443.2 102.15 441.75 102.31 439.25 103.44 437.79 104.09 436.58 104.25 434.41 105.3 433.11 106.99 433.03 111.03 433.44 111.91 431.34 112.8 428.03 117.32 427.87 119.33 426.66 119.58 424.16 119.98 421.18 120.87 419.64 126.11 419.32 126.59 416.66 124.58 415.85 124.01 414.56 125.06 409.8 126.03 406.01 125.87 399.88 126.03 393.67 128.53 390.28 129.42 386.97 129.34 384.15 129.58 378.58 128.61 376.97 128.71 376.94 134.5 374.87 139.26 373.34 142.4 373.02 143.23 372.56 143.85 372.21 143.85 370.76 145.31 368.82 146.68 366.25 146.88 366.33 148.02 363.27 150.02 360.57 152.2 359.61 155.17 359.26 157.78 359 160.84 357.61 161.97 356.47 162.28 355.25 162.32 355.08 164.76 353.77 166.77 354.73 170.17 355.69 171.22 356.47 172.17 355.69 173.66 356.73 179.85 356.99 182.29 354.64 184.65 354.2 187.87 354.64 189.01 357.08 191.55 358.07 191.71 358.13 193.8 357.52 194.07 356.12 194.07 353.59 194.15 352.55 196.25 351.85 196.89 350.89 197.47 350.02 198.51 348.88 199.91 348.8 200.52 347.92 199.12 346.88 200.61 346.44 201.22 346.09 201.48 342.87 202.87 342.08 205.4 342.08 207.41 341.47 208.54 340.69 207.32 339.81 207.58 337.98 208.46 335.1 206.71 334.32 206.28 332.92 205.23 330.83 207.67 331.27 209.15 330.83 209.42 329.43 207.5 327.95 206.28 326.29 206.28 325.16 206.54 323.5 207.67 323.42 208.28 321.5 209.15 321.15 207.85 319.67 207.15 318.01 208.28 316.7 208.46 315.39 207.15 314.61 207.85 312.78 208.72 310.25 210.81 307.8 214.04 308.33 214.74 308.07 213.08 306.41 214.12 303.97 215.52 302.4 216.57 301.26 217.09 299.95 218.4 298.65 219.71 298.04 220.4 296.12 221.25 296.2 222.15 296.29 222.76 294.55 223.89 293.15 225.2 290.97 225.64 288.97 226.51 286.87 226.95 284.6 228.08 283.3 230.7 282.42 230.43 279.63 231.39 278.06 230.96 276.93 231.66 273.96 231.75 272.92 231.83 272.13 231.13 271.09 231.33 270.23 231.57 269.17 231.66 266.38 230.87 263.41 231.92 262.71 233.66 262.02 234.18 260.27 235.49 256.52 236.63 253.03 236.19 250.42 236.71 248.23 237.5 245.44 240.46 245.79 242.64 244.75 244.82 241.87 245.06 241.27 245.43 240.3 244.65 238.55 243.95 235.94 245.61 233.32 246.74 231.58 248.66 230.7 249.88 229.48 250.58 226.95 252.5 225.04 255.38 222.85 259.56 218.93 264.19 218.93 266.28 218.49 267.33 217.62 266.89 216.4 265.49 215.53 265.15 214.13 265.23 212.56 266.63 212.39 267.59 212.04 266.19 210.38 266.72 208.11 267.94 205.32 268.46 201.4 267.63 200.78 267.06 200.35 265.49 198.26 264.8 196.78 261.74 196.52 261.48 199.57 260.26 199.83 258.78 199.31 257.91 200.53 258.17 201.75 256.86 202.36 255.38 201.92 253.46 200.79 252.65 199.54 252.5 199.31 254.68 196.17 254.07 194.51 251.71 193.11 247.96 190.58 243.6 188.4 244.04 186.57 243.43 184.13 242.03 180.82 242.3 178.64 240.64 177.15 239.94 175.5 240.81 173.84 240.99 171.57 240.38 170.09 238.63 167.47 238.81 166.25 236.61 161.06 236.36 160.49 237.41 160.49 238.81 160.76 239.85 160.23 239.85 158.31 240.11 155.26 240.55 152.56 241.42 151.6 240.99 149.07 240.81 147.15 240.9 145.23 242.56 143.49 243.25 143.23 243.17 142 244.74 140.09 246.74 138.78 247.7 138.17 249.97 138.08 251.28 137.73 253.28 135.99 255.46 135.2 257.3 135.2 259.56 134.15 262.27 133.72 263.66 133.11 264.71 135.2 266.63 136.34 269.24 136.34 270.38 135.55 272.04 134.5 272.99 135.29 275 134.33 277.01 133.89 277.97 134.59 279.71 134.15 281.72 133.37 283.02 131.71 283.29 129.88 285.12 128.66 284.42 127.53 282.94 126.83 282.68 125.96 281.19 126.04 279.88 125.78 278.49 124.21 277.97 122.99 278.11 122.73 279.01 121.07 280.5 118.89 281.28 118.02 280.32 116.71 280.58 115.23 279.88 114.44 278.93 112.87 279.54 111.74 278.84 110.95 276.66 110.26 275.96 109.47 276.4 107.9 276.66 106.51 277.36 105.11 279.97 103.45 280.62 103.99 280.93 104.24 281.19 105.37 282.15 106.25 285.38 106.51 286.6 106.77 288.34 108.25 288.78 108.77 291.4 108.95 290.44 107.38 290.52 106.42 292.79 105.72 294.28 104.85 295.41 105.2 295.58 106.25 297.68 107.47 298.55 108.86 301.16 110.34 301.08 113.83 301.6 117.58 304.3 120.81 305.35 122.03 305.87 123.34 308.14 125.35 310.67 125.43 312.68 126.92 315.03 127.18 316.13 127.36 317.13 127.53 316.08 123.25 316.17 120.37 318 118.72 321.49 114.88 322.27 112.87 322.45 111.04 322.27 108.6 319.92 105.98 318.08 104.68 316.08 102.67 315.99 100.66 315.73 98.92 315.64 97.35 316.69 96.04 318.08 95.08 318.61 92.99 317.82 91.33 316.69 89.94 317.65 88.71 318.78 87.14 323.93 85.05 327.5 83.57 329.68 82.52 331.69 81.21 333.52 81.74 334.92 81.91 336.92 81.04 337.1 79.29 336.49 78.16 336.4 76.16 337.36 75.28 339.45 74.41 341.46 72.23 345.38 69.61 347.13 68.22 348.87 66.21 349.83 63.94 347.91 60.72 348.52 59.5 350.88 58.36 351.49 54.35 351.84 50.08 352.01 47.29 353.49 44.06 354.71 41.36 355.97 40.59 356.18 40.47 356.72 40.13 358.46 37.95 359.16 35.95 361.43 35.25 363 35.25 364.83 34.29 363.35 31.94 365.09 31.5 367.54 31.67 368.76 32.46 370.67 32.98 373.38 33.24 375.65 33.77 378.09 34.55 379.31 34.99 381.49 34.9 382.8 33.51 386.46 34.55 385.07 32.02 385.41 21.23 385.41 20.95 384.37 17.37 385.28 16.7 387.59 15.02 394.83 11.35 396.49 10.31 399.28 10.48 402.07 9.35 404.08 9 404.08 7.08 407.04 6.82 406.87 4.55 411.76 3 411.84 2.98 412.71 4.29 415.59 4.03 419.17 3.76 422.65 3.76 423.96 3.33 425.36 3.59 425.88 4.29 425.95 4.76 426.49 8.56 428.59 8.74 430.33 9.7 432.77 9.52 436.52 10.39 438.79 11.44 440.01 13.18 438.09 14.41 436.7 14.49 436.61 16.15 435.39 16.85 434.43 17.46 433.99 18.94 433.76 19.87 433.73 19.99 436.09 19.64 437.92 19.46 438.18 20.95 438.96 21.3 441.58 21.12 443.67 20.77 445.94 20.34 446.46 19.11 447.25 19.03 447.34 17.46 447.07 16.32 448.64 15.8 450.74 15.63 450.48 14.84 449.43 13.79 450.83 12.57 453.01 11.44 454.23 10.13 454.89 9.98 455.36 9.87 457.37 11.35 457.63 16.67 458.06 18.16 459.72 18.42 462.08 18.07 463.91 18.33 464.6 20.42 464.34 22.87 463.56 24 462.25 24 461.64 25.05 461.9 26.44 464.08 25.22 465.13 25.13 466.52 25.74 468.01 26.53 468.44 27.84 467.48 29.23 466.26 29.84 465.3 29.41 462.69 29.32 462.2 30.23 461.81 30.98 463.04 34.03 464.6 34.29 467.05 34.2 468.79 34.64 472.02 36.04 475.33 36.82 475.58 38.14 474.28 38.7 471.41 39.96 469.35 40.08 467.16 40.08 465.1 41.11 462.46 43.75 465.9 47.54 468.81 52.23 469.12 52.71 473.59 59.14 478.65 56.96 483.35 54.32 482.31 53.12 481.12 52.59 481.38 51.98 482.24 52.51 483.41 51.99 483.92 51.64 485.52 53.34 488.87 52.14 494.26 49.26 497.82 48 501.15 52.71 503.91 56.04 504.6 59.71 500.46 62.36 497.25 63.5 497.94 64.88 505.52 67.52 511.72 70.74 513.79 69.02 517.12 65 524.07 59.3 524.12 59.26 525.38 55.12 525.5 49.15 528.02 47.43 530.67 47.66 532.85 47.31 534.45 45.48 537.16 42.87 537.67 42.37 533.31 42.37 531.12 41.34 530.21 38.81 526.88 37.78 526.27 37.37 522.86 35.03 520.68 33.76 518.15 32.38 515.74 30.32 514.7 30.55 511.6 30.09 509.61 28.65 509.69 28.62 514.44 27.48 514.75 27.4 517.28 26.44 518.15 24.26 519.81 23.39 520.86 24.96 522.69 23.82 525.57 23.65 526.88 21.82 528.36 21.03 529.41 19.46 529.49 17.89 531.24 15.45 531.59 13.88 532.81 13.27 534.9 12.05 535.95 11.09 536.47 9.35 536.64 8.04 538.04 6.64 539.17 6.64 540.92 8.3 542.84 7.69 544.41 5.86 547.72 2.63 549.55 1.24 552.77 1 552.87 1.05 554.54 1.81 553.87 3.45 555.88 5.01 556.1 6.94 Z"/>
</g>
</svg>