<?xml version="1.0"?>
<svg xmlns="http://www.w3.org/2000/svg" version="1.2" baseProfile="tiny" width="800" height="874" viewBox="0 0 800 874" stroke-linecap="round" stroke-linejoin="round">
<g id="SINDH">
<path d="M 189.99 820.68 189.29 821.49 189.14 821.65 189.07 821.95 188.84 822.61 188.77 822.96 188.6 823.55 188.5 824.06 188.47 824.55 188.37 825.29 188.4 825.88 188.39 826.31 188.32 826.42 188.16 826.51 187.97 826.52 187.83 826.48 187.66 826.28 187.43 825.97 187.17 825.61 187.04 825.38 186.9 825.08 186.75 824.73 186.62 824.33 186.43 824.04 186.19 823.87 185.96 823.79 185.75 823.78 185.47 823.85 185.27 823.95 185.02 824.22 184.74 824.51 184.45 824.81 184.12 825.07 183.73 825.52 183.3 825.9 183 826.37 182.74 827.06 182.63 827.29 182.53 827.5 182.42 827.74 182.09 828.02 181.55 828.46 181.34 828.56 181.01 828.63 180.5 828.73 180.11 828.77 179.86 828.71 179.77 828.57 179.71 828.37 179.65 828.18 179.59 827.94 179.45 827.76 179.34 827.57 179.12 827.36 178.82 827.07 178.54 826.77 178.18 826.36 178.04 826.2 177.76 825.73 177.48 825.34 177.17 824.96 176.88 824.65 176.64 824.42 176.24 824.15 175.88 823.98 175.58 823.93 175.25 824.01 175.05 824.18 174.9 824.35 174.66 824.86 174.53 825.63 174.38 826.14 174.15 826.47 173.93 826.59 173.67 826.65 173.45 826.62 173.15 826.46 172.76 826.24 172.16 825.76 171.66 825.2 171.4 824.84 171.03 824.38 170.76 824.02 170.37 823.59 170.07 823.32 169.87 823.16 169.71 823.11 169.57 823.11 169.38 823.17 169.24 823.27 169.14 823.41 169 823.62 168.76 823.73 168.5 823.87 168.22 823.93 167.84 823.86 167.57 823.67 167.24 823.29 167.03 823.08 166.81 822.87 166.6 822.76 166.43 822.7 166.27 822.71 165.86 822.76 165.44 822.85 165.09 822.94 164.77 822.95 164.56 822.93 164.09 822.79 163.82 822.66 163.54 822.4 163.31 822.08 163.18 821.92 163.08 821.87 162.21 821.86 162 821.89 161.72 821.93 161.36 821.96 161.05 821.93 160.79 821.84 160.48 821.65 159.9 821.43 159.38 821.2 159.04 821 158.95 820.81 158.91 820.58 158.94 820.38 159.18 820.06 159.56 819.45 159.9 819.01 160.2 818.61 160.31 818.29 160.5 817.96 160.59 817.64 160.67 817.43 160.75 817.2 160.69 817.09 160.5 816.71 160.35 816.49 160.17 816.28 159.97 816.28 159.89 816.29 159.71 816.42 159.52 816.56 159.25 816.74 158.84 817.03 158.68 817.31 158.46 817.72 158.35 817.9 158.29 818.21 158.19 818.43 158 818.59 157.85 818.71 157.6 818.78 157.49 818.78 157.34 818.69 157.21 818.58 157.16 818.46 157.06 818.36 156.85 818.23 156.64 818.14 156.43 818.14 156.23 818.17 155.84 818.25 155.53 818.38 155.28 818.54 154.66 818.86 154.32 818.99 154.01 819.11 153.65 819.14 153.53 819.14 153.26 819.06 153.06 819.05 152.9 819.13 152.5 819.1 152.21 819.13 152.01 819.03 151.89 818.93 151.83 818.14 151.69 817.27 151.6 816.01 151.62 814.93 151.5 814.15 150.7 813.82 149.92 813.68 149.01 813.34 148.13 813.06 147.52 812.67 147.23 812.42 146.94 812.12 146.56 811.89 146.06 811.76 145.68 811.53 145.13 811.24 144.7 810.98 144.15 810.71 143.57 810.53 143.22 810.3 143.01 810.03 142.72 809.65 142.58 809.25 142.52 808.81 142.55 808.4 142.65 807.78 142.86 806.73 143.25 805.36 143.27 805.1 143.3 804.74 143.23 804.47 143.05 804.15 143.07 803.82 143.17 803.61 143.33 803.31 143.44 802.98 143.55 802.6 143.63 802.29 143.76 802.04 144.02 801.87 144.3 801.58 144.45 801.43 144.56 801.07 144.72 800.67 144.74 800.46 144.65 800.12 144.44 799.9 144.11 799.7 143.52 799.64 143.46 799.69 143.37 799.84 143.35 800.1 143.3 800.44 143.22 800.69 143.06 800.99 142.69 801.52 142.32 802.01 142.04 802.31 141.83 802.61 141.46 803 141.18 803.38 140.96 803.78 140.51 804.19 140.17 804.62 139.67 804.87 139.3 804.93 138.84 805.01 137.89 804.85 137.24 804.53 136.8 804.3 136.4 803.97 135.99 803.66 135.43 803.21 135.1 803.01 134.45 802.66 133.96 802.35 133.51 801.96 132.96 801.25 132.64 800.66 132.44 800.36 132.53 798.97 132.47 798.47 132.49 798.18 132.64 797.99 133.15 797.68 133.56 797.54 133.88 797.48 134.24 797.46 135.09 797.46 135.6 797.33 136.2 796.99 136.79 796.28 137.25 795.4 137.53 794.47 137.58 793.16 137.32 792.28 137.18 791.03 137.06 790.78 136.8 790.64 136.77 791.13 136.64 791.74 136.79 792.82 136.77 793.19 136.74 793.56 136.69 794.34 136.6 794.99 136.36 795.27 135.87 795.86 135.12 796.44 134.52 796.57 134.21 796.55 133.87 796.28 133.6 795.57 133.32 795.02 132.88 794.29 132.45 793.98 131.97 793.83 131.57 793.77 130.94 793.69 130.33 793.54 129.64 793.13 128.96 792.55 128.5 791.95 127.99 791.47 127.46 790.66 126.91 790.22 126.53 789.83 126.38 789.41 126 789.1 125.37 788.45 124.7 787.67 124.24 787.19 124.03 786.61 123.54 785.22 123.39 784.72 123.6 783.54 123.48 782.67 123.33 781.42 123.17 780.43 122.74 779.54 122.27 779.1 121.89 778.79 121.55 778.44 121.05 777.84 120.6 777.28 120.12 776.31 119.97 775.19 119.91 774.69 120.07 774.3 120.17 773.52 120.26 772.74 120.15 772.41 119.85 771.57 119.41 771.34 118.66 771.13 118.41 770.91 118.2 770.66 117.96 770.11 117.69 769.47 117.43 768.64 117.03 767.96 116.85 767.16 116.77 766.34 116.58 765.79 116.62 765.22 116.68 764.89 116.79 764.73 117.03 764.46 117.36 764.19 117.73 764.04 118.04 764.06 118.31 764.11 118.69 764.08 119.04 763.75 118.29 762.35 118.14 761.84 117.52 761.41 117.09 760.68 116.32 759.7 116.07 758.97 115.59 758.02 115.1 756.95 114.61 755.79 114.6 755.23 114.78 754.49 114.95 753.02 115.03 752.15 115.02 751.55 114.82 750.6 114.47 749.87 114.18 749.01 113.83 748.03 113.76 746.6 113.84 745.65 114.02 745.3 114.21 745.13 114.25 744.91 114.01 744.35 113.62 743.8 113.19 743.28 112.9 742.59 112.79 741.9 112.78 741.17 112.81 740.3 112.81 739.96 112.51 739.14 112.22 738.58 111.83 737.59 111.67 736.39 111.21 734.49 110.77 733.33 109.7 731.4 109.11 730.11 108.67 729.29 108.51 728.08 107.84 727.01 107.49 726.15 107.72 725.33 108.07 724.02 108.25 723.37 108.25 722.81 107.86 722.04 107.28 721.57 106.71 721.4 106.24 721.28 105.66 720.55 105.17 719.78 104.48 718.03 104.08 717.08 103.79 716.44 103.68 715.49 103.49 715.1 103.01 714.67 102.66 714.03 102.09 713.52 101.18 712.97 100.79 712.24 100.21 711.03 99.57 709.92 98.94 708.84 98.31 707.51 97.48 706.1 97.28 705.67 96.98 705.24 96.73 704.73 96.45 704.51 95.96 703.7 95.47 702.45 94.79 701.55 94.27 701.39 93.45 700.79 93.12 700.49 92.69 700.37 92.02 699.95 91.53 699.22 90.48 698.15 89.74 696.82 89.21 696.01 89.43 695.18 89.33 694.62 88.79 693.68 88.21 692.69 88 691.74 87.93 690.27 87.91 689.41 87.62 689.2 87.28 688.47 86.83 686.92 86.58 686.1 86.38 685.49 86.14 685.2 86.08 684.68 86.12 684.24 86.11 683.68 85.96 683.03 85.62 682.95 85.05 682.74 84.62 682.53 84.47 681.67 84.55 680.76 84.78 680.28 84.77 680.07 84.76 679.59 84.38 679.08 83.85 678.91 83.66 678.48 83.27 678.23 82.7 677.85 82.25 676.68 81.95 675.65 82.12 674.44 82.29 673.75 82.89 672.66 83.54 672 83.82 671.61 83.91 671.31 83.9 670.83 83.85 670.49 83.98 669.97 84.02 669.27 84.17 668.78 84.57 668.35 84.18 668.1 83.46 667.8 83.06 667.75 82.6 667.35 82.19 666.86 81.72 666.18 81.42 665.76 80.96 665.46 80.38 664.92 79.67 664.4 79.33 663.95 79.04 663.75 78.75 663.26 78.56 662.75 78.46 662.3 78.19 662.07 77.95 661.95 76.49 661.6 76.64 661.87 76.85 662.18 77 662.36 77.23 662.63 77.46 662.94 77.79 663.37 78.32 664 78.74 664.57 78.88 664.93 79.04 665.28 79.26 665.91 79.53 666.64 79.82 667.34 80.02 667.87 80.08 668.03 80.14 668.07 80.31 668.18 80.4 668.26 80.41 668.36 80.35 668.48 80.26 668.57 80.09 668.65 79.74 668.75 79.44 668.84 79.19 668.91 78.9 669 78.5 669.06 77.93 669.1 77.72 669.13 77.43 669.11 77.37 669.11 76.6 668.69 76.23 668.49 75.78 668.25 75.52 668.08 75.29 667.86 74.86 667.44 74.41 666.98 74.05 666.63 73.86 666.44 73.43 666.02 73.05 665.64 72.57 665.16 72.34 664.93 71.9 664.51 71.47 664.08 71.1 663.71 70.79 663.4 70.42 663.04 70.09 662.71 69.75 662.37 69.66 662.29 69.35 661.98 69.06 661.69 68.7 661.28 68.45 660.98 68.27 660.78 68.07 660.53 67.82 660.31 67.54 660.07 67.46 660.01 67.44 660 67.41 660.01 67.36 660.03 67.34 660.02 67.28 660 67.12 659.89 67 659.79 66.9 659.71 66.71 659.52 66.63 659.46 66.46 659.37 66.09 659.18 65.78 659 65.54 658.86 65.47 658.81 65.45 658.77 65.45 658.72 65.45 658.68 65.48 658.63 65.5 658.59 65.5 658.56 65.48 658.54 65.24 658.42 64.91 658.25 64.59 658.14 64.22 658.02 63.86 657.95 63.37 657.86 63.11 657.8 62.58 657.7 62.42 657.66 62.39 657.66 62.38 657.69 62.33 657.87 62.31 657.88 62.27 657.88 61.95 657.84 61.57 657.78 61.36 657.76 61.12 657.75 61.14 657.62 61.18 657.38 60.63 657.35 60.37 657.34 59.89 657.38 59.33 657.53 59.01 657.68 58.51 658.08 58.4 658.66 58.21 659.1 57.56 659.52 57.23 659.74 56.91 659.87 56.58 659.97 56.42 659.98 56.25 659.93 55.99 659.8 55.47 659.41 54.71 658.8 53.94 658.07 53.12 657.34 52.59 656.99 51.95 656.5 51.16 655.89 50.56 655.35 49.67 654.72 48.79 654.05 48.27 653.61 47.57 653.26 46.45 652.75 45.21 652.08 44.93 651.92 44.62 651.89 44.31 651.95 43.99 651.96 43.68 651.85 43.13 651.59 42.59 651.32 41.75 650.91 40.99 650.48 39.87 649.99 38.76 649.57 38.32 649.39 37.51 649.31 36.06 649.29 35.3 649.27 34.27 649.34 33.79 649.39 33.56 649.48 33.41 649.57 32.89 649.84 32.47 650.02 32.29 650.22 31.82 650.67 31.16 651.29 30.75 651.64 30.44 651.81 30.03 651.92 29.23 652.13 28.71 652.23 28.51 652.23 28.18 652.1 27.87 651.91 27.65 651.82 27.13 651.8 26.02 651.84 24.53 651.89 23.7 651.96 23.37 652.08 23.15 652.33 22.96 652.5 22.61 652.53 22.39 652.49 22.13 652.29 21.87 652.04 21.62 651.78 21.31 651.57 20.84 651.34 20.2 651.11 19.87 650.82 19.58 650.47 19.22 650.12 18.99 650.04 18.79 650.08 18.6 650.17 18.39 650.37 18.21 650.68 17.9 650.93 17.3 651.28 16.04 651.99 15.53 652.29 14.61 652.67 14.13 652.96 13.98 653.06 13.91 653.07 13.87 652.89 13.86 652.75 13.86 652.6 13.85 652.49 13.74 652.48 13.65 652.52 13.51 652.61 13.37 652.59 13.32 652.55 13.26 652.46 13.19 652.38 13.05 652.37 12.87 652.42 12.45 652.58 12.32 652.62 12.18 652.6 12.12 652.53 12.05 652.42 11.94 652.36 11.87 652.73 11.89 653.01 11.84 653.33 11.76 653.73 11.51 653.98 10.29 654.75 10.14 654.73 9.69 654.6 9.47 654.59 9.07 654.68 7.51 654.86 7.27 655 7.08 654.95 6.97 654.97 6.54 655.16 6.44 655.25 6.27 655.33 5.17 655.74 4.42 655.88 4.08 656.09 3.78 656.13 3.45 656.08 2.87 655.84 2.75 655.57 2.5 655.22 1.64 654.56 1 653.75 1.02 653.68 1.13 653.63 1.33 653.58 2.08 653.52 2.17 653.47 2.24 653.38 2.3 652.81 2.19 652.39 2.1 652.18 1.93 651.43 1.7 651.18 1.68 651.08 1.75 650.9 1.9 650.64 2.56 649.95 2.61 649.79 2.8 649.65 3.31 649.5 3.95 649.01 5.33 647.09 6.43 646.2 7.51 645.93 8.52 645.4 9.25 644.75 10.3 643.81 11.58 641.83 12.84 640.56 14.16 639.39 15.92 637.99 17.57 636.86 19.44 635.26 21.25 633.51 23.16 631.7 25.2 630.19 26.23 629.61 28.3 628.93 30.09 628.21 32.04 627.33 33.53 626.21 34.97 625.13 36.25 624.48 38.31 623.54 41.01 623 43.88 622.41 46.86 622.01 48.77 621.55 50.05 620.84 52.76 618.75 54.67 616.69 56.91 614.58 58.94 612.57 60.36 610.83 62.28 609.07 63.82 607.54 65.18 605.95 65.5 605.22 65.42 604.5 64.91 602.71 64.41 601.28 64.53 599.59 64.91 597.41 65.05 596.27 65.29 594.98 65.93 593.98 67.07 592.15 68.42 590.1 69.06 589.05 69.48 588.06 70.14 587.27 71.19 586.52 72.39 585.92 74.39 584.73 76.29 583.6 77.23 582.85 78.56 581.99 79.83 580.87 80.98 579.45 81.34 578.36 81.94 577.67 82.83 577.03 83.49 576.24 83.58 575.41 83.5 574.74 83.64 574.02 84.12 572.77 85.4 570.36 86.33 569.25 87.44 568.27 88.28 567.73 88.46 567.62 87.86 567.34 88.07 565.17 88.01 563.86 88.03 562.4 88.51 561.26 88.65 560.12 89.24 559.19 91.23 556.93 92.18 555.18 92.79 553.31 92.53 549.14 92.46 546.85 92.51 544.14 92.99 543.11 94.74 541.47 97.43 539.11 98.31 537.05 99.74 534.68 101.25 533.66 102.99 533.06 105.19 532.16 107.4 530.43 108.47 528.78 109.43 526.71 109.46 525.25 109.6 523.79 109.74 522.86 110.79 522.15 113.91 520.95 116.01 519.84 117.42 518.19 119.44 514.79 120.3 512.41 121.16 509.5 121.19 507.94 122.18 504.62 123.3 500.89 123.44 499.33 124.05 497.78 125.76 494.59 127.78 491.7 129.67 489.24 131.68 486.66 134.03 484.41 135.81 482.36 137.25 479.47 137.63 477.7 137.9 475.93 137.26 473.73 136.17 470.79 135.52 468.8 135.21 467.13 135.12 466.19 135.72 464.74 136.02 461.62 135.97 458.49 136.29 454.85 136.23 451.93 137.03 446.94 137.69 443.3 138.07 441.75 138.36 439.04 138.74 437.59 140.07 434.59 140.21 433.44 140.01 432.19 139.23 430.92 137.64 429.64 136.42 427.01 134.97 424.69 134.2 422.8 133.65 421.65 133.08 420.91 131.38 419.73 130.35 419.19 128.97 418.85 128.05 418.42 127.15 416.94 126.49 415.68 125.58 413.28 125.16 411.08 124.18 408.04 122.5 405.61 121.28 402.88 118.84 397.62 116.71 394.04 115.15 391.3 113.92 388.88 112.59 385.94 111.26 383.2 109.68 380.88 107.77 377.83 106.21 374.98 104.04 371.09 102 368.66 100.88 366.56 100.2 365.5 99.18 364.55 97.69 363.48 96.44 362.21 95.54 360.94 94.77 358.42 93.01 353.49 92.01 351.18 90.8 347.61 89.5 342.69 88.54 338.08 87.21 334.41 86.8 331.58 85.92 328.48 87.58 326.66 87.56 325.08 87.07 321.81 86.4 316.58 86.4 313.24 87.08 312.2 87.77 311.3 88.79 309.8 89.64 308.91 89.99 307.86 89.67 306.05 88.76 298.21 88.3 294.29 87.7 288.27 87.67 281.56 87.67 277.14 88.33 277.46 88.69 276.08 89.38 274.88 89.89 274.29 89.88 274.24 89.04 271 88.62 269.25 88.62 268.26 88.62 267.14 89.73 264.27 91.25 259.03 92.5 254.67 92.07 249.56 91.79 245.07 90.94 238.59 89.56 231.15 87.74 223.42 86.47 218.19 86.33 215.32 86.32 213.58 87.02 210.33 88.27 207.96 90.36 205.47 92.59 203.1 93.16 200.23 93.71 194.37 95.1 186.52 95.51 179.41 96.48 171.3 97.18 169.93 98.58 168.81 100.4 167.56 103.2 165.81 104.74 163.69 106 160.2 107.27 155.11 108.25 150.62 109.23 148.75 112.03 146.38 116.77 143.07 119.19 141.51 124.1 136.78 126.63 132.54 127.61 129.17 127.19 124.18 128.22 120.71 130.33 115.97 132.58 111.85 133.99 107.36 134.26 103.84 136.05 103.79 136.92 104.14 137.4 104.65 137.6 105.25 137.89 105.84 138.18 106.44 138.86 106.87 139.92 106.87 142.23 106.61 144.35 106.26 147.43 105.83 150.13 105.48 151.96 105.31 154.27 105.05 156.49 104.71 159.09 104.36 160.06 104.53 161.12 105.04 161.99 105.3 162.47 105.21 163.14 104.36 164.01 103.67 165.36 102.99 167.38 102.13 170.08 101.62 173.46 101.02 177.22 100.42 179.53 99.99 181.17 99.73 182.23 99.65 183.66 99.45 185.48 99.29 187.65 99.06 189.78 98.8 190.72 98.8 192.76 98.44 194.63 98.25 196.68 97.89 198.17 97.61 199.78 97.39 200.52 97.39 201.16 97.48 201.39 97.68 201.58 97.77 201.88 97.94 202.29 97.83 202.77 97.66 203.22 97.36 203.55 97.02 204.14 96.72 204.74 96.34 204.84 96.01 204.83 95.45 204.93 94.28 205.07 93.39 205.36 92.82 205.77 91.96 206.28 91.65 206.91 91.24 207.99 90.67 208.99 90.29 209.99 90.06 211.82 89.85 213.77 89.79 215.18 89.54 216.56 89.27 217.6 88.66 218.2 88.22 218.64 87.98 219.09 87.85 220.58 87.66 221.52 87.69 222.83 87.77 223.66 88.03 226.95 88.7 227.22 88.36 227.57 87.94 227.82 87.43 228.03 86.94 228.34 86.47 228.69 86.01 229.24 85.22 230.04 84.04 231.03 82.27 231.83 80.87 232.14 80.29 232.31 79.87 232.55 79.61 233.27 78.77 233.82 77.89 234.6 76.87 235.33 76.04 236.16 75.25 237.1 74.69 238 74.24 239.85 73.57 240.32 73.4 242.49 72.6 244.2 71.97 245.06 71.59 245.7 71.24 246.04 70.91 246.65 70.39 247.83 69.5 249.8 67.95 252.2 66.09 255.71 63.25 257.44 61.97 259.82 60.03 261.95 58.37 263.58 57.08 265.36 55.69 267.59 53.97 270.11 52 271.13 51.17 272.71 49.92 273.74 49.11 275.2 47.99 275.64 47.59 276.5 46.93 277.65 45.99 278.87 45.08 279.22 44.82 279.64 44.58 279.87 44.34 280.47 44.17 282.75 43.5 284.56 42.97 286.78 42.35 288.92 41.78 291.02 41.12 293.08 40.5 295.03 39.94 298.15 39.11 300.14 38.53 302.9 37.69 304.48 37.3 305.14 37.13 305.69 36.78 306.17 36.35 306.71 35.67 307.49 34.07 308.31 32.3 308.65 31.54 309.44 29.8 310.85 26.87 311.99 24.49 312.88 22.6 313.85 20.52 314.33 19.36 314.95 18.4 315.64 17.75 316.31 17.17 318.13 15.92 320.13 14.58 322.63 12.86 324.47 11.6 325.56 10.8 326 10.61 326.64 10.56 328.16 10.53 330.33 10.58 332.55 10.53 335.07 10.57 335.91 10.59 336.66 10.59 338.6 10.55 341.72 10.59 345.31 10.68 347.73 10.67 351.38 10.73 355.07 10.74 357.84 10.7 361.55 10.75 363.65 10.77 366.83 10.83 369.16 10.82 371.96 10.79 375.89 10.83 377.84 10.86 380.08 10.82 382.65 10.7 385.09 10.6 387.92 10.63 390.21 10.69 392.57 10.7 394.23 10.71 395.95 10.6 397.96 10.5 400.6 10.47 401.86 10.47 403.28 10.56 404.67 10.65 405.72 10.74 406.96 10.77 406.97 10.77 408.64 10.92 411.62 10.82 414.82 10.73 418.88 10.61 421.48 10.61 422.98 10.49 424.49 10.41 427.88 10.22 431.12 10.03 433.07 9.98 434.05 9.86 435.82 9.65 436.88 9.53 438.27 9.48 439.89 9.37 442.08 9.07 444.03 8.93 447.01 8.87 450.36 8.75 452.51 8.57 454.83 8.41 456.15 8.36 457.88 8.29 459.69 8.21 460.03 8.22 462.51 8.22 465.22 8.22 467.03 8.11 468.46 8.03 470.41 7.92 473.86 7.96 477.7 7.93 482.85 7.94 486.26 8.03 488.75 8.04 491.68 7.89 495.16 7.58 495.69 7.39 496.04 7 496.52 6.35 497.18 5.2 497.58 4.27 497.89 3.65 498.28 3.23 498.72 3 499.38 2.73 501.08 2.28 502.92 2.01 503.97 1.78 505.15 1.4 506.24 1.21 507.9 1.14 511.4 1 512.75 1.01 514.41 1.09 517.47 1.6 522.17 2.48 524.66 2.69 527.72 3.16 531.17 3.76 532.87 4.11 533.13 4.35 533.13 4.58 532.95 4.92 532.16 5.54 531.24 6.46 530.27 7.46 529.48 8.3 529.35 8.69 529.34 8.96 529.69 9.19 530.83 9.66 532 10.01 533.31 10.44 535.45 10.88 536.89 11.11 538.63 11.24 540.64 11.17 541.95 10.91 543.04 10.8 544.05 10.84 545.39 11.13 546.44 11.41 548.4 11.65 549.23 11.85 551.01 12.32 551.88 12.67 552.1 12.78 552.61 13.27 553.87 14.35 555.02 15.28 555.54 15.66 555.56 15.84 555.63 15.99 555.75 16.13 556.05 16.66 556.95 17.81 557.26 18.63 557.42 18.92 557.59 18.96 557.86 18.95 558.49 19.04 559.04 19.22 560.66 19.54 561.4 19.76 561.53 19.75 561.9 19.63 562.91 19.69 563.19 19.76 563.23 19.81 563.04 20.19 562.7 20.52 562.49 20.79 562.43 21.05 562.43 21.22 562.5 21.46 562.67 21.78 562.78 21.93 562.88 21.94 563.02 21.89 563.07 21.39 563.11 21.26 563.19 21.22 563.39 21.23 563.51 21.33 563.59 22.12 563.66 22.33 564.03 22.65 564.09 22.7 564.46 22.85 565.17 22.99 565.96 22.88 566.35 22.92 566.54 22.99 566.92 23.44 567.07 23.68 567.17 24.14 567.17 24.35 567.04 25.06 567.02 25.3 567.09 25.59 567.2 25.88 567.74 26.51 567.92 26.99 567.94 27.36 567.76 28.24 567.57 28.67 567.29 29.14 567.15 29.36 566.9 29.67 566.91 29.8 567.06 30.03 567.37 30.24 567.44 30.34 567.01 30.96 566.89 31.24 566.5 31.78 566.44 31.99 566.5 32.35 566.51 32.53 566.21 32.84 566.1 33.02 566.05 33.61 566.22 34.46 566.36 34.78 566.41 34.88 566.65 36.35 566.82 36.96 566.89 37.56 566.99 38.14 567.13 38.51 567.49 38.99 567.82 39.23 568.21 39.41 568.87 39.58 569.48 39.66 569.97 39.62 570.37 39.5 570.55 39.5 570.73 39.54 570.79 39.65 570.74 39.9 570.41 40.35 570.01 40.86 569.85 41.08 569.79 41.21 569.83 41.34 570.43 41.83 570.69 42.17 570.75 42.35 570.72 42.49 570.14 43.07 570.02 43.44 570.07 43.69 570.03 43.88 569.92 44.27 569.88 44.59 570.06 45.2 570.17 45.4 570.45 45.83 570.69 46.2 570.96 46.47 571.75 47.06 571.82 47.25 571.81 47.62 571.86 47.99 572.03 48.2 572.03 48.5 572.16 49.23 572.28 49.54 572.44 49.71 573.45 50.72 573.46 50.82 573.58 51.31 574.11 51.87 574.39 52.31 574.53 52.47 574.43 52.89 573.8 53.51 573.18 54.41 572.72 54.84 572.61 55.12 571.8 55.53 571.15 56.77 570.96 57.36 570.95 57.74 570.96 57.9 571.05 57.96 571.13 57.98 571.23 57.93 571.61 57.3 571.67 57.26 571.99 57.29 572.07 57.34 571.86 58.11 571.9 58.42 572.44 59.44 572.6 59.87 572.75 60.41 572.75 60.96 572.54 62 572.39 62.69 572.21 63.42 572.2 63.68 572.29 63.87 572.71 64.17 575.87 69 576.63 69.93 577.04 70.52 577.31 70.88 577.63 71.54 577.94 72.66 578.28 73.35 579.16 74.17 581.76 77.69 583.36 79.65 584.98 81.62 586.16 83.15 587.54 84.45 589.04 85.85 590.19 86.83 590.57 87.21 591.45 88.28 592.55 89.44 593.5 90.4 594.23 91.14 594.64 91.73 595.02 92.87 595.31 93.61 596.02 94.39 596.77 95.32 597.79 96.8 598.48 97.63 598.95 97.98 600.12 98.88 603.44 99.89 604.64 100.19 606.25 100.72 607.23 101.56 607.72 102.02 608.52 103.23 611.85 106.02 612.33 106.4 613.58 106.57 615.34 107.37 616.15 107.65 617.38 107.91 618.72 108.23 621.16 108.73 622.06 108.79 625.23 110.13 626.22 110.62 630.42 112.73 633.16 112.97 635.1 113.19 627.04 120.41 625.71 121.47 623.65 123.75 622.85 125.08 621.69 127.2 620.86 129.48 620.07 131.52 619.92 132.02 619.67 132.58 619.01 134.1 618.68 134.72 616.77 139.1 612.66 149.16 611.66 151.44 607.82 159.47 606.46 162.48 604.03 167.64 600.69 169.71 599.35 170.53 594.86 173.6 593.29 174.64 589.19 177.94 588.07 178.79 587.53 179.24 586.97 180.05 585.8 181.72 584.82 183.32 582.22 187.35 581.25 188.69 580.92 189.15 579.62 190.91 578.03 192.84 575.71 195.32 575.34 195.7 574.54 196.46 573.92 196.85 572.31 197.96 571.63 198.47 569.8 199.9 566 202.85 563.8 204.34 560.49 206.83 559.35 207.95 558.33 208.94 557.38 209.77 556.15 210.76 555.99 210.89 555.66 211.12 555.15 211.43 554.41 211.86 553.6 212.41 548.17 215.72 546.79 216.76 545.34 217.92 544.66 218.69 543.02 220.34 540.78 222.48 539.86 223.41 537.71 225.58 535.61 227.83 534.85 228.38 532.34 230.48 527.66 233.35 526.25 234.45 525.23 235.22 525.11 235.32 523.68 238.88 519.53 248.47 518.81 250.27 517.71 252.75 516.73 254.69 515.9 258.92 514.71 262.87 513.04 267.24 511.69 271.19 510.33 275.84 509.42 281.64 508.47 290.11 507.82 299.03 508.37 303.15 509.71 307.57 511.53 311.28 513.22 313.58 516.34 315.33 522.91 318.55 528.7 321.34 534.96 324 540.61 325.52 545.1 326.37 547.76 327.56 551.67 329.04 554.44 332.07 558.01 334.83 561.57 337.87 565.16 339.49 568.76 340.84 573.31 341.91 577.72 342.14 584.49 342.56 590.66 341.69 595.24 341.78 603.17 339.95 606.18 339.45 609.96 339.81 612.63 340.29 616.86 341.37 621.4 342.46 625.62 343.97 628.09 346.15 628.94 347.94 630.87 352.52 631.39 356.64 630.96 360.74 630.1 363.69 630.02 366.52 630.23 370.35 631.19 375.62 631.7 380.16 631.46 383.27 630.4 387.5 628.07 391.53 627.56 393.22 627.99 394.64 629.35 396.94 630.54 399.23 630.65 401.21 630.12 403.33 628.75 407.55 626.42 412.17 624.1 416.93 623.3 419.03 622.5 419.99 621.77 420.9 620.31 422.54 618.95 424.04 617.42 425.82 616.69 426.88 616.23 427.88 615.5 429.08 614.04 430.72 613.26 431.83 612.69 432.74 612.39 433.7 612.4 434.8 612.47 435.71 612.97 437.32 612.98 438.71 613.5 441.38 613.86 444.28 613.94 446.24 614.03 449.29 614.17 451.73 614.62 453.63 614.95 454.96 615.18 456.73 615.41 458.01 615.79 458.73 616.5 459.52 618.7 462.31 620.75 465.63 622.47 467.95 624.09 470.7 625.66 473.22 626.8 475.39 628.09 476.86 630.32 478.65 632.78 480.68 634.48 481.71 636.4 483.22 637.3 484.07 638 485.21 638.38 485.73 638.97 486.34 639.66 487.05 642.87 491.47 643.33 492.64 644.1 495.04 644.77 496.44 644.92 496.63 645.08 496.82 646.11 497.01 647.65 497.76 648.94 498.74 650.07 499.35 650.95 499.73 652.6 500.15 654.04 500.72 655.22 501.61 656.92 502.32 658.57 502.88 661.25 503.92 663.57 504.3 669.08 504.52 670.16 504.48 672.02 504.39 673.2 504.16 675.78 503.75 679.5 503.39 682.75 503.22 685.07 502.95 687.81 503.01 689.71 503.26 690.95 503.59 691.72 503.64 693.89 503.14 696.53 502.31 697.56 501.57 699.36 500.59 701.59 500.04 702.78 499.63 704.12 499.12 706.03 498.62 708.72 498.22 710.88 498.23 713.2 498.48 714.65 498.91 716.85 500.6 717.4 502.57 717.39 504.48 717.69 506.26 717.87 508.55 717.9 512.17 717.55 517.31 717.31 522.49 717.12 527.01 717.16 528.32 717.41 529.2 717.97 529.82 718.43 530.52 718.58 531.27 718.67 532.71 718.35 534.58 717.81 538.08 717.27 540.16 717.35 543.43 717.26 548.23 716.97 553.41 717.11 554.67 717.16 555.09 717.67 555.89 718.44 557.05 720.69 559.12 722.52 561.09 724.87 562.98 726.76 564.85 727.88 565.89 728.99 568 729.8 570.43 730.51 572.85 731.57 575.57 732.33 576.83 733.6 578.38 735.43 580.03 739.25 583.41 742.01 585.86 744.17 587.97 745.28 589.38 746.76 590.65 749.36 592.3 750.89 593.38 753.8 595.27 755.02 596.12 755.67 597.76 756.51 601.08 756.89 604.71 757.07 606.72 757.16 608.82 757.64 611.25 758.01 613.52 758.18 614.2 758.61 617 759.03 619.32 759.39 622.04 759.87 624.02 760.86 626.29 761.77 628.89 763.06 632.75 764.73 635.85 766.15 638.29 768.12 640.85 769.78 642.95 772.49 646.24 775.14 649.25 777.67 652.6 779.47 655.99 780.75 658.72 781.98 660.65 783.01 663.7 784.16 667.61 785.26 669.82 787.11 672.49 788.44 675.32 791.33 677.93 792.87 679.24 793.85 680.44 793.97 681.34 793.84 682.25 793.22 683.15 791.23 684.15 787.69 685.6 785.76 686.33 782.78 687.89 779.37 689.46 777.01 690.4 776.14 691.25 775.08 693.11 774.62 695.3 774.3 697.11 774.17 698.41 774.71 699.99 775.32 701.47 775.75 702.6 775.74 703.73 774.93 705.02 774.68 706.04 774.67 706.55 775.1 707.85 776.26 709.16 777.12 710.8 777.17 712.16 777.1 715.48 776.6 717.4 775.59 719.83 775.21 721.97 775.2 722.99 775.63 723.78 776.74 724.35 777.85 724.36 779.39 724.37 779.76 724.48 780.75 725.51 781.79 726.19 783.64 726.59 786.42 726.61 788.83 726.51 791.67 726.53 793.77 726.6 796.24 727.06 798.09 727.81 798.7 728.44 799 729.45 798.93 730.02 798.62 730.75 797.25 731.65 793.6 732.75 791.29 733.46 789.74 734.18 788.32 735.47 787.25 737.16 786.45 738.01 784.78 738.62 782.24 738.83 779.59 739.15 776.44 739.31 773.29 739.29 771.81 739.45 770.7 739.96 769.15 740.68 767.91 741.58 766.3 742.59 764.13 743.71 761.04 744.71 758.69 745.83 756.1 747.01 754.24 748.35 752.69 749.7 752.41 750.6 752.4 751.61 752.58 752.57 753.32 754.1 754.24 754.95 756.26 756.32 758.11 757.06 758.91 757.51 758.97 757.85 758.97 758.14 758.72 758.36 758.16 758.53 756.75 758.52 753.85 758.57 750.58 758.83 749.1 759 747.86 759.39 746.94 760.23 746.62 761.19 745.76 762.32 744.15 763.27 743.22 763.49 739.09 763.42 735.64 763.19 732.76 763.16 731.53 763.1 730.54 763.33 728.75 763.94 726.9 764.67 725.36 764.78 723.76 764.61 722.03 764.49 719.44 763.86 718.09 763.52 717.29 763.63 715.07 763.96 713.53 763.9 712.73 763.45 711.62 762.94 710.33 762.37 709.34 761.69 707.56 760.33 706.51 759.77 705.34 759.26 704.35 759.26 703.8 759.48 703.18 760.16 702.32 760.55 701.76 760.49 701.33 760.27 700.78 759.65 700.78 759.14 700.84 758.57 700.97 758.06 701.4 757.39 701.77 756.71 702.33 755.69 702.51 754.51 702.82 753.15 702.83 751.8 702.83 750.84 702.65 749.93 702.09 748.97 701.52 747.17 701.09 746.32 700.35 744.97 699.49 743.55 698.75 742.2 698.57 741.29 698.69 740.78 698.94 740.39 699.43 740.16 700.23 739.94 701.16 739.71 701.78 739.21 702.27 738.81 702.89 738.25 703.51 737.23 704.13 736.27 704.57 734.63 704.57 733.39 704.14 731.92 703.83 730.45 702.97 729.49 702.23 728.87 701.18 728.58 700.01 728.47 698.77 728.47 697.48 728.86 695.99 729.42 694.88 729.87 693.03 730.55 691.17 731.23 690.48 731.27 690.02 731.32 688.89 731.67 686.95 732.5 683.79 733.49 682.13 733.83 679.78 733.96 678.03 734.3 675.89 734.99 673.17 736.01 671.15 736.43 670.14 736.92 669.49 737.63 668.44 738.49 666.51 739.73 665.26 740.48 664.13 740.8 662.71 740.74 661.81 740.59 660.51 739.97 659.21 739.87 657.26 739.96 654.71 740.5 651.43 741.6 649.01 742.88 645.69 743.95 641.44 745.17 639.63 745.47 637.93 745.78 635.9 746.28 632.38 747.24 629.27 748.15 625.42 749.04 623.32 749.47 621.82 749.89 619.84 750.69 618.31 751.48 617.63 752.31 616.91 753.13 616.19 754.4 614.75 756.6 613.67 758.2 612.92 759.55 612.28 761.12 611.34 763.24 609.62 765.67 607.83 768.05 606.55 769.69 604.75 771.49 603.26 772.18 600.92 772.68 598.13 773.05 595.21 773.08 592.17 772.85 589.17 772.66 586.33 772.73 585.71 772.79 584.39 772.75 581.74 772.79 578.61 772.93 573.58 772.93 571.21 772.83 569.21 772.58 565.43 772.57 561.64 772.57 554.73 772.92 552.4 772.87 551.7 772.47 551 771.73 550 770.51 548.43 769.02 547.19 767.34 545.78 766 544.37 765.11 542.75 764.02 541.56 763.18 539.99 761.79 538.04 759.91 535.66 757.53 532.85 754.76 530.75 752.76 529.02 751.42 528.09 750.93 527.34 750.83 526.8 750.88 526.15 751.03 524.36 751.53 521.28 752.42 517.82 753.62 515.93 753.97 513.76 754.12 511.49 754.32 507.65 754.33 505.76 754.08 504.84 753.59 503.37 752.85 502.07 752.11 501.21 751.91 500.13 751.82 499.21 751.97 497.32 752.77 495.05 753.52 492.35 754.13 490.13 754.48 488.4 754.43 484.94 753.95 483.31 753.51 481.26 752.77 480.33 752.18 479.25 751.54 478.44 751.44 477.41 751.55 475.41 752.4 471.63 753.65 466.72 755.65 462.68 757.06 460.57 757.81 458.79 758.71 457.12 759.31 455.55 759.47 454.14 759.38 453.28 758.99 451.7 758.4 449.91 757.32 448.77 756.83 447.09 755.94 446.06 755.26 444.6 754.97 443.14 754.73 442.05 754.14 441.34 753.45 440.15 752.96 439.28 752.62 438.42 752.57 437.66 752.67 437.07 752.88 436.26 753.33 434.48 754.33 433.92 754.74 433.77 755.15 433.05 755.77 431.99 756.43 430.54 757.28 429.72 757.78 428.14 758.55 426.86 759.26 425.77 759.77 424.83 760.28 423.85 760.82 423.33 761.22 422.18 762.1 421.54 762.57 420.66 762.98 419.73 763.25 418.79 763.26 418.09 763.22 417.52 763.03 416.93 762.59 416.3 761.91 415.75 760.86 415.41 759.94 415.41 759.51 415.24 758.83 414.87 758.3 414.55 757.77 414.29 757.25 414.08 756.45 413.75 755.6 413.15 754.82 412.61 754.09 412.04 752.98 411.3 751.65 410.69 750.7 410.16 749.84 409.7 749.66 409.35 749.64 408.98 749.86 408.31 750.2 407.5 750.56 406.55 751.05 405.86 751.33 404.76 752.05 403.69 752.69 402.64 753.5 401.95 754.16 401.43 755.14 401.13 755.64 400.7 756.47 400.43 757.4 400.14 758.41 399.8 759.47 399.38 760.57 399.05 761.66 398.42 762.81 398.05 763.43 397.52 764.08 396.92 764.69 396.25 765.06 395.69 765.11 395.05 765.07 394.58 765.02 394.15 764.78 393.45 764.32 392.9 763.32 392.56 762.57 392.46 761.82 392.44 761.2 392.18 760.35 391.9 759.21 391.84 757.8 391.8 755.87 391.74 754.55 391.54 753.44 390.92 751.76 390.35 750.09 389.31 747.83 388.94 746.82 388.71 746.67 388.5 746.69 388.29 746.86 388.04 747.07 387.6 747.12 385.72 747.16 385.19 747.26 384.29 747.59 383.17 748.02 381.85 748.54 380.14 749.17 378.76 749.64 377.59 749.84 377.49 750.33 377.47 750.71 377.62 752.62 377.88 754.08 378.33 756.82 378.28 759.41 378.13 762.44 377.58 766.9 377.19 769.7 377.07 772.13 376.89 775.85 376.38 779.4 376.29 782.97 376.02 786.53 375.98 787.28 375.98 788.96 376 790.32 375.67 791.98 375.62 792.97 375.54 794.56 374.93 796.89 374.95 801.45 374.78 803.35 374.51 805.39 374.22 806.29 374.17 807.27 374.13 807.95 373.79 808.24 372.94 808.59 366.15 808.84 359.93 809.04 354.88 809.31 349.5 809.39 340.38 809.63 329.77 810.05 320.16 810.28 312.13 810.5 310.92 810.45 310.86 810.71 310.07 813.04 309.04 814.62 308.41 814.93 307.97 814.92 307.05 813.43 306.68 811.64 305.92 810.64 305.33 809.81 304.9 809.56 304.37 809.54 303.91 810.01 303.6 811.46 303.97 815.02 304.13 816.41 304.24 817.29 303.94 818.26 302.48 819.51 301.05 820.03 299.02 820.21 297 820.07 294.54 819.75 292.97 819.14 292.19 818.87 291.47 819.17 291.1 819.65 291.86 820.64 293.05 821.81 293.55 822.64 293.35 823.44 292.54 823.82 291.12 824.18 289.44 824.22 288.28 824.59 287.73 825.22 287.44 825.86 287.38 827.8 287.16 828.93 286.44 829.23 285.56 829.2 284.78 828.77 284.01 828.18 283.32 827.92 282.6 828.14 281.62 828.52 280.18 829.37 279.46 829.75 279.17 830.47 278.88 831.19 279.83 831.78 280.36 831.88 280.78 832.38 280.68 832.86 280.39 833.34 279.73 834.7 279.49 836.63 279.85 838.75 280.48 841.04 281.36 843.49 281.79 845.68 281.75 846.82 281.27 847.94 280.25 849.44 279.16 850.38 278.42 851.41 278.32 854.24 278.25 856.43 277.47 858.51 276.69 860.83 275.66 862.59 274.48 863.68 273.72 865.2 272.97 866.47 270.71 868.35 269.26 869.6 267.35 871.49 266.42 873 266.49 871.12 266.4 869.12 267.46 867.07 268.53 865.02 269.74 863.1 269.64 860.96 268.69 859.26 265.58 858.05 263.04 856.68 260.79 855.3 258.84 853.91 257.95 853.55 256.78 853.6 255.07 854.2 251.23 855.96 249.94 856.42 249.49 856.17 248.56 855 248.31 852.87 248.18 850.2 248.53 848.45 249.14 846.02 250.08 844.37 248.87 843.35 247.53 842.87 246.25 842.13 244.61 842.83 243.88 842.81 242.92 842.65 242.07 841.81 241.21 840.98 240.59 839.68 239.6 838.43 239.35 837.27 239.43 836.87 237.61 836.41 237.23 836.67 237.58 837.29 238.8 838.27 239.86 839.45 240.49 840.55 240.4 840.96 239.66 841.14 237.68 841.02 235.34 840.28 233.9 839.29 232.04 837.82 230.53 836.62 228.72 835.97 227.84 835.81 226.61 835.03 225.32 833.98 224.76 833.08 224.65 832 224.74 831.39 225.2 830.79 225.96 829.93 225.97 829.73 225.53 829.58 224.65 829.7 223.44 830.48 222.25 831.05 220.82 831.96 220.14 832.42 219.7 832.34 218.62 831.5 218.06 830.67 217.36 829.5 216.57 828.74 215.92 828.24 215.56 828.23 215.18 828.36 215.24 829.04 215.43 829.86 214.92 829.84 214.55 829.9 214.01 830.5 213.68 831.57 212.8 831.68 211.63 831.38 209.72 831.06 207.74 830.87 206.78 830.85 206.78 831.05 206.76 831.52 207.25 832.42 207.87 833.92 207.63 834.53 206.89 834.37 204.91 834.18 203.15 833.93 202.21 833.37 201.2 832.87 200.71 832.04 200.32 832.51 200.37 833.25 200.13 833.86 199.33 833.57 197.15 832.83 195.7 832.05 193.96 831.13 192.74 829.94 191.23 828.62 190.61 827.32 190.29 825.4 189.98 823.93 189.95 821.99 189.99 820.68 Z"/>
</g>
</svg>