<?xml version="1.0"?>
<svg xmlns="http://www.w3.org/2000/svg" version="1.2" baseProfile="tiny" width="800" height="866" viewBox="0 0 800 866" stroke-linecap="round" stroke-linejoin="round">
<g id="sindh_districts">
<path d="M 414.43 569.94 416.89 599.43 421.99 603.84 435.67 610.67 436.48 614.85 443.32 620.06 443.9 624.46 447.73 625.62 450.97 631.3 462.22 630.14 471.73 631.07 477.99 639.76 478.68 644.86 473.93 653.55 479.45 658.62 476.09 662.54 469.37 666.36 466.25 670.65 471.11 672.73 463.23 676.32 459.64 679.79 465.09 685.93 456.98 690.67 455.71 694.38 459.64 697.5 454.9 705.37 444.82 711.39 438.57 718.92 433.93 721 430.11 743.58 434.59 753.95 422.54 760.58 414.84 759.07 409.21 749.56 401.76 752.05 396.45 764.66 391.6 760.73 389.11 746.43 379.52 748.97 375.03 743.37 372.48 734.91 367.96 733.63 351.61 734.21 345.58 737.22 335.84 735.6 321.7 731.08 323.2 723.2 314.97 724.01 314.62 713.12 311.96 708.83 312.54 704.43 308.71 695.85 309.64 689.94 304.89 684.73 306.74 681.6 307.9 671.86 305.49 666.16 309.75 662.59 319.03 660.27 322.51 652.05 330.74 648.11 336.65 642.89 342.22 644.05 345.12 647.06 356.94 641.5 360.19 636.98 364.36 640.92 372.36 643.35 374.1 631.19 376.77 629.91 360.19 618.55 354.16 616.12 343.73 607.2 349.18 605.23 359.15 598.16 351.38 594.68 359.96 588.65 366.68 587.38 366.68 584.37 373.25 577.86 378.97 579.15 379.2 585.87 399.73 582.28 403.09 576.37 410.16 573.47 414.43 569.94 Z"/>
<path d="M 239.53 214.67 233.24 221.65 230.93 230.76 235.04 232.46 248.8 243.16 247.56 249.08 243.05 253.39 233.84 253.19 225.53 256.79 226.13 259.49 236.24 262.6 237.54 269.61 228.13 271.11 226.93 274.91 228.53 279.32 220.22 282.02 211.5 291.23 217.01 309.15 211.9 316.56 213.41 320.87 217.91 325.37 210.5 335.38 206.58 337.59 199.63 336.8 191.03 341.22 182.99 344.09 176.89 344.27 175.27 352.18 177.82 361.15 174.39 366.51 173.21 374.41 168.23 380.08 165.11 385.81 158.13 383.32 151.59 385 150.97 395.53 153.15 399.95 150.59 406.98 150.28 412.15 147.42 419 137.61 427.5 133.1 420.52 127.33 417.14 124.51 408.48 110.92 383.5 108.74 378.57 94.87 359.57 92.12 353.03 88.74 338.95 86.21 331.63 87.12 324.88 85.64 312.91 89.45 308.06 87.19 289.34 86.7 279.98 89.09 271.81 87.83 267.03 92.4 254.64 88.25 228.18 85.22 217.13 85.93 211.22 92.33 200.8 94.1 187.92 104.13 191.68 106.31 194.21 114.9 196.51 125.31 201.8 128.55 198.09 134.43 197.86 144.97 203.56 153.91 209.74 169.97 210.38 175.33 207.8 182.15 212.27 209.16 211.85 218.33 209.62 228.51 213.62 239.53 214.67 Z"/>
<path d="M 518.69 42.35 525.98 42.26 522.42 31.68 523.64 22.84 534.07 25.21 544.34 34.61 553.5 32 565.02 30.46 565.46 38.93 572.78 53.25 569.5 55.55 570.38 62.98 581.64 79.81 591.92 90.2 597.5 98.73 603.62 99.71 611.82 106.7 624.51 109.77 630.88 113.74 626.54 117.58 617.78 129.57 602.92 164.74 601.44 167.18 587.16 176.79 573.91 194.51 557.84 207.47 552.88 205.3 544.62 198.97 530.99 195.13 520.8 188.02 514.85 183.61 519.08 174.77 512.93 173.81 499.29 174.01 495.64 171.51 486.23 170.36 479.89 169.4 470.28 161.33 462.79 149.62 455.11 143.28 447.62 142.32 448 137.14 461.83 136.56 468.56 133.88 464.52 127.54 466.44 125.24 457.99 115.06 457.8 112.18 453 104.12 451.84 89.48 455.63 87.02 455.36 80.27 457.53 73.52 460.5 70.28 468.6 69.47 471.84 67.04 478.74 65.43 486.71 58.37 496.88 61.3 505.31 51.41 511.95 45.06 512.92 39.51 518.69 42.35 Z"/>
<path d="M 355.91 576.22 356.25 579.96 348.83 580.54 350.1 587.03 345.93 591.2 329.58 594.8 323.09 590.62 316.48 593.87 308.83 591.2 302.92 584.47 299.78 580.77 299.78 576.83 303.26 572.78 303.09 569.08 293.82 553.6 296.49 544.88 295.65 538.08 298.63 532.57 311.79 528.67 310.17 524.63 319.75 526.76 325.25 535.55 346.91 545.2 350.91 549.95 349.75 556.09 353.23 560.61 344.54 562.81 350.57 567.33 351.26 572.55 355.91 576.22 Z"/>
<path d="M 406.48 31.95 405.94 38.7 401.89 45.72 403.51 48.96 402.43 55.43 404.59 59.21 403.24 68.12 408.24 70.62 397.31 71.71 384.67 68.36 375.96 64.71 366.48 64.12 358.13 60.36 344.42 60.36 336.13 58.66 326.48 60.95 320.95 64.77 308.94 67.36 299.06 66.48 296.65 88.41 297.59 99.65 292.82 101.17 284.77 100.78 277.99 101.76 273.29 98.7 263.51 99.97 257.05 90.77 251.05 90.94 246.93 88.82 241.99 91.41 234.93 90.12 229.04 90.71 226.16 87.85 227.93 81.51 236.39 74.32 244.43 70.94 253.32 63.33 277.44 44.72 304.94 35.84 312.13 18.5 323.98 10.88 392.53 10.88 405.78 10.45 406.75 16.29 406.48 31.95 Z"/>
<path d="M 225.46 347.05 227.43 358.15 220.05 367.04 228.39 373.75 223.46 376.34 219.4 384.6 220.09 391.94 224.52 392.7 226.59 400.88 233.24 403.86 239.67 408.45 244.41 409.68 245.48 416.94 273.78 444.84 285.41 444.54 287.17 447.19 290.23 449.2 283.34 457.23 289.85 465.18 298.87 470.61 300.86 479.4 296.65 482.46 294.36 486.82 300.78 493.47 312.41 498.9 324.19 502.34 323.04 505.01 307.59 511.21 305.37 516.33 310.17 524.63 311.79 528.67 298.63 532.57 295.65 538.08 296.49 544.88 293.82 553.6 303.09 569.08 299.2 571.85 287.26 571.39 277.52 569.07 272.77 569.88 268.83 566.63 261.06 552.61 256.07 548.44 244.13 543.11 240.31 544.27 234.86 550.41 231.38 549.83 229.29 556.09 225.46 558.75 224.88 569.3 221.87 570.11 218.86 575.56 216.42 575.67 213.17 582.28 209.93 584.95 210.97 589.23 209.23 600.59 206.8 606.96 196.25 610.67 193 614.96 189.87 622.96 178.97 620.29 174.57 621.68 168.54 628.06 162.86 628.64 156.25 626.73 154.97 619.83 151.84 612.3 144.77 606.39 131.55 599.55 115.09 593.41 111.61 590.62 113.58 582.74 121.81 573.82 121.93 570.23 127.49 568.6 133.41 550.41 137.35 542.18 134.57 535.23 133.17 522.48 134.1 517.85 131.2 508.46 121.01 508.46 123.17 498.63 125.64 492.3 134.51 483.22 137.54 475.9 134.44 465.63 135.49 461.76 135.7 450.78 140 431 137.61 427.5 147.42 419 150.28 412.15 150.59 406.98 153.15 399.95 150.97 395.53 151.59 385 158.13 383.32 165.11 385.81 168.23 380.08 173.21 374.41 174.39 366.51 177.82 361.15 175.27 352.18 176.89 344.27 182.99 344.09 191.03 341.22 199.63 336.8 206.58 337.59 207.3 342.59 214.91 347.2 225.46 347.05 Z"/>
<path d="M 505.31 51.41 496.88 61.3 486.71 58.37 478.74 65.43 471.84 67.04 468.6 69.47 460.5 70.28 457.53 73.52 455.36 80.27 455.63 87.02 451.84 89.48 447.53 89.72 440.51 84.86 436.19 89.45 432.68 87.29 428.9 79.46 422.68 72.71 408.64 70.82 403.24 68.12 404.59 59.21 402.43 55.43 403.51 48.96 401.89 45.72 405.94 38.7 406.48 31.95 406.75 16.29 405.78 10.45 432.73 10.04 451.34 9.19 463.19 7.5 494.81 7.12 498.2 2.97 505.09 1 527.51 3.3 526.63 8.1 531.12 10.73 549.49 11.82 562.83 22.75 564.91 23.52 565.02 30.46 553.5 32 547.28 35.66 544.07 34.38 539.4 28.15 533.81 24.85 523.64 22.84 522.42 31.68 525.84 36.58 525.98 42.26 518.69 42.35 512.92 39.51 511.81 44.59 504.94 40.15 505.31 51.41 Z"/>
<path d="M 509.05 253.41 515.96 253.99 511.67 263.34 509.48 284.12 506.41 300.91 510.68 311.21 513.32 313.43 548.91 328.09 557.84 335.24 565.59 339.09 572.76 340.74 583.97 340.79 602.97 337.92 610.35 337.82 617.61 339.56 625.34 343.35 628.47 346.48 631.35 357.88 629.94 367.43 630.35 382.32 628.29 389.95 629.35 401 626.98 410.02 621.09 419.85 615.67 417.53 590.78 411.98 584.78 409.98 579.45 410.2 570.11 407.98 562.11 407.54 553.22 408.42 531.22 405.98 517.22 408.2 506.11 406.2 489.89 406.2 463.22 402.21 439.22 404.43 430.86 400.06 430.36 391.85 423.24 391.25 417.54 380.43 412.03 376.43 411.02 369.02 405.12 361.01 394.43 366.72 393.9 360.71 385.98 344.39 380.28 341.09 364.65 338.19 353.93 338.19 343.82 336.98 335.5 334.98 327.19 334.88 305.39 332.27 292.63 326.67 300.15 303.75 297.94 298.64 301.05 284.42 307.36 276.51 309.96 269.31 314.47 268.1 321.48 259.99 320.78 252.79 315.37 243.78 303.45 235.87 301.65 229.46 292.63 227.56 290.63 228.96 276.91 224.65 273.3 224.35 273.6 221.25 279.81 213.54 280.91 206.83 290.23 202.03 299.64 202.63 304.05 198.92 295.04 190.21 290.03 177.9 295.84 176.4 301.25 172.69 302.95 166.39 300.75 161.38 302.85 157.28 309.66 158.18 318.78 157.78 329.49 154.57 330.29 151.97 323.72 143.51 331.12 137.87 341.01 139.4 348.72 136.37 361.12 137.75 365.2 144.18 374.3 145.64 378.7 141.5 392.13 142.33 391.43 145.83 393.92 152.01 390.1 154.93 386.21 162.89 383.09 173.33 390.22 177.02 389.97 180.65 401.24 180.59 396.21 187.33 400.73 192.62 396.59 198.22 391.05 203.12 389.84 212.54 404.23 223.11 421.43 229.98 432.13 230.24 436.46 228.64 442.57 229.22 452.63 233.61 462.82 233.42 482.12 239.98 491.86 245.58 502.11 248.38 509.05 253.41 Z"/>
<path d="M 284.77 100.78 288.64 110 293.41 112.58 293.23 115.94 301.59 124.87 303 132.4 312.59 134.93 319.89 141.99 323.72 143.51 330.29 151.97 329.49 154.57 318.78 157.78 309.66 158.18 302.85 157.28 300.75 161.38 302.95 166.39 301.25 172.69 295.84 176.4 290.03 177.9 295.04 190.21 304.05 198.92 299.64 202.63 290.23 202.03 280.91 206.83 279.81 213.54 273.6 221.25 273.3 224.35 265.59 229.56 260.38 229.96 256.48 237.97 248.8 243.16 235.04 232.46 230.93 230.76 233.24 221.65 239.53 214.67 242.05 211.38 244.4 200.21 247.46 197.45 242.16 193.04 246.87 186.39 251.99 173.1 254.58 172.22 256.05 166.04 262.29 159.81 261.34 149.81 258.93 145.05 267.4 145.69 276.58 138.28 272.52 133.58 272.35 127.99 274.99 120.23 271.35 111.41 262.76 101.88 263.51 99.97 273.29 98.7 277.99 101.76 284.77 100.78 Z"/>
<path d="M 360.43 502.41 358.33 510.54 361.35 516.22 352.07 524.34 349.29 529.43 349.75 534.77 346.97 540.1 346.91 545.2 325.25 535.55 319.75 526.76 310.17 524.63 305.37 516.33 307.59 511.21 323.04 505.01 324.19 502.34 312.41 498.9 300.78 493.47 294.36 486.82 296.65 482.46 300.86 479.4 298.87 470.61 289.85 465.18 283.34 457.23 290.23 449.2 287.17 447.19 296.88 442.17 303.54 430.85 308.36 427.49 312.87 429.02 319.21 434.28 322.2 436.82 331.15 435.67 333.67 437.5 327.78 449.51 326.41 461.13 331.23 467.78 329.62 474.28 338.03 478.1 338.26 483.84 342.32 491.33 352.64 499.36 360.43 502.41 Z"/>
<path d="M 450.82 523.39 450.74 528.85 452.83 536.39 452.71 541.72 465 551.8 474.51 557.48 478.91 565.24 485.06 570.23 485.18 581.93 490.16 598.39 492.6 602.44 491.55 612.76 499.55 623.42 503.03 625.74 504.42 630.72 505.12 643.35 506.67 644.08 499.14 649.58 492.54 650.27 489.41 653.86 479.45 658.62 473.93 653.55 478.68 644.86 477.99 639.76 471.73 631.07 462.22 630.14 450.97 631.3 447.73 625.62 443.9 624.46 443.32 620.06 436.48 614.85 435.67 610.67 421.99 603.84 416.89 599.43 414.43 569.94 413.18 551.34 402.28 535 399.73 526.88 403.09 508.57 402.86 504.05 399.15 498.49 399.03 492.81 404.25 491.65 405.87 488.53 419.67 498.03 419.9 495.01 425.7 492.12 443.32 498.72 445.18 506.6 449.47 510.08 450.82 523.39 Z"/>
<path d="M 273.3 224.35 276.91 224.65 290.63 228.96 292.63 227.56 301.65 229.46 303.45 235.87 315.37 243.78 320.78 252.79 321.48 259.99 314.47 268.1 309.96 269.31 307.36 276.51 301.05 284.42 297.94 298.64 300.15 303.75 292.63 326.67 305.39 332.27 288.63 334.18 282.32 337.99 270.8 337.99 261.68 341.59 256.27 342.09 247.26 336.98 241.45 342.69 233.64 340.89 230.43 345.79 225.46 347.05 214.91 347.2 207.3 342.59 206.58 337.59 210.5 335.38 217.91 325.37 213.41 320.87 211.9 316.56 217.01 309.15 211.5 291.23 220.22 282.02 228.53 279.32 226.93 274.91 228.13 271.11 237.54 269.61 236.24 262.6 226.13 259.49 225.53 256.79 233.84 253.19 243.05 253.39 247.56 249.08 248.8 243.16 256.48 237.97 260.38 229.96 265.59 229.56 273.3 224.35 Z"/>
<path d="M 263.51 99.97 262.76 101.88 271.35 111.41 274.99 120.23 272.35 127.99 272.52 133.58 276.58 138.28 267.4 145.69 258.93 145.05 261.34 149.81 262.29 159.81 256.05 166.04 254.58 172.22 251.99 173.1 246.87 186.39 242.16 193.04 247.46 197.45 244.4 200.21 242.05 211.38 239.53 214.67 228.51 213.62 218.33 209.62 209.16 211.85 182.15 212.27 175.33 207.8 169.97 210.38 153.91 209.74 144.97 203.56 134.43 197.86 128.55 198.09 125.31 201.8 114.9 196.51 106.31 194.21 104.13 191.68 94.1 187.92 94.94 173.64 96.28 169.98 103.11 164.91 108.25 148.79 122.26 138.03 126.55 131.2 127.11 122.97 131.9 111 133.24 103.82 138.17 106.71 160.23 104.78 180.96 99.28 194.93 98.43 203.39 96.74 203.81 91.24 218.2 87.01 226.16 87.85 229.04 90.71 234.93 90.12 241.99 91.41 246.93 88.82 251.05 90.94 257.05 90.77 263.51 99.97 Z"/>
<path d="M 615.67 417.53 621.09 419.85 615.36 427.34 612.89 434.32 614.83 450.92 617.57 458.23 624.42 468.16 638.28 481.33 629.06 485.63 614.57 485.86 596.94 493.62 593.93 493.39 586.16 487.48 575.03 499.42 561.23 506.49 558.1 514.6 549.18 525.38 542.57 528.04 539.67 531.64 533.64 530.71 532.36 535.23 522.86 533.49 520.31 522.25 512.89 520.97 500.02 526.07 479.96 521.32 473.58 525.15 450.82 523.39 449.47 510.08 445.18 506.6 443.32 498.72 425.7 492.12 419.9 495.01 419.67 498.03 405.87 488.53 404.25 491.65 399.03 492.81 399.15 498.49 396.6 498.61 391.61 494.2 386.28 491.65 373.52 488.41 371.32 493.97 365.18 492.93 362.51 501.16 360.43 502.41 352.64 499.36 342.32 491.33 338.26 483.84 338.03 478.1 329.62 474.28 331.23 467.78 326.41 461.13 327.78 449.51 333.67 437.5 331.15 435.67 322.2 436.82 319.21 434.28 325.21 432.21 325.21 429.76 319.35 417.28 313.55 417.28 313.23 410.14 326.75 405.31 328.55 398.23 340.47 406.72 339.18 409.94 349.03 413.8 352.7 409.75 356.24 414.7 360.81 407.24 354.57 395.27 356.05 391.41 365.45 389.93 366.73 385.04 373.3 384.52 374.52 388.13 385.99 380.6 391.46 373.65 394.43 366.72 405.12 361.01 411.02 369.02 412.03 376.43 417.54 380.43 423.24 391.25 430.36 391.85 430.86 400.06 439.22 404.43 463.22 402.21 489.89 406.2 506.11 406.2 517.22 408.2 531.22 405.98 553.22 408.42 562.11 407.54 570.11 407.98 579.45 410.2 584.78 409.98 590.78 411.98 615.67 417.53 Z"/>
<path d="M 394.43 366.72 391.46 373.65 385.99 380.6 374.52 388.13 373.3 384.52 366.73 385.04 365.45 389.93 356.05 391.41 354.57 395.27 360.81 407.24 356.24 414.7 352.7 409.75 349.03 413.8 339.18 409.94 340.47 406.72 328.55 398.23 326.75 405.31 313.23 410.14 313.55 417.28 319.35 417.28 325.21 429.76 325.21 432.21 319.21 434.28 312.87 429.02 308.36 427.49 303.54 430.85 296.88 442.17 287.17 447.19 285.41 444.54 273.78 444.84 245.48 416.94 244.41 409.68 239.67 408.45 233.24 403.86 226.59 400.88 224.52 392.7 220.09 391.94 219.4 384.6 223.46 376.34 228.39 373.75 220.05 367.04 227.43 358.15 225.46 347.05 230.43 345.79 233.64 340.89 241.45 342.69 247.26 336.98 256.27 342.09 261.68 341.59 270.8 337.99 282.32 337.99 288.63 334.18 305.39 332.27 327.19 334.88 335.5 334.98 343.82 336.98 353.93 338.19 364.65 338.19 380.28 341.09 385.98 344.39 393.9 360.71 394.43 366.72 Z"/>
<path d="M 408.24 70.62 422.68 72.71 428.9 79.46 430.57 82.92 427.38 84.71 422.97 91.24 416.67 91.47 410.44 96.53 402.37 98.76 401.49 104 394.61 108.88 396.31 113.05 394.55 115.88 385.61 124.11 378.08 125.4 370.31 121.93 361.66 124.87 361.9 128.4 358.6 131.64 352.07 132.52 348.72 136.37 341.01 139.4 331.12 137.87 323.72 143.51 319.89 141.99 312.59 134.93 303 132.4 301.59 124.87 293.23 115.94 293.41 112.58 288.64 110 284.77 100.78 292.82 101.17 297.59 99.65 296.65 88.41 299.06 66.48 308.94 67.36 320.95 64.77 326.48 60.95 336.13 58.66 344.42 60.36 358.13 60.36 366.48 64.12 375.96 64.71 384.67 68.36 397.31 71.71 408.24 70.62 Z"/>
<path d="M 457.99 115.06 466.44 125.24 464.52 127.54 468.56 133.88 461.83 136.56 448 137.14 447.62 142.32 455.11 143.28 462.79 149.62 470.28 161.33 479.89 169.4 486.23 170.36 495.64 171.51 499.29 174.01 512.93 173.81 519.08 174.77 514.85 183.61 520.8 188.02 530.99 195.13 544.62 198.97 552.88 205.3 557.84 207.47 538.93 221.5 524.78 234.6 520.95 241.65 515.96 253.99 509.05 253.41 502.11 248.38 491.86 245.58 482.12 239.98 462.82 233.42 452.63 233.61 442.57 229.22 436.46 228.64 432.13 230.24 421.43 229.98 404.23 223.11 389.84 212.54 391.05 203.12 396.59 198.22 400.73 192.62 396.21 187.33 401.24 180.59 389.97 180.65 390.22 177.02 383.09 173.33 386.21 162.89 390.1 154.93 393.92 152.01 391.43 145.83 392.13 142.33 378.7 141.5 374.3 145.64 365.2 144.18 361.12 137.75 348.72 136.37 352.07 132.52 358.6 131.64 361.9 128.4 361.66 124.87 370.31 121.93 378.08 125.4 385.61 124.11 394.55 115.88 396.31 113.05 394.61 108.88 401.49 104 402.37 98.76 410.44 96.53 416.67 91.47 422.97 91.24 427.38 84.71 430.57 82.92 436.19 89.45 440.51 84.86 451.65 93.56 453 104.12 457.8 112.18 457.99 115.06 Z"/>
<path d="M 399.15 498.49 402.86 504.05 403.09 508.57 399.73 526.88 402.28 535 413.18 551.34 414.43 569.94 410.16 573.47 403.09 576.37 399.73 582.28 379.2 585.87 378.97 579.15 373.25 577.86 367.7 572.14 360.05 572.52 355.91 576.22 351.26 572.55 350.57 567.33 344.54 562.81 353.23 560.61 349.75 556.09 350.91 549.95 346.91 545.2 346.97 540.1 349.75 534.77 349.29 529.43 352.07 524.34 361.35 516.22 358.33 510.54 360.43 502.41 362.51 501.16 365.18 492.93 371.32 493.97 373.52 488.41 386.28 491.65 391.61 494.2 396.6 498.61 399.15 498.49 Z"/>
<path d="M 305.49 666.16 301.41 660.51 295.03 657.38 295.15 653.2 291.2 650.77 290.62 642.31 293.52 636.63 297.12 634.08 287.84 624.93 287.49 619.71 289 608.36 291.44 600.94 303.38 600.13 304.54 593.98 301.29 588.42 302.92 584.47 308.83 591.2 316.48 593.87 323.09 590.62 329.58 594.8 345.93 591.2 350.1 587.03 348.83 580.54 356.25 579.96 355.91 576.22 360.05 572.52 367.7 572.14 373.25 577.86 366.68 584.37 366.68 587.38 359.96 588.65 351.38 594.68 359.15 598.16 349.18 605.23 343.73 607.2 354.16 616.12 360.19 618.55 376.77 629.91 374.1 631.19 372.36 643.35 364.36 640.92 360.19 636.98 356.94 641.5 345.12 647.06 342.22 644.05 336.65 642.89 330.74 648.11 322.51 652.05 319.03 660.27 309.75 662.59 305.49 666.16 Z"/>
<path d="M 434.59 753.95 430.11 743.58 433.93 721 438.57 718.92 444.82 711.39 454.9 705.37 459.64 697.5 455.71 694.38 456.98 690.67 465.09 685.93 459.64 679.79 463.23 676.32 471.11 672.73 466.25 670.65 469.37 666.36 476.09 662.54 479.45 658.62 489.41 653.86 492.54 650.27 499.14 649.58 506.67 644.08 512.11 639.27 524.62 625.96 526.93 620.87 534.11 615.08 541.64 620.98 546.39 623.3 552.18 622.02 551.02 612.53 552.41 604.43 542.22 598.99 542.45 595.98 552.99 592.74 578.01 579.89 581.02 579.77 594.92 586.6 605.69 587.18 612.87 585.21 618.43 586.83 623.41 585.56 627.81 582.2 636.61 582.66 639.04 580.47 648.19 581.74 652.94 574.91 652.59 561.83 649.58 557.2 656.53 553.96 651.43 547.36 646.34 550.6 639.74 545.51 641.71 541.8 648.89 534.62 647.84 529.76 649.35 524.55 642.86 522.82 635.92 526.98 628.97 525.59 638.58 518.42 633.83 515.64 628.04 517.72 620.98 517.72 627.46 505.22 633.6 502.33 646 494.29 647.68 496.2 665.39 501.56 684.94 500.1 692.49 500.26 706.46 494.92 712.74 495.47 717.87 500.68 718.53 505.1 717.27 514.93 717.09 524.91 718.17 533.7 717.36 552.45 730.08 564.97 732.82 574.61 755.79 597.04 762.34 625.5 770.29 643.17 776.3 650.87 782.86 661.17 787.18 671.1 792.34 677.76 788.58 683.25 780.71 686.36 775.09 693.85 774.93 703.3 776.77 710.37 775.89 714.54 777.11 721.37 780.6 724.14 796.14 724.17 799 726.42 796.89 730.32 791.37 731.63 785.93 736.85 779.46 738.58 773.56 736.62 769.11 739.96 754.27 747.04 753.03 750.73 757.85 752.64 758.08 755.58 750.87 757.31 742.32 761.71 728.06 762.04 715.47 761.29 704.45 758.58 700.68 754.18 703.43 750.53 698.71 737.51 702.32 735.74 704.39 728 701.12 726.47 680.56 732.41 664.62 738.39 651.52 740.81 640.84 744.85 625.38 747.82 618.18 750.62 612.33 762.97 607.26 768.7 602.84 771.23 582.88 772.15 567.37 771.57 549.39 770.2 541.65 764.85 525.39 750.29 510.07 754.52 505.34 754.67 497.11 752.63 484.68 753.96 475.46 752.08 469.15 753.48 454 759.39 436.68 753.44 434.59 753.95 Z"/>
<path d="M 646 494.29 633.6 502.33 627.46 505.22 620.98 517.72 628.04 517.72 633.83 515.64 638.58 518.42 628.97 525.59 635.92 526.98 642.86 522.82 649.35 524.55 647.84 529.76 648.89 534.62 641.71 541.8 639.74 545.51 646.34 550.6 651.43 547.36 656.53 553.96 649.58 557.2 652.59 561.83 652.94 574.91 648.19 581.74 639.04 580.47 636.61 582.66 627.81 582.2 623.41 585.56 618.43 586.83 612.87 585.21 605.69 587.18 594.92 586.6 581.02 579.77 578.01 579.89 552.99 592.74 542.45 595.98 542.22 598.99 552.41 604.43 551.02 612.53 552.18 622.02 546.39 623.3 541.64 620.98 534.11 615.08 526.93 620.87 524.62 625.96 512.11 639.27 506.67 644.08 505.12 643.35 504.42 630.72 503.03 625.74 499.55 623.42 491.55 612.76 492.6 602.44 490.16 598.39 485.18 581.93 485.06 570.23 478.91 565.24 474.51 557.48 465 551.8 452.71 541.72 452.83 536.39 450.74 528.85 450.82 523.39 473.58 525.15 479.96 521.32 500.02 526.07 512.89 520.97 520.31 522.25 522.86 533.49 532.36 535.23 533.64 530.71 539.67 531.64 542.57 528.04 549.18 525.38 558.1 514.6 561.23 506.49 575.03 499.42 586.16 487.48 593.93 493.39 596.94 493.62 614.57 485.86 629.06 485.63 638.28 481.33 643.92 489.22 646 494.29 Z"/>
<path d="M 156.25 626.73 157.99 638.83 166.68 655.64 166.68 660.51 160.88 660.62 154.62 658.77 143.38 651.35 141.52 651.81 142.42 661.98 138.81 663.55 130.21 661.71 123.08 663.8 112.21 660.48 107.57 661.57 105.22 658.03 100.68 656.7 95.87 661.81 90.81 659.86 86.26 662.37 80.88 662.33 79.83 666.43 73.32 663.12 67.96 657.79 56.54 654.29 54.96 647.86 47.53 650.77 40.07 648.96 33.7 649.9 31.52 652.29 22.7 652.24 19.7 650.94 8.36 654.57 1 653.51 2.46 649.69 8.73 644.09 9.18 640.28 14.85 637.45 21.85 631.43 41.57 622 48.05 621.16 52.48 617.78 62.48 607.79 65.37 603 64.87 594.56 70.86 585.62 78.89 580.2 88.32 567.67 88.88 558.52 92.47 553.32 92.12 542.34 96.56 539.31 98.11 535.79 107.54 529.18 110.29 520.66 116.13 518.69 121.01 508.46 131.2 508.46 134.1 517.85 133.17 522.48 134.57 535.23 137.35 542.18 133.41 550.41 127.49 568.6 121.93 570.23 121.81 573.82 113.58 582.74 111.61 590.62 115.09 593.41 131.55 599.55 144.77 606.39 151.84 612.3 154.97 619.83 156.25 626.73 Z"/>
<path d="M 249.12 545.31 256.07 548.44 261.06 552.61 268.83 566.63 272.77 569.88 277.52 569.07 287.26 571.39 299.2 571.85 299.78 580.77 302.92 584.47 301.29 588.42 304.54 593.98 303.38 600.13 291.44 600.94 289 608.36 287.49 619.71 287.84 624.93 297.12 634.08 293.52 636.63 290.62 642.31 291.2 650.77 295.15 653.2 295.03 657.38 301.41 660.51 307.9 671.86 306.74 681.6 304.89 684.73 309.64 689.94 308.71 695.85 312.54 704.43 311.96 708.83 314.62 713.12 314.97 724.01 323.2 723.2 321.7 731.08 335.84 735.6 345.58 737.22 351.61 734.21 367.96 733.63 372.48 734.91 378 752.01 377.19 795.05 375.35 808.2 343 808.02 309.94 809.1 306.99 813.56 298.06 818.84 290.16 818.28 292.4 822.07 287.34 823.21 286.22 827.54 282.38 826.53 278.56 835.23 280.82 845.39 277.49 849.98 275.76 859.38 272.05 865 267.78 857.81 255.89 852.15 249.06 854.97 247.3 848.77 249.2 842.95 234.49 838.86 224.48 832.58 219.3 831.02 215.1 826.86 212.86 830.18 205.97 829.46 206.81 833.12 199.33 832.46 190.44 827.23 189.19 822.55 184.49 822.57 179.34 827.38 174.81 822.55 160.04 820.47 158.1 815.67 151.16 817.57 150.78 812.79 142.5 808.95 139.46 803.28 136.09 802.97 131.74 799.04 133.51 795.24 123.55 785.9 122.49 779.15 119.92 776.01 119.17 770.31 116.01 763.65 118.36 762.51 113.94 754.57 113.58 743.71 110.55 733.32 104.52 718.64 94.15 700.45 88.58 694.92 87.28 688.34 82.08 676.8 83.4 668.25 92.56 665.76 103.61 658.61 106.9 662.22 111.59 661.21 124.1 665.86 131.12 662.94 139.33 664.28 142.42 661.98 141.52 651.81 143.38 651.35 154.62 658.77 160.88 660.62 166.68 660.51 166.68 655.64 157.99 638.83 156.25 626.73 162.86 628.64 168.54 628.06 174.57 621.68 178.97 620.29 189.87 622.96 193 614.96 196.25 610.67 206.8 606.96 209.23 600.59 210.97 589.23 209.93 584.95 213.17 582.28 216.42 575.67 218.86 575.56 221.87 570.11 224.88 569.3 225.46 558.75 229.29 556.09 231.38 549.83 234.86 550.41 240.31 544.27 244.13 543.11 249.12 545.31 Z"/>
</g>
</svg>